<svg xmlns="http://www.w3.org/2000/svg" version="1.0" viewBox="0 0 601 500"><path fill="#FFF" fill-opacity=".33" d="M244.4 18c0 10.2.2 14.3.3 9.2.2-5 .2-13.4 0-18.5-.1-5-.3-.9-.3 9.3zm255.9 232c0 3.6.2 5 .4 3.2.2-1.7.2-4.7 0-6.5-.2-1.7-.4-.3-.4 3.3zM244.4 482c0 10.2.2 14.3.3 9.2.2-5 .2-13.4 0-18.5-.1-5-.3-.9-.3 9.3z"/><path fill="#FFF" d="M245 17.5V35h10V0h-10v17.5zM223.7 1.8l-4.8.3.5 4.2c.9 6.9 2.6 22.9 2.8 26.9l.2 3.7 5-.6c2.8-.3 5.1-.6 5.2-.7.2-.2-3.6-33.9-3.8-34-.2-.1-2.5 0-5.1.2zm-26.8 4.4-3.5.9 3.5 16.7c1.9 9.2 3.5 16.8 3.5 16.9.1.1 2.5-.4 5.4-1.1 2.9-.6 5.1-1.4 4.8-1.7-.3-.3-1.9-7-3.6-14.9-1.7-8-3.3-15.3-3.6-16.3-.6-1.9-1.2-1.9-6.5-.5zm-24 6.6-4.6 1.4 5.2 16.2c2.9 8.8 5.6 16.1 6.1 16.1 2.3-.1 7.4-1.8 7.9-2.6.5-.7-9.1-32-9.8-32.5-.1 0-2.3.6-4.8 1.4zm-24.6 9.3-4.2 1.9 1.8 4.3c6.3 14.5 11.3 25.3 12.1 26.1.8.8 9-2 9-3.1 0-.2-2.9-6.9-6.5-14.8-3.6-8-6.5-15-6.5-15.5 0-1.3-.7-1.2-5.7 1.1zm-23.5 12.2-3.7 2.2 8 14c4.4 7.7 8.4 14.4 8.8 14.8.6.6 4.6-1.1 8.9-3.8.5-.4-16.6-28.9-17.4-29.2-.5-.2-2.6.7-4.6 2zm-21.4 13.9-4.2 3 5.7 7.7c3.1 4.2 7.7 10.4 10.2 13.8l4.6 6.2 3.6-2.6c2-1.4 3.7-3 3.7-3.4 0-.5-4.3-6.8-9.7-14.1-5.3-7.3-9.6-13.4-9.7-13.5-.1 0-2 1.2-4.2 2.9zM82.5 65l-2.9 3 2 2.2c1.1 1.3 6.3 7.1 11.6 12.9l9.6 10.6 3.5-3.5 3.5-3.5-11.1-12.3C92.5 67.6 87 62 86.4 62c-.5 0-2.3 1.3-3.9 3zM64.6 82.9c-1.6 1.6-2.7 3.4-2.5 3.9.2.6 5.9 6 12.5 12l12.1 11 3.6-3.6 3.5-3.7-12.3-11c-6.7-6-12.7-11.1-13.2-11.2-.5-.2-2.2 1-3.7 2.6zm-16.3 20.4-3 4.1 13.5 9.8c7.4 5.4 13.8 9.8 14.2 9.8.7 0 4.8-5.3 5.2-6.8.2-.5-4.2-4.2-9.7-8.2-5.5-4-11.6-8.5-13.6-10.1l-3.6-2.8-3 4.2zm-14.4 22-2.5 4.2 15 8.7 15 8.7 2.3-4.1c1.3-2.2 2.3-4.2 2.3-4.3 0-.4-13.8-8.6-24-14.3l-5.6-3.1-2.5 4.2zm-11.7 23c-1.1 2.3-1.7 4.5-1.3 4.8.8.9 30.3 14 30.6 13.7 1-1.2 3.5-7 3.5-8s-17.9-9.6-29.1-14c-1.5-.6-2.2.1-3.7 3.5zm438.8 2.4c-8 3.5-14.9 6.8-15.3 7.2-.6.6.8 5 2.9 8.9.2.4 29.8-12.8 30.7-13.7.7-.7-2.7-9.3-3.6-9-.1 0-6.7 3-14.7 6.6zM12.7 172.8l-1.3 4.7 13.5 4.6c19.4 6.5 18.9 6.4 20.1 3.4 2.6-6.8 2.5-6.9-3.7-8.7-3.2-1-10.6-3.3-16.5-5.2l-10.7-3.4-1.4 4.6zm465.8-2.1c-3.8 1.3-11 3.5-16 5-4.9 1.5-9.1 2.7-9.2 2.8-.1.1.5 2.3 1.3 5.1l1.6 4.9 15.7-5.2c8.6-2.9 15.9-5.4 16.3-5.5.7-.3-1.2-8.2-2.2-9.1-.3-.2-3.6.6-7.5 2zM6 197.8c-.6 2.4-.9 4.7-.6 4.9.4.4 31.3 7.3 32.7 7.3.4 0 1-1.6 1.3-3.6.4-1.9.9-4.1 1.2-4.8.3-.9-.8-1.5-3.3-2-2.1-.3-9.7-1.9-17-3.5l-13.1-2.8-1.2 4.5zm470.2-1-16.4 3.6.7 4c.3 2.3 1 4.4 1.4 4.9.4.4 7.2-.6 15.2-2.3 19.9-4.3 18.2-3.5 17.4-8.3-.4-2.3-1-4.5-1.4-4.8-.3-.3-8 1-16.9 2.9zM1.8 223.6c-.3 2.7-.4 5-.4 5.1.1.1 7.9 1 17.4 2l17.2 1.9v-3.1c0-1.6.3-3.9.6-5.1.5-1.9-.1-2.1-12.8-3.3-7.3-.6-15.2-1.5-17.4-1.8l-4.2-.5-.4 4.8zm477-2.8-14.8 1.6v4.3c0 3 .5 4.5 1.6 5 1.4.5 32.4-2.4 33.2-3.2.2-.2 0-2.4-.3-4.9-.6-3.9-1.1-4.6-2.9-4.5-1.1.1-8.7.9-16.8 1.7zM0 250v5h35v-10H0v5zm465 0v5h35v-10h-35v5zM25 268.6c-5.8.6-13.5 1.5-17.1 1.8l-6.6.7.5 4.7c.2 2.6.6 4.8.7 5 .2.2 33.6-2.9 34.2-3.2.1-.1-.2-2.4-.5-5.1l-.7-5-10.5 1.1zm439.7.1c-.4.3-.7 2.5-.7 4.8v4.1l13.3 1.3c7.2.7 14.8 1.5 16.8 1.8l3.6.5.7-4.7c.4-2.6.6-4.8.4-5-.4-.4-27.8-3.5-31.1-3.5-1.3 0-2.7.3-3 .7zm-444 24.8c-8.2 1.8-15.1 3.5-15.3 3.8-.3.3 0 2.5.8 5l1.3 4.4 16.5-3.5c9.1-1.9 16.6-3.5 16.7-3.6.1-.1-.4-2.2-1-4.9-.7-3.3-1.5-4.7-2.6-4.6-.9.1-8.3 1.6-16.4 3.4zm440.8-2.1c-.3.9-.7 2.2-.9 3-.4 1.1.4 1 3.9-.3 5.2-2 6.6-3.1 3.9-3.1-1 0-2.9-.3-4.1-.6-1.6-.4-2.4-.1-2.8 1zM26.9 317.3l-15.5 5.2 1.3 4.7 1.4 4.6 10.7-3.4c5.9-1.9 13.3-4.2 16.5-5.2 5.1-1.5 5.7-1.9 5.2-3.9-1-4-2.4-7.3-3.2-7.3-.5 0-7.8 2.4-16.4 5.3zM41 337.5c-5.2 2.5-12.1 5.6-15.2 6.9l-5.7 2.5 1.9 4.3c1.1 2.4 2.5 4.2 3.2 4 4.2-.9 29.8-12.9 29.8-13.9 0-1.6-3.2-8.3-3.9-8.2-.3 0-4.9 2-10.1 4.4zm5.4 24.3-15.1 8.7 2.6 4.2 2.7 4.3 13.9-8.1c7.7-4.4 14.4-8.4 14.8-8.8.4-.4-.3-2.6-1.6-4.9l-2.3-4.1-15 8.7zm12.4 21-13.5 9.8 2.9 4.1 3 4.1 13.7-10c7.5-5.6 13.5-10.5 13.3-11-.4-1.5-4.5-6.8-5.2-6.8-.4 0-6.8 4.4-14.2 9.8zm15.7 18.4c-6.6 6-12.2 11.4-12.4 12-.3 1 4.7 6.8 5.9 6.8.6 0 6.7-5.3 20.7-18l5.2-4.7-3.7-3.6-3.7-3.5-12 11zM94 415.8c-4.7 5.2-9.8 11-11.4 12.9l-2.9 3.4 2.9 3c1.5 1.6 3.3 2.9 3.8 2.9.6 0 6.1-5.6 12.3-12.4l11.1-12.3-3.6-3.5-3.7-3.5-8.5 9.5zm299.8-5.8-3.7 3.1 5.7 6.2c13.2 14.2 14.5 15.4 12.9 12.2-.8-1.7-2.9-7.3-4.6-12.5-3.1-9-4.6-12-6-12-.4 0-2.3 1.4-4.3 3zM115 427.4c-2.4 3.3-7 9.5-10.1 13.8l-5.7 7.6 4.1 3 4.2 3 9.5-13.1c5.2-7.2 9.7-13.5 9.9-14 .2-.6-.7-1.8-2-2.9-5.1-4-5.1-4-9.9 2.6zm262.2-3.9c-4.8 3.3-4.7 3.3-2.5 6.3 1.1 1.5 5.6 7.7 10 13.9l8.1 11.2 4.1-3 4-3-8.2-11.3c-4.5-6.2-9.1-12.4-10.2-13.8l-2-2.7-3.3 2.4zm-243 17.2c-2.2 3.8-6 10.4-8.5 14.8l-4.6 8 3.7 2.2c2 1.3 4.1 2.2 4.6 2 .8-.3 17.9-28.8 17.4-29.2-1.8-1.1-8-4.5-8.3-4.5-.2 0-2.2 3-4.3 6.7zm223.6-4.6c-2.1 1.1-3.8 2.3-3.8 2.7 0 .4 3.7 7.3 8.3 15.4l8.4 14.6 3.9-2.4c2.1-1.3 3.9-2.8 3.9-3.2 0-1.2-15.9-29.1-16.5-29.1-.3 0-2.2.9-4.2 2zm-20 10.3-4.8 2.1 7 15.5c3.9 8.5 7 15.6 7 15.7 0 .4 7.5-2.9 8.3-3.6.4-.4-2.1-7.2-5.6-15.2-3.5-7.9-6.6-14.9-6.8-15.5-.3-.7-2.1-.3-5.1 1zm-180.7.4c-.9 1.7-6.5 14.2-11.2 24.9l-1.8 4.2 4.6 2.1c5.3 2.3 5.3 2.3 5.3 1 0-.5 3-7.5 6.6-15.6 3.6-8 6.4-14.7 6.2-14.9-1-.8-6.9-3.5-7.7-3.5-.6 0-1.5.8-2 1.8zm21.4 7.4c-.3.7-2.7 8.1-5.3 16.4l-4.9 15.1 4.7 1.5 4.7 1.5 5.2-15.7c2.8-8.6 5.1-16 5.1-16.4 0-.3-1-1-2.2-1.5-5.6-2.1-6.8-2.2-7.3-.9zm137.7.5c-2.4.8-4.1 2-3.9 2.7.2.6 2.6 7.8 5.3 16.1 2.6 8.2 4.8 15.1 4.9 15.2.5.9 9.5-3.1 9.2-4.1-.3-.6-2.6-8-5.3-16.4-2.7-8.3-5.1-15.2-5.4-15.1-.3 0-2.4.7-4.8 1.6zM197 475.9l-3.6 17 4.5 1.1c3.2.8 4.6.8 5.1 0 .4-.6 2-7.3 3.5-14.8 1.6-7.5 3.2-14.7 3.6-15.8.7-1.9.3-2.2-3.1-2.8-2.1-.3-4.4-.8-5.2-1.1-1-.4-2.2 3.7-4.8 16.4zm98-15.6c-2.5.5-4.6 1-4.7 1.1-.3.3 6.7 32.9 7.1 33.4.4.3 8.6-1.4 9.1-2 .3-.3-6-31.3-6.7-32.8-.2-.3-2.3-.2-4.8.3zm-72.8 6.6c-.2 3.8-1.9 19.9-2.8 26.8l-.5 4.1 5.1.4c2.9.2 5-.1 5.1-.7 0-.6.8-8.2 1.8-17s1.8-16.1 1.7-16.1c-.1-.1-2.4-.4-5.2-.6l-5-.5-.2 3.6zm49.5-3.2c-2.6.2-4.6.7-4.3 1.1.2.4 1.2 8.3 2.2 17.5 1.4 13.7 2 16.7 3.1 16.2.8-.3 3.2-.5 5.3-.5h3.7l-.7-4.3c-.4-2.3-1.3-10.2-2-17.5-.8-7.2-1.6-13.1-1.9-13-.3.1-2.7.3-5.4.5zM245 482.5V500h10v-35h-10v17.5z"/><path fill="#FEFEFE" fill-opacity=".65" d="M255.4 17.5c0 9.9.2 13.8.3 8.7.2-5.1.2-13.2 0-18-.1-4.8-.3-.6-.3 9.3zm0 465c0 9.9.2 13.8.3 8.7.2-5.1.2-13.2 0-18-.1-4.8-.3-.6-.3 9.3z"/><path fill="#421B43" d="M269.6 17.7c-1 9.2-2 17.1-2.3 17.5-.2.5 1.4.8 3.6.8 2.1 0 4.6.2 5.4.5 1.1.5 1.6-2 2.6-12.7.8-7.3 1.7-15.2 2.1-17.6l.7-4.2H278c-2.1 0-4.5-.2-5.3-.5-1.1-.5-1.7 2.5-3.1 16.2zm27-10c-.3 1.5-1.9 9.1-3.6 16.7-1.6 7.7-2.9 14-2.7 14.2.1.1 2.3.6 4.8 1.1l4.7 1 3.2-15.1c1.7-8.3 3.4-15.9 3.6-16.8.5-1.7-.3-2.1-6.3-3.3-2.8-.6-3.2-.4-3.7 2.2zm21 18.6c-2.7 8.3-5 15.7-5.3 16.3-.3 1 8.6 5 9.2 4.1.1-.1 2.3-6.8 4.9-14.9 2.5-8.1 4.9-15.4 5.2-16.1.4-1-.9-2-4.2-3.1-2.6-.9-4.8-1.6-4.8-1.6-.1 0-2.3 6.9-5 15.3zm23.8 6.5c-3.1 7-6.3 14.1-7 15.8l-1.3 3.2 4.9 2c2.8 1.2 5 1.7 5 1.2 0-.6 2.9-7.6 6.5-15.7 3.6-8 6.2-15 5.8-15.4-.5-.4-2.5-1.4-4.5-2.2l-3.6-1.5-5.8 12.6zm21.1 12.6c-4.4 7.7-8.1 14.6-8.3 15.1-.2 1 7.6 6.1 8.2 5.4 3.3-4.7 16.5-29.4 15.9-29.9-.4-.4-2.4-1.6-4.3-2.7l-3.5-2.1-8 14.2zm29.2.9c-.3.6-4.4 6.6-9.2 13.1-4.8 6.5-8.9 12.4-9.1 13.1-.3.6 1.3 2.3 3.4 3.8l3.9 2.6 10.1-13.7 10-13.7-2.6-2.3c-4.1-3.5-5.9-4.4-6.5-2.9zm13.6 24c-4.5 5.1-9.8 10.9-11.7 12.9l-3.5 3.8 3.7 3c2 1.7 3.9 2.9 4.3 2.8.3-.2 5.6-5.7 11.7-12.4l11.1-12.1-3.7-3.6-3.7-3.6-8.2 9.2zm13.9 20.8L407 102.2l2 2.7c3.9 5.6 3.7 5.7 17.3-6.7l12.8-11.5-3.2-3.3c-1.8-1.9-3.5-3.4-3.8-3.4-.4 0-6.1 5-12.9 11.1zm15.6 18.7-13.5 9.8 2.9 4.1 3 4.1 13.7-10c7.5-5.6 13.5-10.5 13.3-11.1-.5-1.8-4.3-6.7-5.1-6.7-.5 0-6.9 4.4-14.3 9.8zm14.2 19.7c-8.3 4.9-14.4 9-14.2 9.7.2.7 1.2 2.7 2.3 4.4l1.9 3.2 14.9-8.6 15-8.6-1.4-2.5c-3.5-6.7-2.7-6.8-18.5 2.4zm-182 3.6c-12.7 2.1-24.4 10.9-29.6 22.2l-2.9 6.2v75l2.9 6.2c7.6 16.5 27 25.6 48.1 22.4 18.6-2.7 31.5-14.2 35-30.9 2.1-9.6 2.1-60.9 0-70.6-4.8-22.5-26.6-34.9-53.5-30.5zm21.2 23.8c2.2 1.4 4.5 3.9 5.7 6.5 2 4 2.1 6 2.1 35.6 0 29.7-.1 31.6-2.1 35.6-3 6.2-7.7 8.9-15.9 8.9-7.7 0-11.1-1.5-15.4-6.8l-3.1-3.9-.3-31.1c-.4-32.6 0-36.1 4-41.2 5.1-6.6 17-8.3 25-3.6zm-110.9-17.8-10.3 5v9.5c0 6.9.3 9.4 1.3 9.4.6 0 5.2-1.1 10.2-2.5 4.9-1.4 9.3-2.5 9.7-2.5.5 0 .8 23.3.8 51.7 0 28.5.4 52.4.8 53.1.7.9 3.9 1.2 12.8 1l11.9-.3v-129l-13.5-.2-13.5-.2-10.2 5zm306.2 155.3c-36.7 7.1-65.1 33.5-75.7 70.1-1.9 6.9-2.3 10.3-2.3 24 0 17.9 1.5 25.1 8 39.2 10.6 22.9 30.8 41.8 53.7 50.2 12.4 4.6 17.9 5.5 33.3 5.5 13.5 0 15.9-.2 24.4-2.7 31.1-9.2 54.4-30.8 65.4-60.5 19-51.4-11.8-109.5-65.9-124.3-10.1-2.7-30.7-3.5-40.9-1.5zm70.5 67.5c0 2.6-5.2 8.5-17.4 19.6-9.6 8.9-44.8 41.7-46.8 43.7-1.5 1.6-3.8 2.8-5 2.8-1.7 0-7.3-5.1-20.1-18.2-18.4-19-20.3-21.9-14.6-22.6 2.3-.3 4.9 2 17.5 14.8 8.2 8.3 15.1 15.5 15.2 16 .2.6.9 1 1.5 1 .7 0 15.4-13.5 32.7-30 25.3-24 32-29.9 34.3-29.9 2.3-.1 2.7.3 2.7 2.8zm-249.5-60.8c-3.7 1.4-7.2 4.5-9.1 8.1-1.9 3.7-1.9 23.6 0 28.2 4.1 9.9 19.1 12.3 27.3 4.4 4.1-4 5.7-10.8 5.1-22-.5-9.5-2.5-14-7.7-17.1-3.8-2.2-11.6-3-15.6-1.6zm10.4 7.4c3.8 1.9 4.1 3 4.1 15.3 0 9.5-.2 10.8-2.2 12.9-2.9 3.1-9.7 3.2-12.4.2-1.6-1.8-1.9-3.7-1.9-13.6 0-11.3 0-11.5 2.8-13.9 3.2-2.8 5.6-3 9.6-.9zm29.5-7.4c-4.4 1.2-9.4 7.2-9.4 11 0 3.9 2.3 8.2 5.4 10.2 1.4.9 5.5 2.8 9.2 4.2 8.3 3.1 9.4 4 9.4 7.6 0 3.4-2.3 4.9-7.7 4.9-4.6 0-8-2.2-8.5-5.3-.3-1.9-.9-2.2-4.3-2.2-3.8 0-4 .1-3.8 3 .5 6.9 7.3 11.5 16.8 11.5 10.4 0 17.3-5.9 16.1-13.9-.8-5-3.9-7.6-13.9-11.8-9.6-3.9-11.8-6.3-9.8-10.1 2.8-5.2 15.1-2.8 15.1 3 0 1.5.8 1.8 4.4 1.8h4.4l-.8-3.6c-2-8.6-12.3-13.3-22.6-10.3zm-239.2 22.1.3 22.3 4.2.3 4.2.3.3-15.3.3-15.3 4.3 6.3c2.9 4.2 4.9 6.2 6 6 .9-.2 3.5-2.9 5.7-6.2l4-5.8.3 15.1.3 15.1h8.9v-45h-4.4c-4.3 0-4.4 0-9.6 8-2.9 4.4-5.4 8-5.5 8-.2 0-2.6-3.6-5.4-8l-5.1-8h-9l.2 22.2zm47.8.3V346h9v-45h-9v22.5zm18 0V346h8.9l.3-14.7.3-14.7 8.8 14.7 8.8 14.7h7.9v-45h-8v14c0 7.7-.3 14-.7 14-.5 0-4.6-6.3-9.3-14l-8.5-14H171v22.5zm44.2-5.1c.3 15.8.5 17.8 2.4 20.3 3.8 5.1 8.1 7.3 14.3 7.3 7.5 0 12-2.4 14.9-8 2-4.1 2.2-5.8 2.2-20.7V301h-9v17c0 15.7-.2 17.2-2 19-2.9 2.9-9 2.7-11.8-.3-2.1-2.2-2.2-3.3-2.2-19V301h-9.2l.4 17.4zm39.8-13.9v3.5h13v38h8v-38h13v-7h-34v3.5z"/><path fill="#431D45" fill-opacity=".5" d="M206.4 323.5c0 12.6.2 17.7.3 11.2.2-6.5.2-16.8 0-23-.1-6.2-.3-.9-.3 11.8zm47.8-19.5c0 1.9.2 2.7.5 1.7.2-.9.2-2.5 0-3.5-.3-.9-.5-.1-.5 1.8zm22.2 23c0 10.2.2 14.3.3 9.2.2-5 .2-13.4 0-18.5-.1-5-.3-.9-.3 9.3zm25.9-4c0 4.1.2 5.8.4 3.7.2-2 .2-5.4 0-7.5-.2-2-.4-.3-.4 3.8zm-187.9 8c0 8 .2 11.2.3 7.2.2-3.9.2-10.5 0-14.5-.1-3.9-.3-.7-.3 7.3z"/><path fill="#481B48" fill-opacity=".11" d="M295.4 199c0 14.6.2 20.5.3 13.2.2-7.2.2-19.2 0-26.5-.1-7.2-.3-1.3-.3 13.3z"/><path fill="#461B46" fill-opacity=".25" d="M322.4 198.5c0 13.7.2 19.5.3 12.8.2-6.7.2-17.9 0-25-.1-7-.3-1.6-.3 12.2z"/><path fill="#FFF" fill-opacity=".18" d="M464.3 250c0 3.6.2 5 .4 3.2.2-1.7.2-4.7 0-6.5-.2-1.7-.4-.3-.4 3.3z"/><path fill="#FFF" fill-opacity=".49" d="M487.3 244.7c2.6.2 6.7.2 9 0s.2-.3-4.8-.3c-4.9 0-6.8.1-4.2.3z"/><path fill="#5B125B" fill-opacity=".05" d="M188.5 212.5c0 26.9.1 37.8.2 24.2.2-13.7.2-35.7 0-49-.1-13.3-.2-2.2-.2 24.8z"/><path fill="#FFF" fill-opacity=".49" d="M469.3 244.7c2.6.2 6.8.2 9.5 0 2.6-.2.4-.3-4.8-.3s-7.4.1-4.7.3zm-465 11c2.6.2 6.7.2 9 0s.2-.3-4.8-.3-6.8.1-4.2.3zm248 209c.9.2 2.3.2 3 0 .6-.3-.1-.5-1.8-.5-1.6 0-2.2.2-1.2.5z"/><path fill="#471F47" fill-opacity=".25" d="M144.4 323c0 12.4.2 17.4.3 11.2.2-6.1.2-16.3 0-22.5-.1-6.1-.3-1.1-.3 11.3zm17.8.2-.2 22.7-4.2.4-4.3.4 4.3.1c2.7.1 4.4-.3 4.8-1.1.2-.7.3-11.1.1-23.2l-.2-22-.3 22.7zm8.2-.2c0 12.4.2 17.4.3 11.2.2-6.1.2-16.3 0-22.5-.1-6.1-.3-1.1-.3 11.3zm54-7c0 8.5.2 12 .3 7.7.2-4.2.2-11.2 0-15.5-.1-4.2-.3-.7-.3 7.8zm25 .5c0 8.8.2 12.3.3 7.7.2-4.6.2-11.8 0-16-.1-4.2-.3-.5-.3 8.3zm39.7-12.3-.1 3.7-6.2.4-6.3.3 6.3.2c6.9.2 7.7-.4 6.9-5.5-.3-2.4-.4-2.3-.6.9zm-31.3 4.5c1.7.2 4.7.2 6.5 0 1.7-.2.3-.4-3.3-.4-3.6 0-5 .2-3.2.4zm60.6 14.8c0 4.9.1 7.1.3 4.8.2-2.3.2-6.4 0-9-.2-2.6-.3-.8-.3 4.2zm-184 7.5c0 8 .2 11.2.3 7.2.2-3.9.2-10.5 0-14.5-.1-3.9-.3-.7-.3 7.3zm-26.6 15.7c1.2.2 3.2.2 4.5 0 1.2-.2.2-.4-2.3-.4s-3.5.2-2.2.4zm30 0c1.2.2 3 .2 4 0 .9-.3-.1-.5-2.3-.4-2.2 0-3 .2-1.7.4zm36 0c1.2.2 3 .2 4 0 .9-.3-.1-.5-2.3-.4-2.2 0-3 .2-1.7.4zm26 0c1.2.2 3.2.2 4.5 0 1.2-.2.2-.4-2.3-.4s-3.5.2-2.2.4zm70 0c1.2.2 3.2.2 4.5 0 1.2-.2.2-.4-2.3-.4s-3.5.2-2.2.4z"/><path fill="#FFF" fill-opacity=".48" d="M485.8 255.7c2.9.2 7.4.2 10 0 2.6-.2.2-.3-5.3-.3s-7.6.1-4.7.3z"/><path fill="#FEFEFE" fill-opacity=".48" d="M247.8 35.7c1.8.2 4.5.2 6 0s0-.4-3.3-.4-4.5.2-2.7.4zM8.7 244.7c5.1.2 13.5.2 18.5 0 5.1-.1 1-.3-9.2-.3s-14.3.2-9.3.3zm13.1 11c2.9.2 7.4.2 10 0 2.6-.2.2-.3-5.3-.3s-7.6.1-4.7.3zm447 0c2.3.2 6.1.2 8.5 0 2.3-.2.4-.4-4.3-.4s-6.6.2-4.2.4zm-222.5 209c.9.2 2.5.2 3.5 0 .9-.3.1-.5-1.8-.5-1.9 0-2.7.2-1.7.5z"/><path fill="#431D47" fill-opacity=".31" d="M215.3 139.5c0 2.2.2 3 .4 1.7.2-1.2.2-3 0-4-.3-.9-.5.1-.4 2.3zm0 12.5c0 3.6.2 5 .4 3.2.2-1.7.2-4.7 0-6.5-.2-1.7-.4-.3-.4 3.3zm.2 60.5c0 26.9.1 37.8.2 24.2.2-13.7.2-35.7 0-49-.1-13.3-.2-2.2-.2 24.8z"/><path fill="#421B42" fill-opacity=".75" d="M196.3 133.7c3.1.2 8.3.2 11.5 0 3.1-.2.5-.3-5.8-.3s-8.9.1-5.7.3zm1.1 179.3c0 6.9.1 9.7.3 6.2.2-3.4.2-9 0-12.5-.2-3.4-.3-.6-.3 6.3zm70 14.5c0 10.4.2 14.6.3 9.2.2-5.4.2-13.9 0-19-.1-5.1-.3-.7-.3 9.8zm94.4-11.8c1.2.2 3 .2 4 0 .9-.3-.1-.5-2.3-.4-2.2 0-3 .2-1.7.4zm-68.5 7.8c0 4.4.2 6.1.4 3.7.2-2.3.2-5.9 0-8-.2-2-.4-.1-.4 4.3zm-63 23.2c.9.2 2.5.2 3.5 0 .9-.3.1-.5-1.8-.5-1.9 0-2.7.2-1.7.5zm119.5 0c1.2.2 3 .2 4 0 .9-.3-.1-.5-2.3-.4-2.2 0-3 .2-1.7.4z"/><path fill="#FFF" fill-opacity=".51" d="M35.3 250c0 3 .2 4.3.4 2.7.2-1.5.2-3.9 0-5.5-.2-1.5-.4-.2-.4 2.8z"/><path fill="#421B43" fill-opacity=".94" d="M233.4 198.5c0 13.7.2 19.5.3 12.8.2-6.7.2-17.9 0-25-.1-7-.3-1.6-.3 12.2z"/><path fill="#411C44" fill-opacity=".75" d="M107.8 300.7c1.2.2 3.2.2 4.5 0 1.2-.2.2-.4-2.3-.4s-3.5.2-2.2.4zm30 0c1.2.2 3 .2 4 0 .9-.3-.1-.5-2.3-.4-2.2 0-3 .2-1.7.4zm18 0c1.2.2 3 .2 4 0 .9-.3-.1-.5-2.3-.4-2.2 0-3 .2-1.7.4zm18 0c1.2.2 3 .2 4 0 .9-.3-.1-.5-2.3-.4-2.2 0-3 .2-1.7.4zm26 0c1.2.2 3.2.2 4.5 0 1.2-.2.2-.4-2.3-.4s-3.5.2-2.2.4zm18 0c1.2.2 3.2.2 4.5 0 1.2-.2.2-.4-2.3-.4s-3.5.2-2.2.4zm25 0c1.2.2 3 .2 4 0 .9-.3-.1-.5-2.3-.4-2.2 0-3 .2-1.7.4zm20.5 0c4.8.2 12.6.2 17.5 0 4.8-.1.8-.3-8.8-.3-9.6 0-13.6.2-8.7.3z"/><path fill="#441D44" fill-opacity=".44" d="M259.4 198.5c0 13.7.2 19.5.3 12.8.2-6.7.2-17.9 0-25-.1-7-.3-1.6-.3 12.2z"/><path fill="#441C44" fill-opacity=".25" d="M336.8 330.7c1.2.2 3 .2 4 0 .9-.3-.1-.5-2.3-.4-2.2 0-3 .2-1.7.4z"/><g fill="#F8C600" stroke-width="0"><path d="M488.9 289c-46.6 5.8-82.7 42.8-88 89.9-5.2 46.7 26.2 92.3 72.6 105.6 23.1 6.6 47.7 4.3 70-6.5 21.1-10.2 36.2-25.2 46.5-46.5 8.4-17.1 11.3-32.7 9.8-52-1.3-16.3-6.8-31.7-16.6-46.4-13.5-20.5-34.7-35.5-58.2-41.5-10.8-2.7-26.3-3.8-36.1-2.6zm31.2 5c29.2 6 53.6 25.1 66.9 52.4 26.7 54.9-3.4 119.8-63 135.7-7.1 1.9-11.1 2.3-24 2.3-13.2 0-16.7-.3-23.5-2.3-36-10.4-61.1-35.9-70.1-71.1-2.6-10.3-2.6-35.5 0-45 5.6-20.8 13.5-34 28.9-48.6 21.7-20.7 54.1-29.6 84.8-23.4z"/><path d="M543.5 365.8c-9.1 8.6-39.9 37.6-50 47l-8.9 8.3-15.9-16.5c-15.5-16.2-18.9-18.7-20.4-15-.4 1.1 4.4 6.6 16.8 19.1 9.6 9.6 18.1 17.8 18.9 18.3 1.2.6 3.5-1 9-6.3 4.1-4 13.8-13 21.5-20.2 30.3-28 38.5-36.2 38.5-38.4 0-3.6-3.1-2.4-9.5 3.7z"/></g></svg>