<svg xmlns="http://www.w3.org/2000/svg" version="1.0" viewBox="0 0 240 400"><path fill="#401546" fill-opacity=".65" d="M101.5 291c0 29.4.1 41.5.2 26.7.2-14.7.2-38.7 0-53.5-.1-14.7-.2-2.6-.2 26.8z"/><g fill="#3E1647" stroke-width="0"><path d="M153.7 36.5c-5.6 1.9-12.8 8.4-15.7 14-7.6 14.8-.4 37.1 14.5 44.8 4.9 2.5 15.3 2.8 20.6.5 8.8-3.8 15.9-13.7 18-25.2 3.5-19-9.5-35.6-27.6-35.5-3.3 0-7.7.6-9.8 1.4zm18.8 9.4c9.5 5.8 12.7 15.5 9.1 27.5-5.4 17.9-26.9 21-34.7 4.9-6.2-12.7-3.1-27 6.9-32.3 5-2.6 14.6-2.7 18.7-.1zM68.8 44.4c-8.9 2.4-15.8 8.5-19.4 17.2-2.1 5-2 16.4.2 23 8.9 26.7 39.6 28.9 51.5 3.7 1.9-4 2.3-6.5 2.3-14.8.1-8.7-.2-10.6-2.4-14.8-5.9-11.6-19.9-17.8-32.2-14.3zM86.5 55c1.9 1.2 4.8 4.3 6.3 6.8 2.3 4 2.7 5.8 2.6 11.7-.3 18.1-13.9 28.8-27.8 21.7-8.4-4.2-13.5-18.3-10.5-28.9 1.5-5.5 7.2-11.7 12.1-13.2 4.9-1.5 13.3-.6 17.3 1.9zm58 56.4c-8.9 1.7-19.5 4.7-19.5 5.5 0 .3 2 1.8 4.5 3.3 4.3 2.6 4.5 2.6 9.7 1.1 7.2-2 32.6-2.9 41.3-1.4 9.6 1.7 22.3 5.9 24.6 8.2 1.8 1.8 1.9 3.6 1.9 38.1 0 34.2-.1 36.5-2 39.5-2 3.3-6.6 6.3-9.7 6.3-1 0-2.9.7-4.1 1.6l-2.2 1.5V315h-20v-86h-11v86.1l-10.2-.3-10.3-.3-.3-38.7-.2-38.7-4 4.3-4 4.3v38c0 28.1.3 38.2 1.2 39.1.9.9 9.6 1.2 32.9 1.2 27.5 0 32-.2 33.3-1.6 1.4-1.4 1.6-7.4 1.6-51.8v-50.2l3.5-1.3c5.3-1.9 9.5-5.9 12.1-11.6 2.4-5 2.4-5.3 2.4-41 0-35.4 0-36.2-2.2-40.5-1.9-3.7-3.4-5-8.8-7.7-10.5-5.2-22.3-7.6-39-7.9-9.1-.2-17.1.2-21.5 1z"/><path d="M53.5 123.9c-16 3.5-24.3 7.4-27.8 13-2.2 3.5-2.2 4.3-2.5 41-.2 24.5.1 39.2.8 42.6 1.5 7.2 5.7 12.7 11.9 15.6l5 2.4.1 55.7c0 54.4 0 55.8 2 57.8 1.9 1.9 3.3 2 33 2s31.1-.1 33-2c2-2 2-3.3 2-57.9v-55.9l2.3-.6c4.4-1.1 10.3-6.3 12.8-11.2 2.4-4.9 2.4-5.1 2.7-41.9.4-40.2-.1-45.1-4.5-49.9-3.3-3.6-10.5-6.9-20.8-9.7-11.3-3-38.4-3.6-50-1zm42.4 8.3c9.2 1.7 19.5 5.6 21.9 8.3 2.2 2.6 2.2 2.6 2.2 40.8 0 35.1-.1 38.5-1.8 41.6-1.9 3.5-7.2 7.1-10.5 7.1-1 0-2.7.5-3.8 1-1.8 1-1.9 2.7-1.9 57.6v56.5l-10.2-.3-10.3-.3-.3-55.3L81 234H70v111H50v-55.9c0-61.3.2-59.1-5.8-59.1-1.5 0-4.2-.9-6-2-6.1-3.7-6.2-4.8-6.2-47.3v-38.4l2.3-2.1c3.7-3.5 17.8-7.8 30.2-9.2 7.8-.9 23.2-.4 31.4 1.2z"/></g><path fill="#43174B" fill-opacity=".25" d="M147.3 324.7c8.6.2 22.8.2 31.5 0 8.6-.1 1.5-.3-15.8-.3s-24.4.2-15.7.3z"/><path fill-opacity=".01" d="M111.5 291.5c0 29.1.1 40.9.2 26.2.2-14.8.2-38.6 0-53-.1-14.4-.2-2.4-.2 26.8zm-.3 55.5c0 1.4.2 1.9.5 1.2.2-.6.2-1.8 0-2.5-.3-.6-.5-.1-.5 1.3z"/><path fill="#3F1547" fill-opacity=".52" d="M32.5 180.5c0 19.8.1 28 .2 18.3.2-9.7.2-25.9 0-36-.1-10.1-.2-2.1-.2 17.7z"/><path fill="#336" fill-opacity=".04" d="M60.7 354.7c8.4.2 22.2.2 30.6 0 8.3-.1 1.5-.3-15.3-.3s-23.6.2-15.3.3z"/><path fill="#3D194B" fill-opacity=".28" d="M169.2 231c0 1.4.2 1.9.5 1.2.2-.6.2-1.8 0-2.5-.3-.6-.5-.1-.5 1.3zm.1 7c0 2.5.2 3.5.4 2.2.2-1.2.2-3.2 0-4.5-.2-1.2-.4-.2-.4 2.3zm.1 42c0 19 .2 26.7.3 17.2.2-9.4.2-25 0-34.5-.1-9.4-.3-1.7-.3 17.3z"/><path fill="#3E1647" fill-opacity=".96" d="M81.5 289c0 30.5.1 43 .2 27.7.2-15.2.2-40.2 0-55.5-.1-15.2-.2-2.7-.2 27.8zm56-14c0 21.7.1 30.6.2 19.7.2-10.8.2-28.6 0-39.5-.1-10.8-.2-1.9-.2 19.8z"/><path fill="#7F007F" fill-opacity=".02" d="M129.5 181c0 19.5.1 27.5.2 17.8.2-9.8.2-25.8 0-35.5-.1-9.8-.2-1.8-.2 17.7z"/><path fill="#5F3F5F" fill-opacity=".03" d="M40.5 294c0 30.5.1 43 .2 27.7.2-15.2.2-40.2 0-55.5-.1-15.2-.2-2.7-.2 27.8z"/><path fill="#4A204A" fill-opacity=".12" d="M69.5 291c0 29.4.1 41.5.2 26.7.2-14.7.2-38.7 0-53.5-.1-14.7-.2-2.6-.2 26.8z"/><path fill="#3F1548" fill-opacity=".33" d="M188.5 265.5c0 26.9.1 37.8.2 24.2.2-13.7.2-35.7 0-49-.1-13.3-.2-2.2-.2 24.8z"/><path fill="#3F1749" fill-opacity=".5" d="M74.8 52.7c.6.2 1.8.2 2.5 0 .6-.3.1-.5-1.3-.5-1.4 0-1.9.2-1.2.5zm86 176c1.8.2 4.5.2 6 0s0-.4-3.3-.4-4.5.2-2.7.4zm-88 5c1.8.2 4.5.2 6 0s0-.4-3.3-.4-4.5.2-2.7.4zm70 81c2.9.2 7.4.2 10 0 2.6-.2.2-.3-5.3-.3s-7.6.1-4.7.3zm31.5 0c2.6.2 6.8.2 9.5 0 2.6-.2.4-.3-4.8-.3s-7.4.1-4.7.3zm-119 30c2.6.2 6.8.2 9.5 0 2.6-.2.4-.3-4.8-.3s-7.4.1-4.7.3zm31.5 0c2.9.2 7.4.2 10 0 2.6-.2.2-.3-5.3-.3s-7.6.1-4.7.3z"/><path fill="#303" fill-opacity=".02" d="M22.5 181c0 20.1.1 28.3.2 18.3.2-10.1.2-26.5 0-36.5-.1-10.1-.2-1.9-.2 18.2z"/><path fill="#3F1548" fill-opacity=".33" d="M198.3 224.5c0 2.2.2 3 .4 1.7.2-1.2.2-3 0-4-.3-.9-.5.1-.4 2.3zm-.1 6.5c0 1.4.2 1.9.5 1.2.2-.6.2-1.8 0-2.5-.3-.6-.5-.1-.5 1.3zm.1 7c0 2.5.2 3.5.4 2.2.2-1.2.2-3.2 0-4.5-.2-1.2-.4-.2-.4 2.3zm.1 42c0 19 .2 26.7.3 17.2.2-9.4.2-25 0-34.5-.1-9.4-.3-1.7-.3 17.3zm-.2 37c0 1.4.2 1.9.5 1.2.2-.6.2-1.8 0-2.5-.3-.6-.5-.1-.5 1.3z"/><path fill="#401649" fill-opacity=".45" d="M216.4 166c0 17.9.2 25.2.3 16.2.2-8.9.2-23.5 0-32.5-.1-8.9-.3-1.6-.3 16.3z"/><path fill="#3E1646" fill-opacity=".54" d="M119.5 180.5c0 19.8.1 28 .2 18.3.2-9.7.2-25.9 0-36-.1-10.1-.2-2.1-.2 17.7z"/><path fill="#3F1746" fill-opacity=".71" d="M128.4 280c0 19 .2 26.7.3 17.2.2-9.4.2-25 0-34.5-.1-9.4-.3-1.7-.3 17.3zm-.2 37c0 1.4.2 1.9.5 1.2.2-.6.2-1.8 0-2.5-.3-.6-.5-.1-.5 1.3z"/><path fill="#3F1647" fill-opacity=".8" d="M157.5 271.5c0 23.6.1 33.2.2 21.2.2-12 .2-31.4 0-43-.1-11.7-.2-1.9-.2 21.8z"/><path fill="#3F1647" fill-opacity=".63" d="M50.5 291c0 29.4.1 41.5.2 26.7.2-14.7.2-38.7 0-53.5-.1-14.7-.2-2.6-.2 26.8z"/><path fill="#3C174A" fill-opacity=".22" d="M206.4 166c0 17.9.2 25.2.3 16.2.2-8.9.2-23.5 0-32.5-.1-8.9-.3-1.6-.3 16.3z"/></svg>