<svg xmlns="http://www.w3.org/2000/svg" version="1.0" viewBox="0 0 620 500"><path fill="#FFF" fill-opacity=".4" d="M244.4 18c0 10.2.2 14.3.3 9.2.2-5 .2-13.4 0-18.5-.1-5-.3-.9-.3 9.3z"/><path fill="#FFF" d="M245 17.5V35h10V0h-10v17.5zM223.3 1.7c-2.4.2-4.3.6-4.3.8 0 .2.7 6.3 1.5 13.7.8 7.3 1.5 15 1.7 17.1.1 2.7.6 3.6 1.6 3.2.7-.3 3-.5 5.1-.5h3.7l-1.8-16.3c-.9-8.9-1.7-16.8-1.7-17.5-.1-.6-.4-1.1-.8-1-.5.1-2.7.3-5 .5zm-26.4 4.6-3.5 1.2 3.5 16.5c1.9 9.1 3.5 16.6 3.5 16.7.1.1 2.5-.4 5.4-1.1 2.9-.6 5.1-1.4 4.8-1.7-.3-.3-1.9-7-3.6-15-1.7-7.9-3.4-15.2-3.6-16.2-.6-2-1.5-2-6.5-.4zm-24 6.5-4.6 1.5 5 15.6c2.7 8.6 5.2 15.9 5.6 16.3.9 1 8.2-1.3 8.7-2.7.2-.5-1.9-8-4.8-16.6l-5.3-15.5-4.6 1.4zm-24.6 9.3-4.2 1.9 1.8 4.3c6.3 14.5 11.3 25.3 12.1 26.1.7.7 9-2 9-2.9 0-.1-2.9-6.8-6.5-14.9-3.6-8-6.5-15.1-6.5-15.6 0-1.3-.7-1.2-5.7 1.1zm-23 11.8-4.2 2.7 8 13.9c4.4 7.7 8.4 14.4 8.8 14.8.4.4 2.6-.3 4.9-1.6l4.1-2.3-7.8-13.5c-4.2-7.4-8.1-14.1-8.7-15-.8-1.5-1.4-1.3-5.1 1zm-21.9 14.3-4.2 3 5.7 7.7c3.1 4.2 7.7 10.4 10.2 13.8l4.6 6.2 3.6-2.6c2-1.4 3.7-3 3.7-3.4 0-.5-4.3-6.8-9.7-14.1-5.3-7.3-9.6-13.4-9.7-13.5-.1 0-2 1.2-4.2 2.9zM82.5 65c-3.3 3.5-4.6 1.3 10.7 18.1l9.6 10.6 3.5-3.5 3.5-3.5-11.1-12.3C92.5 67.6 87 62 86.4 62c-.5 0-2.3 1.3-3.9 3zM64.2 83.3l-3.1 3.2 12.8 11.7 12.9 11.6 3.5-3.6 3.5-3.7-12.3-11c-6.7-6-12.7-11.1-13.2-11.2-.5-.2-2.3 1.2-4.1 3zm-15.9 19.9-3 4.2 13.5 9.8c7.4 5.4 13.8 9.8 14.2 9.8.7 0 4.8-5.3 5.2-6.8.2-.5-4.9-4.7-11.2-9.2-6.3-4.6-12.4-9.1-13.6-10.2-2-1.8-2.1-1.7-5.1 2.4zm-14.4 22.1-2.5 4.2 14.2 8.2c7.9 4.6 14.7 8.3 15.2 8.3.9 0 5.2-6.3 5.2-7.5 0-.4-13.3-8.3-24-14.3l-5.6-3.1-2.5 4.2zm-11.7 23c-1.1 2.3-1.7 4.5-1.3 4.8.8.9 30.3 14 30.6 13.7 1-1.2 3.5-7 3.5-8s-17.9-9.6-29.1-14c-1.5-.6-2.2.1-3.7 3.5zm-9.5 24.5-1.3 4.7 13.5 4.6c19.4 6.5 18.9 6.4 20.1 3.4 2.6-6.8 2.5-6.9-3.7-8.7-3.2-1-10.6-3.3-16.5-5.2l-10.7-3.4-1.4 4.6zm-6.7 25c-.6 2.4-.9 4.7-.6 4.9.4.4 31.3 7.3 32.7 7.3.4 0 1-1.6 1.3-3.6.4-1.9.9-4.1 1.2-4.8.3-.9-.8-1.5-3.3-2-2.1-.3-9.7-1.9-17-3.5l-13.1-2.8-1.2 4.5zm-4.2 25.8c-.3 2.7-.4 5-.4 5.1.1.1 7.9 1 17.4 2l17.2 1.9v-3.7c0-2.1.2-4.4.5-5.1.5-1.1-2.1-1.7-12.7-2.7-7.3-.7-15.2-1.5-17.4-1.8l-4.2-.5-.4 4.8zM0 250v5h35v-10H0v5zm25 18.6c-5.8.6-13.5 1.5-17.1 1.8l-6.6.7.5 4.7c.2 2.6.6 4.8.7 5 .2.2 33.8-3 34.1-3.2 0-.1-.2-2.4-.5-5.1l-.6-5-10.5 1.1zm-4.3 24.9c-8.2 1.8-15.1 3.5-15.3 3.8-.3.3 0 2.5.8 5l1.3 4.4 16.5-3.5c9.1-1.9 16.6-3.5 16.7-3.6.1-.1-.4-2.2-1-4.9-.7-3.3-1.5-4.7-2.6-4.6-.9.1-8.3 1.6-16.4 3.4zm487.8-.4c-32.6 4.3-60.2 24.1-74.6 53.4-7.5 15.4-9.2 23-9.3 41.5-.1 18.6 1.7 26.9 9.4 42.5 11.4 23.1 31.8 40.9 56.5 49.3 18.2 6.1 41 6.1 59 0 31.3-10.7 54.4-35.3 63.7-67.4 1.9-6.7 2.3-10.2 2.3-23.9s-.4-17.1-2.3-24c-10-34.7-36-60.6-69.3-68.9-11.2-2.9-25.5-3.9-35.4-2.5zm65.5 68.8c0 2.5-4 6.6-28.7 29.8-15.9 14.8-31.1 29-33.9 31.6-2.8 2.6-6 4.7-7 4.7-1.2 0-9.3-7.4-20.3-18.4-16.8-16.8-18.2-18.5-17.2-20.5 2.5-4.5 5.1-2.8 21.5 13.9 10.8 11 16.1 15.8 17 15.3 1.1-.7 20.2-18.6 57.6-54 3.9-3.7 6.3-5.3 8.3-5.3 2.3 0 2.7.4 2.7 2.9zM26.9 317.3l-15.5 5.2 1.3 4.7 1.4 4.6 10.7-3.4c5.9-1.9 13.3-4.2 16.5-5.2 5.1-1.5 5.7-1.9 5.2-3.9-1-4-2.4-7.3-3.2-7.3-.5 0-7.8 2.4-16.4 5.3zm12.6 20.8c-6 2.8-12.9 5.9-15.2 6.9l-4.3 1.9 2 4.3c1.1 2.4 2.5 4.2 3.2 4 4.2-.9 29.8-12.9 29.8-13.9 0-1.6-3.2-8.3-3.9-8.2-.3 0-5.5 2.3-11.6 5zm6.9 23.7-15.1 8.7 2.6 4.2 2.7 4.3 13.9-8.1c7.7-4.4 14.4-8.4 14.8-8.8.4-.4-.3-2.6-1.6-4.9l-2.3-4.1-15 8.7zm12.4 21-13.5 9.8 3 4.2c3 4.1 3.1 4.2 5.1 2.4 1.2-1.1 7.3-5.6 13.6-10.2 6.3-4.5 11.4-8.7 11.2-9.2-.4-1.5-4.5-6.8-5.2-6.8-.4 0-6.8 4.4-14.2 9.8zm15 19.1-12.7 11.6 3.1 3.2c1.8 1.8 3.5 3.3 3.8 3.3.6 0 6.7-5.4 20.7-18l5.2-4.7-3.7-3.5-3.7-3.6-12.7 11.7zM94 415.7c-4.7 5.2-9.8 11-11.4 12.9l-2.9 3.5 2.8 3c1.6 1.6 3.4 2.9 3.9 2.9.6 0 6.1-5.6 12.3-12.4l11.1-12.3-3.6-3.5-3.7-3.5-8.5 9.4zm21 11.7c-2.4 3.3-7 9.5-10.1 13.8l-5.7 7.6 4.1 3 4.2 3 9.5-13.1c5.2-7.2 9.7-13.5 9.9-14 .2-.6-.7-1.8-2-2.9-5.1-4-5.1-4-9.9 2.6zm18.9 13.8c-2.3 4-6.2 10.7-8.6 14.8l-4.3 7.5 3.8 2.2c2 1.3 4.1 2.2 4.6 2 .5-.2 4.6-6.8 9.2-14.7l8.3-14.4-4-2.3c-2.3-1.3-4.3-2.3-4.5-2.3-.2 0-2.2 3.3-4.5 7.2zm23.2 5.6c-.9 1.7-6.5 14.2-11.2 24.9l-1.8 4.2 4.6 2.1c5.3 2.3 5.3 2.3 5.3 1 0-.5 2.9-7.6 6.5-15.6 3.6-8.1 6.4-14.8 6.3-14.9-1-.8-6.9-3.5-7.7-3.5-.6 0-1.5.8-2 1.8zm21.3 7.7c-.4.9-2.8 8.3-5.4 16.4l-4.7 14.8 4.7 1.5 4.6 1.5 5.2-15.6c2.9-8.6 5.2-16 5.2-16.4 0-.7-2-1.7-6.8-3.1-1.6-.5-2.4-.3-2.8.9zm18.5 21.2-3.5 16.8 4.4 1.3c2.4.8 4.6 1.1 4.9.8.3-.3 2.1-7.5 3.9-16.2 1.9-8.6 3.6-16 3.9-16.4.3-.4-1.3-1-3.4-1.4-2.2-.3-4.5-.8-5.3-1.1-1-.4-2.2 3.6-4.9 16.2zm25.3-9c-.2 2.1-.9 9.8-1.7 17.2-.9 7.4-1.4 13.5-1.3 13.6.2.1 2.4.5 5.1.7 3.1.4 4.7.2 4.8-.6 0-.6.8-8.4 1.7-17.4l1.8-16.2h-3.7c-2.1 0-4.4-.2-5.1-.5-1-.4-1.5.5-1.6 3.2z"/><path fill="#FFF" fill-opacity=".57" d="M255.4 17.5c0 9.9.2 13.8.3 8.7.2-5.1.2-13.2 0-18-.1-4.8-.3-.6-.3 9.3z"/><path fill="#FEFEFE" fill-opacity=".48" d="M247.8 35.7c1.8.2 4.5.2 6 0s0-.4-3.3-.4-4.5.2-2.7.4zm-226 220c2.9.2 7.4.2 10 0 2.6-.2.2-.3-5.3-.3s-7.6.1-4.7.3z"/><path fill="#F8C600" d="M270.9 3.9c0 1.4-.8 9.2-1.7 17.3L267.5 36h3.7c2 0 4.3.2 5 .5 1.1.4 1.7-3 3.1-16.6 1-9.5 1.6-17.3 1.5-17.4-.2-.1-2.4-.5-5-.7-4.6-.5-4.8-.5-4.9 2.1zM297 5.2c0 .2-1.6 7.7-3.5 16.7s-3.4 16.5-3.3 16.6c.2.2 2.4.7 4.9 1.2l4.6 1 3.3-15.6c1.8-8.6 3.5-16.1 3.7-16.8.2-.6-.4-1.4-1.4-1.6-3.2-1-8.3-1.9-8.3-1.5zm20.5 21.1c-2.6 8.4-4.8 15.8-4.9 16.6-.1.8 1.8 1.9 4.4 2.7 2.4.7 4.4 1.2 4.5 1.1 0-.1 2.4-7.4 5.2-16.1 2.9-8.8 5.1-16.2 4.9-16.4-.2-.2-2.4-.9-4.9-1.7l-4.4-1.3-4.8 15.1zm28.5-4c-.4 1.2-3.6 8.2-6.9 15.6-3.4 7.4-6.1 13.5-6.1 13.7 0 .5 9 3.7 9.4 3.3 1.5-1.8 13.4-30.5 12.9-31-.5-.4-2.5-1.4-4.6-2.3-3.7-1.5-3.8-1.5-4.7.7zm16.5 23c-4.4 7.7-8.1 14.5-8.3 15.3-.2.7 1.5 2.2 3.7 3.4l4 2 1.5-2.2C366 59.5 379 36.9 379 36.5c0-.2-1.9-1.4-4.3-2.7l-4.2-2.4-8 13.9zm20.6 13.2c-5.2 7.2-9.6 13.6-9.8 14.2-.2.5 1.4 2.1 3.5 3.6l3.9 2.5L390.8 65l10-13.9-3.1-2.4c-1.8-1.3-3.6-2.6-4.2-2.9-.5-.3-5.2 5.4-10.4 12.7zm23.5 10.3c-3.8 4.2-9 10-11.7 12.9l-4.9 5.1 3.6 3.2c2 1.7 3.9 3 4.3 2.8 1.2-.5 22.1-23.9 22.1-24.7 0-.4-1.5-2.1-3.3-3.9l-3.2-3.2-6.9 7.8zM419.2 91c-6.7 6.1-12.2 11.3-12.2 11.5 0 .2 1.4 2 3.1 4l3.1 3.5 12.9-11.7 13-11.6-3.3-3.4c-1.7-1.8-3.5-3.3-3.8-3.3-.3 0-6.1 5-12.8 11zm15.2 18.8-13.1 9.7 2.8 4.2 2.9 4.2 7.8-5.8c4.2-3.1 10.5-7.7 13.9-10.2l6.2-4.6-2.6-3.6c-1.4-2-3.1-3.7-3.7-3.6-.6 0-7 4.4-14.2 9.7zm15.1 19.3c-7.7 4.4-14.3 8.4-14.7 8.7-.4.4.4 2.6 1.7 4.9l2.5 4.1 14.9-8.6 14.9-8.7-2-3.5c-1.2-1.9-2.4-3.8-2.7-4.2-.3-.4-6.9 2.9-14.6 7.3zm-165.9-1c-11.7 1.9-23.3 10.7-28.2 21.4-4 8.7-4.6 16.1-4.2 48.7.4 34.1.8 35.9 8.2 46.1 7.8 10.8 19.2 15.8 35.9 15.8 21.2 0 35.8-9.4 41.7-27 2-6 2.1-7.8 1.8-41.5l-.3-35.1-2.9-6.2c-3.3-7.2-10.8-14.8-18.2-18.6-8.5-4.3-21.5-5.7-33.8-3.6zm20.8 22.9c2.3 1.1 5.2 3.6 6.6 5.7l2.5 3.6.3 31.6c.3 34.9 0 37.6-5.9 42.5-9.3 7.8-25 4.6-29.5-6.1-1.1-2.5-1.4-10.2-1.4-35 0-31.1.1-31.9 2.3-35.7 4.4-7.9 16.2-11 25.1-6.6zm-151.2-22.2c-.9.6-1.2 3.5-1 10.8l.3 9.9 23.3.3c13.6.1 23.2.6 23.2 1.2 0 .5-7 7.1-15.5 14.6-8.6 7.5-15.5 13.9-15.3 14.3.8 1.6 12 17.1 12.5 17.1.2 0 2.5-1.2 4.9-2.6 3.7-2.2 5.4-2.6 9.1-2.1 5.9.6 9.2 3.1 12.3 9.2 3.5 7.2 3.6 19.9 0 26.9-3.4 6.7-6.6 8.9-13.7 9.3-9.5.6-14.9-4.2-17.4-15.5-1.5-6.3-1.7-6.4-15.4-6l-10 .3.1 6c.1 7.6 1.5 11.8 6.4 19.4 4.7 7.3 12.9 13.1 22.8 16.1 18.8 5.8 41.9-2.8 50-18.7 7.1-13.9 7-33.5-.3-46.5-4.1-7.3-14-14.7-19.7-14.8-3.7 0-1.4-3 10.3-13.5 6.6-6 12.4-11.6 13-12.6 1.4-2.6 1.2-21.2-.3-22.7-1.4-1.4-77.4-1.7-79.6-.4zM461 150.6c-8 3.6-14.8 6.9-15.3 7.3-.6.6 1.6 7.6 2.8 8.9.2.2 28.9-12.3 30.7-13.5.8-.4-1.7-7.2-3-8.5-.4-.3-7.2 2.3-15.2 5.8zm8.5 22.8c-8.8 2.7-16.1 5.1-16.2 5.1-.5.3 2.9 9.5 3.5 9.5.4 0 7.7-2.4 16.4-5.2 17.2-5.7 16.4-5 13.4-11.9l-1.1-2.6-16 5.1zm6.4 23.5-16.5 3.5 1 4.5c.5 2.5 1.1 4.7 1.2 4.9.2.3 27.3-5.2 31.7-6.5 1.6-.4 1.8-1.1 1.2-4.1-.4-2.1-1-4.2-1.3-4.8-.5-.7-6.1.1-17.3 2.5zm2.6 24-15 1.6.3 4.7c.3 4.5.5 4.8 3.1 4.8 2.8 0 31.4-3 31.8-3.3 0-.1-.1-2.3-.4-5-.5-4-.9-4.7-2.7-4.6-1.1.1-8.8.9-17.1 1.8zM465 250v5h35v-10h-35v5zm-1.2 22.8-.3 4.8 13.5 1.3c7.4.7 15.1 1.5 17.1 1.8l3.6.5.6-4.8c.3-2.7.4-5 .4-5.1-.3-.3-29-3.3-31.7-3.3-2.6 0-2.8.3-3.2 4.8zm-3.4 21.9-.9 4.8 4.7 1.1c4.4 1 5.1.9 12.2-2.6l7.6-3.6-9.2-1.8c-5.1-1-10.2-2.1-11.4-2.3-1.7-.4-2.2.2-3 4.4zm-358 1.6c-.2.7-.3 10.9-.2 22.7l.3 21.5 4.3.3 4.2.3v-15c0-8.3.3-15.1.8-15.1.4 0 2.2 2.5 4 5.5 4.5 7.5 6.8 7.5 11.9-.3l3.8-5.7.5 15 .5 15h8v-45h-4c-3.9 0-4.1.2-9 7.7-2.7 4.3-5.4 7.8-5.8 7.8-.4 0-3.1-3.6-5.9-8-5-7.7-5.4-8-9-8-2.2 0-4.1.5-4.4 1.3zm49.3-.7c-.4.4-.7 10.8-.7 23.1v22.4l4.3-.3 4.2-.3v-45l-3.5-.3c-2-.2-3.9 0-4.3.4zM170 318v23h8v-14.5c0-8 .3-14.5.8-14.5.4 0 4.6 6.4 9.3 14.2l8.5 14.3 4.2.3 4.2.3-.2-22.8-.3-22.8h-8L196 310l-.5 14.4-8.9-14.7-8.9-14.7H170v23zm45-5.7c0 19.7.8 22.5 7.6 26.4 8.1 4.6 19.5 1.9 23.5-5.7 1.6-3 1.9-5.8 1.9-20.7V295h-7.9l-.3 17.6c-.3 17.1-.4 17.6-2.7 19.5-3 2.4-8.2 2.4-11.2 0-2.3-1.9-2.4-2.4-2.7-19.5l-.3-17.6H215v17.3zm40.7-16.6c-.4.3-.7 2.1-.7 4v3.3h13v38h8v-38h13v-8h-16.3c-9 0-16.7.3-17 .7zm47.7 1.3c-6.7 3.3-8.4 7.6-8.4 21 0 12.7 1.2 16.6 6.4 20.3 4.4 3.1 16.1 3.2 20.3.1 5.6-4.2 6.8-7.7 6.8-20.4 0-9.8-.3-12-2.1-15-4.3-7.4-14.7-10.1-23-6zm14.1 7.5c2.4 2.3 2.5 3.1 2.5 13.3 0 9.5-.3 11.3-2.1 13.6-2.6 3.2-8.4 3.6-12 .7-2.2-1.8-2.4-2.8-2.7-12.1-.3-6.2.1-11.2.8-12.9 2.2-5.3 9.4-6.7 13.5-2.6zm26.6-7.8c-3.9 2-7.1 6.6-7.1 10.6 0 5.4 2.7 8.7 9.8 11.8 12.5 5.6 13.7 6.3 14 8.7 1.1 7.5-13.4 8.6-15.9 1.2-1-2.6-1.6-3-5-3s-3.9.3-3.9 2.4c0 3.4 4 8.8 8 10.8 2.1 1.1 5.8 1.8 9 1.8 9.8 0 16.3-5.2 16.3-13 0-5.7-3.5-9-14.3-13.2-7-2.8-8.7-3.9-9.5-6.2-.8-2.4-.6-3.1 1.4-4.7 3.3-2.7 8.6-2.5 11.6.6 1.4 1.3 2.5 3.1 2.5 4 0 1.1 1.1 1.5 4 1.5 3.8 0 4-.2 4-2.9 0-3.6-4.2-8.9-8.7-10.7-4.4-1.9-12.1-1.7-16.2.3zm65.9 97-3.3 3.7 7.3 6.8c4.1 3.7 7.5 6.6 7.7 6.5.1-.2-.3-3.5-.9-7.4-.8-6-1.5-7.6-4.3-10.3l-3.2-3.1-3.3 3.8zM393.6 410l-3.6 3.2 4.9 5.1c2.7 2.9 7.9 8.7 11.7 12.9l6.9 7.8 3.2-3.2c1.8-1.8 3.3-3.5 3.3-3.9 0-.8-20.9-24.2-22.1-24.7-.4-.2-2.3 1.1-4.3 2.8zm-16.9 13.8c-2.1 1.4-3.6 3.1-3.3 3.7.2.7 4.7 7.1 9.9 14.3l9.5 13.1 4-3 4.1-3-9.6-13.2c-5.3-7.3-9.9-13.5-10.2-13.8-.3-.4-2.3.5-4.4 1.9zm-18.9 12.3c-2.1 1.1-3.8 2.3-3.8 2.8s3.7 7.3 8.3 15.3l8.2 14.4 3.7-2.1c2.1-1.2 4-2.4 4.3-2.7.5-.5-14.5-27.2-16.2-28.9-.4-.4-2.5.1-4.5 1.2zM337 446.6c-1.9.8-3.5 1.6-3.7 1.8-.2.1 2.4 6.3 5.8 13.7 3.3 7.4 6.5 14.4 6.9 15.6.9 2.2.9 2.2 5.2.4 2.4-1 4.3-2.2 4.3-2.7 0-2-13.1-30.4-14-30.4-.5.1-2.6.8-4.5 1.6zm-20.2 7.8c-2 .6-3.9 1.3-4.2 1.6-.3.3 1.8 7.8 4.7 16.7l5.2 16.1 4.8-1.5c2.9-.8 4.7-1.9 4.4-2.6-.2-.7-2.6-8.1-5.3-16.4-2.7-8.4-5.1-15.2-5.4-15.2-.3.1-2.2.6-4.2 1.3zm-21.8 5.9c-2.5.5-4.6 1-4.8 1.1-.3.4 6.6 32.8 7.1 33.3.5.4 8.6-1.3 9.2-1.9.2-.2-5.5-27.9-6.7-32.3-.2-.7-1.8-.8-4.8-.2zm-23 3.4-4.5.4 1.7 14.7c.9 8.1 1.7 15.9 1.7 17.3.1 2.6.3 2.6 4.9 2.1 2.6-.2 4.8-.6 5-.7.5-.4-3.2-34.5-3.8-34.3-.3.1-2.5.3-5 .5zm-27 18.8V500h10v-35h-10v17.5z"/><path fill="#FAC500" fill-opacity=".42" d="M313.4 194c0 14 .2 19.8.3 12.7.2-7 .2-18.4 0-25.5-.1-7-.3-1.2-.3 12.8z"/><path fill="#FFC600" fill-opacity=".14" d="M277.4 193.5c0 14.3.2 20 .3 12.7.2-7.3.2-19 0-26-.1-7-.3-1-.3 13.3z"/><path fill="#F8C600" fill-opacity=".94" d="M339.4 193.5c0 13.7.2 19.5.3 12.8.2-6.7.2-17.9 0-25-.1-7-.3-1.6-.3 12.2z"/><path fill="#F8C700" fill-opacity=".75" d="M164.8 150.7c6.1.2 16.3.2 22.5 0 6.1-.1 1.1-.3-11.3-.3s-17.4.2-11.2.3zm58.6 160.8c0 8.8.2 12.3.3 7.7.2-4.6.2-11.8 0-16-.1-4.2-.3-.5-.3 8.3zm16 0c0 8.8.2 12.3.3 7.7.2-4.6.2-11.8 0-16-.1-4.2-.3-.5-.3 8.3zm28 10c0 10.4.2 14.6.3 9.2.2-5.4.2-13.9 0-19-.1-5.1-.3-.7-.3 9.8zm36-3.5c0 5.2.1 7.4.3 4.7.2-2.6.2-6.8 0-9.5-.2-2.6-.3-.4-.3 4.8zm-9.1 0c0 4.1.2 5.8.4 3.7.2-2 .2-5.4 0-7.5-.2-2-.4-.3-.4 3.8zm-115.9 8.5c0 7.7.2 10.7.3 6.7.2-4 .2-10.3 0-14-.2-3.7-.3-.4-.3 7.3zm-57.6-3.8c.7.3 1.6.2 1.9-.1.4-.3-.2-.6-1.3-.5-1.1 0-1.4.3-.6.6zm189.5 19c.9.2 2.3.2 3 0 .6-.3-.1-.5-1.8-.5-1.6 0-2.2.2-1.2.5z"/><path fill="#FBC600" fill-opacity=".28" d="M151.4 139.5c0 4.9.1 7.1.3 4.8.2-2.3.2-6.4 0-9-.2-2.6-.3-.8-.3 4.2z"/><path fill="#FAC800" fill-opacity=".22" d="M250.4 193.5c0 13.7.2 19.5.3 12.8.2-6.7.2-17.9 0-25-.1-7-.3-1.6-.3 12.2z"/><path fill="#F8CE00" fill-opacity=".15" d="M234.4 139.5c0 4.9.1 7.1.3 4.8.2-2.3.2-6.4 0-9-.2-2.6-.3-.8-.3 4.2z"/><path fill="#F7C700" fill-opacity=".25" d="M190.8 260.7c1.2.2 3 .2 4 0 .9-.3-.1-.5-2.3-.4-2.2 0-3 .2-1.7.4zM141.4 318c0 12.4.2 17.4.3 11.2.2-6.1.2-16.3 0-22.5-.1-6.1-.3-1.1-.3 11.3zm9 0c0 12.4.2 17.4.3 11.2.2-6.1.2-16.3 0-22.5-.1-6.1-.3-1.1-.3 11.3zm55 0c0 12.4.2 17.4.3 11.2.2-6.1.2-16.3 0-22.5-.1-6.1-.3-1.1-.3 11.3zm48.8-19c0 1.9.2 2.7.5 1.7.2-.9.2-2.5 0-3.5-.3-.9-.5-.1-.5 1.8zm65.2 19.5c0 4.9.1 7.1.3 4.8.2-2.3.2-6.4 0-9-.2-2.6-.3-.8-.3 4.2zm-188 7.5c0 8 .2 11.2.3 7.2.2-3.9.2-10.5 0-14.5-.1-3.9-.3-.7-.3 7.3zm203.7 1.6c0 1.1.3 1.4.6.6.3-.7.2-1.6-.1-1.9-.3-.4-.6.2-.5 1.3z"/><path fill="#FFF" fill-opacity=".49" d="M8.7 244.7c5.1.2 13.5.2 18.5 0 5.1-.1 1-.3-9.2-.3s-14.3.2-9.3.3zm-4.4 11c2.6.2 6.7.2 9 0s.2-.3-4.8-.3-6.8.1-4.2.3z"/><path fill="#F9C800" fill-opacity=".57" d="M255.4 482.5c0 9.9.2 13.8.3 8.7.2-5.1.2-13.2 0-18-.1-4.8-.3-.6-.3 9.3z"/><path fill="#FAC800" fill-opacity=".4" d="M244.4 482c0 10.2.2 14.3.3 9.2.2-5 .2-13.4 0-18.5-.1-5-.3-.9-.3 9.3z"/><path fill="#F8C600" fill-opacity=".81" d="M365 319.4c0 .2.8 1 1.8 1.7 1.5 1.3 1.6 1.2.3-.4s-2.1-2.1-2.1-1.3z"/><path fill="#FAC600" fill-opacity=".25" d="M310.8 333.7c.7.3 1.6.2 1.9-.1.4-.3-.2-.6-1.3-.5-1.1 0-1.4.3-.6.6z"/><path fill="#FFBF00" fill-opacity=".06" d="M366 319.4c0 .2.8 1 1.8 1.7 1.5 1.3 1.6 1.2.3-.4s-2.1-2.1-2.1-1.3zm-42.1 18.3c-1.3 1.6-1.2 1.7.4.4 1.6-1.3 2.1-2.1 1.3-2.1-.2 0-1 .8-1.7 1.7zm14.1-1.3c0 .2.8 1 1.8 1.7 1.5 1.3 1.6 1.2.3-.4s-2.1-2.1-2.1-1.3z"/><path fill="#F7C500" fill-opacity=".5" d="M169.4 318c0 12.4.2 17.4.3 11.2.2-6.1.2-16.3 0-22.5-.1-6.1-.3-1.1-.3 11.3zm45-6c0 9.1.2 12.8.3 8.2.2-4.5.2-11.9 0-16.5-.1-4.5-.3-.8-.3 8.3zm34 0c0 9.1.2 12.8.3 8.2.2-4.5.2-11.9 0-16.5-.1-4.5-.3-.8-.3 8.3zm40.8-13c0 1.9.2 2.7.5 1.7.2-.9.2-2.5 0-3.5-.3-.9-.5-.1-.5 1.8zm21.6 3.7c.7.3 1.6.2 1.9-.1.4-.3-.2-.6-1.3-.5-1.1 0-1.4.3-.6.6zm41 0c.7.3 1.6.2 1.9-.1.4-.3-.2-.6-1.3-.5-1.1 0-1.4.3-.6.6zM276.4 322c0 10.2.2 14.3.3 9.2.2-5 .2-13.4 0-18.5-.1-5-.3-.9-.3 9.3zm59.7-14.4c0 1.1.3 1.4.6.6.3-.7.2-1.6-.1-1.9-.3-.4-.6.2-.5 1.3zm27.7 3.1c1.2.2 3 .2 4 0 .9-.3-.1-.5-2.3-.4-2.2 0-3 .2-1.7.4zM111.4 326c0 8 .2 11.2.3 7.2.2-3.9.2-10.5 0-14.5-.1-3.9-.3-.7-.3 7.3zm118.9 15.7c.9.2 2.3.2 3 0 .6-.3-.1-.5-1.8-.5-1.6 0-2.2.2-1.2.5zm121 0c.9.2 2.5.2 3.5 0 .9-.3.1-.5-1.8-.5-1.9 0-2.7.2-1.7.5z"/><path fill="#F8C800" fill-opacity=".5" d="M310.8 294.7c.6.2 1.8.2 2.5 0 .6-.3.1-.5-1.3-.5-1.4 0-1.9.2-1.2.5zm40.5 0c.9.2 2.3.2 3 0 .6-.3-.1-.5-1.8-.5-1.6 0-2.2.2-1.2.5zm-12.5 31c1.2.2 3 .2 4 0 .9-.3-.1-.5-2.3-.4-2.2 0-3 .2-1.7.4zm-108 8c.7.3 1.6.2 1.9-.1.4-.3-.2-.6-1.3-.5-1.1 0-1.4.3-.6.6z"/><path fill="#F8C500" fill-opacity=".49" d="M487.3 244.7c2.6.2 6.7.2 9 0s.2-.3-4.8-.3c-4.9 0-6.8.1-4.2.3zm-235 220c.9.2 2.3.2 3 0 .6-.3-.1-.5-1.8-.5-1.6 0-2.2.2-1.2.5z"/><path fill="#FAC700" fill-opacity=".48" d="M469.3 244.7c2.6.2 6.8.2 9.5 0 2.6-.2.4-.3-4.8-.3s-7.4.1-4.7.3zm3.9 11c4.8.2 12.9.2 18 0 5.1-.1 1.2-.3-8.7-.3-9.9 0-14.1.2-9.3.3zm-226.9 209c.9.2 2.5.2 3.5 0 .9-.3.1-.5-1.8-.5-1.9 0-2.7.2-1.7.5z"/><path fill="#F8C700" fill-opacity=".33" d="M464.3 250c0 3.6.2 5 .4 3.2.2-1.7.2-4.7 0-6.5-.2-1.7-.4-.3-.4 3.3z"/><path fill="#FEFEFE" fill-opacity=".49" d="M35.3 250c0 3 .2 4.3.4 2.7.2-1.5.2-3.9 0-5.5-.2-1.5-.4-.2-.4 2.8z"/><path fill="#F9C900" fill-opacity=".17" d="M500.3 250c0 3.6.2 5 .4 3.2.2-1.7.2-4.7 0-6.5-.2-1.7-.4-.3-.4 3.3z"/><g fill="#421B43" stroke-width="0"><path d="M502.8 290.6c-32.7 5.9-61.2 28.7-74.1 59.4-6.3 15-7.1 19.6-7.2 38.5 0 14.8.3 18 2.3 25 4.9 16.9 13.1 31.2 25.1 43.8 10.9 11.4 24.2 19.9 39.3 25.1 17.2 5.9 34 6.8 52.5 3 23.8-4.9 48.2-21.4 61.6-41.7 26.9-40.7 21.2-93-14-126.8-23.1-22.2-54.7-31.9-85.5-26.3zm37.7 3c16.5 3.4 30.6 10.3 42.4 20.8 16.4 14.6 26.4 30.9 31.7 51.6 2.7 10.6 2.7 34.4 0 45-8.6 33.8-34.5 61-66.7 70.4-57.4 16.6-114.5-19.7-123.9-78.7-1.6-10-.7-28.8 1.8-38.2 12.2-45.4 53.1-75.3 99.2-72.8 4.7.3 11.6 1.1 15.5 1.9z"/><path d="M566.5 362.4c-1.2 1.1-9.2 8.8-18 17.1-8.8 8.2-20.2 19.1-25.5 24.1-5.2 5-11.6 11-14.2 13.2l-4.8 4.1-10.7-11.2c-6-6.2-13-13.6-15.7-16.5-5-5.3-7.5-6.3-9.4-3.9-.9 1 3 5.5 17.4 20 10.3 10.3 18.8 18.7 19 18.7.2 0 4.3-3.7 9.1-8.3 4.8-4.5 12.6-11.8 17.3-16.2 4.7-4.4 15.1-14.3 23.3-21.9 8.1-7.7 15.6-14.6 16.7-15.3 1.1-.8 2-2.5 2-3.9 0-3.1-3.6-3.1-6.5 0z"/></g><path fill="#E4DFE4" d="M486 411.4c0 .2.8 1 1.8 1.7 1.5 1.3 1.6 1.2.3-.4s-2.1-2.1-2.1-1.3z"/><path fill="#543055" d="M486 410.4c0 .2.8 1 1.8 1.7 1.5 1.3 1.6 1.2.3-.4s-2.1-2.1-2.1-1.3z"/><path fill="#F0EDF0" d="M518.9 405.7c-1.3 1.6-1.2 1.7.4.4.9-.7 1.7-1.5 1.7-1.7 0-.8-.8-.3-2.1 1.3z"/></svg>