<svg xmlns="http://www.w3.org/2000/svg" version="1.0" viewBox="0 0 600 500"><path fill="#FEFEFE" fill-opacity=".47" d="M244.3 8c0 4.7.2 6.6.4 4.2.2-2.3.2-6.1 0-8.5-.2-2.3-.4-.4-.4 4.3z"/><path fill="#FFF" d="M245 17.5V35h10V0h-10v17.5zM223.1 1.7l-4.3.4.5 3.7c.3 2 1.2 9.9 1.9 17.5 1 10.9 1.5 13.6 2.6 13.2.7-.3 3-.5 5.1-.5h3.7l-1.8-15.8c-.9-8.6-1.7-16.5-1.8-17.5 0-.9-.3-1.6-.7-1.5-.5.1-2.8.3-5.2.5zM271 2.9c-.1.9-.9 8.7-1.8 17.3L267.4 36h3.7c2.1 0 4.3.2 5.1.5 1.1.4 1.7-3.1 3.1-16.6.9-9.5 1.6-17.3 1.5-17.4-.2-.1-2.4-.5-5-.7-4-.5-4.8-.3-4.8 1.1zm-74.1 3.4-3.6 1.2 3.5 16.6 3.6 16.5 4.8-.9c2.6-.5 4.8-1.3 4.8-1.6 0-.6-5-24.2-6.5-30.9-.6-2.5-1.4-2.6-6.6-.9zm99.6.9c-1.8 7.7-6.5 31.1-6.3 31.3.2.2 2.4.7 4.9 1.2l4.5 1 3.5-16.6c3.9-18.3 4.1-17-2.8-18.5-2.8-.7-3.3-.5-3.8 1.6zm-123.7 5.5-4.6 1.4 3.2 10.2c1.8 5.6 4.1 12.9 5.1 16.2 1.1 3.3 2 6.1 2.1 6.3.4.7 8.6-2.2 9-3.2.2-.6-1.9-8.1-4.8-16.7l-5.3-15.5-4.7 1.3zm144.3 14.6c-2.9 8.8-4.9 16.3-4.4 16.7.8.8 8.6 3.2 8.8 2.7.6-1.3 10.2-32.3 10.1-32.4-.2-.2-2.3-.9-4.8-1.7l-4.5-1.3-5.2 16zm-168.8-5.1c-3.7 1.6-4.1 2.1-3.4 4.1 2.2 5.5 12.2 27.2 13 28 .7.7 9.1-1.9 9.1-2.8 0-.7-13.3-30.1-13.8-30.6-.4-.4-2.6.2-4.9 1.3zm196.8 2.1c-1.1 2.3-4.2 9.3-7 15.6-2.8 6.2-5.1 11.5-5.1 11.6 0 .6 9 3.8 9.3 3.4.7-.8 12.7-28.5 12.9-29.7.2-.7-1.6-2.1-4-3.2l-4.3-1.9-1.8 4.2zm-219.8 9.6-4.3 2.7 8.1 13.9c4.4 7.7 8.4 14.4 8.8 14.8.9.9 8.1-3 8.1-4.5 0-.5-3.7-7.3-8.3-15.2l-8.2-14.3-4.2 2.6zm236.9 11.8c-4.5 7.8-8.2 14.6-8.2 15.2 0 .8 6.3 5.1 7.5 5.1.4 0 8.3-13.3 14.4-24.1l3.2-5.7-4.3-2.4-4.4-2.4-8.2 14.3zm-258.9 2.4-4.2 3 5.7 7.7c3.2 4.2 7.8 10.5 10.3 13.9l4.6 6.2 3.6-2.6c2-1.4 3.7-2.9 3.7-3.3 0-.5-9.2-13.6-19.4-27.7-.1 0-2 1.2-4.3 2.8zm280.2 9.6c-11.7 16.3-11.2 15.2-8.4 17.5 5.3 4.1 5.3 4.1 9.9-2.5 2.4-3.4 7-9.7 10.1-13.9l5.8-7.8-4.2-2.8-4.2-2.9-9 12.4zM83.1 64.4l-3.4 3.5 2.4 2.9c5.4 6.8 19.5 22 20.4 22.1.5.1 2.4-1.3 4.1-3l3.3-3.2-10.1-11.1C94.2 69.5 89 63.7 88.1 62.7c-1.6-1.6-1.9-1.5-5 1.7zm318.7 9.5-11.6 12.9 3.2 3.1c1.7 1.7 3.6 3.1 4.1 3 1 0 21.7-22.9 22.2-24.6.2-.5-1.2-2.3-3-4.1l-3.2-3.1-11.7 12.8zM64.2 83.3l-3.1 3.2 12.8 11.7 12.9 11.6 3.1-3.2c1.7-1.7 3.1-3.6 3-4.1 0-1-22.9-21.7-24.6-22.2-.5-.2-2.3 1.2-4.1 3zm355 7.4c-6.6 6-12.1 11.2-12.1 11.8-.1.5 1.3 2.4 3 4.1l3.2 3.3 12.8-11.7L439 86.6l-3.2-3.3c-1.8-1.8-3.5-3.3-3.8-3.3-.4 0-6.1 4.8-12.8 10.7zm-371 12.5-2.9 4.2 13.5 9.8c7.4 5.4 13.8 9.8 14.2 9.8.4 0 1.9-1.7 3.3-3.7l2.6-3.6-6.2-4.6c-3.4-2.5-9.7-7.1-13.9-10.3l-7.7-5.7-2.9 4.1zm396.8-1.3c-1.9 1.6-8.1 6.2-13.7 10.3l-10.2 7.4 2.6 3.8c1.5 2.1 3.2 3.5 4 3.2.7-.3 7.1-4.7 14.2-9.8l12.8-9.3-2.9-4.3c-1.6-2.3-3-4.2-3.1-4.1-.1 0-1.8 1.3-3.7 2.8zM33.9 125.3l-2.5 4.2 14.2 8.2c7.9 4.6 14.7 8.3 15.2 8.3.9 0 5.2-6.3 5.2-7.5 0-.4-13.3-8.3-24-14.3l-5.6-3.1-2.5 4.2zm424.1-1.2c-3 1.8-9.7 5.6-14.7 8.6l-9.3 5.4 2 4c1.1 2.1 2.5 3.9 3 3.9.6 0 7.5-3.7 15.3-8.2l14.4-8.2-2.5-4.3c-1.3-2.4-2.4-4.3-2.5-4.3-.1 0-2.7 1.4-5.7 3.1zM22.2 148.3c-1.1 2.3-1.7 4.5-1.3 4.9.5.5 29.9 13.8 30.6 13.8.6 0 3.8-9 3.4-9.3-.4-.3-21.5-9.8-27.6-12.3l-3.2-1.4-1.9 4.3zm438.3 2.4c-8.3 3.7-15.2 6.8-15.4 7-.4.3 2.8 9.3 3.4 9.3.3 0 29.7-13 30.7-13.6.7-.4-1.7-7.2-3-8.6-.4-.4-7.5 2.3-15.7 5.9zM12.7 172.8l-1.3 4.7 13.5 4.6c19.4 6.5 18.9 6.4 20.1 3.4 2.6-6.8 2.5-6.9-3.7-8.7-3.2-1-10.6-3.3-16.5-5.2l-10.7-3.4-1.4 4.6zm456.8.5c-8.8 2.8-16.1 5.1-16.2 5.2-.5.2 1.9 8 2.7 8.9.4.4 8-1.6 16.8-4.5l16-5.3-1.3-4.4c-.8-2.4-1.5-4.5-1.7-4.7-.2-.1-7.5 2-16.3 4.8zM6 197.8c-.6 2.4-.9 4.7-.6 4.9.4.4 31.2 7.3 32.7 7.3.4 0 1.1-2.2 1.6-4.9l1-4.9-3.6-.6c-2-.4-9.5-1.9-16.8-3.5l-13.1-2.8-1.2 4.5zm469.9-1-16.5 3.6.9 4.8c.5 2.6 1.3 4.8 1.6 4.8.6 0 24.3-5 30.9-6.5 2-.5 2.2-1 1.6-4.3-.4-2-.9-4.2-1.3-4.8-.4-.7-5.8 0-17.2 2.4zM1.8 223.6c-.3 2.7-.4 5-.4 5.1.1.1 7.9 1 17.4 2l17.2 1.9v-3.7c0-2.1.2-4.4.5-5.1.5-1.1-2.1-1.7-12.7-2.7-7.3-.7-15.2-1.5-17.4-1.8l-4.2-.5-.4 4.8zm475.9-2.8c-11.8 1.3-14.7 1.9-14.2 3 .3.7.5 3 .5 5.1v3.7l17.2-1.9c9.5-1 17.3-1.9 17.4-2 0-.1-.1-2.3-.4-5-.5-5.5 1.8-5.2-20.5-2.9zM0 250v5h35v-10H0v5zm465 0v5h35v-10h-35v5zM25 268.6c-5.8.6-13.5 1.5-17.1 1.8l-6.6.7.5 4.7c.2 2.6.6 4.8.7 5 .2.2 33.8-3 34.1-3.2 0-.1-.2-2.4-.5-5.1l-.6-5-10.5 1.1zm439 2.5c0 2.1-.2 4.3-.5 5.1-.4 1 3.2 1.7 16.7 3 9.5 1 17.3 1.6 17.4 1.5.1-.1.4-2.3.6-5 .5-3.9.3-4.7-1.1-4.7-.9-.1-8.7-.9-17.3-1.8l-15.8-1.8v3.7zM20.7 293.5c-8.2 1.8-15.1 3.5-15.3 3.8-.3.3 0 2.5.8 5l1.3 4.4 16.6-3.5 16.5-3.6-.9-4.8c-.7-3.5-1.4-4.8-2.6-4.7-.9.1-8.3 1.6-16.4 3.4zm440-.8c-.3 1.5-.4 2.9-.3 3 .2.2 2.4-.4 5-1.3 5.2-1.8 5.1-2.9-.5-3.9-3.4-.6-3.7-.5-4.2 2.2zm27.8.4c-32.6 4.3-60.2 24.1-74.5 53.4-7.4 15.2-9.4 24-9.5 41.5 0 11.1.5 16.3 1.9 22 8.5 33.5 31.7 58.7 64.1 69.8 18.1 6.1 40.9 6.1 59 0 31.2-10.7 54.4-35.2 63.7-67.4 2-6.9 2.3-10.1 2.2-24.4 0-14.9-.3-17.3-2.7-25.3-6.8-22-21.5-42.4-39.1-54.1-18.4-12.2-44.1-18.3-65.1-15.5zm65.5 68.8c0 2.5-4 6.6-29.2 30.2-16.1 15-31.3 29.3-33.7 31.6-2.4 2.4-5.3 4.3-6.5 4.3-1.5 0-8-5.8-20.5-18.4-16.5-16.7-18.1-18.6-17.1-20.5 2.4-4.5 5.1-2.7 21.4 13.9 10.8 11 16.1 15.8 17 15.3 1.1-.7 20.2-18.6 57.6-54 3.9-3.7 6.3-5.3 8.3-5.3 2.3 0 2.7.4 2.7 2.9zM26.9 317.3l-15.5 5.2 1.3 4.7 1.4 4.6 10.7-3.4c5.9-1.9 13.3-4.2 16.5-5.2 5.1-1.5 5.7-1.9 5.2-3.9-1-4-2.4-7.3-3.2-7.3-.5 0-7.8 2.4-16.4 5.3zm12.6 20.8c-6 2.8-12.9 5.9-15.2 6.9l-4.3 1.9 2 4.3c1.1 2.4 2.5 4.2 3.2 4 1.2-.2 28.9-12.2 29.7-12.9.6-.4-3-9.3-3.7-9.2-.4 0-5.6 2.3-11.7 5zm5.9 24.2-14.1 8.2 2.7 4.2 2.6 4.3 13.9-8.1c7.7-4.4 14.4-8.4 14.8-8.8 1-1-3.1-8.1-4.6-8.1-.7.1-7.5 3.8-15.3 8.3zm13.4 20.5-13.5 9.8 2.9 4.2 2.9 4.1 7.7-5.7c4.2-3.2 10.5-7.8 13.9-10.3l6.2-4.6-2.6-3.6c-1.4-2-2.9-3.7-3.3-3.7-.4 0-6.8 4.4-14.2 9.8zm15 19.1-12.7 11.6 3.1 3.2c1.8 1.8 3.6 3.2 4.1 3 1.8-.6 24.6-21.2 24.6-22.3.1-.5-1.4-2.4-3.1-4.1l-3.3-3.1-12.7 11.7zm17.2 17c-5.7 6.5-10.5 12.2-10.7 12.8-.2.5 1.2 2.3 3 4.1l3.2 3.1 11.7-12.8 11.6-12.9-3.2-3.1c-1.7-1.7-3.6-3.1-4.1-3-.6 0-5.7 5.3-11.5 11.8zm302.3-8.7-3.2 3.1 10.1 11.1c5.6 6.1 10.5 11.5 11.1 12.1.5.5 0-.9-1.2-3.2-1.2-2.4-3.4-8-4.9-12.7-2.7-8-6-13.6-7.9-13.6-.4 0-2.3 1.4-4 3.2zM115 427.4c-2.4 3.3-7 9.6-10.2 13.8l-5.7 7.7 4.1 2.9 4.2 2.9 9.8-13.5c5.4-7.4 9.8-13.8 9.8-14.2 0-.6-3.8-3.7-6.5-5.2-.5-.3-3 2.2-5.5 5.6zm261.7-3.7c-2 1.4-3.7 2.9-3.7 3.3 0 .4 4.4 6.8 9.8 14.2l9.8 13.5 4.3-2.9c4.2-3 4.2-3 2.4-5.2-1.1-1.1-5.5-7.1-9.8-13.1-4.3-6.1-8.1-11.3-8.4-11.7-.4-.4-2.3.4-4.4 1.9zm-244 19.5c-3 5.1-6.8 11.8-8.5 14.8l-3.1 5.4 4.2 2.7 4.2 2.6 8.2-14.3c4.6-7.9 8.3-14.7 8.3-15.2 0-.9-6.3-5.2-7.5-5.2-.2 0-2.8 4.2-5.8 9.2zm224.6-7c-1.8 1.1-3.3 2.4-3.3 2.9 0 .6 3.7 7.4 8.3 15.3l8.2 14.3 4.2-2.7 4.3-2.6-8.4-14.4c-4.5-7.9-8.7-14.5-9.2-14.6-.5-.1-2.4.7-4.1 1.8zm-201.1 12.5c-2.6 5.2-11.1 24.5-11.4 26.1-.3 1.3 7.9 5.5 8.6 4.4.5-.9 13.6-30.4 13.6-30.7 0-.3-7.8-3.5-8.5-3.5-.3 0-1.3 1.7-2.3 3.7zm180.8-2.1c-1.9.8-3.6 1.6-3.7 1.8-.2.2 2 5.4 4.8 11.7 2.8 6.3 6 13.3 7 15.6l1.8 4.2 4.3-1.9c2.4-1.1 4.2-2.5 4-3.2-.8-3.7-12.8-29.7-13.7-29.7-.5 0-2.6.7-4.5 1.5zm-160.2 12.1c-1 3.2-3.3 10.6-5.2 16.5l-3.4 10.7 4.6 1.4 4.7 1.3 5.3-15.5c2.8-8.6 5.2-15.9 5.2-16.4 0-.8-3.3-2.2-7.3-3.2-2-.5-2.4.1-3.9 5.2zm139.2-4.3c-4.4 1.7-4.4 2.1 1.8 20.2l4.7 14 4.7-1.3 4.6-1.4-2.2-7.2c-1.3-4-3.6-11.4-5.2-16.4-1.6-5.1-3.3-9.2-3.9-9.2-.5 0-2.6.6-4.5 1.3zm-119.2 21.5-3.5 16.6 4.4 1.3c2.5.8 4.7 1.1 5 .9.4-.5 7.3-31.3 7.3-32.8 0-.4-2.2-1.1-4.8-1.6l-4.8-.9-3.6 16.5zm98.2-15.6c-2.5.5-4.6 1-4.8 1.2-.4.3 6.5 32.5 7.1 33.1.2.3 2.5 0 4.9-.6l4.5-1.2-2.9-13.6c-1.6-7.6-3.2-15.1-3.6-16.7-.7-3.1-.7-3.1-5.2-2.2zm-74.2 19.9c-1 9.5-1.6 17.3-1.5 17.4.1.1 2.3.4 5 .6 3.9.5 4.7.3 4.7-1.1.1-.9.9-8.7 1.8-17.4l1.8-15.7h-3.7c-2.1 0-4.3-.2-5.1-.5-1-.4-1.7 3.2-3 16.7zm51.2-16.5-4.6.4 1.8 15.7c.9 8.6 1.7 16.4 1.8 17.3 0 1.4.8 1.6 4.8 1.1 2.6-.2 4.8-.6 5-.7.5-.4-3.2-34.5-3.8-34.3-.3.1-2.5.3-5 .5zm-27 18.8V500h10v-35h-10v17.5z"/><path fill="#FEFEFE" fill-opacity=".49" d="M255.4 17.5c0 9.9.2 13.8.3 8.7.2-5.1.2-13.2 0-18-.1-4.8-.3-.6-.3 9.3zm0 465c0 9.9.2 13.8.3 8.7.2-5.1.2-13.2 0-18-.1-4.8-.3-.6-.3 9.3z"/><path fill="#FFF" fill-opacity=".48" d="M8.7 255.7c5.1.2 13.5.2 18.5 0 5.1-.1 1-.3-9.2-.3s-14.3.2-9.3.3zm464.5 0c4.8.2 12.9.2 18 0 5.1-.1 1.2-.3-8.7-.3-9.9 0-14.1.2-9.3.3z"/><path fill="#FEFEFE" fill-opacity=".46" d="M464.3 250c0 3.6.2 5 .4 3.2.2-1.7.2-4.7 0-6.5-.2-1.7-.4-.3-.4 3.3z"/><path fill="#FFF" fill-opacity=".47" d="M244.4 26c0 5.8.1 8.1.3 5.2.2-2.8.2-7.6 0-10.5-.2-2.8-.3-.5-.3 5.3zm0 456c0 10.2.2 14.3.3 9.2.2-5 .2-13.4 0-18.5-.1-5-.3-.9-.3 9.3z"/><path fill="#FEFEFE" fill-opacity=".48" d="M247.8 35.7c1.8.2 4.5.2 6 0s0-.4-3.3-.4-4.5.2-2.7.4zM35.3 249.5c0 3.3.2 4.5.4 2.7.2-1.8.2-4.5 0-6s-.4 0-.4 3.3zm434-4.8c2.6.2 6.8.2 9.5 0 2.6-.2.4-.3-4.8-.3s-7.4.1-4.7.3zm-223 220c.9.2 2.5.2 3.5 0 .9-.3.1-.5-1.8-.5-1.9 0-2.7.2-1.7.5z"/><path fill="#FFF" fill-opacity=".49" d="M8.2 244.7c4.8.2 12.9.2 18 0 5.1-.1 1.2-.3-8.7-.3-9.9 0-14.1.2-9.3.3zm479.1 0c2.6.2 6.7.2 9 0s.2-.3-4.8-.3c-4.9 0-6.8.1-4.2.3zm-235 220c.9.2 2.3.2 3 0 .6-.3-.1-.5-1.8-.5-1.6 0-2.2.2-1.2.5z"/><path fill="#FFF" fill-opacity=".02" d="M500.3 250c0 3.6.2 5 .4 3.2.2-1.7.2-4.7 0-6.5-.2-1.7-.4-.3-.4 3.3z"/><path fill="#FACC00" fill-opacity=".24" d="M174.4 178c0 5.2.1 7.4.3 4.7.2-2.6.2-6.8 0-9.5-.2-2.6-.3-.4-.3 4.8z"/><path fill="#F8C600" d="M178.5 133.4c-12.8 2.6-22.3 9.3-27.2 19.5l-2.8 5.6-.3 31.8c-.4 34.5.3 42.9 4.3 51.3 10.3 21.8 37.6 29.7 60.8 17.6 15-7.8 22.5-24.2 19.9-43.5-2.3-17.7-12.1-29.2-28.4-33.3-10-2.6-16.8-1.3-30 5.4-.5.2-.8-5-.8-11.5 0-9.9.3-12.3 2-15 2.7-4.5 6-6.3 12.2-6.9 9-.9 15.6 4.2 16.7 12.8l.6 4.3h25l-.3-7c-.2-4.6-1.1-8.7-2.6-12-7-15.4-27.7-23.4-49.1-19.1zm22.1 71.6c5.2 3.3 7.7 9.6 7.2 18.3-.4 8.1-2.8 13.9-7.2 17.1-4 3-15.3 3-19.3 0-4.6-3.4-6.6-7.9-7.1-15.8-.9-14.7 6.4-23.4 18.7-22.1 2.4.3 5.8 1.4 7.7 2.5zm81.2-71.9c-16.4 2.4-29.6 15.2-32.8 31.9-1.3 6.8-1.3 59.6 0 67.4 4.1 25.3 30.2 39 58.8 31 9.6-2.7 14.7-6.3 20.9-14.7 6.8-9.2 7.3-12.8 7.3-49.6 0-27-.3-33.7-1.6-38.2-6.1-21-26.3-31.7-52.6-27.8zm18.7 22.8c9.8 4.5 10.4 6.9 10.4 43.6.1 27.1-.1 30.4-1.8 34-2.2 4.8-5.4 7.8-10 9.4-8.8 2.9-18.8-.3-22.8-7.5-2.2-3.8-2.3-4.6-2.3-36.3v-32.4l2.5-4.2c4.5-7.8 15.2-10.7 24-6.6zm5.2 145.5c-8.6 3.1-11.1 8.8-10.5 23.8.3 8.5.7 10.9 2.6 13.9 2.9 4.7 8.2 7.3 14.9 7.2 6.4 0 11-2.6 14.1-7.9 2.1-3.6 2.2-4.9 2-16.1-.3-14-1.3-16.2-8.8-20.1-5-2.5-8.8-2.7-14.3-.8zm12.8 8.7c1.8 1.7 2 3.3 2 13.5 0 11-.1 11.7-2.4 13.5-3.2 2.6-9.5 2.5-12.1-.1-1.8-1.8-2-3.3-2-13.1 0-6.1.5-11.9 1.1-13 2.2-4.2 9.5-4.7 13.4-.8zm28.1-9.1c-5.9 1.8-10.2 8.1-9.2 13.5.9 4.8 4.8 8 13.8 11.7 9.6 3.9 11.9 6.5 9.4 10.3-1.4 2.1-2.4 2.5-6.6 2.5-5.5 0-9-2.4-9-6 0-1.7-.7-2-4-2-3.9 0-4 .1-4 3.4 0 6.9 6.6 11.6 16.5 11.6 7.2 0 11.9-2 14.5-6.2 5-8.2 1.1-14.4-12.7-19.8-8.6-3.4-8.8-3.6-9.1-7.1-.3-3.2 0-3.8 2.7-4.9 5.1-2.1 12.1.9 12.1 5.2 0 1.5.8 1.8 4.5 1.8 4.9 0 5.2-.5 3.1-5.3-3.3-7.7-12.7-11.4-22-8.7zM103 323.6v22.5l4.3-.3 4.2-.3.5-14.9.5-15 3.8 6.2c4.9 8 6.5 8 11.4.2 2.1-3.3 4.1-6 4.5-6 .5 0 .8 6.7.8 15v15h8v-45h-4.2c-4.3 0-4.3 0-9.4 8.2l-5.2 8.1-5.3-8.1c-5.3-8.1-5.4-8.2-9.6-8.2H103v22.6zm49-.1V346h8v-45h-8v22.5zm18 0V346h8.9l.3-14.7.3-14.6 8.9 14.6 8.9 14.7h7.7v-45h-8v14c0 7.7-.3 14-.8 14-.4 0-4.5-6.3-9.1-14l-8.3-14H170v22.5zm45.2-5.3c.3 15.9.5 17.6 2.6 20.9 3.1 5.2 8 7.2 15.6 6.7 6.8-.4 10.2-2.3 13.3-7.3 1.5-2.5 1.9-5.7 2.1-20.3l.4-17.2H240v16.8c0 15.5-.2 17-2 19-2.7 2.9-9.2 3-12 .2-1.8-1.8-2-3.3-2-19v-17h-9.2l.4 17.2zm40.8-13.7v3.5h12v38h9v-37.9l6.3-.3c6.2-.3 6.2-.3 6.5-3.6l.3-3.2H256v3.5z"/><path fill="#FFC900" fill-opacity=".19" d="M365 303.4c0 .2.8 1 1.8 1.7 1.5 1.3 1.6 1.2.3-.4s-2.1-2.1-2.1-1.3zm1 21c0 .2.8 1 1.8 1.7 1.5 1.3 1.6 1.2.3-.4s-2.1-2.1-2.1-1.3z"/><path fill="#F7C700" fill-opacity=".25" d="M193.8 180.7c.7.3 1.6.2 1.9-.1.4-.3-.2-.6-1.3-.5-1.1 0-1.4.3-.6.6zm30.6 135.8c0 8.8.2 12.3.3 7.7.2-4.6.2-11.8 0-16-.1-4.2-.3-.5-.3 8.3zm15 0c0 8.8.2 12.3.3 7.7.2-4.6.2-11.8 0-16-.1-4.2-.3-.5-.3 8.3zm22.1-7.8 5.5.4.2 18.7.3 18.7 4.5.1 4.5.1-4.2-.4-4.3-.4-.2-18.7-.3-18.7-5.8-.1-5.7-.1 5.5.4zm19.3 0c1.8.2 4.5.2 6 0s0-.4-3.3-.4-4.5.2-2.7.4zm13.5 14.3c0 4.7.2 6.6.4 4.2.2-2.3.2-6.1 0-8.5-.2-2.3-.4-.4-.4 4.3zm-115.1 10.7-.2 12.2-4.2.4-4.3.4 4.3.1c2.7.1 4.4-.3 4.8-1.1.2-.7.3-6.5.1-12.8l-.3-11.4-.2 12.2zm-74.4 13c1.2.2 3.2.2 4.5 0 1.2-.2.2-.4-2.3-.4s-3.5.2-2.2.4zm30 0c1.2.2 3.2.2 4.5 0 1.2-.2.2-.4-2.3-.4s-3.5.2-2.2.4zm19 0c1.2.2 3.2.2 4.5 0 1.2-.2.2-.4-2.3-.4s-3.5.2-2.2.4zm45 0c1.2.2 3.2.2 4.5 0 1.2-.2.2-.4-2.3-.4s-3.5.2-2.2.4z"/><path fill="#F7C500" fill-opacity=".5" d="M189.8 242.7c.6.2 1.8.2 2.5 0 .6-.3.1-.5-1.3-.5-1.4 0-1.9.2-1.2.5zM102.4 323c0 12.4.2 17.4.3 11.2.2-6.1.2-16.3 0-22.5-.1-6.1-.3-1.1-.3 11.3zm39 .5c0 12.6.2 17.7.3 11.2.2-6.5.2-16.8 0-23-.1-6.2-.3-.9-.3 11.8zm19 0c0 12.6.2 17.7.3 11.2.2-6.5.2-16.8 0-23-.1-6.2-.3-.9-.3 11.8zm36-8.5c0 8 .2 11.2.3 7.2.2-3.9.2-10.5 0-14.5-.1-3.9-.3-.7-.3 7.3zm133 8.5c0 4.9.1 7.1.3 4.8.2-2.3.2-6.4 0-9-.2-2.6-.3-.8-.3 4.2z"/><path fill="#F6C100" fill-opacity=".11" d="M147.2 204c0 1.4.2 1.9.5 1.2.2-.6.2-1.8 0-2.5-.3-.6-.5-.1-.5 1.3z"/><path fill="#FFBF00" fill-opacity=".02" d="M274.4 198.5c0 13.7.2 19.5.3 12.8.2-6.7.2-17.9 0-25-.1-7-.3-1.6-.3 12.2z"/><path fill="#F8C700" fill-opacity=".75" d="M212.3 172.7c3.2.2 8.1.2 11 0 2.9-.2.3-.3-5.8-.3-6 0-8.4.1-5.2.3zm-22.5 30c.6.2 1.8.2 2.5 0 .6-.3.1-.5-1.3-.5-1.4 0-1.9.2-1.2.5zm-38.4 120.8c0 12.6.2 17.7.3 11.2.2-6.5.2-16.8 0-23-.1-6.2-.3-.9-.3 11.8zm54-.5c0 12.4.2 17.4.3 11.2.2-6.1.2-16.3 0-22.5-.1-6.1-.3-1.1-.3 11.3zm49.9-18.5c0 2.2.2 3 .4 1.7.2-1.2.2-3 0-4-.3-.9-.5.1-.4 2.3zm56.5 3.2c.7.3 1.6.2 1.9-.1.4-.3-.2-.6-1.3-.5-1.1 0-1.4.3-.6.6zm40 0c.7.3 1.6.2 1.9-.1.4-.3-.2-.6-1.3-.5-1.1 0-1.4.3-.6.6zm12 8c1.2.2 3 .2 4 0 .9-.3-.1-.5-2.3-.4-2.2 0-3 .2-1.7.4zm-43.5 7.8c0 4.4.2 6.1.4 3.7.2-2.3.2-5.9 0-8-.2-2-.4-.1-.4 4.3zM132.4 331c0 8 .2 11.2.3 7.2.2-3.9.2-10.5 0-14.5-.1-3.9-.3-.7-.3 7.3zm203.7 2.6c0 1.1.3 1.4.6.6.3-.7.2-1.6-.1-1.9-.3-.4-.6.2-.5 1.3zm-105.8 13.1c.9.2 2.5.2 3.5 0 .9-.3.1-.5-1.8-.5-1.9 0-2.7.2-1.7.5zm122 0c.9.2 2.5.2 3.5 0 .9-.3.1-.5-1.8-.5-1.9 0-2.7.2-1.7.5z"/><path fill="#FFC300" fill-opacity=".12" d="M147.3 176.5c0 2.2.2 3 .4 1.7.2-1.2.2-3 0-4-.3-.9-.5.1-.4 2.3zm-.2 14.1c0 1.1.3 1.4.6.6.3-.7.2-1.6-.1-1.9-.3-.4-.6.2-.5 1.3zm0 4c0 1.1.3 1.4.6.6.3-.7.2-1.6-.1-1.9-.3-.4-.6.2-.5 1.3zm0 4c0 1.1.3 1.4.6.6.3-.7.2-1.6-.1-1.9-.3-.4-.6.2-.5 1.3zm.1 9.4c0 1.4.2 1.9.5 1.2.2-.6.2-1.8 0-2.5-.3-.6-.5-.1-.5 1.3zm-.1 9.6c0 1.1.3 1.4.6.6.3-.7.2-1.6-.1-1.9-.3-.4-.6.2-.5 1.3z"/><path fill="#F8C600" fill-opacity=".75" d="M104.8 300.7c1.2.2 3.2.2 4.5 0 1.2-.2.2-.4-2.3-.4s-3.5.2-2.2.4zm30 0c1.2.2 3.2.2 4.5 0 1.2-.2.2-.4-2.3-.4s-3.5.2-2.2.4zm19 0c1.2.2 3.2.2 4.5 0 1.2-.2.2-.4-2.3-.4s-3.5.2-2.2.4zm19 0c1.2.2 3 .2 4 0 .9-.3-.1-.5-2.3-.4-2.2 0-3 .2-1.7.4zm26 0c1.2.2 3.2.2 4.5 0 1.2-.2.2-.4-2.3-.4s-3.5.2-2.2.4zm19 0c1.2.2 3 .2 4 0 .9-.3-.1-.5-2.3-.4-2.2 0-3 .2-1.7.4zm25 0c1.2.2 3 .2 4 0 .9-.3-.1-.5-2.3-.4-2.2 0-3 .2-1.7.4zm21.5 0c4.8.2 12.5.2 17 0 4.5-.1.6-.3-8.8-.3-9.3 0-13 .2-8.2.3z"/><path fill="#F9C600" fill-opacity=".33" d="M247.4 198.5c0 13.7.2 19.5.3 12.8.2-6.7.2-17.9 0-25-.1-7-.3-1.6-.3 12.2z"/><path fill="#F9C500" fill-opacity=".55" d="M310.4 198.5c0 13.7.2 19.5.3 12.8.2-6.7.2-17.9 0-25-.1-7-.3-1.6-.3 12.2z"/><path fill="#F8C700" fill-opacity=".8" d="M336.4 198.5c0 13.7.2 19.5.3 12.8.2-6.7.2-17.9 0-25-.1-7-.3-1.6-.3 12.2z"/><path fill="#FAC600" fill-opacity=".25" d="M310.8 299.7c.6.2 1.8.2 2.5 0 .6-.3.1-.5-1.3-.5-1.4 0-1.9.2-1.2.5zm41 0c.6.2 1.8.2 2.5 0 .6-.3.1-.5-1.3-.5-1.4 0-1.9.2-1.2.5zm-13 31c1.2.2 3 .2 4 0 .9-.3-.1-.5-2.3-.4-2.2 0-3 .2-1.7.4z"/><g fill="#A48EA3" stroke-width="0"><path d="M482.8 290.6c-20.9 3.8-39.8 14.1-54.8 30-7.9 8.5-13 15.9-18.1 26.9-6.8 14.4-8.2 21.6-8.3 40.5-.1 14.4.2 17.6 2.2 25 10.5 38.1 39.9 65.3 78.7 73.1 24.2 4.8 50.8-.9 72.8-15.6 9.5-6.2 21.1-17.8 27-26.8 26.9-40.7 21.2-93-14-126.8-23.1-22.2-54.7-31.9-85.5-26.3zm37.7 3c18.3 3.8 33.6 11.9 46.4 24.6 19.3 19.1 28.5 39.3 29.8 65.3.3 7.1.1 14.9-.6 19.3-4.9 31.4-25.2 59-53.6 72.7-32.1 15.6-70.1 12.5-99-8-8.6-6.1-20.4-18.8-26.3-28.5-19.5-31.6-18.7-73.2 1.8-103.9 22.7-33.7 61.7-49.7 101.5-41.5z"/><path d="M547.8 360.8c-.1.4-4.8 5-10.3 10.2-5.5 5.2-17.7 16.7-27 25.6-9.4 8.9-19.1 18-21.8 20.2l-4.7 4.1-15.7-16.4c-8.6-9.1-16.4-16.5-17.4-16.5-.9 0-2.1.6-2.8 1.3-.8 1 3.1 5.5 17.6 20 10.2 10.3 18.8 18.7 18.9 18.7.2 0 4.1-3.5 8.6-7.8 4.6-4.4 19.8-18.6 33.8-31.7 25.8-24.1 29.4-28.5 23.6-28.5-1.3 0-2.6.4-2.8.8z"/></g><path fill="#FBFAFB" d="M452 397.4c0 .2.8 1 1.8 1.7 1.5 1.3 1.6 1.2.3-.4s-2.1-2.1-2.1-1.3z"/><path fill="#A893A7" d="M476 420.4c0 .2.8 1 1.8 1.7 1.5 1.3 1.6 1.2.3-.4s-2.1-2.1-2.1-1.3z"/><path fill="#EBE7EB" d="M474 419.4c0 .2.8 1 1.8 1.7 1.5 1.3 1.6 1.2.3-.4s-2.1-2.1-2.1-1.3z"/></svg>