<svg xmlns="http://www.w3.org/2000/svg" version="1.0" viewBox="0 0 566 400"><path fill="#441548" fill-opacity=".24" d="M357.5 289.5c0 30.2.1 42.8.2 27.8.2-14.9.2-39.7 0-55-.1-15.3-.2-3.1-.2 27.2z"/><path fill="#401748" fill-opacity=".51" d="M532.5 291c0 29.4.1 41.5.2 26.7.2-14.7.2-38.7 0-53.5-.1-14.7-.2-2.6-.2 26.8z"/><path fill="#3D1947" fill-opacity=".31" d="M385.5 181c0 19.5.1 27.5.2 17.8.2-9.8.2-25.8 0-35.5-.1-9.8-.2-1.8-.2 17.7z"/><path fill="#42184E" fill-opacity=".16" d="M513.1 235.6c0 1.1.3 1.4.6.6.3-.7.2-1.6-.1-1.9-.3-.4-.6.2-.5 1.3zm.4 55.4c0 29.4.1 41.5.2 26.7.2-14.7.2-38.7 0-53.5-.1-14.7-.2-2.6-.2 26.8z"/><path fill="#3E1849" fill-opacity=".37" d="M122.5 294c0 30.5.1 43 .2 27.7.2-15.2.2-40.2 0-55.5-.1-15.2-.2-2.7-.2 27.8z"/><path fill="#3F1647" fill-opacity=".71" d="M163.1 235.6c0 1.1.3 1.4.6.6.3-.7.2-1.6-.1-1.9-.3-.4-.6.2-.5 1.3zm.4 55.4c0 29.4.1 41.5.2 26.7.2-14.7.2-38.7 0-53.5-.1-14.7-.2-2.6-.2 26.8z"/><path fill="#3F1647" fill-opacity=".63" d="M463.5 181c0 19.5.1 27.5.2 17.8.2-9.8.2-25.8 0-35.5-.1-9.8-.2-1.8-.2 17.7z"/><path fill="#401548" fill-opacity=".37" d="M151.5 291c0 29.4.1 41.5.2 26.7.2-14.7.2-38.7 0-53.5-.1-14.7-.2-2.6-.2 26.8z"/><path fill="#3F1747" fill-opacity=".65" d="M326.5 291c0 29.4.1 41.5.2 26.7.2-14.7.2-38.7 0-53.5-.1-14.7-.2-2.6-.2 26.8z"/><path fill="#3E1947" fill-opacity=".44" d="M367.5 291.5c0 29.1.1 40.9.2 26.2.2-14.8.2-38.6 0-53-.1-14.4-.2-2.4-.2 26.8zm-.3 55.5c0 1.4.2 1.9.5 1.2.2-.6.2-1.8 0-2.5-.3-.6-.5-.1-.5 1.3z"/><path fill="#421947" fill-opacity=".24" d="M104.5 181c0 19.5.1 27.5.2 17.8.2-9.8.2-25.8 0-35.5-.1-9.8-.2-1.8-.2 17.7z"/><g fill="#3E1647" stroke-width="0"><path d="M60.7 36.4C48.3 40.9 41.3 52.5 42.3 67c.8 12.6 7.2 23.1 17.1 28.2 5 2.6 15.3 2.9 20.7.6 8.8-3.8 15.9-13.7 18-25.2 2.7-14.9-3.7-27.4-17.2-33.6-5.2-2.3-14.5-2.6-20.2-.6zm18.8 9.5c9.5 5.8 12.7 15.5 9.1 27.5-5.4 17.9-26.9 21-34.6 5.1-6.3-12.9-3.3-27.1 6.8-32.5 5-2.6 14.6-2.7 18.7-.1zm154-8.5c-6.2 2.8-12.6 9.7-15 15.9-3.8 10.1-.6 26.6 7 35.5 9.5 11.3 29.5 11.4 38.9.1 8.3-9.9 11.3-26.1 6.6-36.6-6.4-14.6-23.6-21.5-37.5-14.9zm19.8 8c4.4 1.8 9.4 7.7 10.8 12.8 2.8 10.1-2.8 24.3-11.1 28.5-12.3 6.3-24.5-1.8-27.2-17.8-.8-4.7-.8-7.5.1-10.7 1.4-5 6.3-10.9 10.6-12.8 3.9-1.7 12.7-1.8 16.8 0zM409.1 37c-13.7 6.2-20 18.5-17.2 33.5 4.7 25.5 29.9 35.9 46.3 19 8.6-8.9 12.2-24.4 8.2-35.7-2.3-6.3-9.4-14-15.7-16.8-5.7-2.6-15.7-2.6-21.6 0zm19.7 8.9c7 3.6 10.5 9.8 10.5 18.3-.2 16-9.8 26.3-22.8 24.4-9.3-1.4-16.5-12.2-16.5-24.8 0-8 3.1-13.3 10.5-17.9 4.1-2.6 13.3-2.6 18.3 0zm-277.3-2C138.9 47.2 129 59.3 129 71.5c0 19.6 12.8 34.6 29.4 34.5 16.1-.1 28.9-17.1 27.4-36.4-1.2-14-11.8-24.8-25.8-26-3-.3-6.8-.2-8.5.3zm14 10c5.2 2.3 10.2 8.1 11.1 12.7 1 5.3-.1 15.5-2.1 19.4-6.2 12.3-20.3 15.2-29.4 6.1-6.3-6.3-9.2-20.9-5.6-28.6 4.6-9.6 16.4-14 26-9.6zM325.7 44c-12 3-20.5 13.1-21.5 25.5-2.3 28.8 24.3 46.6 45.1 30.1 2.4-1.9 5.1-5.7 7.5-10.4 3.3-6.8 3.6-8.1 3.6-16.1 0-7.4-.3-9.3-2.6-13.7-3-5.6-9.4-11.7-14.7-14-4.5-1.9-12.7-2.5-17.4-1.4zm12.5 9c11.4 3.2 16.6 16.1 12.1 30.1-5.6 17.4-26.3 19.5-34.5 3.5-2.9-5.5-3.7-18.9-1.5-23.2 2.2-4.2 6.9-8.4 11.3-9.9 4.7-1.7 7.7-1.8 12.6-.5zM500 44.3c-9 2.5-14.2 6.9-18.6 15.6-2.5 5-2.6 6.1-2.1 14.5.6 10.5 2.8 16.5 8.5 22.9 12.7 14 34.6 10.3 43.7-7.3 5-9.6 5-24.1.1-32.5-6.3-10.7-20-16.4-31.6-13.2zm18.4 11.4c17.8 12.6 4.9 46.7-15.6 41.2-5.8-1.5-12-8-13.8-14.5-5.1-17.7 3.9-31.2 19.9-29.9 3.9.3 6.6 1.2 9.5 3.2zM50.5 111.4c-9.9 1.9-22.4 6.3-26.3 9.2-6.2 4.8-6.2 4.5-6.2 45.8 0 27.2.3 38.3 1.2 40.3 2.4 5.4 6.1 9.3 11.4 11.9l5.4 2.6v50.4c0 48.7.1 50.4 1.9 51.4 1.2.6 13.5 1 32.9 1 28.7 0 31-.1 32.5-1.8s1.7-5.9 1.7-39.2v-37.3l-4.5-4.8-4.5-4.8V315H76v-86H65v86H45.1l-.3-50.1c-.3-48.2-.4-50.1-2.2-51.5-1.1-.8-3.1-1.4-4.4-1.4-3.4 0-7.6-2.7-9.8-6.4-1.7-2.8-1.9-5.9-2.2-36.8-.2-18.5.1-35.1.6-36.9 1-4.2 4-5.9 15.7-9.5 8.4-2.6 10.2-2.8 27.5-2.8 14.6-.1 19.8.3 24.5 1.6 5 1.4 6.2 1.5 7.5.4.8-.7 2.8-2 4.4-2.8 2.8-1.5 2.8-1.6 1-2.6-1.1-.6-5.6-2-9.9-3.2-10.3-2.8-36.3-3.7-47-1.6zm176 .1c-9.7 1.7-19.5 4.6-19.5 5.6 0 .5.4.9.9.9s2.3 1.1 3.9 2.5l3 2.5 6.4-1.7c8.9-2.5 39.6-2.5 48.2-.1l5.9 1.7 2.9-2.5c1.6-1.3 3.4-2.4 3.9-2.4s.9-.4.9-.9c0-1-12.7-4.6-21.4-6.1-8-1.3-26.5-1.1-35.1.5zm174.4 0c-9.6 1.9-18.9 4.7-18.9 5.5 0 .3 1.7 1.8 3.9 3.2l3.9 2.5 8.8-1.9c7.4-1.6 11.6-1.9 24.4-1.5 10.2.3 17.5 1 21.3 2.1 5.9 1.6 5.9 1.6 8.8-.8 1.5-1.3 3.4-2.6 4.1-2.9 2.3-.8.3-1.7-9.8-4.3-12.2-3.3-35.6-4.2-46.5-1.9z"/><path d="M135.5 123.9c-15.3 3.3-23.6 7-27.5 12.2l-2.5 3.4-.3 40.2c-.3 39.4-.2 40.4 1.9 45.3 2.4 5.7 7.1 10.2 12.3 12.1l3.6 1.3v56.1c0 53.2.1 56.3 1.8 57.8 1.6 1.5 5.4 1.7 32.6 1.7 19.3 0 31.5-.4 32.7-1 1.8-1 1.9-2.7 1.9-58 0-50.3.2-57 1.5-57 2 0 8.4-4.1 11.2-7.1 5.2-5.6 5.3-6.9 5.3-49.9s0-43-5.2-47.6c-2.1-2-4-2.9-12.2-6.3-12.2-5-41.3-6.6-57.1-3.2zm33.6 7.2c11.7 1.2 27.7 6 30.6 9.1 1.7 1.9 1.8 4.8 1.8 41.2 0 36.8-.1 39.3-1.9 42.3-1.8 3-5.1 4.8-12.1 6.9l-3 .9-.5 56.5-.5 56.5-10.2.3-10.3.3V234h-11v111h-20v-55.7c0-50.4-.2-55.8-1.7-57.5-.9-1-2.8-1.8-4.3-1.8-3.4 0-9.1-3.7-10.7-7-1.6-3.1-1.9-79.1-.3-81.9 1.9-3.6 16.6-8.3 31-10.1 9.6-1.1 11.8-1.1 23.1.1zm139.9-7c-10.2 2.3-18.3 5.4-22.8 8.6-6.3 4.7-6.2 4.1-6.2 48.5 0 37 .2 40.6 1.9 44.4 2.1 4.7 9.4 11.3 13.4 12.1l2.7.5v56.9c0 55.2.1 56.9 1.9 57.9 1.2.6 13.5 1 32.9 1 28.7 0 31-.1 32.5-1.8s1.7-7.2 1.7-57.8v-56l3.5-1.3c5.3-1.9 9.5-5.9 12.1-11.6 2.4-5 2.4-5.2 2.4-44.3 0-43.5-.1-43.9-6.4-48.6-12.7-9.3-47.2-13.6-69.6-8.5zm45.1 8.4c8.6 1.8 17.7 5.3 20 7.6 1.8 1.8 1.9 4 1.9 41.1 0 29.4-.3 39.9-1.3 41.8-1.6 3.2-7.3 7-10.5 7-1.4 0-3.4.7-4.4 1.7-1.7 1.5-1.8 4.6-1.8 57.5V345h-20V234h-11v111h-20v-55.5c0-62.5.5-58.5-7.7-59.8-4.8-.8-8.9-4.6-10.3-9.6-1.3-4.7-1.3-74.1 0-77.5 1.7-4.5 15.4-9.6 31.1-11.5 8.9-1.1 24.9-.4 34 1.4zM484 124c-18.3 4-26.6 9.1-29 17.9-.8 3-1 15.6-.8 41.9.3 37.4.3 37.7 2.7 42.5 2.5 5.2 6.5 8.7 12.4 11.2l3.7 1.5v56.5c0 54.8.1 56.5 1.9 57.5 1.2.6 13.4 1 32.5 1 29.3 0 30.7-.1 32.6-2 2-2 2-3.3 2-57.8v-55.7l4.9-2.2c5.6-2.4 10.5-8.3 12.1-14.5.7-2.4 1-17.9.8-42.6l-.3-38.7-2.4-3.9c-2.8-4.5-10.2-8.4-22.6-11.7-11.5-3.1-38.4-3.6-50.5-.9zm45 8.7c9 1.8 18.8 5.6 20.6 8 2 2.7 2 76.9 0 81.8-1.7 3.9-6.8 7.5-10.8 7.5-6 0-5.8-2.2-5.8 59.1V345h-20V234h-11v111h-21v-56.5c0-54.8-.1-56.5-1.9-57.5-1.1-.5-2.8-1-3.8-1-3.3 0-8.6-3.6-10.5-7.1-1.7-3.1-1.8-6.5-1.8-41.5 0-44.2-.6-41.8 10.3-45.3 19.4-6.3 36.6-7.3 55.7-3.4zM239 272v43h-20v-78.3l-4.5 4.9-4.5 4.8v36.8c0 35.5.1 36.9 2 38.8 1.9 1.9 3.3 2 33.4 2 31.4 0 31.5 0 33-2.2 1.4-1.9 1.6-7.4 1.6-39v-36.7l-4.5-4.7-4.5-4.6V315h-20v-86h-12v43zm175 0v43h-20v-78.9l-4.5 4.8-4.5 4.8v37.5c0 35 .1 37.6 1.8 39.1 1.6 1.5 5.4 1.7 32.6 1.7 19.3 0 31.5-.4 32.7-1 1.8-1 1.9-2.5 1.9-39.3l-.1-38.2-3.9-4.4-4-4.4V315h-21v-86h-11v43z"/></g><path fill="#3E1647" fill-opacity=".81" d="M450.5 242c1 1.1 2 2 2.3 2 .3 0-.3-.9-1.3-2s-2-2-2.3-2c-.3 0 .3.9 1.3 2z"/><path fill="#4C2659" fill-opacity=".08" d="M560.5 180.5c0 19.8.1 28 .2 18.3.2-9.7.2-25.9 0-36-.1-10.1-.2-2.1-.2 17.7z"/><path fill="#43174B" fill-opacity=".25" d="M61.8 119.7c.7.3 1.6.2 1.9-.1.4-.3-.2-.6-1.3-.5-1.1 0-1.4.3-.6.6zm16 0c.7.3 1.6.2 1.9-.1.4-.3-.2-.6-1.3-.5-1.1 0-1.4.3-.6.6zm-1.3 151.8c0 23.6.1 33.2.2 21.2.2-12 .2-31.4 0-43-.1-11.7-.2-1.9-.2 21.8zm337 0c0 23.6.1 33.2.2 21.2.2-12 .2-31.4 0-43-.1-11.7-.2-1.9-.2 21.8zm-318 2.5c0 22.3.1 31.4.2 20.3.2-11.2.2-29.4 0-40.5-.1-11.2-.2-2.1-.2 20.2zm10 8.5c0 20.9.1 29.6.2 19.3.2-10.3.2-27.4 0-38-.1-10.6-.2-2.2-.2 18.7zm279 0c0 20.9.1 29.6.2 19.3.2-10.3.2-27.4 0-38-.1-10.6-.2-2.2-.2 18.7zM55.3 324.7c8.7.2 22.7.2 31 0 8.4-.1 1.3-.3-15.8-.3-17 0-23.9.2-15.2.3zm174.5 0c8.3.2 22.1.2 30.5 0 8.3-.1 1.5-.3-15.3-.3s-23.6.2-15.2.3zm174.5 0c8.7.2 22.7.2 31 0 8.4-.1 1.3-.3-15.8-.3-17 0-23.9.2-15.2.3z"/><path fill="#3E1746" fill-opacity=".38" d="M550.5 181c0 19.5.1 27.5.2 17.8.2-9.8.2-25.8 0-35.5-.1-9.8-.2-1.8-.2 17.7z"/><path fill="#3E1647" fill-opacity=".92" d="M472.5 294c0 30.5.1 43 .2 27.7.2-15.2.2-40.2 0-55.5-.1-15.2-.2-2.7-.2 27.8z"/><path fill="#451545" fill-opacity=".19" d="M276.5 242c1 1.1 2 2 2.3 2 .3 0-.3-.9-1.3-2s-2-2-2.3-2c-.3 0 .3.9 1.3 2z"/><path fill="#3D154A" fill-opacity=".38" d="M22 213.4c0 .2.8 1 1.8 1.7 1.5 1.3 1.6 1.2.3-.4s-2.1-2.1-2.1-1.3zm79.5 28.6c1 1.1 2 2 2.3 2 .3 0-.3-.9-1.3-2s-2-2-2.3-2c-.3 0 .3.9 1.3 2z"/><path fill="#3E1749" fill-opacity=".64" d="M297.5 294c0 30.5.1 43 .2 27.7.2-15.2.2-40.2 0-55.5-.1-15.2-.2-2.7-.2 27.8z"/><path fill="#3E1646" fill-opacity=".94" d="M275.5 242c1 1.1 2 2 2.3 2 .3 0-.3-.9-1.3-2s-2-2-2.3-2c-.3 0 .3.9 1.3 2z"/><path fill="#4F1F4F" fill-opacity=".06" d="M451 241.5c1.3 1.4 2.6 2.5 2.8 2.5.3 0-.5-1.1-1.8-2.5s-2.6-2.5-2.8-2.5c-.3 0 .5 1.1 1.8 2.5z"/><path fill="#3E1746" fill-opacity=".75" d="M17.5 166c0 19.5.1 27.5.2 17.8.2-9.8.2-25.8 0-35.5-.1-9.8-.2-1.8-.2 17.7zm8.9 0c0 18.4.2 26 .3 16.7.2-9.2.2-24.2 0-33.5-.1-9.2-.3-1.6-.3 16.8zm9.1 104.5c0 27.5.1 38.6.2 24.7.2-13.9.2-36.4 0-50-.1-13.6-.2-2.2-.2 25.3zm29 1c0 23.6.1 33.2.2 21.2.2-12 .2-31.4 0-43-.1-11.7-.2-1.9-.2 21.8zm361 0c0 23.6.1 33.2.2 21.2.2-12 .2-31.4 0-43-.1-11.7-.2-1.9-.2 21.8zm-206 3c0 22 .1 30.9.2 19.7.2-11.2.2-29.2 0-40-.1-10.8-.2-1.7-.2 20.3zm226 0c0 22 .1 30.9.2 19.7.2-11.2.2-29.2 0-40-.1-10.8-.2-1.7-.2 20.3zm9 8c0 20.9.1 29.6.2 19.3.2-10.3.2-27.4 0-38-.1-10.6-.2-2.2-.2 18.7z"/><path fill="#3F1749" fill-opacity=".5" d="M156.8 52.7c.7.3 1.6.2 1.9-.1.4-.3-.2-.6-1.3-.5-1.1 0-1.4.3-.6.6zm175 0c.7.3 1.6.2 1.9-.1.4-.3-.2-.6-1.3-.5-1.1 0-1.4.3-.6.6zm174 0c.6.2 1.8.2 2.5 0 .6-.3.1-.5-1.3-.5-1.4 0-1.9.2-1.2.5zm-437 36c.6.2 1.8.2 2.5 0 .6-.3.1-.5-1.3-.5-1.4 0-1.9.2-1.2.5zm175 0c.6.2 1.8.2 2.5 0 .6-.3.1-.5-1.3-.5-1.4 0-1.9.2-1.2.5zm175 0c.7.3 1.6.2 1.9-.1.4-.3-.2-.6-1.3-.5-1.1 0-1.4.3-.6.6zm-264 145c1.8.2 4.5.2 6 0s0-.4-3.3-.4-4.5.2-2.7.4zm175 0c1.8.2 4.5.2 6 0s0-.4-3.3-.4-4.5.2-2.7.4zm175 0c1.8.2 4.5.2 6 0s0-.4-3.3-.4-4.5.2-2.7.4zm-234.6 41c.1 21.9.4 33.5.5 25.8.7-35.6.7-65.5.1-65.5-.5 0-.7 17.9-.6 39.7zm124.3-.2c0 22 .1 30.9.2 19.7.2-11.2.2-29.2 0-40-.1-10.8-.2-1.7-.2 20.3zm-257.2 70.2c2.6.2 6.8.2 9.5 0 2.6-.2.4-.3-4.8-.3s-7.4.1-4.7.3zm31.5 0c2.9.2 7.4.2 10 0 2.6-.2.2-.3-5.3-.3s-7.6.1-4.7.3zm143.5 0c2.6.2 6.8.2 9.5 0 2.6-.2.4-.3-4.8-.3s-7.4.1-4.7.3zm31 0c2.6.2 6.8.2 9.5 0 2.6-.2.4-.3-4.8-.3s-7.4.1-4.7.3zm143.5 0c2.9.2 7.4.2 10 0 2.6-.2.2-.3-5.3-.3s-7.6.1-4.7.3zm31.5 0c2.6.2 6.8.2 9.5 0 2.6-.2.4-.3-4.8-.3s-7.4.1-4.7.3z"/><path fill="#3C1746" fill-opacity=".3" d="M132.5 289.5c0 30.2.1 42.8.2 27.8.2-14.9.2-39.7 0-55-.1-15.3-.2-3.1-.2 27.2z"/><path fill="#3E1C4F" fill-opacity=".18" d="M114.5 181c0 19.5.1 27.5.2 17.8.2-9.8.2-25.8 0-35.5-.1-9.8-.2-1.8-.2 17.7z"/><path fill="#3E1844" fill-opacity=".16" d="M542.5 291.5c0 29.1.1 40.9.2 26.2.2-14.8.2-38.6 0-53-.1-14.4-.2-2.4-.2 26.8zm-.3 55.5c0 1.4.2 1.9.5 1.2.2-.6.2-1.8 0-2.5-.3-.6-.5-.1-.5 1.3z"/><path fill="#3E1646" fill-opacity=".5" d="M62.8 109.7c.6.2 1.8.2 2.5 0 .6-.3.1-.5-1.3-.5-1.4 0-1.9.2-1.2.5zm13 0c.6.2 1.8.2 2.5 0 .6-.3.1-.5-1.3-.5-1.4 0-1.9.2-1.2.5zm-8 119c1.8.2 4.5.2 6 0s0-.4-3.3-.4-4.5.2-2.7.4zm174 0c1.7.2 4.7.2 6.5 0 1.7-.2.3-.4-3.3-.4-3.6 0-5 .2-3.2.4zm175 0c1.8.2 4.5.2 6 0s0-.4-3.3-.4-4.5.2-2.7.4zm-367 86c2.9.2 7.4.2 10 0 2.6-.2.2-.3-5.3-.3s-7.6.1-4.7.3zm31.5 0c2.6.2 6.8.2 9.5 0 2.6-.2.4-.3-4.8-.3s-7.4.1-4.7.3zm143.5 0c2.9.2 7.4.2 10 0 2.6-.2.2-.3-5.3-.3s-7.6.1-4.7.3zm31 0c2.9.2 7.4.2 10 0 2.6-.2.2-.3-5.3-.3s-7.6.1-4.7.3zm143.5 0c2.6.2 6.8.2 9.5 0 2.6-.2.4-.3-4.8-.3s-7.4.1-4.7.3zm31.5 0c2.9.2 7.4.2 10 0 2.6-.2.2-.3-5.3-.3s-7.6.1-4.7.3z"/><path fill="#3E1547" fill-opacity=".84" d="M201.5 180.5c0 19.8.1 28 .2 18.3.2-9.7.2-25.9 0-36-.1-10.1-.2-2.1-.2 17.7z"/><path fill="#3E1647" fill-opacity=".91" d="M288.5 181c0 19.5.1 27.5.2 17.8.2-9.8.2-25.8 0-35.5-.1-9.8-.2-1.8-.2 17.7z"/><path fill="#3E1647" fill-opacity=".92" d="M501.5 291c0 29.4.1 41.5.2 26.7.2-14.7.2-38.7 0-53.5-.1-14.7-.2-2.6-.2 26.8z"/><path fill="#3E1646" fill-opacity=".96" d="M183.5 291c0 29.4.1 41.5.2 26.7.2-14.7.2-38.7 0-53.5-.1-14.7-.2-2.6-.2 26.8z"/><path fill="#3E1848" fill-opacity=".71" d="M192.5 294c0 30.5.1 43 .2 27.7.2-15.2.2-40.2 0-55.5-.1-15.2-.2-2.7-.2 27.8z"/><path fill="#3D1948" fill-opacity=".44" d="M338.5 289c0 30.5.1 43 .2 27.7.2-15.2.2-40.2 0-55.5-.1-15.2-.2-2.7-.2 27.8z"/><path fill="#541C54" fill-opacity=".04" d="M142.8 354.7c8.3.2 22.1.2 30.5 0 8.3-.1 1.5-.3-15.3-.3s-23.6.2-15.2.3zm174 0c8.3.2 22.1.2 30.5 0 8.3-.1 1.5-.3-15.3-.3s-23.6.2-15.2.3zm175 0c8.3.2 22.1.2 30.5 0 8.3-.1 1.5-.3-15.3-.3s-23.6.2-15.2.3z"/><path fill="#481251" fill-opacity=".11" d="M375.5 181c0 19.5.1 27.5.2 17.8.2-9.8.2-25.8 0-35.5-.1-9.8-.2-1.8-.2 17.7z"/><path fill="#3E1748" fill-opacity=".69" d="M210.5 181c0 19.5.1 27.5.2 17.8.2-9.8.2-25.8 0-35.5-.1-9.8-.2-1.8-.2 17.7z"/><path fill="#3D1548" fill-opacity=".75" d="M68.8 109.7c1.2.2 3.2.2 4.5 0 1.2-.2.2-.4-2.3-.4s-3.5.2-2.2.4z"/><path fill="#3E1647" fill-opacity=".76" d="M481.5 291c0 29.4.1 41.5.2 26.7.2-14.7.2-38.7 0-53.5-.1-14.7-.2-2.6-.2 26.8z"/><path fill="#3E1648" fill-opacity=".58" d="M279.5 181c0 19.5.1 27.5.2 17.8.2-9.8.2-25.8 0-35.5-.1-9.8-.2-1.8-.2 17.7z"/><path fill="#6D246D" fill-opacity=".03" d="M307.5 291c0 29.4.1 41.5.2 26.7.2-14.7.2-38.7 0-53.5-.1-14.7-.2-2.6-.2 26.8z"/></svg>