<svg xmlns="http://www.w3.org/2000/svg" width="500" height="65" viewBox="0 0 500 65"><g fill="none"><g fill="#FFF" transform="translate(0 10.296)"><path d="M-7.81571999e-15 21.2073214C-7.81571999e-15 13.375572 6.33579725 8.35973249 13.4635692 8.35973249 17.9514256 8.35973249 21.5593101 10.3836677 23.8472369 13.6395635L18.655403 17.2474481C17.5114396 15.751496 15.4875044 14.7835269 13.5515663 14.7835269 9.67969025 14.7835269 7.03977473 17.5994368 7.03977473 21.2073214 7.03977473 24.8152059 9.67969025 27.8071102 13.5515663 27.8071102 15.4875044 27.8071102 17.5114396 26.8391411 18.655403 25.343189L23.8472369 28.9510736C21.5593101 32.2069694 17.9514256 34.2309046 13.4635692 34.2309046 6.24780007 34.2309046-7.81571999e-15 28.9510736-7.81571999e-15 21.2073214ZM44.9665611 8.97571278 51.8303414 8.97571278 51.8303414 33.6149243 44.9665611 33.6149243 44.9665611 29.655051C43.9105949 32.9109468 40.0387188 34.3189018 37.5747976 34.3189018 31.1510032 34.3189018 27.8071102 30.0070398 27.8071102 22.6152763L27.8071102 8.97571278 34.6708905 8.97571278 34.6708905 22.1752904C34.6708905 26.0471665 36.9588173 27.8071102 39.3347413 27.8071102 41.7986624 27.8071102 44.8785639 26.3991552 44.8785639 21.999296L44.8785639 8.97571278 44.9665611 8.97571278ZM82.8933474 23.4952482 64.4139388 23.4952482C65.1179162 26.3991552 67.4938402 28.0711017 70.749736 28.0711017 73.3016543 28.0711017 75.6775783 26.9271383 77.2615276 25.1671946L81.2214009 29.2150651C78.9334741 32.2949666 74.6216121 34.1429074 70.3097501 34.1429074 62.7419923 34.1429074 57.1981697 28.8630764 57.1981697 21.2073214 57.1981697 13.2875748 63.2699754 8.2717353 70.2217529 8.2717353 77.2615276 8.2717353 82.9813446 13.2875748 82.9813446 20.7673354 82.9813446 21.5593101 82.9813446 22.3512848 82.8933474 23.4952482ZM76.0295671 19.0073918C75.8535727 16.1034847 73.4776487 14.2555438 70.3097501 14.2555438 67.4938402 14.2555438 65.029919 15.6634988 64.3259416 19.0073918L76.0295671 19.0073918ZM112.284407 20.063358 112.284407 33.5269271 105.420627 33.5269271 105.420627 20.4153467C105.420627 16.5434706 103.1327 14.8715241 100.756776 14.8715241 98.2928546 14.8715241 95.2129532 16.1914819 95.2129532 20.6793383L95.2129532 33.6149243 88.3491728 33.6149243 88.3491728 8.97571278 95.2129532 8.97571278 95.2129532 12.9355861C96.3569166 9.67969025 100.228793 8.2717353 102.604717 8.2717353 108.940514 8.35973249 112.372404 12.6715945 112.284407 20.063358Z"/><polygon points="132.876 8.976 132.876 14.344 127.684 14.344 127.684 33.527 120.82 33.527 120.82 14.344 116.332 14.344 116.332 8.976 120.82 8.976 120.82 0 127.684 0 127.684 8.976"/><path d="M155.491024 8.97571278 162.354805 8.97571278 162.354805 33.6149243 155.491024 33.6149243 155.491024 30.095037C153.819078 32.6469553 150.739176 34.2309046 147.395283 34.2309046 140.6195 34.2309046 135.515663 28.9510736 135.515663 21.2953185 135.515663 13.6395635 140.443506 8.35973249 147.483281 8.35973249 150.651179 8.35973249 153.819078 9.76768743 155.403027 12.2316086L155.403027 8.97571278 155.491024 8.97571278ZM155.227033 21.2953185C155.227033 17.5994368 152.235128 14.7835269 148.803238 14.7835269 145.195354 14.7835269 142.555438 17.7754312 142.555438 21.2953185 142.555438 24.7272087 145.283351 27.8071102 148.891235 27.8071102 152.411123 27.719113 155.227033 24.8152059 155.227033 21.2953185ZM180.30623 21.2073214C180.30623 13.375572 186.642027 8.35973249 193.769799 8.35973249 198.257656 8.35973249 201.86554 10.3836677 204.153467 13.6395635L198.961633 17.2474481C197.81767 15.751496 195.793735 14.7835269 193.857797 14.7835269 189.98592 14.7835269 187.346005 17.5994368 187.346005 21.2073214 187.346005 24.8152059 189.98592 27.8071102 193.857797 27.8071102 195.793735 27.8071102 197.81767 26.8391411 198.961633 25.343189L204.153467 28.9510736C201.86554 32.2069694 198.257656 34.2309046 193.769799 34.2309046 186.642027 34.2309046 180.30623 28.9510736 180.30623 21.2073214Z"/></g><g fill="#F9C606" transform="translate(206.53 6.864)"><path d="M0,18.8313974 C0,8.53572686 8.09574094,-6.25257599e-15 18.3914115,-6.25257599e-15 C28.687082,-6.25257599e-15 36.8708201,8.44772967 36.8708201,18.8313974 C36.8708201,29.1270679 28.687082,37.5747976 18.3914115,37.5747976 C8.09574094,37.6627948 0,29.1270679 0,18.8313974 Z M29.5670539,18.8313974 C29.5670539,12.3196058 24.9032031,6.95177754 18.4794087,6.95177754 C11.967617,6.95177754 7.39176346,12.3196058 7.39176346,18.8313974 C7.39176346,25.343189 11.967617,30.7110172 18.4794087,30.7110172 C24.9032031,30.7110172 29.5670539,25.4311862 29.5670539,18.8313974 Z"/><polygon points="63.182 .704 70.486 .704 70.486 36.959 63.886 36.959 50.686 14.168 50.686 36.959 43.383 36.959 43.383 .704 50.158 .704 63.094 23.231 63.094 .704"/></g><g fill="#FFF" transform="translate(298.31 7.568)"><polygon points="0 36.255 0 0 7.304 0 7.304 36.255"/><polygon points="35.727 0 43.031 0 43.031 36.255 36.431 36.255 23.231 13.464 23.231 36.255 15.927 36.255 15.927 0 22.703 0 35.639 22.527 35.639 0"/><path d="M78.7574798 25.8711721C78.7574798 30.8870116 75.3255896 36.2548398 67.3178458 36.2548398L51.8303414 36.2548398 51.8303414 6.25257599e-15 66.1738824 6.25257599e-15C72.6856741 6.25257599e-15 76.8215417 3.8718761 76.8215417 9.4156987 76.8215417 12.1436114 75.7655755 15.751496 71.8057022 16.9834565 76.469553 17.687434 78.7574798 21.8233017 78.7574798 25.8711721ZM65.8218937 6.51179162 59.2221049 6.51179162 59.2221049 14.4315382 65.8218937 14.4315382C68.1098205 14.4315382 69.5177754 12.9355861 69.5177754 10.4716649 69.5177754 8.18373812 68.373812 6.51179162 65.8218937 6.51179162ZM66.2618796 29.8310454C69.6937698 29.8310454 71.3657163 27.6311158 71.3657163 25.1671946 71.3657163 22.8792679 69.8697642 20.5033439 66.3498768 20.5033439L59.1341077 20.5033439 59.1341077 29.7430482 66.2618796 29.7430482 66.2618796 29.8310454ZM103.836677 36.2548398 95.2129532 23.2312566 92.749032 23.2312566 92.749032 36.2548398 85.4452658 36.2548398 85.4452658 6.25257599e-15 99.9648011 6.25257599e-15C108.324534 6.25257599e-15 111.844421 5.89581133 111.844421 11.8796199 111.844421 17.0714537 108.236536 22.0872932 103.1327 22.967265L112.548398 36.2548398 103.836677 36.2548398ZM92.749032 6.51179162 92.749032 17.4234424 98.5568462 17.4234424C102.692714 17.4234424 104.36466 14.9595213 104.36466 12.0556142 104.36466 9.15170715 102.516719 6.51179162 99.0848293 6.51179162L92.749032 6.51179162 92.749032 6.51179162Z"/><polygon points="118.884 36.255 118.884 0 126.188 0 126.188 36.255"/><path d="M125.747976 47.8704681 126.363956 41.1826822C127.771911 41.7106653 130.499824 41.7986624 130.851813 41.7986624 134.107709 41.7986624 135.339669 39.3347413 135.339669 36.5188314L135.339669 6.25257599e-15 142.643435 6.25257599e-15 142.643435 36.4308342C142.643435 43.030623 139.38754 48.6624428 130.851813 48.6624428 129.883844 48.6624428 127.595917 48.3984512 125.747976 47.8704681ZM174.05843 36.2548398 171.066526 27.5431186 157.51496 27.5431186 154.611052 36.2548398 146.779303 36.2548398 160.330869 3.126288e-15 168.250616 3.126288e-15 181.714185 36.2548398 174.05843 36.2548398ZM159.626892 21.2073214 168.866596 21.2073214 164.202746 7.47976065 159.626892 21.2073214Z"/></g><path fill="#FFF" d="M500,10.2076734 C500,15.8394931 495.512144,20.4153467 489.880324,20.4153467 C484.248504,20.4153467 479.760648,15.8394931 479.760648,10.2076734 C479.760648,4.48785639 484.248504,1.563144e-15 489.880324,1.563144e-15 C495.512144,1.563144e-15 500,4.57585357 500,10.2076734 Z M498.240056,10.2076734 C498.240056,5.5438226 494.544175,1.75994368 489.880324,1.75994368 C485.216473,1.75994368 481.520591,5.5438226 481.520591,10.2076734 C481.520591,14.8715241 485.216473,18.655403 489.880324,18.655403 C494.544175,18.655403 498.240056,14.8715241 498.240056,10.2076734 Z M491.55227,11.7916227 L494.016191,15.2235128 L491.55227,15.2235128 L489.264344,11.8796199 L488.73636,11.8796199 L488.73636,15.2235128 L486.536431,15.2235128 L486.536431,5.36782823 L490.584301,5.36782823 C492.872228,5.36782823 493.928194,6.95177754 493.928194,8.62372404 C493.7522,10.5596621 492.872228,11.5276311 491.55227,11.7916227 Z M488.648363,7.30376628 L488.648363,10.1196762 L490.144315,10.1196762 C491.200282,10.1196762 491.55227,9.32770151 491.55227,8.71172122 C491.55227,8.18373812 491.200282,7.39176346 490.144315,7.39176346 L488.648363,7.39176346 L488.648363,7.30376628 Z"/><path fill="#F9C606" d="M208.729321,53.1502992 C211.985216,51.5663499 212.5132,55.1742344 217.265048,56.406195 C221.928898,57.6381556 229.848645,60.1020767 250.351989,57.6381556 C270.855333,55.1742344 293.910595,49.5424146 294.614572,50.686378 C295.31855,51.8303414 285.022879,55.7902147 276.927138,57.8141499 C268.831397,59.8380852 247.536079,64.1499472 232.576558,64.1499472 C217.617036,64.1499472 210.841253,61.0700458 208.817318,59.2221049 C206.705385,57.2861668 205.649419,54.7342485 208.729321,53.1502992"/></g></svg>