<svg xmlns="http://www.w3.org/2000/svg" width="320" height="107" viewBox="0 0 320 107"><g fill="none" transform="translate(.306 .296)"><g fill="#FFF" transform="translate(80.694)"><path d="M0 21.2073214C0 13.375572 6.33579725 8.35973249 13.4635692 8.35973249 17.9514256 8.35973249 21.5593101 10.3836677 23.8472369 13.6395635L18.655403 17.2474481C17.5114396 15.751496 15.4875044 14.7835269 13.5515663 14.7835269 9.67969025 14.7835269 7.03977473 17.5994368 7.03977473 21.2073214 7.03977473 24.8152059 9.67969025 27.8071102 13.5515663 27.8071102 15.4875044 27.8071102 17.5114396 26.8391411 18.655403 25.343189L23.8472369 28.9510736C21.5593101 32.2069694 17.9514256 34.2309046 13.4635692 34.2309046 6.24780007 34.2309046 0 28.9510736 0 21.2073214ZM44.9665611 8.97571278 51.8303414 8.97571278 51.8303414 33.6149243 44.9665611 33.6149243 44.9665611 29.655051C43.9105949 32.9109468 40.0387188 34.3189018 37.5747976 34.3189018 31.1510032 34.3189018 27.8071102 30.0070398 27.8071102 22.6152763L27.8071102 8.97571278 34.6708905 8.97571278 34.6708905 22.1752904C34.6708905 26.0471665 36.9588173 27.8071102 39.3347413 27.8071102 41.7986624 27.8071102 44.8785639 26.3991552 44.8785639 21.999296L44.8785639 8.97571278 44.9665611 8.97571278ZM82.8933474 23.4952482 64.4139388 23.4952482C65.1179162 26.3991552 67.4938402 28.0711017 70.749736 28.0711017 73.3016543 28.0711017 75.6775783 26.9271383 77.2615276 25.1671946L81.2214009 29.2150651C78.9334741 32.2949666 74.6216121 34.1429074 70.3097501 34.1429074 62.7419923 34.1429074 57.1981697 28.8630764 57.1981697 21.2073214 57.1981697 13.2875748 63.2699754 8.2717353 70.2217529 8.2717353 77.2615276 8.2717353 82.9813446 13.2875748 82.9813446 20.7673354 82.9813446 21.5593101 82.9813446 22.3512848 82.8933474 23.4952482ZM76.0295671 19.0073918C75.8535727 16.1034847 73.4776487 14.2555438 70.3097501 14.2555438 67.4938402 14.2555438 65.029919 15.6634988 64.3259416 19.0073918L76.0295671 19.0073918ZM112.284407 20.063358 112.284407 33.5269271 105.420627 33.5269271 105.420627 20.4153467C105.420627 16.5434706 103.1327 14.8715241 100.756776 14.8715241 98.2928546 14.8715241 95.2129532 16.1914819 95.2129532 20.6793383L95.2129532 33.6149243 88.3491728 33.6149243 88.3491728 8.97571278 95.2129532 8.97571278 95.2129532 12.9355861C96.3569166 9.67969025 100.228793 8.2717353 102.604717 8.2717353 108.940514 8.35973249 112.372404 12.6715945 112.284407 20.063358Z"/><polygon points="132.876 8.976 132.876 14.344 127.684 14.344 127.684 33.527 120.82 33.527 120.82 14.344 116.332 14.344 116.332 8.976 120.82 8.976 120.82 0 127.684 0 127.684 8.976"/><path d="M155.491024,8.97571278 L162.354805,8.97571278 L162.354805,33.6149243 L155.491024,33.6149243 L155.491024,30.095037 C153.819078,32.6469553 150.739176,34.2309046 147.395283,34.2309046 C140.6195,34.2309046 135.515663,28.9510736 135.515663,21.2953185 C135.515663,13.6395635 140.443506,8.35973249 147.483281,8.35973249 C150.651179,8.35973249 153.819078,9.76768743 155.403027,12.2316086 L155.403027,8.97571278 L155.491024,8.97571278 Z M155.227033,21.2953185 C155.227033,17.5994368 152.235128,14.7835269 148.803238,14.7835269 C145.195354,14.7835269 142.555438,17.7754312 142.555438,21.2953185 C142.555438,24.7272087 145.283351,27.8071102 148.891235,27.8071102 C152.411123,27.719113 155.227033,24.8152059 155.227033,21.2953185 Z"/></g><g transform="translate(0 41.704)"><path fill="#FFF" d="M0,31.5029919 C0,23.6712425 6.33579725,18.655403 13.4635692,18.655403 C17.9514256,18.655403 21.5593101,20.6793383 23.8472369,23.9352341 L18.655403,27.5431186 C17.5114396,26.0471665 15.4875044,25.0791975 13.5515663,25.0791975 C9.67969025,25.0791975 7.03977473,27.8951074 7.03977473,31.5029919 C7.03977473,35.1108765 9.67969025,38.1027807 13.5515663,38.1027807 C15.4875044,38.1027807 17.5114396,37.1348117 18.655403,35.6388596 L23.8472369,39.2467441 C21.5593101,42.5026399 17.9514256,44.5265751 13.4635692,44.5265751 C6.33579725,44.5265751 0,39.2467441 0,31.5029919 Z"/><g fill="#F9C606" transform="translate(26.223 6.864)"><path d="M0,18.8313974 C0,8.53572686 8.09574094,-6.25257599e-15 18.3914115,-6.25257599e-15 C28.687082,-6.25257599e-15 36.8708201,8.44772967 36.8708201,18.8313974 C36.8708201,29.1270679 28.687082,37.5747976 18.3914115,37.5747976 C8.09574094,37.6627948 0,29.1270679 0,18.8313974 Z M29.5670539,18.8313974 C29.5670539,12.3196058 24.9032031,6.95177754 18.4794087,6.95177754 C11.967617,6.95177754 7.39176346,12.3196058 7.39176346,18.8313974 C7.39176346,25.343189 11.967617,30.7110172 18.4794087,30.7110172 C24.9032031,30.7110172 29.5670539,25.4311862 29.5670539,18.8313974 Z"/><polygon points="63.182 .704 70.486 .704 70.486 36.959 63.886 36.959 50.686 14.168 50.686 36.959 43.383 36.959 43.383 .704 50.158 .704 63.094 23.231 63.094 .704"/></g><g fill="#FFF" transform="translate(118.004 7.568)"><polygon points="0 36.255 0 0 7.304 0 7.304 36.255"/><polygon points="35.727 0 43.031 0 43.031 36.255 36.431 36.255 23.231 13.464 23.231 36.255 15.927 36.255 15.927 0 22.703 0 35.639 22.527 35.639 0"/><path d="M78.7574798 25.8711721C78.7574798 30.8870116 75.3255896 36.2548398 67.3178458 36.2548398L51.8303414 36.2548398 51.8303414 6.25257599e-15 66.1738824 6.25257599e-15C72.6856741 6.25257599e-15 76.8215417 3.8718761 76.8215417 9.4156987 76.8215417 12.1436114 75.7655755 15.751496 71.8057022 16.9834565 76.469553 17.687434 78.7574798 21.8233017 78.7574798 25.8711721ZM65.8218937 6.51179162 59.2221049 6.51179162 59.2221049 14.4315382 65.8218937 14.4315382C68.1098205 14.4315382 69.5177754 12.9355861 69.5177754 10.4716649 69.5177754 8.18373812 68.373812 6.51179162 65.8218937 6.51179162ZM66.2618796 29.8310454C69.6937698 29.8310454 71.3657163 27.6311158 71.3657163 25.1671946 71.3657163 22.8792679 69.8697642 20.5033439 66.3498768 20.5033439L59.1341077 20.5033439 59.1341077 29.7430482 66.2618796 29.7430482 66.2618796 29.8310454ZM103.836677 36.2548398 95.2129532 23.2312566 92.749032 23.2312566 92.749032 36.2548398 85.4452658 36.2548398 85.4452658 6.25257599e-15 99.9648011 6.25257599e-15C108.324534 6.25257599e-15 111.844421 5.89581133 111.844421 11.8796199 111.844421 17.0714537 108.236536 22.0872932 103.1327 22.967265L112.548398 36.2548398 103.836677 36.2548398ZM92.749032 6.51179162 92.749032 17.4234424 98.5568462 17.4234424C102.692714 17.4234424 104.36466 14.9595213 104.36466 12.0556142 104.36466 9.15170715 102.516719 6.51179162 99.0848293 6.51179162L92.749032 6.51179162 92.749032 6.51179162Z"/><polygon points="118.884 36.255 118.884 0 126.188 0 126.188 36.255"/><path d="M125.747976 47.8704681 126.363956 41.1826822C127.771911 41.7106653 130.499824 41.7986624 130.851813 41.7986624 134.107709 41.7986624 135.339669 39.3347413 135.339669 36.5188314L135.339669 6.25257599e-15 142.643435 6.25257599e-15 142.643435 36.4308342C142.643435 43.030623 139.38754 48.6624428 130.851813 48.6624428 129.883844 48.6624428 127.595917 48.3984512 125.747976 47.8704681ZM174.05843 36.2548398 171.066526 27.5431186 157.51496 27.5431186 154.611052 36.2548398 146.779303 36.2548398 160.330869 3.126288e-15 168.250616 3.126288e-15 181.714185 36.2548398 174.05843 36.2548398ZM159.626892 21.2073214 168.866596 21.2073214 164.202746 7.47976065 159.626892 21.2073214Z"/></g><path fill="#FFF" d="M319.69377,10.2076734 C319.69377,15.8394931 315.205913,20.4153467 309.574094,20.4153467 C303.942274,20.4153467 299.454417,15.8394931 299.454417,10.2076734 C299.454417,4.48785639 303.942274,0 309.574094,0 C315.205913,0 319.69377,4.57585357 319.69377,10.2076734 Z M317.933826,10.2076734 C317.933826,5.5438226 314.237944,1.75994368 309.574094,1.75994368 C304.910243,1.75994368 301.214361,5.5438226 301.214361,10.2076734 C301.214361,14.8715241 304.910243,18.655403 309.574094,18.655403 C314.237944,18.655403 317.933826,14.8715241 317.933826,10.2076734 Z M311.24604,11.7916227 L313.709961,15.2235128 L311.24604,15.2235128 L308.958113,11.8796199 L308.43013,11.8796199 L308.43013,15.2235128 L306.230201,15.2235128 L306.230201,5.36782823 L310.278071,5.36782823 C312.565998,5.36782823 313.621964,6.95177754 313.621964,8.62372404 C313.44597,10.5596621 312.565998,11.5276311 311.24604,11.7916227 Z M308.342133,7.30376628 L308.342133,10.1196762 L309.838085,10.1196762 C310.894051,10.1196762 311.24604,9.32770151 311.24604,8.71172122 C311.24604,8.18373812 310.894051,7.39176346 309.838085,7.39176346 L308.342133,7.39176346 L308.342133,7.30376628 Z"/><path fill="#F9C606" d="M28.4230905,53.1502992 C31.6789863,51.5663499 32.2069694,55.1742344 36.9588173,56.406195 C41.6226681,57.6381556 49.5424146,60.1020767 70.0457585,57.6381556 C90.5491024,55.1742344 113.604365,49.5424146 114.308342,50.686378 C115.01232,51.8303414 104.716649,55.7902147 96.6209081,57.8141499 C88.5251672,59.8380852 67.2298486,64.1499472 52.2703273,64.1499472 C37.3108061,64.1499472 30.5350229,61.0700458 28.5110876,59.2221049 C26.3991552,57.2861668 25.343189,54.7342485 28.4230905,53.1502992"/></g></g></svg>