<svg xmlns="http://www.w3.org/2000/svg" xmlns:xlink="http://www.w3.org/1999/xlink" width="69" height="67" viewBox="0 0 69 67"><defs><polygon id="a" points="0 0 24.057 0 24.057 38.29 0 38.29"/></defs><g fill="none" fill-rule="evenodd"><path fill="#3E1647" d="M45.880231,39.9154195 C48.1586687,40.9089608 49.6699415,42.7618945 51.1078516,44.7594577 C50.8479378,44.8894145 50.6760594,44.9753538 50.5020848,45.061293 C47.9511569,46.3252285 46.3413683,48.3479446 45.6811035,51.1147687 C45.5553388,51.6408844 45.2807525,52.3367826 46.0814546,52.5254297 C46.8926371,52.7140768 46.9219822,51.9678727 47.0477469,51.4375648 C47.6053039,49.0983408 48.9614669,47.4089013 51.1036594,46.3147481 C51.6549282,46.0317775 51.9232263,46.0695069 52.2187734,46.6689855 C53.8725796,50.0373841 54.5831503,53.6070064 54.602015,57.3338345 C54.6062072,57.8830072 54.549613,58.5516563 55.2979132,58.5579446 C56.1111918,58.5663289 56.0420212,57.8578542 56.0147721,57.2961051 C55.9665623,56.2438735 55.9183525,55.1874498 55.8051642,54.1415065 C55.6898799,53.0787945 55.4949446,52.0244669 55.3314504,50.9345059 C55.4404465,50.9345059 55.5117132,50.9219294 55.5745956,50.936602 C55.7422819,50.9764275 55.9078721,51.0225412 56.0692702,51.0728471 C58.0186235,51.6890943 59.5445689,52.8545141 60.6135691,54.6005477 C60.8860593,55.0470125 61.1878947,55.5018616 61.7601242,55.1727773 C62.3952361,54.8059635 62.0787282,54.2966163 61.7957575,53.8459594 C60.3264063,51.4983511 58.2261353,50.0436724 55.5221936,49.4819232 C55.0065582,49.3750232 54.7508366,49.1675114 54.5768621,48.6539721 C53.8495227,46.5033952 52.7889068,44.5205047 51.3782458,42.7325494 C51.0806026,42.3552552 50.7682868,41.9863454 50.3553593,41.4832864 C50.7305574,41.5461688 50.9359731,41.5818022 51.1434849,41.6153394 C52.8832304,41.8920218 54.6229758,42.1749925 56.3648173,42.4370023 C56.8490115,42.5103651 57.3583587,42.4768278 57.4023763,41.8249473 C57.446394,41.1856433 56.9747762,41.1059923 56.4696212,41.0598785 C53.8243698,40.8188295 51.2294242,40.3136745 48.7162257,39.4563782 C42.6040598,37.377068 37.6070079,33.9960929 35.1189623,27.7057603 C35.0225427,27.4647113 34.6452485,27.1544916 34.4377367,27.1817406 C34.1736308,27.2152779 33.8277777,27.5129211 33.7229738,27.777027 C31.7799087,32.6881397 28.1536924,35.9265815 23.4878209,38.1295603 C19.9496398,39.8001351 16.2018509,40.7056412 12.3178168,41.0661668 C11.8210461,41.1122805 11.4206951,41.2443335 11.4605206,41.8291395 C11.5024422,42.428618 11.948907,42.4935964 12.4268129,42.4453866 C13.1834974,42.3699278 13.944374,42.3175258 14.6926741,42.1959532 C15.9104959,41.9968258 17.1220295,41.7494885 18.4593278,41.5000551 C18.3209866,41.7033747 18.2664885,41.8060826 18.1910297,41.8920218 C16.3737294,43.9377948 15.0972174,46.2895952 14.1791348,48.8572918 C14.0910995,49.1046291 13.7431504,49.3645428 13.4748523,49.423233 C11.9908285,49.7502213 10.5592067,50.2490881 9.43780452,51.2656863 C8.48828082,52.1250786 7.6980591,53.1689259 6.90993346,54.1897163 C6.77159226,54.367883 6.87430012,54.9359204 7.06504329,55.1245674 C7.38574335,55.4431714 7.79447872,55.2859655 8.05858466,54.9065753 C8.18434939,54.7263125 8.28705725,54.5292811 8.40862982,54.3448261 C9.63483593,52.5128532 11.3263715,51.3788746 13.5628877,50.8632392 C13.5146778,51.1650745 13.4748523,51.3746824 13.4538916,51.5842903 C13.2463798,53.6049103 13.0179072,55.6234342 12.8565091,57.6482464 C12.7978189,58.3944504 13.4182582,58.8409152 13.8814916,58.4552367 C14.1015799,58.2707818 14.2126721,57.8809111 14.2483054,57.5685954 C14.4704898,55.6506832 14.5648133,53.7097142 14.8813212,51.8085707 C15.2187899,49.7753743 15.9838587,47.8658465 17.0402824,46.0275853 C17.3127727,46.1407736 17.5391492,46.2225207 17.7550453,46.3273246 C20.0020418,47.4256699 21.3414362,49.2303938 21.8717441,51.6513648 C21.9849324,52.1711924 22.1358501,52.6805395 22.7856345,52.533814 C23.4438032,52.3849924 23.3431915,51.8232433 23.2341954,51.3285687 C22.666158,48.7252388 21.2638813,46.7150992 18.943522,45.3736087 C18.5892847,45.168193 18.2182787,44.9879302 17.7781022,44.7573616 C19.2558377,42.7556063 20.7629184,40.8817118 23.0853738,39.8734979 C27.9021629,37.7837073 31.8532715,34.7150479 34.2910112,29.9380843 C34.3182602,29.8814901 34.3832386,29.8458568 34.4398328,29.7913588 C34.9680446,30.6423668 35.4417584,31.4954708 35.9993154,32.2898847 C38.4999375,35.8532187 41.9396028,38.1987309 45.880231,39.9154195"/><path fill="#3E1647" d="M67.8389624 39.0250052C66.8789583 33.1476002 65.1475972 27.532205 62.0118633 22.4198687 59.2429431 17.9049149 55.7005699 14.1759907 50.9298945 11.7340589 49.5380982 11.019296 48.5256921 11.1576372 47.3602723 12.1910041 44.0170265 15.1527634 41.742781 18.8292857 40.1874905 22.9816179 39.9988434 23.4867729 39.8374454 24.0003122 39.6655669 24.5117554 39.5104571 24.9687006 39.6844316 25.3648595 40.1162238 25.4193575 40.3803298 25.4528948 40.7345671 25.1741163 40.9651358 24.951932 41.1223417 24.8010143 41.1349181 24.5033711 41.2145691 24.2707063 42.67344 20.0533957 44.8659385 16.3056068 48.2196646 13.2998298 49.0497118 12.5536257 49.3934687 12.5054159 50.3912022 13.0294356 54.8181207 15.3581792 58.1131566 18.862823 60.6976218 23.0717493 64.8415697 29.8169309 66.5393935 37.291548 67.111623 45.082673 67.4973015 50.3081975 67.2918858 55.5232416 66.8097877 60.7361897 66.4807033 64.2932355 62.7622595 66.1084397 59.798404 64.121357 59.1046019 63.6581236 58.4380489 63.1550646 57.750535 62.685543 55.6334954 61.2413447 53.3299048 60.851474 50.810418 61.3000349 49.5695393 61.5222192 48.2720665 61.6144467 47.0186114 61.5243153 43.9709128 61.304227 41.4912515 59.3129522 40.9483671 56.4937261 40.2776219 53.0100431 39.7137767 49.4928229 39.3280982 45.9672183 39.0367432 43.2926217 39.0891452 40.5802957 39.0073981 37.8847383 38.9906295 37.4005441 38.9319393 36.9540793 38.3534215 36.9247342 37.726694 36.8953891 37.6030253 37.3544304 37.6051214 37.8700658 37.6051214 37.9937344 37.594641 38.115307 37.5925449 38.2389756 37.4961253 44.4475611 38.1731588 50.5806878 39.5272257 56.6299713 40.2377964 59.8013385 42.2814733 61.809382 45.4151111 62.6666783 47.2973899 63.1823137 49.1985334 63.1341039 51.0954847 62.712792 53.3068479 62.2244056 55.3232757 62.6687744 57.1615369 63.9767275 57.8804919 64.4881708 58.5847744 65.026863 59.3351706 65.4880004 62.9530026 67.7182283 67.7467349 65.3957729 68.1387017 61.1763662 68.4531135 57.7828146 68.627088 54.3787826 68.8639449 50.9789427 68.7486606 46.9649518 68.4866508 42.9782099 67.8389624 39.0250052M30.5210038 36.9201228C29.9487743 36.9452758 29.8397782 37.3833563 29.8649311 37.8759348 29.8796037 38.1693858 29.8712194 38.4628369 29.8733154 38.758384 29.9278135 44.7196322 29.2570683 50.6054215 27.9491151 56.4136559 27.3768856 58.9436231 25.7230794 60.5596998 23.2266495 61.2723666 21.566555 61.7439844 19.8792116 61.7439844 18.2044446 61.360402 15.5319441 60.750443 13.1025887 61.2576941 10.8807452 62.8444258 10.2037117 63.32862 9.53715866 63.833775 8.82868402 64.2718554 6.18133646 65.9109891 2.80455347 64.4479261 2.17572982 61.3960353 2.08140627 60.9411862 2.06044549 60.4737606 2.01642783 60.0105272 1.33310613 52.9257808 1.30376103 45.8536108 2.50271812 38.8149781 3.53818106 32.7384456 5.47076574 26.9889014 8.96073698 21.8430278 11.4466865 18.176986 14.5048655 15.1125187 18.4664545 13.0353046 19.4893409 12.4987084 19.8729234 12.4924202 20.6820098 13.3560047 21.9836747 14.747801 23.2832436 16.1605581 24.410934 17.6927918 25.9725127 19.8203118 26.991207 22.245475 27.8086778 24.7523853 27.9574994 25.2093304 28.1880681 25.6075854 28.7414329 25.4461873 29.2151467 25.3057501 29.3409114 24.9368402 29.1816094 24.4484538 27.6326072 19.6421451 25.182291 15.4059698 21.3485628 12.0480515 20.3801744 11.1991396 19.2587723 10.997916 18.1499466 11.6477004 16.5904639 12.5636869 14.9995401 13.471289 13.5993594 14.6031716 8.51008004 18.7219665 5.32194414 24.1466185 3.20280845 30.2587843.888737422 36.9410836.150917676 43.8623359 0 50.8988725.234760829 54.2987124.408735371 57.7027444.721051116 61.096296 1.12769041 65.4875812 6.009458 67.7848836 9.7111332 65.3743929 10.451049 64.8943909 11.1553315 64.3577947 11.8826709 63.8589279 13.6517614 62.6452983 15.5801539 62.2952531 17.6930014 62.6788355 18.8437486 62.8863473 20.0301293 63.0330729 21.193453 62.9995356 25.4380126 62.8716748 28.5884191 60.3165547 29.4079859 56.4241363 30.5168116 51.1587863 31.1812686 45.8368422 31.2755922 40.4520157 31.2923608 39.5926233 31.2630157 38.7353271 31.2588235 37.8759348 31.2567275 37.3623955 31.1519235 36.8928738 30.5210038 36.9201228"/><path fill="#3E1647" d="M36.2085041,19.2698815 C36.2231766,20.825172 36.3636139,22.4244801 36.7555807,23.9231765 C38.6106104,31.0204994 43.2135995,35.4725708 50.2417518,37.3883869 C51.9563443,37.8558124 53.756876,38.0088262 55.5217744,38.2813164 C55.9598549,38.348391 56.3099,38.1513595 56.3643981,37.6692614 C56.4209922,37.178779 56.1128686,36.9607868 55.6747881,36.8853279 C55.5532156,36.8664632 55.4295469,36.8685593 55.3079743,36.8475985 C53.436176,36.4954573 51.5308403,36.2586004 49.7009635,35.7513493 C48.2399965,35.3468061 46.8712571,34.6110824 45.460596,34.0220843 C45.4836529,33.9445293 45.5046137,33.8669744 45.5255745,33.7894195 C47.5545788,32.9488919 49.3991281,31.8191054 51.0738951,30.4021561 C51.2269089,30.2721992 51.5559932,30.318313 51.8012345,30.3350816 C53.1385328,30.4294051 54.4800232,30.6788385 55.8068411,30.6138601 C57.4858002,30.5300169 58.9048456,29.7146423 59.9507889,28.3794401 C60.1247635,28.1572557 60.1247635,27.687734 60.0157674,27.4068595 C59.9612693,27.2643261 59.4749791,27.2182124 59.2003927,27.2559418 C59.0243221,27.2789987 58.8734044,27.526336 58.7224868,27.685638 C57.2950571,29.1927186 54.4988879,29.788005 52.7549503,29.043897 C53.782029,27.4110516 54.8258762,25.7614376 55.857147,24.1055353 C56.1401176,23.6506862 56.1694627,23.1895489 55.6077136,22.9338273 C55.0648292,22.688586 54.8300684,23.0931293 54.5911154,23.4997685 C54.023078,24.470253 53.4864818,25.4679866 52.8346013,26.3818769 C51.470054,28.2893087 49.7512694,29.8278305 47.7054964,31.0708053 C46.9991179,29.5050344 47.2213022,28.0503557 47.9130082,26.6250221 C48.1289044,26.1806534 48.2190358,25.7509572 47.7054964,25.4889474 C47.1395552,25.1996885 46.8586806,25.5832709 46.6344002,26.0444082 C45.7288941,27.9078223 45.5905529,29.7984854 46.4730021,31.8023368 C45.9175412,32.0517702 45.406098,32.234129 44.9428645,32.4982349 C44.2553507,32.8902017 43.7648682,32.7057468 43.2094074,32.1880153 C39.4217929,28.6624107 37.5856279,24.2983746 37.5667632,19.1566932 C37.5458024,13.220598 37.562571,7.28450275 37.562571,1.34840751 C37.562571,1.10316629 37.6359338,0.813907408 37.5332259,0.623164235 C37.3906925,0.361154382 37.0678964,-0.0308123587 36.9002101,0.00272490247 C36.6298159,0.057222952 36.4013433,0.403075958 36.1980237,0.658797575 C36.126757,0.751025044 36.1833511,0.943864296 36.1833511,1.09268589 C36.1833511,7.1503537 36.1477178,13.2101176 36.2085041,19.2698815"/><g transform="translate(8.643)"><mask id="b" fill="#fff"><use xlink:href="#a"/></mask><path fill="#3E1647" d="M22.390514,22.2871869 C21.7155766,26.3850211 19.785088,29.7995335 16.620009,32.4971869 C16.4481305,32.6439124 16.1190462,32.7633889 15.928303,32.7005066 C15.1925793,32.4531693 14.4841047,32.126181 13.7609575,31.8264417 C13.8825301,31.4826848 13.9789497,31.2311553 14.0606968,30.9775298 C14.626638,29.1874784 14.3373792,27.4917507 13.4947555,25.8589053 C13.2893398,25.4585542 12.9665436,25.2573306 12.5284631,25.4816111 C12.1050552,25.6996033 12.0484611,26.0601288 12.2454925,26.4814407 C12.3817376,26.7686035 12.5200788,27.0578624 12.6248828,27.3576016 C13.0503868,28.5963842 13.1258456,29.8267825 12.5075023,31.063469 C12.3314317,30.9607611 12.2014748,30.8894944 12.0799023,30.8098435 C9.30888606,28.9946392 7.17926997,26.6093015 5.69943832,23.645446 C5.46467749,23.1780204 5.23201274,22.6162713 4.56545967,22.9663165 C3.90729092,23.3121695 4.18397333,23.8508618 4.46275181,24.2910383 C5.31795197,25.6304327 6.19830508,26.9551545 7.08075427,28.2777802 C7.24634449,28.5272136 7.45595238,28.7452058 7.70957791,29.0533294 C5.26555,29.548004 3.0982045,29.4473922 1.37103554,27.5336722 C1.03985509,27.1647624 0.666753058,26.9320976 0.241249056,27.3303526 C-0.180062788,27.7202233 0.0148725427,28.1226704 0.335572603,28.4915803 C1.07548843,29.3425883 1.97051409,29.9672198 3.04161037,30.3256492 C4.82746953,30.9251278 6.61332869,30.7742101 8.40757216,30.344514 C8.65281339,30.2858237 9.02172326,30.2942081 9.19150564,30.4367414 C10.8599844,31.834826 12.6898612,32.9541321 14.8027087,33.828197 C13.1027887,34.920254 11.3840041,35.6413051 9.56879983,36.0563288 C7.95062698,36.4252386 6.29053255,36.6096936 4.64720675,36.8675113 C4.19235764,36.940874 3.81506346,37.1043682 3.85908111,37.6409643 C3.90100269,38.1691762 4.27829688,38.3138057 4.75201069,38.2865566 C4.84843032,38.2802684 4.9490421,38.2823645 5.04546173,38.2655958 C7.01367974,37.8862056 9.03220365,37.6765977 10.9417315,37.0959839 C18.8565251,34.6917814 23.9499967,27.8543723 24.0275516,19.5853413 C24.0841457,13.3788519 24.0401281,7.17026645 24.0422241,0.963777044 C24.0422241,0.840108394 24.0862418,0.674518166 24.0233594,0.603251486 C23.8221359,0.368490658 23.5810868,0.00167686306 23.3526142,-0.000428585008 C23.1283338,-0.00251529459 22.841171,0.347529869 22.6944454,0.605347565 C22.5875454,0.791898581 22.6630043,1.08325354 22.6630043,1.32849476 C22.6630043,7.11996056 22.6776768,12.9093303 22.6504278,18.6987 C22.6462356,19.8976571 22.5854493,21.1091906 22.390514,22.2871869" mask="url(#b)"/></g></g></svg>