<svg xmlns="http://www.w3.org/2000/svg" xmlns:xlink="http://www.w3.org/1999/xlink" width="104" height="104" viewBox="0 0 104 104"><defs><polygon id="a" points="0 0 41.205 0 41.205 43.913 0 43.913"/><polygon id="c" points="0 0 38.148 0 38.148 33.267 0 33.267"/></defs><g fill="none" fill-rule="evenodd"><circle cx="52" cy="52" r="52" fill="#F9C606"/><g transform="translate(23 27)"><mask id="b" fill="#fff"><use xlink:href="#a"/></mask><path fill="#3E1647" d="M2.67938383,43.9132256 C2.36776169,43.9132256 2.05897248,43.8112402 1.80400891,43.6101023 C1.35357327,43.2559862 1.16093412,42.6639041 1.3167452,42.1114831 L4.11284569,32.1849014 C1.41873062,28.7627237 -0.000566585712,24.7966237 -0.000566585712,20.6718797 C-0.000566585712,9.27217518 10.8523827,0 24.1926433,0 C30.3287666,0 36.1787641,1.96321949 40.6689558,5.52987655 C41.2808684,6.01714026 41.3856868,6.90667983 40.8984231,7.52142533 C40.4111593,8.13050497 39.5187868,8.23532333 38.9068743,7.74805962 C34.9152779,4.57801256 29.6913577,2.83292856 24.1926433,2.83292856 C12.4161593,2.83292856 2.83236198,10.8359517 2.83236198,20.6718797 C2.83236198,24.3575198 4.18933476,27.9100122 6.75880096,30.9440787 C7.06192432,31.3038606 7.16674268,31.7911243 7.04209382,32.2443929 L4.97405597,39.5788449 L11.6031088,35.8393792 C12.0223822,35.6042462 12.5294764,35.5957474 12.9515828,35.8167158 C16.7647046,37.7940999 21.2492306,38.70347 25.6374369,38.4711699 C26.38533,38.4116784 27.0878963,39.0264239 27.1303902,39.8083121 C27.1728842,40.5902004 26.5751363,41.2559386 25.793248,41.2984326 C21.1869061,41.5420644 16.4360849,40.6496919 12.3396702,38.6779737 L3.37628426,43.7319182 C3.15814876,43.8537341 2.91734983,43.9132256 2.67938383,43.9132256" mask="url(#b)"/><g transform="translate(23.675 10.646)"><mask id="d" fill="#fff"><use xlink:href="#c"/></mask><path fill="#3E1647" d="M28.2924575,26.4170588 C28.5247577,26.4170588 28.7542249,26.4737174 28.9638616,26.5870346 L33.43139,28.9921909 L32.0687513,24.3688515 C31.9327707,23.9014183 32.0460879,23.3943241 32.3690417,23.0288763 C34.2954332,20.8531871 35.3152874,18.3148832 35.3152874,15.6830925 C35.3152874,8.59510526 28.0289952,2.83292856 19.074108,2.83292856 C10.1163879,2.83292856 2.83292856,8.59510526 2.83292856,15.6830925 C2.83292856,22.7654139 10.1163879,28.5304235 19.074108,28.5304235 C22.0968428,28.5304235 25.0657519,27.8505207 27.6635474,26.5643711 C27.8618524,26.4652186 28.077155,26.4170588 28.2924575,26.4170588 M35.7487255,33.2670801 C35.5192583,33.2670801 35.2869582,33.2104215 35.0773214,33.0971044 L28.2499636,29.4199631 C25.4311997,30.691948 22.2724844,31.3633521 19.074108,31.3633521 C8.55544426,31.3633521 5.03229203e-15,24.3291905 5.03229203e-15,15.6830925 C5.03229203e-15,7.03416162 8.55544426,0 19.074108,0 C29.5899388,0 38.148216,7.03416162 38.148216,15.6830925 C38.148216,18.7681517 37.0632044,21.7342279 35.0036653,24.2980283 L37.1056983,31.4511729 C37.2671752,31.9979281 37.0858678,32.5900102 36.641098,32.9497921 C36.3833015,33.1594288 36.0660135,33.2670801 35.7487255,33.2670801" mask="url(#d)"/></g><path fill="#3E1647" d="M49.8819228,25.4549963 L35.6152946,25.4549963 C34.8334063,25.4549963 34.1988303,24.8204203 34.1988303,24.038532 C34.1988303,23.2566437 34.8334063,22.6220677 35.6152946,22.6220677 L49.8819228,22.6220677 C50.6638111,22.6220677 51.2983871,23.2566437 51.2983871,24.038532 C51.2983871,24.8204203 50.6638111,25.4549963 49.8819228,25.4549963 M49.8819228,30.6052604 L35.6152946,30.6052604 C34.8334063,30.6052604 34.1988303,29.9706844 34.1988303,29.1887961 C34.1988303,28.4069079 34.8334063,27.7723319 35.6152946,27.7723319 L49.8819228,27.7723319 C50.6638111,27.7723319 51.2983871,28.4069079 51.2983871,29.1887961 C51.2983871,29.9706844 50.6638111,30.6052604 49.8819228,30.6052604"/></g></g></svg>