<svg xmlns="http://www.w3.org/2000/svg" width="104" height="104" viewBox="0 0 104 104"><g fill="none" fill-rule="evenodd"><circle cx="52" cy="52" r="52" fill="#F9C606"/><path stroke="#3E1647" stroke-width="4" d="M57.2650784,40.7434984 C57.7733798,40.6833767 58.3046169,40.8171655 58.7383091,41.1591151 L58.7383091,41.1591151 L76.0536666,63.0309217 C76.3956162,63.4646139 76.529405,63.9958509 76.4692833,64.5041523 C76.4091616,65.0124537 76.1551295,65.4978195 75.7214373,65.8397691 C75.3686232,66.1179495 74.932419,66.2692308 74.4831283,66.2692308 L74.4831283,66.2692308 L40.5168717,66.2692308 C39.964587,66.2692308 39.464587,66.0453731 39.1026582,65.6834443 C38.7407294,65.3215155 38.5168717,64.8215155 38.5168717,64.2692308 C38.5168717,63.81994 38.668153,63.3837359 38.9463334,63.0309217 L38.9463334,63.0309217 L55.9294617,41.4913444 C56.2714113,41.0576522 56.756777,40.8036201 57.2650784,40.7434984 Z" transform="rotate(90 57.5 52.27)"/></g></svg>