<svg xmlns="http://www.w3.org/2000/svg" width="74" height="74" viewBox="0 0 74 74"><g fill="none" fill-rule="evenodd" transform="translate(2 2)"><path stroke="#F9C606" stroke-width="3" d="M35.1647867,70.3729317 C15.7693517,70.3654572 -0.0119481764,54.5460509 0,35.1214757 C0.011961752,15.7379956 15.8530365,-0.0261189936 35.2918082,0 C54.6132718,0.0239424189 70.379628,15.8702474 70.3632028,35.2492443 C70.3460047,54.5849045 54.5176321,70.3804009 35.1647867,70.3729317"/><path fill="#3E1647" d="M52.7156454,24.8709158 C52.4877539,24.900056 52.2090538,25.1443856 52.0939873,25.4111307 C47.2574571,29.9689608 40.7584397,36.0891553 37.5829024,39.084621 C34.935625,41.5734951 31.9282043,44.3986026 30.8649597,45.3901174 C30.0848983,46.1246005 29.38628,46.6356752 29.3070784,46.5273334 C29.1606301,46.3330652 28.9588901,45.9826353 28.6831787,45.6994521 C25.3709065,42.2743549 20.9161879,37.6806599 18.734407,35.4391041 C18.1194735,34.805491 17.1959525,34.6104757 16.6721757,35.0117141 C15.8540078,35.7529219 16.0124111,36.660752 17.0181224,37.0373334 C20.8130764,40.8898206 25.8984193,46.0693088 28.3805687,48.6082443 C29.3743251,49.6214275 30.4442944,49.6453375 30.7685728,48.6590529 C38.3913568,41.5137203 48.6285421,31.9108953 53.6324417,27.2133416 C53.8655635,26.9951635 54.1554714,26.6903119 54.2802514,26.5341502 C54.3669249,26.0036486 54.3235881,25.2960642 54.1868532,24.9478759 C54.0815001,24.8036691 53.8296987,24.7296978 53.5173752,24.7296978 C53.2722985,24.7296978 52.9913568,24.7745289 52.7156454,24.8709158"/></g></svg>