<svg xmlns="http://www.w3.org/2000/svg" xmlns:xlink="http://www.w3.org/1999/xlink" width="104" height="104" viewBox="0 0 104 104"><defs><polygon id="a" points="0 0 59.045 0 59.045 63.342 0 63.342"/></defs><g fill="none" fill-rule="evenodd"><circle cx="52" cy="52" r="52" fill="#F9C606"/><g transform="translate(26 20)"><mask id="b" fill="#fff"><use xlink:href="#a"/></mask><path fill="#3E1647" d="M32.8173809,24.6038444 C31.9616921,24.6038444 31.26722,23.9093723 31.26722,23.0536834 C31.26722,19.370501 32.153912,16.8282371 33.9055939,15.498199 C35.6851786,14.1464587 37.5794753,14.6208079 37.7902972,14.6766137 C38.6149828,14.9091379 39.098633,15.7617264 38.8692092,16.586412 C38.6428857,17.4017966 37.7995982,17.8854469 36.9904142,17.674625 C36.8943042,17.6498224 36.2990424,17.5475118 35.7471851,17.9939581 C35.2325316,18.4032006 34.3675418,19.6092258 34.3675418,23.0536834 C34.3675418,23.9093723 33.6730697,24.6038444 32.8173809,24.6038444 M0.549230841,63.3423662 C-0.306457997,63.3423662 -1.0009301,62.6478941 -1.0009301,61.7922052 C-1.0009301,53.5391484 3.23100926,45.1806806 11.3135484,45.1806806 C14.3673654,45.1806806 17.4893896,45.5527193 20.0440548,45.9278582 C21.2965848,43.6894258 22.6762281,40.0899521 22.6762281,33.818001 C22.6762281,32.8879044 22.6421245,31.833795 22.6049207,30.6897762 C22.5522152,29.0962108 22.4964094,27.3383283 22.5150113,25.52464 C9.57736814,17.8079388 7.61796471,7.2327409 7.61796471,1.5498509 C7.61796471,0.694162068 8.31243681,-0.000310032187 9.16812565,-0.000310032187 C10.0238145,-0.000310032187 10.7182866,0.694162068 10.7182866,1.5498509 C10.7182866,6.67468296 12.5536771,16.316684 24.8464534,23.2924082 C25.3425049,23.5745375 25.6463364,24.1077929 25.6308348,24.6813524 C25.5781293,26.7585681 25.6463364,28.7799779 25.7052425,30.5905659 C25.7424464,31.7686882 25.7765499,32.8600015 25.7765499,33.818001 C25.7765499,41.7672263 23.7086352,45.9712627 22.1584743,48.4391189 C21.8267399,48.9661737 21.2159765,49.2359017 20.6083134,49.1490926 C17.9978423,48.7460508 14.5812876,48.2810025 11.3135484,48.2810025 C5.26482041,48.2810025 2.09939178,55.0800084 2.09939178,61.7922052 C2.09939178,62.6478941 1.40802,63.3423662 0.549230841,63.3423662 M28.5234351,63.3423662 C21.259381,63.3423662 17.9637388,58.5926731 17.0088397,56.8626935 C16.1624518,56.5247584 13.496175,56.2860336 12.0483247,56.7107777 C11.6824867,57.2130298 10.8050956,59.0856242 10.8050956,61.7922052 C10.8050956,62.6478941 10.1106235,63.3423662 9.25493466,63.3423662 C8.39924583,63.3423662 7.70477373,62.6478941 7.70477373,61.7922052 C7.70477373,58.0222138 9.14332308,54.382436 10.8453998,53.8460803 C12.9381171,53.0709998 16.8042184,53.3376275 18.4504893,54.1158083 C19.0333499,54.3886366 19.4363917,54.7637756 19.6503139,55.2288238 C19.6534142,55.2350245 19.6565146,55.2412251 19.6596149,55.2474258 C20.2796792,56.4193474 22.7413348,60.2420443 28.5234351,60.2420443 C40.7728068,60.2420443 54.9443781,40.3534795 54.9443781,27.3755321 C54.9443781,10.7361046 48.9545563,7.39395764 39.2877527,7.39395764 C32.6654651,7.39395764 28.7125547,10.0478332 26.846161,15.7431244 C26.6911449,16.2143734 26.3222066,16.5833117 25.8478573,16.7352274 C25.3766084,16.8871432 24.8588547,16.8034345 24.4589131,16.5120043 C17.638205,11.5235864 16.2058563,5.62057353 16.2058563,1.5498509 C16.2058563,0.694162068 16.9003284,-0.000310032187 17.7560172,-0.000310032187 C18.6117061,-0.000310032187 19.3061782,0.694162068 19.3061782,1.5498509 C19.3061782,4.56956441 20.2889802,8.83250699 24.7007382,12.7327119 C27.2771057,7.13043028 32.1756143,4.29363576 39.2877527,4.29363576 C52.4362177,4.29363576 58.0447,11.1980526 58.0447,27.3755321 C58.0447,40.9053368 43.7460155,63.3423662 28.5234351,63.3423662" mask="url(#b)"/></g></g></svg>