<svg xmlns="http://www.w3.org/2000/svg" xmlns:xlink="http://www.w3.org/1999/xlink" width="104" height="104" viewBox="0 0 104 104"><defs><polygon id="a" points="0 0 31.424 0 31.424 29.512 0 29.512"/><polygon id="c" points="0 0 22.355 0 22.355 28.322 0 28.322"/></defs><g fill="none" fill-rule="evenodd"><circle cx="52" cy="52" r="52" fill="#F9C606"/><g transform="translate(26 23)"><g transform="translate(20.704 19.7)"><mask id="b" fill="#fff"><use xlink:href="#a"/></mask><path fill="#3E1647" d="M13.4105004,8.93888471 L13.4105004,8.93888471 C13.1655011,9.2545569 13.4858848,11.5137332 16.0630891,14.4419461 C18.6450048,17.3772262 20.8499986,17.9920803 21.2104303,17.7753501 L27.0645003,12.656278 C28.2447373,11.624454 28.9514661,10.1897946 29.0551196,8.61614524 C29.1564174,7.04485161 28.6428612,5.53245204 27.6086814,4.35692651 L27.6086814,4.35692651 C25.4625817,1.91635649 21.7169192,1.67371295 19.2692819,3.81510112 L13.4105004,8.93888471 Z M11.2384873,10.8376293 L4.35730485,16.8566027 C3.1770678,17.8860709 2.47033903,19.3207304 2.36904124,20.8943798 C2.26774345,22.4680291 2.77894393,23.9804287 3.81547946,25.1559542 C5.96629068,27.59888 9.70959741,27.836812 12.1525232,25.6977796 L19.0313499,19.681162 C17.4341429,18.9909236 15.716792,17.6151583 14.2939114,15.9991051 C12.7720887,14.2676196 11.6931495,12.4230576 11.2384873,10.8376293 L11.2384873,10.8376293 Z M8.26080343,29.5117592 C5.96393492,29.5117592 3.67884523,28.5647427 2.04865753,26.7131133 C0.595152026,25.0640795 -0.125711321,22.9438932 0.0179901962,20.7412552 C0.161691713,18.5386172 1.15111199,16.5291517 2.80721308,15.0827135 L17.7191901,2.04121191 C21.1444689,-0.952962318 26.3719061,-0.613732508 29.3778591,2.79976745 C30.8290088,4.44880125 31.5498722,6.56898757 31.4061707,8.76926981 C31.2624692,10.9719078 30.2706931,12.983729 28.6169478,14.4301673 L22.760522,19.5515951 C22.751099,19.5586624 22.7416759,19.5657297 22.7346087,19.5751527 L13.7049707,27.4693131 C12.1383886,28.8380111 10.1972403,29.5117592 8.26080343,29.5117592 L8.26080343,29.5117592 Z" mask="url(#b)"/></g><g transform="translate(15.912)"><mask id="d" fill="#fff"><use xlink:href="#c"/></mask><path fill="#3E1647" d="M6.72716821,17.8604495 C7.12058056,18.2067466 9.44336245,18.1619871 12.5058538,16.4681938 C15.8745943,14.6000741 16.9229086,12.5906086 16.7933417,12.2066193 L13.1513327,5.40553279 C12.4139791,4.02976745 11.1866268,3.03092412 9.69542905,2.59039652 C8.2254332,2.15929197 6.68947601,2.32655111 5.36082592,3.0639048 C2.56689151,4.60928504 1.53271174,8.18533262 3.05689012,11.0334496 L6.72716821,17.8604495 Z M10.380956,28.3223911 C9.96163022,28.3223911 9.55643905,28.0985936 9.34206466,27.7028255 L4.73654884,19.1325613 C4.69414511,19.0665999 4.65645291,19.0053501 4.625828,18.9441003 C4.60227037,18.9016966 4.58106851,18.8569371 4.56457817,18.8098218 L0.981463301,12.1453695 C-1.14814606,8.16884229 0.303003681,3.16991411 4.22063683,1.00261255 C6.10524689,-0.0409902687 8.28903879,-0.278922288 10.3597541,0.331220217 C12.4610943,0.94843001 14.1878683,2.35482026 15.2267596,4.29361286 L22.2163071,17.339826 C22.5225562,17.9122763 22.3058261,18.6284281 21.7333758,18.9346772 C21.1585697,19.2385706 20.4471294,19.0241962 20.1385245,18.4517459 L18.1667512,14.7720448 C17.1584849,16.1595889 15.4835377,17.5094409 13.6460429,18.5294861 C11.6742696,19.6202041 9.686006,20.2586158 8.06995287,20.3622693 L11.4174915,26.5885498 C11.7260964,27.1610001 11.511722,27.8747962 10.9392717,28.1834011 C10.7602337,28.2776316 10.569417,28.3223911 10.380956,28.3223911 L10.380956,28.3223911 Z" mask="url(#d)"/></g><path fill="#3E1647" d="M5.49073641,33.3408721 C5.49073641,33.7837554 7.04553971,35.3150011 10.0844734,36.2054794 C13.2011473,37.121871 15.168209,36.6248051 15.4037853,36.278508 L17.2978184,29.3643449 C18.0822873,26.5020933 16.4850803,23.5220537 13.7406169,22.7163829 L13.7382612,22.7140271 C12.4590821,22.3418166 11.0998071,22.4949412 9.91957004,23.1545547 C8.67337164,23.8495047 7.7758261,25.0038283 7.39183681,26.4078628 L5.49073641,33.3408721 Z M4.73453663,36.0947585 L2.55545625,44.0501687 C1.76863155,46.9100645 3.36348281,49.8901041 6.11030197,50.6957749 C7.39419257,51.0726969 8.74875605,50.9148608 9.93370462,50.2576031 C11.179903,49.5626531 12.0774486,48.4083295 12.4614379,47.004295 L14.6570086,38.9947022 C13.2011473,39.2043651 11.3400949,39.0300387 9.42014838,38.4646557 C7.63448035,37.9416764 5.92184096,37.1030249 4.73453663,36.0947585 L4.73453663,36.0947585 Z M7.50491341,53.2541331 C6.81467498,53.2541331 6.12443654,53.1575468 5.44597692,52.957307 C1.47651699,51.7935603 -0.841553375,47.5178512 0.284501133,43.4282474 L3.20800248,32.756643 C3.21035824,32.7448641 3.21506977,32.7307296 3.21742553,32.716595 L3.21978129,32.716595 L5.11852593,25.7835857 C5.67213013,23.767053 6.96779954,22.1015289 8.77231367,21.097974 C10.5108664,20.1273998 12.5109089,19.9012466 14.4025862,20.4548508 C18.3744019,21.6185975 20.6924723,25.8943066 19.5711293,29.9862662 L14.7347487,47.6262163 C14.1811445,49.6427491 12.8854751,51.3082732 11.0833168,52.3141838 C9.96432953,52.9384609 8.73933299,53.2541331 7.50491341,53.2541331 L7.50491341,53.2541331 Z"/><path fill="#3E1647" d="M20.503069,9.99479385 C19.8528785,9.99479385 19.3251877,9.46710304 19.3251877,8.81691257 C19.3251877,6.36927526 21.2686918,4.37865589 23.6550793,4.37865589 C24.3052697,4.37865589 24.8329606,4.90399094 24.8329606,5.55653717 C24.8329606,6.20672764 24.3052697,6.73441846 23.6550793,6.73441846 C22.566717,6.73441846 21.6809502,7.66730043 21.6809502,8.81691257 C21.6809502,9.46710304 21.1532594,9.99479385 20.503069,9.99479385 M9.27550456,31.7643958 C9.171851,31.7643958 9.06819745,31.7502612 8.96218813,31.721992 C8.33555529,31.5476656 7.96805633,30.9021867 8.140027,30.2731981 L9.17656253,26.5016222 C9.62651318,24.8572999 11.0564611,23.705332 12.733764,23.6417264 C13.3933775,23.6134573 13.9304914,24.1246577 13.9564048,24.7748482 C13.9799624,25.4250387 13.4734735,25.9715756 12.823283,25.9951332 C12.1895829,26.0210466 11.6241998,26.4851318 11.4498734,27.1258993 L10.4109821,30.8998309 C10.2672806,31.4204544 9.79377232,31.7643958 9.27550456,31.7643958 M24.8777201,41.7174926 C24.2840679,41.7174926 23.7752232,41.2698977 23.7092618,40.6668225 C23.5867622,39.5266334 23.9825303,38.4359154 24.7952684,37.6773598 L27.6198277,35.0553961 C28.093336,34.6148685 28.8401127,34.6407819 29.2829961,35.1190017 C29.7258794,35.5948657 29.6976103,36.3416424 29.2217462,36.78217 L26.3995427,39.401778 C26.0556013,39.7221617 26.0202649,40.1297086 26.0508898,40.4124002 C26.1215627,41.0602349 25.6527659,41.6397524 25.007287,41.7104253 C24.9648833,41.7151369 24.9201238,41.7174926 24.8777201,41.7174926"/></g></g></svg>