<svg xmlns="http://www.w3.org/2000/svg" xmlns:xlink="http://www.w3.org/1999/xlink" width="104" height="104" viewBox="0 0 104 104"><defs><polygon id="a" points="0 0 65 0 65 66.116 0 66.116"/></defs><g fill="none" fill-rule="evenodd"><circle cx="52" cy="52" r="52" fill="#F9C606"/><g transform="translate(20 18)"><mask id="b" fill="#fff"><use xlink:href="#a"/></mask><path fill="#3E1647" d="M15.8118139,43.4566316 C22.1247363,43.4566316 29.4868318,47.593712 33.7133304,52.3090298 C37.1380461,46.5594419 43.1201212,41.4983738 49.5671709,41.0751278 C47.6834282,34.607214 46.9591411,27.9425801 47.4062319,21.2213148 C42.1544051,19.9456157 37.4420678,15.5879705 33.9964879,12.1483518 C29.4838512,16.8010769 22.1098333,21.9396407 15.615094,23.6773337 C16.6225386,30.2346657 16.6463835,36.8754547 15.6896091,43.4566316 C15.7313376,43.4566316 15.7700855,43.4566316 15.8118139,43.4566316 M38.959196,66.1151943 C38.7982433,66.1151943 38.6372906,66.0883689 38.4763379,66.034718 C36.1842523,65.2478382 34.7595229,64.0406929 33.8802443,62.8961404 C33.0128881,63.8558954 31.668635,64.9229522 29.5881724,65.9602029 C28.8519629,66.3268173 27.9548006,66.0257762 27.5881861,65.2895666 C27.2215717,64.5533571 27.5226128,63.6561948 28.2588224,63.2895804 C32.205144,61.328342 32.4674373,59.5519011 32.4704179,59.5340175 C32.4704179,59.4863278 32.4733985,59.4416187 32.4763791,59.3969096 L32.4674373,55.4863552 C28.7208162,50.4401902 20.404927,45.6682408 14.3751621,46.535597 L11.0964961,48.160027 C10.0145363,50.8157465 8.92661531,53.9066344 8.92363471,54.6160185 C8.9176735,55.435685 8.25299848,56.1033406 7.43333197,56.1033406 L7.42737076,56.1033406 C6.60770426,56.10036 5.94302924,55.4386656 5.94302924,54.6160185 C5.94302924,53.4506017 6.87595875,50.7799792 7.66283859,48.7352839 C5.94600985,48.8157602 3.69267211,48.8425857 2.14275727,48.5355833 C1.33501319,48.3746306 0.810426626,47.5907314 0.971379322,46.7829873 C1.13233202,45.9752432 1.91921186,45.4446954 2.72397534,45.6145899 C4.52724164,45.9722626 8.01455004,45.757659 9.5167752,45.6175705 L12.5748764,44.1004424 C13.6926035,37.236108 13.6896228,30.3002391 12.562954,23.4627301 L8.46462147,20.985847 C5.54958932,20.7831658 2.40206995,23.206398 2.36928329,23.2272623 C1.70460827,23.7101204 0.771678755,23.5670513 0.28882067,22.9053569 C-0.197018021,22.2436625 -0.0569295644,21.310733 0.607745455,20.8248943 C0.744853306,20.7265343 3.29327098,18.8725977 6.33050795,18.2258063 C5.23960635,15.8472831 4.8312634,12.9501346 4.73886463,12.1960414 C4.63752405,11.3793556 5.21874211,10.6371848 6.03542801,10.5358442 C6.82826906,10.4374842 7.59726527,11.0157217 7.69562525,11.8324076 C7.96089914,13.9545987 8.82825533,17.4866162 9.86252543,18.3658948 C9.86550603,18.3688754 9.87146725,18.3688754 9.87444785,18.3748366 L14.1844034,20.9620021 C20.3781015,19.5491951 28.1366175,14.148338 32.4674373,9.42705897 L32.4674373,6.49414319 C32.4674373,4.67001265 29.4898124,3.25422505 28.4495811,2.9025136 C27.6716431,2.64022032 27.2513777,1.79372837 27.5106904,1.01579034 C27.7729837,0.237852316 28.6045726,-0.18539366 29.3944331,0.076899621 C29.561347,0.130550519 32.2975428,1.06646064 34.0322552,3.02471843 C35.6507239,1.30192847 37.9934798,0.276600187 38.3839391,0.112666887 C39.1499547,-0.200296687 40.0143303,0.157375969 40.3332551,0.914449757 C40.6491993,1.67152355 40.2945072,2.54484095 39.5344529,2.86376573 C37.886178,3.55824681 35.4480428,5.1916186 35.4480428,6.49414319 L35.4480428,9.38234989 C38.8489136,12.8070656 43.749029,17.5819955 48.7773104,18.4642547 L54.5418014,15.7995935 C55.1438837,15.0961706 57.1081027,12.6133262 57.1081027,10.0261607 C57.1081027,9.20351356 57.7757583,8.53585794 58.5984054,8.53585794 C59.4210525,8.53585794 60.0887082,9.20351356 60.0887082,10.0261607 C60.0887082,12.7236086 58.7116684,15.1677051 57.6684565,16.634163 C59.152798,17.6475688 61.2422025,19.4061261 61.9068775,21.5938905 C62.1453259,22.3807703 61.7012157,23.2123593 60.9143359,23.4537883 C60.127456,23.6922367 59.2958671,23.2451459 59.0544381,22.4612467 C58.601386,20.9679633 56.5805355,19.4538158 55.3704097,18.6997226 L50.4077016,20.9918082 C49.8920568,27.9843086 50.7087427,34.9112357 52.8428563,41.5997144 L56.0976774,43.5400885 C58.2347716,43.0333856 61.5730497,42.0855531 62.6937573,41.3493435 C63.3822772,40.8962915 64.3092455,41.0930115 64.7563363,41.7785507 C65.2064077,42.4670706 65.015649,43.3910583 64.3271291,43.8411297 C63.0484494,44.6816604 60.4732063,45.4745015 58.57158,45.9871656 C60.0767857,47.8768695 62.1274423,50.744212 62.4433865,52.6726637 C62.5775137,53.4833884 62.0261017,54.2523846 61.215377,54.3865118 C60.4106135,54.5266003 59.6386367,53.9662465 59.5015289,53.1555218 C59.2750029,51.7605984 56.7891779,48.4103979 55.0067758,46.3597413 L51.1319887,44.0497721 C44.6312882,43.59672 38.4465319,49.2956377 35.4480428,55.3462668 L35.4480428,59.620455 L35.4480428,59.6174744 C35.4659264,59.6174744 35.9368621,62.0109006 39.4450347,63.2150652 C40.2199921,63.4833197 40.6372769,64.3298117 40.3690224,65.1107303 C40.1573994,65.7277156 39.5791619,66.1151943 38.959196,66.1151943" mask="url(#b)"/><path fill="#3E1647" d="M32.19501,24.9399182 C28.4334859,24.9399182 25.3753846,28.0755151 25.3753846,31.929438 C25.3753846,35.7565354 28.4334859,38.8742487 32.19501,38.8742487 C35.956534,38.8742487 39.0146353,35.7565354 39.0146353,31.929438 C39.0146353,28.0755151 35.956534,24.9399182 32.19501,24.9399182 M32.19501,41.8548542 C26.7911722,41.8548542 22.3947792,37.4018296 22.3947792,31.929438 C22.3947792,26.4302209 26.7911722,21.9593127 32.19501,21.9593127 C37.5988477,21.9593127 41.9952407,26.4302209 41.9952407,31.929438 C41.9952407,37.4018296 37.5988477,41.8548542 32.19501,41.8548542"/></g></g></svg>