<svg xmlns="http://www.w3.org/2000/svg" width="76" height="76" viewBox="0 0 76 76"><g fill="none" fill-rule="evenodd"><polygon fill="#F9C606" points="36.694 5.324 38.338 5.324 38.338 0 36.694 0"/><polygon fill="#F9C606" points="32.776 .288 33.331 5.586 34.969 5.413 34.412 .117"/><polygon fill="#F9C606" points="31.628 5.855 30.018 6.197 28.912 .99 30.521 .646"/><polygon fill="#F9C606" points="28.351 6.644 26.786 7.153 25.14 2.089 26.705 1.58"/><polygon fill="#F9C606" points="25.175 7.771 23.67 8.439 21.505 3.576 23.01 2.907"/><polygon fill="#F9C606" points="22.133 9.224 20.707 10.048 18.045 5.435 19.471 4.613"/><polygon fill="#F9C606" points="19.261 10.987 17.929 11.955 14.799 7.646 16.13 6.679"/><polygon fill="#F9C606" points="16.588 13.041 15.364 14.141 11.801 10.185 13.025 9.084"/><polygon fill="#F9C606" points="14.144 15.362 13.043 16.586 9.085 13.023 10.187 11.799"/><polygon fill="#F9C606" points="11.957 17.927 10.989 19.258 6.681 16.129 7.649 14.796"/><polygon fill="#F9C606" points="10.049 20.706 9.225 22.132 4.614 19.469 5.438 18.043"/><polygon fill="#F9C606" points="8.443 23.669 7.774 25.173 2.909 23.006 3.579 21.503"/><polygon fill="#F9C606" points="1.582 26.705 6.645 28.349 7.154 26.784 2.091 25.136"/><polygon fill="#F9C606" points=".649 30.519 5.858 31.626 6.199 30.016 .99 28.909"/><polygon fill="#F9C606" points=".12 34.411 5.416 34.967 5.588 33.328 .292 32.773"/><polygon fill="#F9C606" points="0 38.338 5.324 38.338 5.324 36.692 0 36.692"/><polygon fill="#F9C606" points=".12 40.617 .292 42.253 5.586 41.698 5.416 40.062"/><polygon fill="#F9C606" points=".649 44.507 .99 46.117 6.199 45.01 5.856 43.403"/><polygon fill="#F9C606" points="1.583 48.325 2.092 49.89 7.154 48.244 6.647 46.679"/><polygon fill="#F9C606" points="7.773 49.855 8.442 51.36 3.578 53.525 2.91 52.02"/><polygon fill="#F9C606" points="9.226 52.897 10.05 54.323 5.437 56.985 4.615 55.559"/><polygon fill="#F9C606" points="10.989 55.769 11.957 57.101 7.648 60.231 6.681 58.9"/><polygon fill="#F9C606" points="13.043 58.442 14.143 59.666 10.187 63.229 9.086 62.005"/><polygon fill="#F9C606" points="15.364 60.886 16.588 61.986 13.026 65.945 11.801 64.843"/><polygon fill="#F9C606" points="17.929 63.073 19.26 64.04 16.131 68.349 14.798 67.381"/><polygon fill="#F9C606" points="20.708 64.98 22.134 65.803 19.472 70.416 18.046 69.592"/><polygon fill="#F9C606" points="23.671 66.587 25.176 67.257 23.008 72.121 21.506 71.451"/><polygon fill="#F9C606" points="25.139 72.939 26.704 73.448 28.351 68.384 26.785 67.875"/><polygon fill="#F9C606" points="28.911 74.04 30.521 74.38 31.628 69.172 30.018 68.831"/><polygon fill="#F9C606" points="32.776 74.738 34.414 74.91 34.969 69.614 33.331 69.442"/><polygon fill="#F9C606" points="40.062 69.614 40.619 74.912 42.255 74.738 41.7 69.442"/><polygon fill="#F9C606" points="43.403 69.172 44.51 74.381 46.122 74.038 45.013 68.831"/><polygon fill="#F9C606" points="46.681 68.383 48.327 73.447 49.892 72.938 48.246 67.874"/><polygon fill="#F9C606" points="49.857 67.257 51.362 66.586 53.527 71.452 52.023 72.12"/><polygon fill="#F9C606" points="52.899 65.804 54.325 64.981 56.987 69.593 55.561 70.415"/><polygon fill="#F9C606" points="55.771 64.041 57.103 63.073 60.233 67.381 58.902 68.349"/><polygon fill="#F9C606" points="58.444 61.987 59.668 60.886 63.231 64.843 62.007 65.944"/><polygon fill="#F9C606" points="60.888 59.665 61.989 58.441 65.947 62.004 64.845 63.228"/><polygon fill="#F9C606" points="63.075 57.101 64.043 55.77 68.351 58.899 67.383 60.232"/><polygon fill="#F9C606" points="64.983 54.322 65.807 52.896 70.418 55.558 69.594 56.984"/><polygon fill="#F9C606" points="66.589 51.359 67.26 49.854 72.123 52.021 71.453 53.524"/><polygon fill="#F9C606" points="67.877 48.244 68.386 46.679 73.45 48.325 72.941 49.89"/><polygon fill="#F9C606" points="68.832 45.012 69.174 43.402 74.383 44.509 74.041 46.118"/><polygon fill="#F9C606" points="69.444 41.697 74.742 42.255 74.911 40.616 69.615 40.059"/><polygon fill="#F9C606" points="69.709 38.338 75.033 38.338 75.033 36.692 69.709 36.692"/><polygon fill="#F9C606" points="69.446 33.329 69.617 34.968 74.911 34.41 74.742 32.774"/><polygon fill="#F9C606" points="69.175 31.626 68.833 30.016 74.04 28.909 74.384 30.519"/><polygon fill="#F9C606" points="68.386 28.349 67.877 26.784 72.94 25.138 73.449 26.703"/><polygon fill="#F9C606" points="67.259 25.173 66.588 23.668 71.454 21.503 72.122 23.007"/><polygon fill="#F9C606" points="65.806 22.131 64.982 20.705 69.595 18.043 70.417 19.469"/><polygon fill="#F9C606" points="64.043 19.258 63.075 17.927 67.384 14.796 68.351 16.128"/><polygon fill="#F9C606" points="61.989 16.586 60.889 15.362 64.845 11.799 65.946 13.023"/><polygon fill="#F9C606" points="59.668 14.142 58.444 13.041 62.007 9.084 63.231 10.185"/><polygon fill="#F9C606" points="57.103 11.955 55.772 10.987 58.901 6.679 60.234 7.646"/><polygon fill="#F9C606" points="54.324 10.047 52.898 9.223 55.56 4.612 56.986 5.436"/><polygon fill="#F9C606" points="51.361 8.441 49.856 7.772 52.024 2.906 53.526 3.577"/><polygon fill="#F9C606" points="48.246 7.153 46.681 6.644 48.327 1.58 49.893 2.089"/><polygon fill="#F9C606" points="45.014 6.197 43.404 5.856 44.511 .647 46.121 .988"/><polygon fill="#F9C606" points="40.062 5.413 41.7 5.586 42.257 .29 40.617 .117"/><polygon fill="#F9C606" points="36.646 75.171 38.292 75.197 38.385 69.873 36.739 69.847"/><path fill="#3E1647" d="M13.8500023 17.2473632C13.8500023 15.0720019 12.1695003 13.5470272 9.84265149 13.5086503 7.32593822 13.5086503 5.56868257 15.0336251 5.49394871 17.1706095 5.49394871 19.3843477 7.21080768 21.1012067 9.65278708 21.1395835 12.1331433 21.1395835 13.8500023 19.4611014 13.8500023 17.2473632M18.9238255 17.2857401C18.9238255 22.0545683 15.2618663 25.7932812 9.69116393 25.7932812 3.8518236 25.7932812 1.79397304e-15 21.1779604 1.79397304e-15 13.6985147 1.79397304e-15 6.29784267 3.54682865 0 10.5677719 0 13.8500023 0 17.091836 1.56537141 18.6188306 4.96071251L14.5751227 7.21282751C13.8116255 5.49596854 12.2482739 4.65571756 10.6061488 4.65571756 7.43904893 4.65571756 5.22531077 7.47944561 5.07382322 11.4484196 6.293803 10.1880431 8.04903882 9.27305827 10.4910182 9.27305827 15.5668613 9.27305827 18.9238255 12.9370373 18.9238255 17.2857401M35.8995211 12.8980545C35.8995211 8.28071379 34.9825164 4.65511161 31.7770397 4.65511161 28.4968292 4.65511161 27.5050906 8.28071379 27.5050906 12.8980545 27.5050906 17.4386415 28.4968292 21.1389776 31.7770397 21.1389776 34.9825164 21.1389776 35.8995211 17.4386415 35.8995211 12.8980545M22.4312674 12.8980545C22.4312674 5.68724683 24.4914982.00141388386 31.7770397.00141388386 38.9898672.00141388386 41.0117211 5.68724683 41.0117211 12.8980545 41.0117211 19.9957515 38.9898672 25.7946951 31.7770397 25.7946951 24.4914982 25.7946951 22.4312674 19.9957515 22.4312674 12.8980545M44.081465 7.96683157C45.8993156 5.51273316 46.6870509 3.39190738 46.5355634.0591811386L50.3530498.0591811386C50.5045374 3.87666756 48.2625215 7.14879877 45.9296132 8.93635193L44.081465 7.96683157Z" transform="translate(12.695 26.014)"/></g></svg>