<svg xmlns="http://www.w3.org/2000/svg" width="71" height="76" viewBox="0 0 71 76"><g fill="none" fill-rule="evenodd"><polygon fill="#3E1647" points="36.957 5.36 38.613 5.36 38.613 0 36.957 0"/><polygon fill="#3E1647" points="33.012 .29 33.57 5.624 35.219 5.451 34.66 .117"/><polygon fill="#3E1647" points="31.855 5.896 30.234 6.24 29.119 .995 30.74 .65"/><polygon fill="#3E1647" points="28.555 6.69 26.978 7.203 25.32 2.103 26.897 1.59"/><polygon fill="#3E1647" points="25.355 7.825 23.84 8.499 21.659 3.6 23.175 2.927"/><polygon fill="#3E1647" points="22.292 9.289 20.856 10.119 18.175 5.473 19.611 4.645"/><polygon fill="#3E1647" points="19.399 11.064 18.058 12.039 14.905 7.7 16.246 6.725"/><polygon fill="#3E1647" points="16.707 13.133 15.474 14.241 11.886 10.256 13.118 9.148"/><polygon fill="#3E1647" points="14.246 15.471 13.137 16.703 9.15 13.115 10.261 11.882"/><polygon fill="#3E1647" points="12.043 18.054 11.069 19.394 6.729 16.243 7.704 14.901"/><polygon fill="#3E1647" points="10.122 20.852 9.292 22.289 4.648 19.607 5.478 18.171"/><polygon fill="#3E1647" points="8.504 23.837 7.831 25.352 2.93 23.17 3.605 21.656"/><polygon fill="#3E1647" points="1.595 26.892 6.695 28.55 7.205 26.974 2.107 25.316"/><polygon fill="#3E1647" points=".654 30.735 5.9 31.85 6.246 30.231 .997 29.114"/><polygon fill="#3E1647" points=".121 34.655 5.457 35.216 5.628 33.567 .294 33.005"/><polygon fill="#3E1647" points="0 38.611 5.362 38.611 5.362 36.953 0 36.953"/><polygon fill="#3E1647" points=".121 40.907 .294 42.555 5.628 41.996 5.455 40.346"/><polygon fill="#3E1647" points=".654 44.825 .999 46.447 6.244 45.332 5.898 43.711"/><polygon fill="#3E1647" points="1.595 48.668 2.107 50.247 7.205 48.587 6.695 47.01"/><polygon fill="#3E1647" points="7.83 50.211 8.503 51.726 3.604 53.907 2.931 52.391"/><polygon fill="#3E1647" points="9.293 53.274 10.123 54.71 5.476 57.391 4.649 55.955"/><polygon fill="#3E1647" points="11.068 56.167 12.043 57.508 7.704 60.661 6.729 59.32"/><polygon fill="#3E1647" points="13.137 58.859 14.245 60.092 10.26 63.68 9.151 62.447"/><polygon fill="#3E1647" points="15.475 61.32 16.708 62.429 13.119 66.414 11.886 65.305"/><polygon fill="#3E1647" points="18.058 63.523 19.398 64.497 16.247 68.836 14.904 67.862"/><polygon fill="#3E1647" points="20.856 65.444 22.293 66.274 19.611 70.918 18.175 70.088"/><polygon fill="#3E1647" points="23.841 67.062 25.356 67.735 23.174 72.636 21.66 71.96"/><polygon fill="#3E1647" points="25.321 73.46 26.897 73.973 28.553 68.873 26.977 68.36"/><polygon fill="#3E1647" points="29.118 74.568 30.739 74.911 31.856 69.665 30.233 69.321"/><polygon fill="#3E1647" points="33.01 75.273 34.66 75.445 35.222 70.112 33.572 69.937"/><polygon fill="#3E1647" points="36.957 75.565 38.613 75.565 38.613 70.203 36.957 70.203"/><polygon fill="#3E1647" points="40.35 70.111 40.91 75.445 42.557 75.272 42 69.938"/><polygon fill="#3E1647" points="43.715 69.666 44.83 74.911 46.451 74.565 45.335 69.323"/><polygon fill="#3E1647" points="47.014 68.872 48.672 73.972 50.249 73.459 48.593 68.359"/><polygon fill="#3E1647" points="50.214 67.737 51.73 67.063 53.911 71.962 52.395 72.635"/><polygon fill="#3E1647" points="53.278 66.273 54.714 65.443 57.395 70.089 55.959 70.917"/><polygon fill="#3E1647" points="56.171 64.498 57.512 63.523 60.665 67.862 59.324 68.837"/><polygon fill="#3E1647" points="58.863 62.429 60.096 61.321 63.684 65.306 62.451 66.414"/><polygon fill="#3E1647" points="61.324 60.091 62.433 58.858 66.42 62.447 65.309 63.68"/><polygon fill="#3E1647" points="63.527 57.508 64.501 56.168 68.841 59.319 67.866 60.661"/><polygon fill="#3E1647" points="65.448 54.71 70.092 57.391 70.922 55.955 66.28 53.274"/><polygon fill="#F9C606" points="65.448 20.852 66.278 22.288 70.922 19.607 70.092 18.171"/><polygon fill="#F9C606" points="64.502 19.395 63.527 18.054 67.866 14.901 68.841 16.242"/><polygon fill="#F9C606" points="62.433 16.703 61.325 15.47 65.31 11.882 66.418 13.115"/><polygon fill="#F9C606" points="60.095 14.242 58.862 13.133 62.451 9.146 63.683 10.257"/><polygon fill="#F9C606" points="57.512 12.039 56.172 11.065 59.323 6.726 60.665 7.7"/><polygon fill="#F9C606" points="54.713 10.118 53.277 9.288 55.958 4.644 57.395 5.474"/><polygon fill="#F9C606" points="51.729 8.5 50.214 7.826 52.396 2.926 53.91 3.601"/><polygon fill="#F9C606" points="48.592 7.203 47.016 6.69 48.673 1.59 50.25 2.103"/><polygon fill="#F9C606" points="45.337 6.241 43.715 5.897 44.83 .65 46.451 .994"/><polygon fill="#F9C606" points="40.348 5.451 41.998 5.624 42.56 .29 40.91 .117"/><polygon fill="#3E1647" points="27.633 26.116 28.057 26.116 28.057 51.632 22.983 51.632 22.983 32.956 17.181 35.185 17.181 30.457"/><path fill="#3E1647" d="M13.564592 12.9888902C13.564592 8.33852168 12.641028 4.68698559 9.41262254 4.68698559 6.10894867 4.68698559 5.11011624 8.33852168 5.11011624 12.9888902 5.11011624 17.561956 6.10894867 21.2887605 9.41262254 21.2887605 12.641028 21.2887605 13.564592 17.561956 13.564592 12.9888902M0 12.9888902C0 5.72650367 2.07496758 0 9.41262254 0 16.6770434 0 18.7133596 5.72650367 18.7133596 12.9888902 18.7133596 20.1373569 16.6770434 25.9777804 9.41262254 25.9777804 2.07496758 25.9777804 0 20.1373569 0 12.9888902M21.3857958 8.02239426C23.2166495 5.55074171 24.0100195 3.41474567 23.8574483.0581804635L27.7022412.0581804635C27.8548123 3.90297333 25.5967594 7.19851008 23.2471637 8.9988496L21.3857958 8.02239426Z" transform="translate(33.126 26.116)"/></g></svg>