<svg xmlns="http://www.w3.org/2000/svg" xmlns:xlink="http://www.w3.org/1999/xlink" width="104" height="104" viewBox="0 0 104 104"><defs><polygon id="a" points="0 0 61.895 0 61.895 44.984 0 44.984"/></defs><g fill="none" fill-rule="evenodd"><circle cx="52" cy="52" r="52" fill="#F9C606"/><g transform="translate(21 30)"><mask id="b" fill="#fff"><use xlink:href="#a"/></mask><path fill="#3E1647" d="M30.9455212,17.8961963 C31.1462311,17.8961963 31.3441142,17.9385998 31.5306897,18.0234068 C32.3335296,18.3880771 33.6423848,18.6057485 35.0332202,18.6057485 C37.4049902,18.6057485 38.696884,18.0205799 38.897594,17.8085624 C39.2255145,17.3590851 39.7795872,17.1640289 40.3195253,17.2742781 C41.5379197,17.5286992 43.2057913,17.3675658 44.0284195,16.8304546 C37.7187763,14.0996681 31.635285,15.4763689 31.2734417,15.5583491 C31.0585972,15.6092333 30.8324451,15.6092333 30.6176006,15.5583491 C30.2557573,15.4763689 24.175093,14.102495 17.8626228,16.8304546 C18.6880779,17.3675658 20.3531227,17.5315261 21.574344,17.2742781 C22.1284166,17.1583751 22.6824892,17.3760465 23.0075828,17.8255238 C23.1969852,18.0205799 24.4860521,18.6057485 26.8578222,18.6057485 C28.2514844,18.6057485 29.5603396,18.3880771 30.3575257,18.0234068 C30.5441012,17.9385998 30.7448112,17.8961963 30.9455212,17.8961963 M10.767101,22.1422018 C12.5565294,24.3584923 18.5608674,30.3826185 30.9455212,30.3826185 C43.700499,30.3826185 49.4702042,24.3613192 51.1465566,22.1676439 C49.7528943,20.5110798 48.2433291,19.2304936 46.6998411,18.246732 C45.7104257,19.391627 43.8616324,20.2679663 42.0382812,20.2679663 C41.4955161,20.2679663 40.9697125,20.2340435 40.4636972,20.1661979 C39.1520151,21.0849408 36.9131094,21.4326496 35.0332202,21.4326496 C33.5151743,21.4326496 32.064974,21.2149782 30.9455212,20.8276928 C29.8288952,21.2149782 28.378695,21.4326496 26.8578222,21.4326496 C24.9807598,21.4326496 22.744681,21.0849408 21.430172,20.1661979 C20.9241567,20.2340435 20.3983531,20.2679663 19.8555881,20.2679663 C18.0322369,20.2679663 16.1834435,19.3888001 15.1940281,18.246732 C13.6561939,19.2248398 12.1551094,20.4969453 10.767101,22.1422018 M30.9455212,33.2095197 C14.4505531,33.2095197 8.05044901,23.2729622 7.7875472,22.851754 C7.47658808,22.3513925 7.50485709,21.7125128 7.86104663,21.2432472 C16.1862704,10.3511972 28.7066155,12.2904514 30.9455212,12.7371018 C33.1872538,12.2904514 45.7047719,10.3511972 54.0328226,21.2432472 C54.3777045,21.6983783 54.4172812,22.3146427 54.1317641,22.8093504 C53.8858237,23.2333856 47.93237,33.2095197 30.9455212,33.2095197 M3.2249288,21.2743431 C5.03131861,23.0044066 9.23774748,27.3012963 12.3275504,32.5112751 C15.2957966,37.5205439 19.6068208,42.1566617 30.9455212,42.1566617 C42.2870485,42.1566617 46.5980727,37.5205439 49.5663188,32.5112751 C52.6561218,27.3012963 56.8653775,23.0044066 58.6717673,21.2743431 C56.8399354,18.3993847 50.8666934,9.66426024 42.5132005,3.89172816 C41.1478073,2.95037008 39.3809941,2.61962265 37.667892,2.96450459 C36.1865958,3.26698301 34.7872798,3.67122987 33.5095205,4.16311066 C31.8586102,4.80199032 30.0409128,4.80199032 28.3871757,4.16593756 C27.1065894,3.67122987 25.7072734,3.26698301 24.2259772,2.96450459 C22.5100482,2.60831505 20.743235,2.95037008 19.3778418,3.89172816 C11.0271759,9.66426024 5.05676072,18.3993847 3.2249288,21.2743431 M30.9455212,44.9835628 C20.7743309,44.9835628 14.4788222,41.6845692 9.89641544,33.9529947 C6.17621356,27.6801011 0.53089203,22.6256019 0.474354008,22.5747177 C-0.0288343914,22.1308942 -0.147564238,21.393073 0.191663896,20.8107314 C0.471527107,20.3273313 7.16562896,8.89534314 17.772162,1.56801544 C19.770781,0.188487689 22.3262997,-0.309046908 24.7941843,0.194141491 C26.4281332,0.527715823 27.9801019,0.977193101 29.4020332,1.52561192 C30.3971024,1.91007047 31.4967669,1.91007047 32.4918361,1.52561192 C33.9165942,0.977193101 35.4657361,0.527715823 37.1025118,0.194141491 C39.5590889,-0.31470071 42.1230882,0.188487689 44.1188804,1.56518853 C54.7282403,8.89251623 61.425169,20.3273313 61.7050322,20.8107314 C62.0414335,21.393073 61.9227036,22.1308942 61.4195152,22.5775446 C61.3629772,22.6256019 55.7176557,27.6801011 51.9974538,33.9529947 C47.417874,41.6845692 41.1223652,44.9835628 30.9455212,44.9835628" mask="url(#b)"/></g></g></svg>