<svg xmlns="http://www.w3.org/2000/svg" fill="#3E1647" version="1.0" viewBox="0 0 565 504"><path d="M267.5 10.4c-15.5 3.9-28.8 16.4-33.6 31.7-2.6 8.2-2.5 21.2.1 31.3 4.1 16.1 13.1 28 25.8 34.3 7.4 3.7 7.9 3.8 18.7 3.8 10.8 0 11.3-.1 18.7-3.8 9.3-4.6 16.2-11.7 21.3-22 4.7-9.8 6.5-17.4 6.5-28.3 0-15.5-4.3-25.9-14.9-35.7-11.8-10.9-27.4-15.1-42.6-11.3zm21.8 16.2c6.2 2.1 14 9.2 17.1 15.7 4.9 10 4.1 25.3-2.1 37.5-7.5 14.9-24 21-37.9 14-16.3-8.1-24.4-37.1-14.9-53.3 3.2-5.6 10.6-12 15.8-13.9 5.6-1.9 16.3-2 22 0zM135 38.7c-1.4.2-5.2 1.3-8.5 2.5-26 9.1-37.7 36.5-27.9 65.6 3.3 10.1 6.7 15.6 13.5 22.3 21.8 21.6 56 14.6 69.8-14.3 11-23.4 8.7-45.8-6.4-61.7-10.5-11-26.4-16.7-40.5-14.4zm20.6 18.6c12 6.1 18.1 17.4 17.1 32.1-1.6 26.1-19.7 41.9-40 35-19.4-6.6-28.6-39.5-16.1-57.5 3.1-4.5 10.3-9.7 15.8-11.5 6.4-2.1 17.1-1.2 23.2 1.9zm249-17.8C380.3 45.7 365.5 68.3 369 94c2.8 20.3 12.6 35.8 27.4 43 17.3 8.5 35.5 5.4 49.3-8.6 11-11.2 17.1-28.3 16-45.3-.6-10.7-3.3-18.2-9.5-26.4-11-14.3-30.7-21.4-47.6-17.2zM428.5 57c6.3 3.1 12.1 8.9 15.1 15.3 1.9 4.2 2.4 6.8 2.4 13.9 0 29.2-21.3 47.5-42.8 36.7-9.1-4.5-14.7-12.6-17.8-25.6-4.7-19.9 3.8-36.6 21.6-42.4 4.6-1.6 16.4-.4 21.5 2.1zM263 117c-11.6 1-27.2 4.2-38.3 7.6-17.4 5.5-25 10.4-29.3 19-1.8 3.7-1.9 6.6-1.9 70.4v66.5l2.7 5.8c3.6 7.7 11 14.7 19.2 18.3l6.6 2.8v180.7l2.5 2.4 2.4 2.5h103.2l2.4-2.5 2.5-2.4V307.4l6.5-2.8c8.9-3.9 14.7-9.3 18.7-17.4l3.3-6.7.3-65c.2-43-.1-66.2-.7-68.6-1.7-5.6-6.6-11.6-12.3-14.9-7.5-4.3-27.9-10.7-41.1-12.9-13.6-2.3-33.9-3.2-46.7-2.1zm44.5 17.4c11 2 23.9 5.9 32.3 9.7 5.1 2.3 6.5 3.5 7.7 6.3 2.1 5 2.1 121 .1 126.9-3.1 8.5-8.9 13.1-18.6 14.6-2.8.5-5.9 1.6-7 2.6-2 1.8-2 3.4-2.2 92.4l-.3 90.6-16.2.3-16.3.2V290h-17v188h-32l-.2-90.6-.3-90.6-2.8-2.4c-1.7-1.5-4.1-2.4-6.1-2.4-5.7 0-13.7-4.9-17.1-10.4l-3-4.9V151.2l2.5-2.7c3.3-3.5 4.6-4.2 16.2-8.1 8.6-2.9 24.6-6.5 34.8-7.8 7.4-.9 36.8.3 45.5 1.8z"/><path d="M122 146.7c-9.2 1-26.4 4.8-35.9 8-13.3 4.4-19.4 7.7-23.7 12.7-6.5 7.6-6.5 7.8-6.2 73.2.3 58.8.3 58.9 2.6 63.8 4.5 9.9 13.4 18.1 22.4 20.8l3.8 1.1.2 81.4.3 81.5 2.4 1.9c2.2 1.8 4.6 1.9 54 1.9 50.7 0 51.8 0 53.9-2l2.2-2.1V408c0-52.8.3-81.1 1-81.5 2.2-1.3 1-5.4-2.2-7.6-1.8-1.2-4.5-3.4-6-4.7l-2.8-2.6-2.5 2.4-2.5 2.3-.2 80.6-.3 80.6-40.7.3-40.8.2v-80.4c0-78.5 0-80.4-2-82.8-1.5-1.9-3.3-2.7-7.2-3.2-7-.9-12.5-4.1-16.3-9.4l-3-4.4-.3-58.8-.2-58.7 2.7-3c4.3-4.5 22.9-10.9 41.3-14 10.7-1.8 38.6-2.2 48.7-.6l6.2.9.3-7.5c.2-4.2.3-7.7.3-7.8-.6-1.7-37.5-2.9-49.5-1.6zm275-.2c-.8.2-3.6.7-6.2 1l-4.8.6v8.1c0 7.8.1 8 2.3 7.4 1.2-.3 7.8-1.1 14.6-1.7 24-2.3 52.9 2.5 66.9 11.1 6.4 3.9 6.2 1.8 6.2 78.7v69.8l12.9 38.7 12.9 38.7-25.4.3c-24.8.3-25.4.3-27.6 2.6-2.3 2.3-2.3 2.3-2.6 39.2l-.3 37H384v-72.9l-2.4-2.8c-2.3-2.7-2.8-2.8-13.5-3.1l-11.1-.4V415h11v35.5c0 37.3.3 40.3 4.5 41.9.9.3 20.3.6 43.1.6h41.5l2.4-2.5 2.5-2.4V415h26.8c25.3 0 26.9-.1 28.9-2 1.2-1 2.4-2.8 2.8-3.9.3-1.2-5-18.3-14.2-45.3l-14.8-43.3-.5-73.1-.5-73.1-3-4.8c-5.7-9.2-17.2-15.4-37.4-20.2-9.1-2.1-13.5-2.5-31.1-2.8-11.3-.2-21.2-.2-22 0z"/></svg>