<svg xmlns="http://www.w3.org/2000/svg" fill="#3E1647" version="1.0" viewBox="0 0 565 504"><path d="M181 20.6c-11.7 3.2-22.1 11.8-27.5 22.8-4.3 8.8-5.6 16.7-4.4 27 2.2 20.4 11.7 34.9 27.5 42.3 5.2 2.5 7.1 2.8 15.9 2.8 9.2 0 10.5-.3 16.8-3.2 16.5-7.9 26.9-26.4 27-48.3.1-9.8-1.9-16.8-6.8-24.5-10.4-16.3-29.9-23.9-48.5-18.9zm24.6 16.2c6.3 3.2 13.1 11.4 15 18 3.1 10.4.2 25.7-6.6 35.1-11.7 16-32.5 15.4-43.8-1.3-4.6-6.9-6.6-14.5-6.6-24.6.1-10 1.6-14.1 7.6-20.6 6.9-7.4 12-9.5 22.8-9 5.2.2 8.8.9 11.6 2.4zm159.3-16.4c-20.8 5.8-34.3 25.4-32.6 47.6 1.6 20.4 12.2 37.6 27.5 44.8 5 2.4 6.9 2.7 16.2 2.7 9.3 0 11.1-.3 16.3-2.7 7.4-3.5 16.6-12.3 20.6-19.8 6.5-12.1 8.8-29.1 5.6-41.4-6-22.8-31-37.4-53.6-31.2zm21.7 15.3c6.8 2.3 14.5 10.2 16.9 17.2 2.6 7.9 1.7 21.7-1.9 29.6-3.6 7.9-6.8 12-11.9 14.9-20.8 12.2-42.7-4.8-42.7-33.3 0-12.7 5.4-21.6 16.2-27 7.2-3.6 15.4-4.1 23.4-1.4zM92.3 84.1C77.1 87 63.5 99.2 59 113.8c-2.4 7.8-2.6 20-.5 29.1 4.7 19.9 19.2 34.7 36 36.9 21.6 2.8 39.3-9.3 46.9-32 6.8-20.2 3.3-38.2-9.8-51.4-10.8-10.8-24.9-15.2-39.3-12.3zM110 99.6c7.3 2.2 15.9 10.7 18.5 18.3 2.3 6.9 1.6 19.2-1.4 27.3-6 15.8-20.3 23.9-34.2 19.3-10.9-3.7-18.4-14.4-20.9-30.1-3.8-24 15.3-41.5 38-34.8zm165-15.3c-8.6 2-15 5.6-21.6 12.1-11.1 11.1-15 24.5-12.1 41.4 3 18 12.3 31.9 25.6 38.5 6.2 3 7.2 3.2 17.6 3.2 10.1 0 11.5-.2 17-2.9 16-7.9 26.4-26.8 26.5-48.2 0-19.7-10.7-35.7-28.5-42.3-7.1-2.7-17.4-3.4-24.5-1.8zm22.6 17c12.2 6.2 17.9 18.8 15.4 34.2-3.9 24.4-23.2 36.9-41.3 26.7-12.8-7.2-19.9-28-15.1-44.2 2-6.7 10.6-15.8 17.4-18.3 6.6-2.4 17.1-1.7 23.6 1.6zM459 84.1c-12.6 2.5-24.4 11.9-30.7 24.6-3.8 7.6-3.8 7.8-3.8 19.7 0 9.2.5 13.4 1.9 17.6 4.9 14.4 13.3 25 24.2 30.5 5.5 2.8 6.7 3 16.9 3 10.4 0 11.4-.2 17.7-3.3 12.6-6.2 21.9-19.3 25.2-35.4 3.8-18.4.4-31.9-11.1-43.9C489 86.1 473.7 81.2 459 84.1zm19.4 15.9c6.3 2.4 12.5 8 15.7 14.2 5.1 9.8 3.2 28-4.1 39-10.9 16.4-32.4 16.7-44 .6-6.5-8.9-9.1-26.7-5.6-36.7 5.5-15.2 22.5-22.8 38-17.1zM87.5 184.6c-1.6.2-6.6.9-11 1.5-17.7 2.3-40.8 9.9-47.5 15.6-2.2 1.9-5.1 5.4-6.3 7.7l-2.2 4.1v124l2.7 5.7c4.5 9.6 11.2 15.6 22.1 19.7L48 364v112h14v-60.9c0-70 .8-64.5-9.5-66.1-6.6-1.1-9.3-2.7-13.9-8.4l-3.1-3.8-.3-59.9-.2-59.8 2.7-3.1c3.4-3.7 17.3-8.9 32-12 14.3-3 38.5-3.7 53.1-1.6 21 3.1 39.8 9.9 42.6 15.5 1.4 2.6 1.6 10 1.6 59.4 0 39.5-.3 57.4-1.1 59.8-2.7 8-9.1 13.1-17.9 14.2-3.1.4-5.2 1.4-6.7 3.2l-2.3 2.6V476h15v-56.5c0-44.5.3-56.5 1.3-56.5 2.9 0 11.8-5.1 15.7-9 2.3-2.3 5.5-6.9 7.1-10.3l2.9-6.2V214.2l-2.8-5.3c-4.3-8.4-11.6-12.5-32.1-18.5-4.7-1.4-12.6-3.1-17.6-4-8.9-1.5-35.2-2.6-41-1.8zm183 0c-26.2 2.7-51.9 10.8-59.8 19-7 7.3-6.8 4.8-6.5 73.9l.3 62 2.4 4.5c1.3 2.4 3.3 5.7 4.5 7.3 2.6 3.6 12.6 10.3 16.6 11.2l3 .7V476h15V354.8l-2.9-2.9c-2.3-2.2-3.9-2.9-6.9-2.9-5.3 0-12.8-5.1-15.6-10.5-2-3.9-2.1-5.6-2.4-61.2-.3-67-.9-62.7 9.3-67.4 14.4-6.5 37.8-10.9 58-10.9 23.9 0 55.8 7.8 62 15.2l2.5 3v58.4c0 46.8-.3 59.1-1.3 61.7-2 4.7-8.9 10.5-13.4 11.2-8.3 1.4-9.4 1.7-10.8 3.8-1.3 1.9-1.5 10.5-1.5 62.9V476h15v-56.5c0-39.2.3-56.5 1.1-56.5.5 0 3.4-1.2 6.4-2.6 6.6-3.3 12.5-9.2 16.2-16.4l2.8-5.5V276c0-62.3 0-62.5-2.2-66.6-1.2-2.2-3.9-5.6-6.1-7.6-6.2-5.6-24.3-11.9-43.7-15.3-8.9-1.6-34.2-2.7-42-1.9zm180 .4c-11.5 1.3-22.5 3.7-33.4 7.2-13.5 4.3-19.7 7.5-23.7 12.2-6.5 7.6-6.5 7.6-6.2 73.8l.3 59.3 3.3 6.7c3.9 7.9 9.3 13.1 17.8 16.9l6.4 2.9v112h14v-61.3c0-70.2.9-64-9.6-65.7-6.7-1.1-11.7-4.6-15.1-10.6l-2.3-3.9V216.8l3.3-3.2c3.6-3.6 16.5-8.3 32-11.7 20.9-4.5 51.3-3.4 72.2 2.6 14.2 4.1 19.8 6.8 22.3 10.5l2.2 3.4-.2 58.7-.3 58.7-3 4.3c-3.7 5.3-8.2 8-14.8 9-2.9.5-6 1.7-7.1 2.9-2.1 2-2.1 3-2.4 63l-.2 61h15V363.5l4.8-1.7c9.6-3.5 17.8-12 21.3-22.3 1.1-3.2 1.4-16 1.4-64.5v-60.5l-3.1-5.5c-4.8-8.5-13.8-13.6-33.5-19-18.2-4.9-43.7-7-61.4-5z"/><path d="M93 412v65h16V347H93v65zm183 0v65h16V347h-16v65zm184 0v65h16V347h-16v65z"/></svg>