<svg xmlns="http://www.w3.org/2000/svg" fill="#3E1647" version="1.0" viewBox="0 0 565 504"><path d="m245.5 30.5-2.5 2.4v25.9c0 24.7.1 26.1 2.1 28.6 1.9 2.4 2.6 2.6 10 2.6h7.9v25.9l-5.7 1.1c-48.9 9.6-92.3 38.6-120 80-41.2 61.5-41.6 142.9-1 204.8 42 64.2 118.3 96.3 193 81.2 89.2-18.1 153.1-99.1 149.4-189.5-1.4-34.6-12.2-68.7-29.9-94.7-2.1-3.2-4.1-6.5-4.5-7.4-.4-1.1 3.5-5.6 13.1-15.3 7.5-7.6 13.6-14.5 13.6-15.5 0-3.5-3.3-7.5-18.7-22.9-20.7-20.4-18.2-20.3-36.4-2.1l-13.7 13.7-7.1-4.7c-19.2-12.8-44.3-23.1-67.3-27.6l-5.8-1.1V90h7.9c7.4 0 8.1-.2 10-2.6 2-2.5 2.1-3.9 2.1-28.6V32.9l-2.5-2.4-2.4-2.5h-89.2l-2.4 2.5zM326 59v16h-68V59.7c0-8.5.3-15.7.7-16 .3-.4 15.6-.7 34-.7H326v16zm-20 43v12h-27V90h27v12zm14.5 29.4C390 143.2 445 195.9 459.9 265c14.7 68.4-14.9 139.9-73.9 178.3-30.7 19.9-61.6 28.5-99 27.4-22-.6-36.3-3.3-54.3-10.3-50.1-19.3-86.9-57.9-103.1-108.2-13.7-42.5-10-89.2 10.3-129 26-50.9 73.4-84.6 130.1-92.6 12.7-1.8 37.4-1.4 50.5.8zM443 150.5l9.5 9.5-9.3 9.2-9.2 9.3-10-10-10-10 8.7-8.7c4.8-4.9 9.2-8.8 9.8-8.8.6 0 5.3 4.3 10.5 9.5z"/><path d="M287.5 157.5c-2.4 2.3-2.5 3-2.5 14.9 0 12.3 0 12.5 2.6 14.5 3.5 2.8 6.9 2.6 9.9-.4 2.4-2.3 2.5-3 2.5-14.5s-.1-12.2-2.5-14.5c-1.3-1.4-3.6-2.5-5-2.5s-3.7 1.1-5 2.5zM192 196.3c-3.4 1.7-5.3 5.8-4.1 8.9.5 1.2 4.7 6 9.4 10.5 9.4 9.2 12 10.1 16.2 5.8 4.4-4.3 3.4-6.8-6.2-16.6-4.9-4.8-9.7-9-10.8-9.3-1.1-.3-3.1 0-4.5.7zm195.5-.3c-1.1.4-5.7 4.6-10.2 9.3-9.2 9.4-10.1 12-5.8 16.2 4.3 4.4 6.8 3.4 16.8-6.4 7.6-7.5 9-9.4 9-12 0-5.1-5.3-9-9.8-7.1zm-152.8 44.2c-2.4 1.9-3.6 5.9-2.6 8.7.5 1.3 8.8 10.6 18.5 20.7l17.5 18.3-2 4c-7 13.6-1 31 13 38 19.1 9.6 41.1-3.2 42.4-24.6l.4-5.6 15.8-6.8c16-7 19.3-9.3 19.3-13.4 0-3.5-3.7-7.5-7-7.5-1.6 0-10 3.1-18.7 6.9l-15.8 6.9-3-2.8c-7.2-6.7-19.2-9.6-28.5-6.8l-4.4 1.4-11-11.6c-24.5-25.6-26-27-29.2-27-1.7 0-3.8.6-4.7 1.2zm62.6 51.2c5.4 2.3 8 5.9 8.4 11.8.5 6.4-1.8 10.7-7 13.1-7.1 3.4-14.9 1.1-18.3-5.5-3.7-7.1-1.1-15.3 6.1-18.8 4.7-2.4 6.5-2.5 10.8-.6zm-147.8 4.1c-1.4 1.3-2.5 3.6-2.5 5s1.1 3.7 2.5 5c2.3 2.4 3 2.5 14.9 2.5 12.3 0 12.5 0 14.5-2.6 2.8-3.5 2.7-7.5-.2-10.2-2.1-2-3.4-2.2-14.6-2.2-11.6 0-12.3.1-14.6 2.5zm256.7-.2c-2.9 3.1-2.9 7.7.1 10.5 2.1 2 3.4 2.2 14.6 2.2 11.6 0 12.3-.1 14.6-2.5 1.4-1.3 2.5-3.6 2.5-5s-1.1-3.7-2.5-5c-2.3-2.4-3-2.5-14.8-2.5-11.6 0-12.5.1-14.5 2.3zm-209.6 90.6c-7.6 7.6-8.9 9.4-8.8 12.1.1 4.5 2.7 7 7.2 7 3.3 0 4.5-.9 12.3-8.9 9.6-9.8 10.6-12.3 6.2-16.6-4.4-4.5-7-3.5-16.9 6.4zm174.9-6.4c-4.4 4.3-3.4 6.8 6.2 16.6 7.8 8 9 8.9 12.3 8.9 4.5 0 7.1-2.5 7.2-7 .1-2.7-1.2-4.5-8.8-12.1-9.9-9.9-12.5-10.9-16.9-6.4zm-84.3 34.8c-2 2.1-2.2 3.4-2.2 14.6 0 11.6.1 12.3 2.5 14.6 3.1 3.2 6.9 3.2 10 0 2.4-2.3 2.5-3 2.5-14.8 0-11.6-.1-12.5-2.3-14.5-3.1-2.9-7.7-2.9-10.5.1z"/></svg>