<svg xmlns="http://www.w3.org/2000/svg" fill="#3E1647" version="1.0" viewBox="0 0 565 504"><path d="M134.3 61.1c-6.1 3-12.3 13.3-12.3 20.5 0 5.4 7.8 8.5 11.3 4.6 1-1 2.4-3.9 3.3-6.5 2-5.9 3.7-7.4 6.9-5.9 4.3 2 9.7 12.4 12 22.9l.7 3.3h-22c-17.7 0-22.7.3-25.7 1.6-8.1 3.4-12.9 8.8-15.8 17.9-2.8 8.9-44 256.1-43.3 259.9.9 4.7 4.4 9.5 8.6 11.7 3.1 1.7 6.1 1.9 30.7 1.9 27 0 27.2 0 28.7-2.2 2.2-3.1 2-6.4-.4-8.8-1.9-1.9-3.3-2-26.3-2-19.1 0-24.7-.3-26.2-1.4-1.8-1.3-1.3-4.7 15.4-103.7 9.4-56.3 17.5-103.2 17.9-104.2.4-.9 8.6 47.3 18.6 109 9.8 61 18.4 112.1 19.1 113.8 1.5 3.7 6 8 9.8 9.4 1.9.8 32.2 1.1 94.8 1.1 90.6 0 91.9 0 93.9-2 2.9-2.9 2.6-7.4-.6-9.9-2.7-2.1-3.1-2.1-93.5-2.1-49.9 0-91-.3-91.2-.8-1.3-2-43-263-42.4-265.3 1.1-4.3 6.4-8.7 11.9-9.8 5.9-1.3 37.5-1.5 38.2-.2.3.4-.1 3.5-.9 6.7-1.1 4.1-2.4 6.6-4.3 8.1-8.2 6.6-8.9 8.6-4.6 13 2.1 2.1 3.2 2.4 6 2 9.3-1.5 14.4-9.5 17.9-28l.5-2.7h63.3l-.6 4.5c-1.1 7.4-3.2 11.2-7.1 12.9-3.8 1.6-5.3 4.8-4.2 9.1 1.4 5.7 9.2 5.6 15.6-.1 4.9-4.4 7.7-10.3 9.4-19.1l1.2-6.8h61.9l-.3 2.5c-.6 6.1-2.6 11.2-5 12.8-7.7 5.3-8.9 8.6-4.6 12.9 5.2 5.2 14.1.6 19.3-10 1.8-3.4 3.4-8.9 3.9-12.2l.7-6 29.9-.3 29.9-.2-.7 4c-1.2 7.5-3.5 11.8-7.4 13.7-3.3 1.6-3.7 2.3-4 6-.3 3.6.1 4.4 2.2 5.9 5.8 3.7 15.4-2 19.6-11.8 1.2-2.8 2.7-8 3.3-11.6l1-6.5 7.8.6c8.7.6 12.8 2.7 14.7 7.4.7 1.6 5.7 30.9 11.3 65.3 5.8 36.5 10.6 63.4 11.5 64.8 1.9 2.9 7.6 3 10.4.2 1.1-1.1 2-2.5 2-3 0-.6-4.7-30-10.5-65.5-7.4-45.9-11-65.5-12.4-68.2-2.4-4.7-8.6-10.8-12.6-12.4-1.6-.7-7.5-1.5-12.9-1.8l-9.9-.6-1.8-7.8c-6.7-28.2-26.4-41.4-39.6-26.4-2.9 3.3-7.3 13-7.3 16.1 0 2.8 4.1 6.6 7.1 6.6 2.9 0 6.9-3 6.9-5.2 0-2.7 4.3-9.8 5.9-9.8 3.6 0 9.7 9 12.7 18.9 2.7 8.8 5.1 8.1-27.9 8.1h-29.2l-2.3-8.6c-2.9-11.6-6.1-18.3-11.4-24-7.4-8.1-14.6-10.1-22.4-6.4-6.1 3-12.4 13.4-12.4 20.6 0 5.4 7.8 8.5 11.3 4.6 1-1 2.4-3.9 3.3-6.5 2.8-8.2 6.1-8.6 11.4-1.4 2.6 3.5 8 17.6 8 20.8 0 .6-11.7.8-31.2.7l-31.1-.3-1.3-6c-2.8-13.7-9.3-25.4-17.2-31-3.7-2.5-5.3-3-10.2-3-5 0-6.3.4-9.7 3.1-4.4 3.6-9.3 12.7-9.5 17.8-.2 4.6 2.5 7.6 6.7 7.6 3.8 0 5.8-2 7.5-7.5 1.4-4.5 3.7-7.5 5.6-7.5 3.8 0 11.9 14.2 13.1 23.2l.6 3.8h-63l-1.3-6.3c-3.7-19-16-34.7-27.2-34.7-1.8 0-5.2.9-7.5 2.1z"/><path d="M162.2 191.7c-3.2 1.3-3.3 5.3-.2 23.2 4.1 23.7 3.6 22 7.6 23.7 2.9 1.2 7.8 1.4 25.4 1.2 29.6-.4 28 1.5 22.9-27.6-1.9-10.9-3.7-18.4-4.6-19.5-1.5-1.5-4-1.7-25.7-1.6-13.3 0-24.7.3-25.4.6zm41.5 19.3c.6 3.6 1.4 8.4 1.8 10.7l.6 4.3h-14c-7.8 0-14.1-.1-14.1-.3 0-.1-.7-4-1.5-8.7-2.5-14.4-3.7-13.1 12.2-12.8l13.8.3 1.2 6.5zm47-18.2c-1 1-1.7 2.9-1.7 4.2 0 3.9 6.1 37.2 7.1 39.2.6 1.1 2.1 2.3 3.5 2.8 3.3 1.3 43.5 1.3 46.8 0 5-1.9 5.2-4.2 1.6-24.2-3.2-18-4.2-21.6-6.4-23-.6-.4-11.9-.8-25.2-.8-22.1 0-24.2.2-25.7 1.8zm41.9 14.9c.3 2.1 1.2 6.9 1.9 10.6.9 5.2.9 7 .1 7.3-.7.3-7 .3-14.1.2l-12.9-.3-1.3-7.5c-.7-4.1-1.5-9-1.8-10.8l-.6-3.2h28l.7 3.7zm48.8-15.9c-3.4 2.3-3.4 4.7.1 24.3 2.7 15.1 3.9 19.8 5.5 21.4 1.9 1.9 3.5 2 23.3 2.3 23.2.4 27.7-.3 29.5-4.2 1.4-3.2-5-40.1-7.5-42.8-1.5-1.6-3.9-1.8-25.7-1.8-13.3 0-24.6.4-25.2.8zm41.8 21.7c2.7 13.9 3.9 12.6-11.9 12.3l-13.8-.3-1.7-8.5c-2.9-14.4-4-13.1 11.9-12.8l13.8.3 1.7 9zm45.8 56.1c-22.4 3.4-38.3 10.8-52.8 24.8-26.1 25-34.6 62.7-21.6 96.7 4.5 11.9 13.5 25.2 22.8 33.6 35.2 32 89.7 31 123.2-2.2 11.2-11.1 18.1-22.3 22.8-37.4 12.2-38.7-4-81.1-39.3-102.9-15.6-9.5-39.2-14.9-55.1-12.6zm22.2 14.8c29.5 5.7 51.9 26.3 59.9 55.3 2.9 10.2 3.1 26.7.4 36.8-6.5 25.5-24.9 45.4-50 54.2-7.4 2.6-9.1 2.8-23.5 2.8-14.9 0-15.9-.1-24.3-3.1-10.9-3.9-18.1-8.2-26.3-15.8-16.6-15.1-24.7-33.5-24.7-56.1-.1-17.2 4.9-31.8 15.7-46.2 16.3-21.7 46-33 72.8-27.9z"/><path d="M398 330c-4.4 4.4-3.3 6.3 16.6 27.9 17.3 18.8 18.7 20.1 22 20.1 3.2 0 5-1.4 18.5-14.7 16-15.7 17.3-17.9 12.9-22.3-4.1-4.1-6.8-2.8-19.2 9-6.4 6-11.8 11-12 11-.3 0-7.3-7.4-15.7-16.5-13-14.1-15.6-16.5-18.2-16.5-1.6 0-3.8.9-4.9 2zm-219.7-51.8c-4.1 2-4.2 5-.6 25.3 2.7 15.6 3.7 19.3 5.4 20.7 1.9 1.6 4.7 1.8 25.1 1.8 13.7 0 23.7-.4 24.8-1 4.2-2.2 4.2-4.1 1-22.7-3.6-20.6-4.3-22.6-7.6-24.2-3.3-1.5-45-1.4-48.1.1zm41.1 21.7c2.4 13.4 3.7 12.1-12.2 12.1h-13.9l-1.6-9.3c-1-5.1-1.7-9.9-1.7-10.5 0-.9 3.8-1.2 13.9-1.2h13.8l1.7 8.9zm48.8-21.9c-4.3 1.8-4.4 4.6-.7 25.2 2.9 16 3.8 19.6 5.6 21 1.9 1.6 4.7 1.8 25.1 1.8 14.2 0 23.7-.4 24.9-1.1 3.9-2.1 4-4.8.4-24.6-4.7-25.3-2.1-23.3-30.8-23.2-12.2 0-23.2.4-24.5.9zm41.1 22.3c1 5.1 1.7 9.9 1.7 10.5 0 .9-3.8 1.2-13.9 1.2h-13.8l-1.7-8.9c-2.4-13.4-3.7-12.1 12.2-12.1h13.9l1.6 9.3z"/></svg>