<svg xmlns="http://www.w3.org/2000/svg" fill="#3E1647" version="1.0" viewBox="0 0 565 504"><path d="M256.1 46.1C196 52.9 140.6 87 107.8 137.5c-38.1 58.7-43.2 133.3-13.4 196.8 12 25.8 33.4 53.1 55.6 71 59 47.6 137.8 58.7 208.1 29.1 34.9-14.7 67.4-41.6 88.5-73.1 60-89.8 39.7-210.6-46.1-275.3C373.7 65.8 344 53.2 310 47.5c-11.4-1.9-42.3-2.7-53.9-1.4zM303 61.5c50.3 6.7 95.9 33.5 126.2 74 39.7 53 48.4 124.9 22.5 185.6-42.4 99.1-158 142.8-255 96.5-42.2-20.2-76.5-57-93.7-100.5-8.3-21.1-11.9-38.8-12.7-62.8-1.1-32.8 4.6-59.8 18.7-88.8 27.7-57.1 82.4-96.2 146-104.4 10.6-1.4 36.7-1.2 48 .4z"/><path d="M272.4 142.1c-1.8 2-1.9 4.6-2.2 53.3-.2 28.1 0 52.6.3 54.5.5 2.8 7.3 10.1 38.8 41.7 36.3 36.5 38.4 38.4 41.8 38.4 4.6 0 6-1.7 6.1-7.1v-4.2l-35.8-35.8-35.9-35.9-.5-51.4c-.5-48.7-.6-51.5-2.4-53.5-2.5-2.8-7.7-2.8-10.2 0z"/></svg>