<svg xmlns="http://www.w3.org/2000/svg" fill="#3E1647" version="1.0" viewBox="0 0 565 504"><path d="M384.7 58c-1.8 1.5-2.7 3.1-2.7 5.1 0 4.8 2.7 6.4 13.6 8.3 39.7 7 66.2 26.8 73.9 55.1 2.2 8.1 2.2 24.8 0 34.5-11.2 48.3-62.1 102.2-130 137.6l-14.1 7.4-6.5-14.5c-3.5-8-7.2-15.4-8.2-16.5-2.4-2.7-7.2-2.6-9.8.2-1.1 1.3-5.2 7.7-9.1 14.3-18.7 31.8-44.8 66.9-69.2 93.3-10.5 11.4-10.4 13.8 1.1 19.6 28.5 14.3 71.3 24.3 117.8 27.6 20.6 1.4 31.6 1.3 34.2-.5 4-2.8 3.6-5.5-2.7-19.4-3.3-7.3-6-13.4-6-13.6 0-.2 5.7-3.3 12.6-7 83.3-44.1 137-106.6 141-164 1-13.9-3.3-34.1-8.3-39.8-3.4-3.7-11.3-.7-11.3 4.3 0 1.1 1.2 5.5 2.7 9.7 2.4 6.9 2.7 9.3 2.7 20.8.1 14.7-1.6 22.5-7.9 37.6-13.6 32.4-48 70.1-89.4 97.9-15.2 10.1-45 27-47.8 27-.4 0-3.2-5.4-6.2-12.1-3-6.6-6.3-13.1-7.3-14.5-3.8-4.7-11.8-2.2-11.8 3.7 0 1.4 5.4 14.3 12 28.7 6.6 14.3 12 26.6 12 27.1 0 1.3-2 1.4-19 .1-27.6-2-54.9-6.7-76.9-13.1-10.9-3.2-27.9-9.5-29.6-11.1-.5-.5.7-2.5 3.1-5.1 16.9-17.6 50-62.3 63.8-86 1.5-2.6 3.1-4.7 3.5-4.7.4 0 3 4.8 5.6 10.7 5.4 12.1 7.8 15.3 11.2 15.3 3.1 0 27.1-12.1 43.6-21.9 25.1-15 44.5-29.9 64.3-49.6 29.9-29.7 47.9-59.5 53.9-89.4 2.6-12.7 1.7-32-1.9-42.6-11.3-33.2-42-54.4-90.1-62-3.3-.5-4.6-.2-6.8 1.5zm-182.6.9C201 60 200 62 200 63.2c0 1.3 2.7 8.1 6 15.2s5.9 13 5.8 13.1c-.2.2-4.4 2.3-9.4 4.8-62.7 31.4-114.5 80.2-134.6 127-2.2 5-5.1 13.4-6.6 18.6-2.3 8.4-2.6 11.5-2.7 24.6 0 17.2 1.5 23.9 8.7 37.7 12.4 23.9 41.1 41.7 78.3 48.4 9.5 1.7 37.6 3.1 41.8 2 3.4-.8 5.2-5.4 3.6-9-1.5-3.2-1.4-3.2-21.8-4.6-32.3-2.1-55.2-9.5-73-23.5-10.9-8.6-19.6-21.9-22.6-34.7-3.4-14.5-1.1-34.6 5.9-51.8 17.8-43.6 68.7-91.9 128.3-121.8l10.2-5.2 3.3 7.3c7.6 16.7 10.2 21.2 13.1 22.1 2.1.8 3.3.6 5.5-1.1 1.5-1.1 2.8-3 3-4.2.3-1.6-20.7-49.7-24.6-56.5-.7-1.2 25 0 40.3 1.9 27 3.3 52.7 9.2 71.8 16.4 16.7 6.3 16.3 4.2 4.1 18.4-17.7 20.5-38.3 48.4-53.9 73.1l-6.9 10.9-6-12.6c-7.9-16.8-7.7-16.7-22.9-9.4-52 25-98 62.2-125.5 101.6-5.8 8.3-6.3 11.1-2.7 14.6 4.9 5 6.7 3.8 19.3-13.5 9.1-12.6 32.6-36.5 47.1-48 12.5-9.8 29.7-21.4 44.1-29.7 12.5-7.2 25.8-13.9 26.4-13.3.2.3 3.3 7 6.9 15 10.6 23.4 12.7 23.7 25.3 2.6 20.4-33.9 43.5-65.1 68.7-92.9 5.3-5.9 9.7-11.5 9.7-12.5 0-4.9-4.7-7.9-24-15.5-32.5-12.8-72.9-20.3-114.6-21.4-20.6-.6-21.2-.5-23.3 1.6z"/><path d="M384.8 133.9c-3.5 2.8-3.7 7.2-.6 10.1 1.9 1.8 3.5 2 13.7 2 12.9 0 25.7 1.2 37.3 3.6 8.7 1.7 11 1.1 12.6-3.3 1-3.1.2-6.2-2-8.1-2.6-2.1-24.8-5.3-41.8-5.9-15.9-.5-16.6-.5-19.2 1.6zM102.9 368.5c-4.3 2.3-4.3 5.1-.2 13.4 6.8 13.6 24.4 29.3 40.9 36.7 8.2 3.7 22.3 8.4 25.1 8.4 5.4 0 8.5-8.2 4.4-11.6-1-.9-5.6-2.9-10.2-4.4-10.9-3.6-14.8-5.3-22.5-10-12.1-7.3-21-16.4-26.3-26.7-2-4-5.5-7.3-7.6-7.3-.5.1-2.2.7-3.6 1.5z"/></svg>