<svg xmlns="http://www.w3.org/2000/svg" fill="#3E1647" version="1.0" viewBox="0 0 565 504"><path d="M271.5 23.4c-13.8 2.3-23.6 5.4-36 11.6-14.1 7-23.1 13.5-33.8 24.3C179.4 82 167 112.5 167 145c0 34.1 13.3 64.8 38.3 88.8 48.4 46.2 124.5 45 171.7-2.8 30.7-31 42.8-75.9 31.6-117.5-12.1-44.7-47-78.1-92.6-88.6-11.1-2.6-33.6-3.3-44.5-1.5zm29.2 15.7c47.4 5.3 85.1 40 93.9 86.5 2.2 12 1.5 34.6-1.5 45.6-10.4 38.1-39.4 67-77.4 76.9-11.5 3-33 3.7-45 1.5-22.7-4.3-42.3-15-58.3-31.9-39.5-41.5-38.7-107.7 1.8-147.4 9.1-9 13.5-12.4 22-17.4 12.7-7.4 27.4-12.2 42.3-13.9 10.4-1.1 11.7-1.1 22.2.1z"/><path d="m242.6 109.6-6 5.4 2.6 2.8c1.3 1.5 10.4 11.7 20.2 22.7 21.2 23.9 22.9 25.5 26.1 25.5 1.6 0 10.2-5.1 22.8-13.6 11.1-7.5 20.6-14 21.1-14.4.5-.5-1.2-3.7-3.8-7.4l-4.7-6.6-16.8 11.4-16.8 11.5-19.3-21.4c-10.6-11.8-19.3-21.5-19.4-21.5 0 .1-2.8 2.6-6 5.6zm210.9 164.8c-9.4 2.3-14 5.3-47 30.5l-32.9 25.2-1.9-3.6c-1-2-3.8-4.9-6.3-6.5-7.6-4.8-13.7-5.3-50-3.9l-32.2 1.2-7.9-3.1c-43.8-17.5-91.4-14.8-125.6 7.1l-5.6 3.6-1.1-4.2c-.6-2.3-1.4-5.1-1.7-6.2-.9-3.4-4.5-6.5-7.4-6.5-1.6 0-17.6 3.8-35.6 8.5-28 7.3-33.1 8.9-35 11.1-1.3 1.4-2.3 3.3-2.3 4.3s8.8 35.3 19.4 76.2c20.7 78.9 20.3 77.9 26.1 77.9 1.3 0 17.1-3.8 35.1-8.5s32.9-8.5 33-8.5c.2 0 1.2-1 2.4-2.2 2.4-2.6 2.5-6.3.5-13.8-.8-3-1.2-5.6-1-5.8.2-.2 37.9-4.6 83.7-9.7 48.5-5.5 85.6-10.1 88.8-11 16-4.9 20.3-8.5 80.3-68.4 59.4-59.3 58.6-58.3 57.3-67.8-1.9-13.7-15.5-20.2-33.1-15.9zm16.7 17c.4.6.8 1.3.8 1.6 0 .3-24 24.4-53.2 53.6-32.2 32.1-55.7 54.7-59.3 57.1-11.6 7.7-10.5 7.5-102 17.8-46.2 5.1-84.3 9-84.6 8.7-.8-.8-22.9-85.3-22.9-87.4 0-.7 2.9-3.3 6.5-5.7 32.2-21.1 72.6-23.8 114-7.6l11 4.4 33.4-1.3c38.9-1.5 43.4-1.1 44.4 4 1.2 6.6-3.4 14.4-9.7 16.3-1.7.5-6.7 1.2-11.1 1.6-4.4.3-24.2 2.4-44 4.6-19.8 2.1-36.6 3.9-37.4 3.9-1.1 0-1.2 1.4-.7 7.7.4 4.2.9 8 1.1 8.3.2.4 5.5 0 11.7-.7 6.2-.7 27.7-3.1 47.8-5.2 21.7-2.3 38-4.5 40.2-5.4 4.4-1.8 11.3-8 14.3-12.7 2.2-3.6 73.6-59 80.4-62.5 6.5-3.3 17.5-3.9 19.3-1.1zm-326.5 97.2c8.9 34 16.5 63 16.8 64.4.6 2.5.5 2.5-23.2 8.7-13.1 3.4-23.9 6-24.1 5.8-.2-.2-7.9-29.2-17.1-64.5-14.5-55.3-16.6-64.3-15.2-64.8 3.7-1.4 44.7-12 45.6-11.8.6.1 8.3 28.1 17.2 62.2z"/></svg>