<svg xmlns="http://www.w3.org/2000/svg" fill="#3E1647"
version="1.0" viewBox="0 0 266 622"><path d="M118.5 53.7c-5.8.9-18.9 4.4-21.6 5.9-3.6 1.8-3.8 2.6-4.3 17.4-.7 17.1-4.1 45.2-6 48.8-4.1 8-8.8 44.9-15.5 122.7-1.9 22.7-1.6 26.1 2.7 28 2.1.9 2.2 1.5 2.2 14.2V304h-3.4c-2.5 0-4 .7-5.5 2.6-2.1 2.6-2.1 3.6-2.1 49.8 0 25.9.5 53.6 1 61.6 3 43 9.4 80 19 109 10.6 32.3 22.8 50.9 38.8 58.7 8 3.9 19.2 4 27.2.2 23.2-11 41.4-50.1 51.4-110.4 6.2-37.2 7.6-58.9 7.6-119.1v-48.1l-2.3-2.1c-1.4-1.3-3.6-2.2-5.5-2.2H199v-13.3c0-12.7.1-13.3 2.2-14.2 4-1.7 4.7-5 3.7-16.5-.5-5.8-2.1-23.3-3.4-39-4.8-54-8.7-82.9-12.6-94-2.3-6.5-5.7-33.5-6.4-50.4-.2-6.5-.7-12.7-1-13.7-.8-2.5-4.4-4.3-14.1-6.9-6.5-1.8-11.2-2.2-26.9-2.5-10.4-.2-20.3-.1-22 .2zm42 17.5c4.5 1.2 5 1.6 5.2 4.3.2 1.6 1.3 13.3 2.5 25.9 2.6 26.6 3.3 24.4-9.1 27.3-10.5 2.4-32.7 2.4-43.2 0-12.4-2.9-11.7-.9-9.1-25.8 1.2-11.8 2.2-23.3 2.2-25.6 0-2.3.5-4.5 1.1-4.8 5.4-3.4 39.5-4.2 50.4-1.3zm17.4 83.3c2.8 19.1 10.1 93.2 10.1 103 0 3.5 0 3.5-4.4 3.5-2.6 0-9-1.6-15.6-4-21.4-7.7-39.4-7.7-60.8 0-6.8 2.4-13.1 4-15.7 4-5.5 0-5.3 3.2-2-34.8 4-45.4 8.5-83.5 10-85 .2-.2 3.2.5 6.7 1.7 17.8 5.8 48.4 5.5 64.3-.6 2.8-1.1 5.1-1.9 5.2-1.9.1.1 1.1 6.4 2.2 14.1zM164 272.9c6.3 2.2 12.5 4.1 13.7 4.1 5.2 0 5.3.4 5.3 13.6V303h-3.9c-2.2 0-4.3-.5-4.6-1-.3-.6-1.8-1-3.3-1-1.5 0-6.1-.7-10.2-1.6-5.2-1.2-12.4-1.7-23.5-1.7s-18.3.5-23.5 1.7c-4.1.9-8.7 1.6-10.2 1.6s-3 .4-3.3 1c-.3.5-2.4 1-4.6 1H92v-12.4c0-13.2.2-13.6 5.2-13.6 1.2 0 7.3-1.8 13.7-3.9 15.4-5.3 13.8-5 28.6-4.7 12.3.3 13.6.6 24.5 4.5zm-8.5 42.2 6.2 1.1.7 24.1c.8 26.1-.7 93.4-2.4 113.7-3.1 36.3-9.5 60.2-17.9 67.3-4.1 3.4-5.2 3.4-9.4-.3-8.3-7.3-14.5-30.8-17.7-68-1.7-19.2-3.1-88-2.4-113.2l.7-23.7 5.1-.9c7.2-1.3 29.8-1.4 37.1-.1zM96.4 374c.5 54.9 1.4 76.5 4.2 98.5 5.7 45.6 17.7 67.5 36.9 67.5 16.9 0 29-18.5 34.9-53 4.5-26.6 6.8-71.9 6.5-131.2-.1-19.7.1-35.8.5-35.8h14.8l-.5 49.7c-.5 49.8-1.4 64.3-5.3 91.3-10.2 70.9-32.8 117-54.6 111-18.5-5.2-35.9-43.1-45.2-99-5.8-34.4-7.6-62-7.6-114.7v-38.2l7.3-.3c3.9-.2 7.3-.3 7.4-.3.1 0 .4 24.6.7 54.5z"/></svg>