<svg xmlns="http://www.w3.org/2000/svg" width="658" height="546" viewBox="0 0 658 546"><path fill="none" stroke="#EF6079" stroke-linecap="round" stroke-linejoin="round" stroke-width="1.331" d="M657.010834,295.670081 C621.252423,329.731885 581.970238,332.156901 547.81581,325.660932 C535.563048,323.326024 515.114503,315.751157 515.31419,310.075262 C516.615967,306.519629 523.138786,307.168594 524.5756,310.681638 C526.021695,314.193512 523.305787,318.254765 519.668398,319.863706 C516.021671,321.468394 507.227954,322.636581 503.222239,322.255754 C487.966045,320.788854 478.747248,319.212629 464.923425,313.026849 C440.842485,302.253202 435.479336,280.353956 433.891959,262.305888 C431.822793,238.782961 428.372247,214.136756 426.942088,195.961921 C421.61807,128.316698 388.248239,74.8933615 332.270163,31.6896746 C316.688236,19.6702632 303.983225,6.68201887 284.271525,2.55503309 C264.551144,-1.56916018 242.36915,1.4393886 227.095629,13.7886134 C203.507394,32.8470955 202.939844,66.7214294 208.663958,95.3590548 C213.988005,122.026191 229.923571,166.604015 245.201157,189.679761 C302.818525,276.696209 298.708904,303.659657 341.916451,387.848402 C350.498888,404.570165 366.319503,417.742913 383.398869,427.19062 C399.346805,436.029753 418.635234,431.752901 432.438931,420.190286 C448.305916,406.895433 447.6358,390.734969 448.064532,370.83195 C448.429368,354.338619 445.949747,334.792235 441.913815,318.73276 C436.096843,295.602412 421.378646,281.610635 399.889684,268.900238 C388.51163,262.167325 376.244447,255.936283 362.826494,254.856072 C349.419559,253.774133 334.60216,259.045981 328.594156,270.30025 C325.608641,275.890595 325.037697,282.324534 325.067096,288.574459 C325.170806,308.1883 330.659331,327.440054 337.517963,345.977185 C343.965166,363.392951 352.000019,380.894998 366.001934,393.881603 C380.009542,406.857305 401.284261,414.62366 419.959531,408.65713 C433.608073,404.29281 432.650044,383.251914 432.933987,380.16516 C436.22771,343.421903 427.573345,321.868171 414.102251,287.205787 C408.111025,271.775185 398.116986,255.02845 380.856477,251.912897 C378.107006,251.420134 374.925996,251.42177 372.887821,253.222131 C370.359287,255.446908 370.774043,259.248757 371.383964,262.44717 C374.50753,278.898059 380.404013,298.392351 397.573838,303.095565 C399.818726,303.7107 402.312772,303.995325 404.458812,303.114601 C407.79147,301.743371 409.204801,298.026672 409.665739,294.65076 C411.155643,283.554208 405.635651,271.883704 395.85844,265.441474 C391.294735,262.435182 385.869663,260.469754 382.040348,256.663012 C374.767507,249.447971 375.438846,238.275414 375.552552,228.361722 C375.66865,218.454518 373.461012,206.680262 363.822554,202.542942 C349.224889,196.281287 333.731607,213.340392 317.840341,211.188734 C316.728867,211.040019 315.590028,210.774918 314.722832,210.108573 C312.543181,208.411083 313.285112,204.859523 315.470814,203.169559 C317.658908,201.486083 320.687881,201.166854 323.513093,201.02202 C332.445663,200.572999 341.921367,201.01248 349.721976,196.934224 C357.531268,192.853175 362.004712,181.9201 355.650238,176.037127 C350.576115,171.335328 341.54602,172.779115 336.289911,177.299943 C331.036193,181.827259 330.240031,193.114349 328.003606,199.46164 C336.825782,187.236946 342.62975,169.475044 348.524984,155.791393 C350.641223,150.877964 352.380731,144.773953 348.747854,140.704457 C344.602466,136.061372 335.918018,137.842126 331.924211,142.604675 C327.93214,147.366665 327.315875,153.798852 326.85684,159.830307 C325.956186,171.782385 326.677514,188.392657 325.766924,200.338859 C324.370282,188.693844 312.805249,173.713328 300.55552,171.170614 C295.850031,170.192968 290.105105,170.663619 287.420606,174.39908 C285.10311,177.633684 286.019787,181.996199 287.627611,185.588501 C296.328876,205.093303 322.841867,214.460617 344.535795,208.463024 C346.236028,207.990573 348.012634,207.435499 349.756074,207.754707 C356.223728,208.954822 353.103999,219.271076 346.699794,220.724851 C340.29559,222.178627 333.708827,219.158963 327.123568,219.252178 C320.535975,219.344328 313.289355,226.274311 317.566437,230.958498 C319.68532,233.281513 323.425674,233.448326 326.695633,233.234836 C339.249557,232.408507 351.573561,228.618966 362.197146,222.313763 C365.489167,225.289997 362.390576,230.842324 358.121883,232.39849 C353.851454,233.955215 349.037775,233.23734 344.536738,234.020951 C340.032711,234.796451 335.25087,238.359186 336.323424,242.522794 C336.862678,244.639019 338.779506,246.19788 340.775391,247.323093 C350.842243,253.033528 365.393995,250.271042 372.273854,241.334458 C379.149757,232.408219 377.33576,218.64043 368.346693,211.538307 C358.479724,203.746068 343.83369,204.730008 331.31013,207.66206 C323.686874,209.449856 315.961689,211.925401 310.181917,216.906757 C300.647228,225.12782 298.397391,238.235927 297.304673,250.315094 C293.280706,294.962317 297.101905,341.511445 278.784583,382.919759 C271.632186,398.883745 267.358393,415.854142 260.947007,438.575792 C255.66662,457.299614 239.379278,473.743238 219.448001,479.07413 C198.937644,484.567684 176.329246,475.960254 161.368262,461.747202 C146.407279,447.534149 137.869394,428.541051 131.304209,409.577521 C124.732078,390.616224 123.31433,378.787494 113.87295,360.915939 C101.592661,337.65634 82.0185527,317.241555 68.2585862,294.715491 C48.4655234,262.309574 39.4366274,227.836832 33.7080961,190.91466 C31.9064427,179.251132 31.0856397,136.552188 31.6786549,124.782512 C33.6590039,85.0507616 55.1544996,63.8350295 70.3679095,56.2441239 C89.3033574,46.8102202 127.118942,56.2036151 147.946469,80.034397 C165.560559,100.19056 180.50084,126.139805 190.519292,150.424417 C200.528406,174.704774 200.71562,203.107506 209.517558,227.801523 C219.188769,254.953757 235.709606,279.547372 246.626965,306.291556 C257.699924,333.415687 260.354376,361.324254 261.575974,390.330488 C262.344946,408.592789 256.637886,427.776788 246.923047,443.634179 C237.204252,459.501913 223.634382,471.867452 205.01686,466.250976 C184.709634,460.123837 175.842977,438.431552 169.631554,419.363315 C165.959599,408.12715 162.295728,396.886571 158.632455,385.647614 C154.336566,372.471233 149.993172,358.976298 150.662812,345.222519 C151.338743,331.459461 158.006182,317.146443 170.937965,310.521599 C186.187401,302.712275 206.26344,307.901384 218.786123,319.188385 C231.314499,330.464485 237.554913,346.502567 241.315236,362.367652 C245.216397,378.809749 246.879399,395.714063 246.24918,412.541309 C245.846698,423.378834 244.413328,434.43906 239.195518,444.127434 C233.98639,453.813015 224.402876,461.975396 212.906712,463.473909 C201.203446,464.995487 189.442943,459.39071 181.426583,451.2863 C173.401542,443.184683 168.522839,432.842833 164.241791,422.557322 C157.230452,405.729403 151.413789,388.459187 146.855666,370.909379 C142.842178,355.490395 139.846801,339.023679 145.241574,323.982409 C149.732483,311.458007 159.781393,301.112099 171.62909,293.906996 C177.050873,290.61016 183.149382,287.652666 186.380794,282.413226 C189.615196,277.181896 187.953497,268.817135 181.640613,267.47834 C176.966979,266.492263 172.520981,269.738337 169.34411,273.102379 C166.175323,276.462006 163.067806,280.398836 158.413773,281.489285 C153.760994,282.588404 147.804485,278.311919 149.922032,274.292525 C159.510926,272.030375 169.108502,269.765433 178.699132,267.502725 C183.587108,266.346105 189.807121,262.079512 186.707154,258.370212 C185.861258,257.355926 184.490961,256.84232 183.150968,256.558457 C171.880879,254.165129 162.171667,264.394525 150.867138,266.660544 C149.044345,267.021826 147.071086,267.159355 145.364887,266.461679 C140.846007,264.620274 141.147258,257.892069 144.908339,254.906196 C148.660738,251.923116 154.087841,251.770588 158.99499,252.20984 C163.901541,252.647469 168.989059,253.502245 173.65992,252.025377 C176.191902,251.227356 178.744704,249.210677 178.408943,246.729642 C177.688384,241.523895 169.182858,244.243161 164.572986,247.260723 C151.939532,255.516843 133.317435,254.582767 121.703127,245.11184 C110.081873,235.643147 106.577426,218.543677 113.618454,205.728871 C114.507457,204.114868 115.649537,202.486598 117.421321,201.74983 C120.908355,200.31262 124.698654,202.954421 127.356075,205.510635 C141.487327,219.085209 152.150611,235.792686 158.205655,253.857103 C151.39331,233.928021 146.708531,211.313472 157.152177,192.806828 C159.654582,188.382436 163.680011,183.974393 169.033322,183.763954 C172.896979,183.617149 176.521596,185.80423 178.92701,188.64107 C187.854916,199.191916 181.326308,214.77203 173.013143,225.753497 C164.697585,236.728476 154.251208,248.43051 156.169171,261.758455 C157.8299,273.276804 168.723754,283.327795 166.53237,294.766077 C164.137592,307.238619 148.126921,312.645693 140.531709,323.140429 C134.049915,332.097758 134.375119,343.755357 135.070918,354.537194 C137.928152,398.956106 142.043685,446.978134 116.462101,484.514241 C92.0724066,520.299014 46.3517624,544.091837 0.945961574,544.511204" opacity=".7"/></svg>