<svg xmlns="http://www.w3.org/2000/svg" width="691" height="514" viewBox="0 0 691 514"><path fill="none" stroke="#EF6079" stroke-linecap="round" stroke-linejoin="round" stroke-width="1.254" d="M1,513.067432 C26.1952637,505.707206 42.2790221,482.882875 55.6774077,464.815981 C65.8928809,451.032403 75.9274308,436.876999 82.0989302,421.000474 C89.7663984,401.296892 91.1518029,379.893297 96.132223,359.398973 C103.387588,329.576501 118.317122,301.798265 137.511758,277.462271 C152.246967,258.788113 171.059654,241.260287 193.871084,234.585262 C197.653724,233.479523 200.7512,237.691397 198.462853,240.812146 C185.77811,258.067191 172.510392,274.916311 158.693202,291.323786 C170.987619,276.567613 185.367682,263.818331 197.6621,249.055664 C200.722721,245.389352 204.656131,241.456754 208.951387,239.636588 C213.239943,237.818046 217.585456,242.281593 215.397622,246.298624 C208.128856,259.593468 182.926891,285.699294 167.846588,299.719931 C187.583994,283.396889 206.619485,266.218158 231.598646,261.090518 C235.922381,260.200731 238.832233,265.281284 235.769936,268.366311 L235.706278,268.429635 C211.745649,292.220067 174.321301,305.100868 161.819157,336.056682 C188.009499,320.074617 202.346006,297.907883 231.742714,296.789155 C233.90877,299.749158 232.912016,302.127876 230.536558,304.933627 C218.660945,318.983491 204.548917,326.41516 192.961441,340.695589 C179.707124,357.039739 178.834336,379.375337 175.261098,399.876155 C171.68786,420.376974 150.962075,451.053511 141.540655,449.135923 C149.308636,438.794587 159.096929,430.075325 167.962178,420.609163 C184.471441,402.969301 197.70398,382.741264 210.857784,362.623638 C224.696752,341.450609 250.136597,323.922782 247.732661,287.748401 C209.341713,295.628211 211.341922,292.919881 202.548708,295.243394 C215.390921,293.501165 222.090114,291.646902 234.565455,288.211155 C239.589431,286.824517 245.126023,284.858218 247.350711,280.27614 C248.794748,277.301525 248.489859,273.838175 248.144764,270.564799 C245.278468,243.583799 241.639896,216.344632 238.304539,189.412343 C235.6845,168.245808 234.262241,152.944073 232.890238,137.942721 C232.731092,136.23459 234.052839,134.940503 235.806791,135.177563 C237.704812,135.437354 238.282762,137.15198 238.441907,138.676633 C243.192823,183.318602 250.302444,224.76838 253.146962,271.180181 C253.327885,274.049256 255.088539,282.612643 253.146962,284.893939 C251.877148,286.390989 250.736325,287.538944 248.908663,286.727095 C247.220044,285.97857 246.807941,284.418195 246.628693,282.92764 C240.924579,236.473623 234.146651,194.057745 231.511534,148.990367 C231.380868,146.787008 230.839772,142.511809 229.107598,141.07646 C227.635082,139.852191 224.480649,140.327935 222.537397,140.300332 C205.292713,140.02755 188.284235,141.097568 171.059654,141.958128 C169.60054,142.027947 168.027511,142.154596 166.943646,143.099588 C165.521386,144.336846 165.514686,146.457397 165.615199,148.311661 C167.377527,180.610273 169.139855,212.908886 170.893807,245.207498 C184.789732,229.02247 192.788893,208.179052 193.177544,187.124552 C193.242877,183.709914 193.170843,180.06471 195.524523,177.328778 C196.650269,176.026572 198.36234,175.214723 200.107917,175.326758 C204.099959,175.58655 204.180369,179.637678 205.703141,181.519544 C209.47908,186.207162 208.475625,191.469569 202.699477,193.478084 C194.96165,196.165306 192.882706,187.14566 193.314912,180.883054 C193.452279,178.86155 193.691835,176.635459 195.214608,175.250444 C198.541589,172.241731 205.096713,175.487504 207.162255,179.420102 C209.817474,184.479547 208.490702,193.169582 201.848467,193.687542 C198.022271,193.981431 194.628282,191.273102 193.698536,187.670115 L171.238902,156.001497 C168.784709,152.531653 168.019135,148.045374 169.752985,144.184219 C170.099754,143.406467 170.53196,142.657942 171.059654,141.958128 C176.386844,134.792746 200.873491,135.437354 208.763763,135.94882 C218.841868,136.606417 229.136077,135.409752 236.103304,128.314189 C243.075557,121.226744 247.710883,112.340242 252.165285,103.551161 C253.234073,101.43873 254.322964,99.1639278 253.997972,96.8420388 C253.666279,94.5120313 251.240565,92.3216619 248.952219,93.0912951 C247.811396,93.4696168 247.003941,94.4616967 246.476248,95.5057349 C243.408926,101.641692 250.851915,109.729335 257.485774,107.47077 C269.043096,104.614684 271.368297,86.2896216 261.81621,79.5301644 C253.941015,73.9543834 242.505984,75.529371 235.294174,81.902388 C228.089066,88.2770287 224.400238,97.4363125 220.257427,106.001323 C216.11294,114.558214 212.742403,124.662491 203.890557,128.635681 C201.696022,129.62289 197.812869,130.610099 195.142573,127.335098 C193.979973,125.907867 193.720314,123.990279 194.145819,122.220448 C194.861137,119.273435 196.383909,116.160805 199.213351,114.788779 C200.7512,114.040254 202.620742,114.124687 204.165292,114.873212 C210.17262,117.784503 203.833599,123.569741 201.21356,120.785098 C200.40443,119.932657 200.238583,118.693775 200.136395,117.531206 C198.325486,96.1763224 208.028343,74.2060567 225.216069,60.7228635 C232.536767,54.9847127 242.355214,50.6267057 251.227163,53.6760116 C246.548282,51.7811554 246.116076,45.4406123 247.580216,40.7400049 C252.584089,24.7303367 269.440123,15.1862364 285.726582,9.65104787 C302.338034,3.99732936 322.557903,1.45786475 336.065178,12.4015933 C339.01691,14.794925 341.732437,17.8588443 345.506701,18.5732717 C347.816825,19.013294 350.192283,18.4823445 352.44545,17.8231229 C364.530465,14.304568 375.191546,7.13269135 387.219604,3.47287471 C404.682066,-1.84473819 424.556841,0.891193942 439.802991,10.7080757 C455.049141,20.5249574 465.351725,37.2198263 467.068822,54.880796 C468.318534,67.782705 465.343349,81.5045819 470.87324,93.307247 C476.287542,104.887465 488.516626,111.710247 498.103893,120.385668 C525.125143,144.86942 530.834282,184.367512 528.517457,220.150581 C527.564259,234.83044 525.225656,250.237716 515.898048,261.852032 C509.12012,270.298512 487.643838,278.079276 487.022332,270.550186 C487.643838,264.245364 495.346485,265.568678 502.37067,276.54001 C511.689903,292.387308 517.61682,310.502913 520.417783,328.542205 C523.212045,346.573378 517.848,366.997882 502.449406,377.478857 C494.833869,382.663326 485.477782,385.020937 477.803613,390.137211 C470.136145,395.258356 465.061913,402.345801 470.650436,406.775251 C477.753357,410.714343 481.038457,403.360612 480.207549,395.21614 C478.735034,380.711641 470.64206,366.955666 458.506788,358.341945 C444.458419,348.364317 425.350894,344.900968 414.542393,331.654835 C402.350164,316.702195 405.585008,294.304896 415.617883,277.910412 C417.834195,274.292811 420.377174,270.753148 421.38733,266.666299 C422.541555,261.951078 421.5381,257.031271 420.787602,252.246231 C417.958161,234.221553 418.824248,215.657807 423.322206,197.956245 C426.267237,186.340305 430.750118,174.074886 426.642486,162.795052 C422.787812,152.229645 412.284201,145.309442 406.673899,135.513668 C399.859116,123.611958 400.993238,108.959701 396.460101,96.0789005 C388.951779,74.7727275 364.299285,60.5686122 341.400744,64.3534536 C335.256048,65.3682652 329.243694,67.5164185 323.020263,67.3767804 C316.790131,67.2436371 309.960271,63.9280446 308.618423,58.0291476 C306.43729,74.6119813 290.462421,85.5557099 276.796,95.7427949 C262.85652,106.132842 248.642303,121.632669 253.775168,138.194395 C255.463787,143.651646 259.217948,148.402588 264.257001,151.356095 C276.29176,158.401324 289.480744,153.035 302.351436,151.844829 C313.295628,150.838136 326.990527,155.343899 328.268718,165.923919 C329.697678,177.811017 313.938912,185.02511 301.753383,183.156233 C289.559479,181.288979 278.399183,174.402873 266.06121,174.068391 C270.105184,182.282683 280.168212,186.164946 289.544402,186.578989 C298.922267,186.991409 308.199618,184.716607 317.569107,184.179163 C319.115332,184.088235 320.803951,184.088235 322.023509,185.010496 C323.388811,186.054534 323.713803,187.921788 323.748982,189.608811 C324.008641,201.776808 315.014401,211.963893 307.831071,221.941521 C306.474145,223.823388 305.117219,226.119297 305.902896,228.28044 C306.712026,230.513026 309.425877,231.479126 310.900068,233.360993 C314.567118,238.042116 309.405775,246.347334 321.835885,248.019744 C327.265263,248.753656 332.72312,246.732151 335.92781,242.421231 C341.327034,235.151933 341.276778,225.495797 343.017328,216.687232 C347.709611,192.932522 368.760388,172.087479 394.337601,171.366557 C400.596212,171.192821 406.826344,173.27765 411.208712,177.616173 C423.169761,189.454559 411.106523,205.316471 397.585847,206.842748 C386.634953,208.080006 376.022454,202.294768 368.029993,194.926424 C379.473401,193.960323 391.109458,195.345338 401.968215,198.962938 C405.172905,200.026461 408.558518,201.504027 410.133222,204.413695 C411.431515,206.807026 411.215412,209.667983 410.89042,212.355204 C408.782997,229.861923 402.118984,242.31082 393.766352,257.857734 C388.886445,266.953693 376.30389,275.427776 365.813681,276.700756 C354.077111,278.121492 354.077111,278.421877 344.30222,275.413163 C317.064867,267.017018 304.142243,265.175743 280.34076,258.473116 C288.180775,283.34006 320.587848,303.751575 357.013766,282.109296 C357.54146,281.682263 364.790124,277.273922 371.114068,278.121492 C377.436337,278.967439 382.830536,285.075793 377.285567,291.78654 C356.047166,317.507549 316.249036,340.883938 300.72815,334.657054 C275.222972,324.434247 266.010953,304.121778 258.720409,291.771926 C257.99169,290.533044 256.445464,290.302479 255.701668,291.526748 C253.941015,294.423426 261.506295,304.996951 269.245797,317.101625 C287.820603,346.15284 326.412578,349.582091 360.401055,340.486132 C364.652756,339.344672 369.338338,337.959657 373.055644,342.074109 C375.012298,344.235252 375.891787,347.13193 375.784573,350.001005 C375.416025,359.538611 371.633385,368.395887 367.894301,377.108654 C356.522928,403.612286 345.161606,430.111047 333.790233,456.608184 C329.900379,465.676541 325.626901,475.220641 317.381483,480.929566 C308.531311,487.052533 296.483151,487.500674 286.116908,484.310106 C275.757366,481.119538 266.791604,474.717295 258.482528,467.922116 C242.752241,455.054305 228.62346,440.354961 216.496564,424.246248 C208.143933,413.149891 200.995782,396.700201 211.961752,387.099271 C215.859982,383.684633 221.202249,382.286628 226.428926,382.726651 C237.250828,383.650535 245.437613,390.304452 253.247475,396.812236 C283.553826,422.049383 315.815155,449.10832 355.434037,454.159647 C375.95712,456.775425 399.470466,451.647785 410.833463,434.874979 C418.514333,423.533444 419.552967,408.559695 428.627618,398.224854 C430.590972,395.992268 432.959729,393.991872 435.810948,393.004663 C443.542075,390.319065 451.757339,395.706497 457.106307,401.736914 C462.463651,407.775449 467.047045,415.073974 474.614,418.173615 C484.668652,422.294562 496.11876,417.516017 507.026098,417.956039 C528.076875,418.810105 542.378203,437.912919 557.37307,452.263167 C575.505619,469.602644 603.913949,481.965485 626.134027,469.903028 C632.890177,466.236717 638.312855,460.665807 643.415566,455.026702 C661.536388,435.02923 677.208043,412.953424 690,389.40817"/></svg>