<?xml version="1.0" encoding="UTF-8"?>
<svg width="937.651341px" height="1021px" viewBox="0 0 937.651341 1021" version="1.1" xmlns="http://www.w3.org/2000/svg" xmlns:xlink="http://www.w3.org/1999/xlink">
    <title>cerebro logo SNC</title>
    <defs>
        <polygon id="path-1" points="0 0 1278.65134 0 1278.65134 1021 0 1021"></polygon>
    </defs>
    <g id="Distr.-Parkinson" stroke="none" stroke-width="1" fill="none" fill-rule="evenodd" opacity="0.100000001">
        <g id="Distr.-Parkinson-Copy" transform="translate(0.000000, -2065.000000)">
            <g id="Group-3" transform="translate(-341.000000, 2065.000000)">
                <mask id="mask-2" fill="white">
                    <use xlink:href="#path-1"></use>
                </mask>
                <g id="Clip-2"></g>
                <path d="M1144.23981,686.564229 C1102.67802,732.69032 1038.54902,758.092726 963.676763,758.092726 C944.008333,758.092726 917.131113,753.579285 885.791307,746.408636 C913.202512,686.475232 923.068512,614.336467 914.486618,533.463241 C893.661222,337.529067 688.204324,189.767924 436.583194,189.767924 C401.810631,189.767924 369.987697,191.725868 340.516838,195.133197 C419.851679,122.549445 532.636836,76.2835017 655.516838,76.2835017 C1022.55491,76.2835017 1184.19965,314.288027 1199.87591,464.312247 C1209.69106,558.407946 1190.46761,635.263574 1144.23981,686.564229 M563.201093,853.5361 C528.021685,853.5361 498.08041,847.967405 466.359187,842.068147 C433.697135,836.003609 399.928971,829.735648 360.261551,829.735648 C289.165327,829.735648 240.738017,877.71797 205.355186,912.770239 C197.714122,920.360448 187.568417,930.404442 179.304371,937.244529 C184.23737,727.948029 341.381384,711.458078 390.075686,711.458078 C480.268213,711.458078 608.348212,748.353865 721.336792,780.901493 C733.656577,784.448675 745.760226,787.932289 757.635025,791.326905 C709.169573,831.553738 641.493393,853.5361 563.201093,853.5361 M163.856962,538.243674 C168.62468,555.674454 172.388,569.443626 172.388,582.475391 C172.388,610.509578 154.041818,631.640108 129.732809,631.640108 C94.2609802,631.640108 76.2835017,592.659238 76.2835017,515.80361 C76.2835017,471.864313 88.4125784,393.877147 163.539114,336.689949 C153.800253,370.178406 148.523978,405.001824 148.523978,440.689789 C148.523978,482.149872 157.029588,513.248113 163.856962,538.243674 M1275.73985,456.391477 C1265.14916,354.997989 1206.60157,245.785442 1119.14254,164.225665 C1038.8033,89.3025526 893.152665,0 655.516844,0 C471.355757,0 306.481682,90.6883696 217.649544,222.353693 C19.1090172,292.496373 0,456.378763 0,515.80361 C0,682.96619 81.2927849,707.923609 129.732809,707.923609 C196.417303,707.923609 248.671502,652.821493 248.671502,582.475391 C248.671502,559.196209 242.950239,538.319957 237.445113,518.130257 C231.215294,495.410488 224.807479,471.902455 224.807479,440.689789 C224.807479,386.185227 239.886185,334.03274 266.547269,287.054817 C311.846955,273.959482 367.635622,266.051426 436.583194,266.051426 C649.096316,266.051426 821.929303,384.481562 838.622676,541.536578 C846.479876,615.493433 836.906297,677.550062 810.385066,726.943629 C788.453559,720.853663 765.632078,714.280568 742.454608,707.605761 C624.609312,673.646889 491.0369,635.174577 390.075686,635.174577 C257.609385,635.174577 102.919158,716.95049 102.919158,947.390235 C102.919158,995.703119 136.16605,1021.00381 169.006098,1021.00381 C204.503354,1021.00381 230.999157,994.749576 259.058772,966.956953 C289.292466,936.990251 320.568702,906.019149 360.261551,906.019149 C392.898175,906.019149 421.822336,911.397136 452.424734,917.080257 C486.129328,923.335504 520.990889,929.819602 563.201093,929.819602 C676.647374,929.819602 774.01055,891.016727 837.376712,820.5562 C839.182088,818.547401 840.847611,816.436891 842.589418,814.38995 C890.292034,826.36646 931.739403,834.376227 963.676763,834.376227 C1060.44238,834.376227 1144.69751,800.023224 1200.91845,737.623319 C1262.00882,669.832714 1287.88164,572.57125 1275.73985,456.391477" id="Fill-1" fill="#FFFFFF" mask="url(#mask-2)"></path>
            </g>
        </g>
    </g>
</svg>