<svg xmlns="http://www.w3.org/2000/svg" width="1248" height="1351" viewBox="0 0 1248 1351"><g fill="none" fill-rule="evenodd"><rect width="1247" height="1350" x=".5" y=".5" fill="#D8D8D8" stroke="#979797" opacity="0"/><path fill="#FFF" fill-rule="nonzero" d="M863.41883,95.948 C1023.94837,95.948 1150.32828,129.1017 1248.0008,174.254903 L1248.00333,280.332604 C1148.74472,225.677253 1021.59927,189.714694 863.41883,189.714694 C712.376313,189.714694 573.742256,246.584194 476.224894,335.803203 C512.450094,331.614958 551.566433,329.208279 594.308418,329.208279 C903.597858,329.208279 1156.14282,510.834365 1181.74113,751.674119 C1192.28988,851.082443 1180.16272,939.754479 1146.46922,1013.42385 C1184.99171,1022.23792 1218.02884,1027.78578 1242.20502,1027.78578 C1244.1427,1027.78578 1246.07452,1027.77194 1248.00035,1027.74431 L1248.00098,1121.51894 C1246.07312,1121.54128 1244.14111,1121.55247 1242.20502,1121.55247 C1202.94803,1121.55247 1152.00146,1111.70697 1093.36602,1096.9856 C1091.22501,1099.50167 1089.17777,1102.09588 1086.95863,1104.56507 C1009.06976,1191.17424 889.392204,1238.87023 749.945502,1238.87023 C698.061265,1238.87023 655.209885,1230.90006 613.780634,1223.2112 C576.164562,1216.22558 540.611358,1209.61502 500.49484,1209.61502 C453.656501,1209.61502 416.35266,1244.69967 380.563968,1280.09542 L377.212972,1283.41362 L377.212972,1283.41362 L376.097693,1284.51899 C341.607177,1318.68132 309.038879,1350.95269 265.406111,1350.95269 C225.039549,1350.95269 184.172898,1319.8534 184.172898,1260.46783 C184.172898,977.214274 374.316126,876.696378 537.14199,876.696378 C661.242209,876.696378 825.427691,923.986047 970.281605,965.727854 C998.771052,973.932439 1026.82292,982.012003 1053.78085,989.497711 C1086.3804,928.783776 1098.14812,852.504571 1088.49015,761.597761 C1067.97087,568.547766 855.526799,422.974973 594.308418,422.974973 C509.558954,422.974973 440.984245,432.695454 385.302457,448.79207 C352.530997,506.536725 333.996447,570.641888 333.996447,637.638191 C333.996447,669.969263 339.589777,695.575023 345.932026,719.543035 L346.440912,721.457079 C347.036261,723.686279 347.63701,725.902394 348.239218,728.10956 L348.755662,729.999322 C349.013971,730.943204 349.272341,731.88566 349.530463,732.827014 C356.297293,757.643932 363.329795,783.304751 363.329795,811.91922 C363.329795,898.38774 299.099609,966.118548 217.131891,966.118548 C157.59004,966.118548 57.666,935.441212 57.666,729.967129 C57.666,656.922875 81.1545569,455.48076 325.198006,369.262285 C434.389321,207.420971 637.050402,95.948 863.41883,95.948 Z M537.14199,970.463072 C477.287584,970.463072 284.128194,990.732305 278.064614,1247.99686 C288.222673,1239.58911 300.693643,1227.24316 310.08594,1217.91338 C353.578059,1174.82758 413.104281,1115.84833 500.49484,1115.84833 C546.845685,1115.84833 586.643732,1122.81068 624.950209,1129.90205 L627.932199,1130.45476 C628.925249,1130.63901 629.917381,1130.82322 630.908684,1131.00728 C669.900001,1138.25857 706.703428,1145.10354 749.945502,1145.10354 C846.181386,1145.10354 929.368071,1118.0831 988.941177,1068.6368 C974.344829,1064.46418 959.46718,1060.18217 944.323859,1055.82202 C805.439757,1015.8149 648.005478,970.463072 537.14199,970.463072 Z M258.686164,509.802932 C166.341598,580.096697 151.432694,675.957514 151.432694,729.967129 C151.432694,824.437074 173.530378,872.351854 217.131891,872.351854 C247.012211,872.351854 269.563101,846.37848 269.563101,811.91922 C269.563101,795.900743 264.937277,778.975855 259.076859,757.550165 C250.68474,726.825945 240.229753,688.60039 240.229753,637.638191 C240.229753,593.771006 246.715283,550.966511 258.686164,509.802932 Z" opacity=".1"/></g></svg>