<svg xmlns="http://www.w3.org/2000/svg" width="519" height="414" viewBox="0 0 519 414"><path fill="#FFF" fill-rule="evenodd" d="M464.088083,278.391372 C447.235407,297.094801 421.232072,307.395092 390.872508,307.395092 C382.897259,307.395092 371.998954,305.56496 359.291139,302.657371 C370.405966,278.355285 374.406479,249.104111 370.926652,216.311246 C362.48227,136.862913 279.172617,76.9480124 177.144068,76.9480124 C163.044322,76.9480124 150.140605,77.7419287 138.190619,79.1235491 C170.359693,49.6919397 216.092362,30.9318019 265.91834,30.9318019 C414.746704,30.9318019 480.291192,127.439024 486.647678,188.271567 C490.627569,226.425945 482.832755,257.589735 464.088083,278.391372 M228.485704,346.095931 C214.220988,346.095931 202.080256,343.837909 189.217782,341.44585 C175.973815,338.986772 162.281337,336.445209 146.1968,336.445209 C117.368361,336.445209 97.7318223,355.901312 83.3846215,370.114475 C80.286286,373.192189 76.1723564,377.264877 72.8214112,380.038428 C74.8216677,295.171874 138.54118,288.48545 158.28598,288.48545 C194.85768,288.48545 246.792175,303.446131 292.607329,316.6437 C297.602815,318.082029 302.510661,319.494581 307.325712,320.871047 C287.673707,337.182417 260.232043,346.095931 228.485704,346.095931 M66.5577213,218.249639 C68.4909589,225.317555 70.0169278,230.900746 70.0169278,236.184928 C70.0169278,247.552366 62.5778295,256.120475 52.7208953,256.120475 C38.3376074,256.120475 31.0480128,240.314324 31.0480128,209.150534 C31.0480128,191.333816 35.9661693,159.711204 66.4288388,136.522663 C62.4798788,150.101724 60.3404291,164.222091 60.3404291,178.693019 C60.3404291,195.504454 63.789325,208.114318 66.5577213,218.249639 M517.409355,185.059815 C513.114989,143.946295 489.374831,99.6622656 453.911521,66.5910141 C421.335178,36.2108294 362.276058,0 265.91834,0 C191.243815,0 124.38988,36.7727571 88.3697969,90.1610471 C7.86462729,118.602839 0.116210929,185.05466 0.116210929,209.150534 C0.116210929,276.932422 33.0792011,287.052276 52.7208953,287.052276 C79.7604454,287.052276 100.94873,264.709205 100.94873,236.184928 C100.94873,226.745573 98.6288445,218.28057 96.3965995,210.093953 C93.8705023,200.881432 91.272231,191.349282 91.272231,178.693019 C91.272231,156.592247 97.3864172,135.445205 108.197082,116.39637 C126.565417,111.086411 149.186875,107.879814 177.144068,107.879814 C263.314913,107.879814 333.396065,155.901437 340.164975,219.584861 C343.35095,249.573243 339.469009,274.736264 328.715053,294.764606 C319.82216,292.295217 310.568396,289.629927 301.170283,286.923394 C253.385804,273.153587 199.224219,257.553648 158.28598,257.553648 C104.572906,257.553648 41.8483669,290.71254 41.8483669,384.152358 C41.8483669,403.742499 55.3294772,414.001547 68.6456179,414.001547 C83.0392164,414.001547 93.7828622,403.355851 105.16061,392.086365 C117.419914,379.935322 130.101953,367.377011 146.1968,367.377011 C159.430456,367.377011 171.158765,369.557703 183.567572,371.862122 C197.234274,374.39853 211.370107,377.027733 228.485704,377.027733 C274.486449,377.027733 313.965738,361.293756 339.659755,332.723082 C340.391808,331.908544 341.067152,331.052765 341.773428,330.222761 C361.116115,335.079054 377.922394,338.326893 390.872508,338.326893 C430.109499,338.326893 464.273674,324.397272 487.070412,299.095058 C511.84163,271.606997 522.332666,232.168949 517.409355,185.059815" opacity=".1"/></svg>