<svg xmlns="http://www.w3.org/2000/svg" width="63" height="50" viewBox="0 0 63 50"><path fill="#FFF" fill-rule="evenodd" d="M55.6680546,33.4681518 C53.6460447,35.7166741 50.5261248,36.9549728 46.883538,36.9549728 C45.9266553,36.9549728 44.6190601,36.7349548 43.0943569,36.385405 C44.4279309,33.4638134 44.9079186,29.9472435 44.4904036,26.0048922 C43.4772337,16.4536304 33.4816142,9.25067376 21.240073,9.25067376 C19.5483638,9.25067376 18.0001562,9.34611821 16.5663786,9.51221633 C20.4260733,5.97395447 25.9131488,3.71861467 31.8913458,3.71861467 C49.7480005,3.71861467 57.6121284,15.3206924 58.3747892,22.633968 C58.8523027,27.2208792 57.917069,30.9673834 55.6680546,33.4681518 M27.4001209,41.6075796 C25.6886185,41.6075796 24.2319549,41.3361207 22.6886955,41.0485478 C21.0996642,40.752918 19.4568198,40.4473718 17.5269725,40.4473718 C14.0680922,40.4473718 11.7120703,42.7863804 9.9906712,44.4950838 C9.61892818,44.865086 9.12533261,45.3547036 8.72328108,45.6881394 C8.96327491,35.4855003 16.6084394,34.6816597 18.9774507,34.6816597 C23.3653792,34.6816597 29.5965593,36.4802297 35.0935315,38.0668386 C35.6928976,38.2397542 36.2817484,38.4095709 36.8594656,38.5750493 C34.501588,40.5359988 31.2090952,41.6075796 27.4001209,41.6075796 M7.97175399,26.2379254 C8.2037068,27.0876288 8.38679488,27.7588388 8.38679488,28.3941021 C8.38679488,29.760693 7.49424048,30.7907492 6.31159045,30.7907492 C4.58586158,30.7907492 3.71124488,28.8905371 3.71124488,25.1440329 C3.71124488,23.0021108 4.30133281,19.2004471 7.95629047,16.4127256 C7.48248821,18.0451975 7.22579377,19.7427451 7.22579377,21.482437 C7.22579377,23.503504 7.63959758,25.0194593 7.97175399,26.2379254 M62.0656222,22.2478518 C61.5503777,17.3051931 58.7019973,11.9813765 54.447055,8.00555762 C50.5384956,4.35325824 43.4524921,0 31.8913458,0 C22.9317821,0 14.9105448,4.42081307 10.5888002,10.839142 C0.929666841,14.2584082 0,22.247232 0,25.1440329 C0,33.2927572 3.95494996,34.5093639 6.31159045,34.5093639 C9.55583701,34.5093639 12.0980398,31.8232846 12.0980398,28.3941021 C12.0980398,27.2593048 11.8196964,26.241644 11.5518682,25.2574506 C11.2487832,24.1499232 10.9370386,23.0039701 10.9370386,21.482437 C10.9370386,18.8254868 11.6706281,16.2831939 12.9677081,13.993147 C15.171569,13.3547848 17.8857261,12.9692884 21.240073,12.9692884 C31.5789826,12.9692884 39.9874264,18.7424377 40.7995705,26.3984456 C41.1818288,30.0036425 40.7160675,33.0287355 39.4257914,35.4365385 C38.3588085,35.1396691 37.2485277,34.8192485 36.1209278,34.4938697 C30.387673,32.8384664 23.8892833,30.9630451 18.9774507,30.9630451 C12.5328739,30.9630451 5.00708788,34.9494 5.00708788,46.1827151 C5.00708788,48.5378378 6.6245721,49.7711783 8.22226302,49.7711783 C9.94922897,49.7711783 11.238268,48.4913551 12.6033876,47.1365398 C14.0742776,45.675744 15.595888,44.1659864 17.5269725,44.1659864 C19.1147667,44.1659864 20.5219471,44.4281488 22.0107748,44.7051856 C23.6505265,45.010112 25.3465654,45.3261942 27.4001209,45.3261942 C32.9193606,45.3261942 37.6561461,43.4346589 40.7389535,39.9998985 C40.8267863,39.901975 40.9078152,39.7990933 40.9925553,39.6993105 C43.3133204,40.283133 45.3297634,40.6735875 46.883538,40.6735875 C51.5912521,40.6735875 55.6903221,38.9989714 58.4255095,35.9571446 C61.3975981,32.6525357 62.6563287,27.911302 62.0656222,22.2478518" transform="translate(.023 .023)"/></svg>