<svg xmlns="http://www.w3.org/2000/svg" xmlns:xlink="http://www.w3.org/1999/xlink" width="147" height="50" viewBox="0 0 147 50"><defs><polygon id="a" points="0 0 22.662 0 22.662 31.358 0 31.358"/><polygon id="c" points="0 0 62.208 0 62.208 49.771 0 49.771"/></defs><g fill="none" fill-rule="evenodd" transform="translate(.023 .023)"><path fill="#FFF" d="M73.4677417 44.4870268C71.7277864 43.7464028 70.3793674 42.6785406 69.4224848 41.2834403 68.4656021 39.8889598 68.009119 38.2763206 68.009119 36.4461424L68.009119 35.4873596C68.009119 35.3342766 68.0524169 35.225817 68.1612801 35.1167376 68.2701432 35.0076583 68.3783879 34.9642744 68.5311675 34.9642744L73.5110395 34.9642744C73.6632006 34.9642744 73.7720638 35.0076583 73.880927 35.1167376 73.9897901 35.225817 74.033088 35.3342766 74.033088 35.4873596L74.033088 36.1405962C74.033088 37.3175378 74.5767854 38.2980125 75.6425312 39.1043321 76.7299259 39.9106517 78.1872081 40.3029656 80.0137591 40.3029656 81.5582555 40.3029656 82.7105971 39.9763473 83.4720208 39.3224908 84.2334445 38.6686344 84.6027134 37.8623148 84.6027134 36.8818401 84.6027134 36.1845998 84.3639566 35.5958192 83.906855 35.1167376 83.4503719 34.6370364 82.7978113 34.2013387 82.0147386 33.8530284 81.210017 33.4824065 79.9271634 32.9810133 78.1872081 32.3488488 76.2295264 31.6733005 74.5767854 30.9983719 73.2283664 30.27882 71.8799474 29.5815797 70.7276059 28.6227969 69.8140211 27.4024715 68.9004363 26.1821461 68.4439532 24.7002782 68.4439532 22.9134838 68.4439532 21.1700733 68.9004363 19.6231296 69.7923722 18.3154168 70.705957 17.007704 71.9455128 15.9838454 73.5549559 15.2866051 75.1643991 14.5887451 77.0125991 14.2404349 79.1007929 14.2404349 81.3188802 14.2404349 83.2982108 14.6327487 85.0158987 15.4173764 86.755854 16.2013844 88.1042729 17.3132501 89.0828045 18.7294226 90.0619546 20.145595 90.5400867 21.7805459 90.5400867 23.6541079L90.5400867 24.3079643C90.5400867 24.4604275 90.4967888 24.5695069 90.3879256 24.6785863 90.2790624 24.7876656 90.1701993 24.8310495 90.0180382 24.8310495L84.9942497 24.8310495C84.8420887 24.8310495 84.7332255 24.7876656 84.6243623 24.6785863 84.5161177 24.5695069 84.4722013 24.4604275 84.4722013 24.3079643L84.4722013 23.9596541C84.4722013 22.7393287 83.9724203 21.6931585 82.9716213 20.8211433 81.9714408 19.9497479 80.579724 19.5357422 78.8397686 19.5357422 77.4697007 19.5357422 76.4039549 19.8189767 75.6208823 20.4071375 74.8378096 20.9959182 74.4679222 21.8022378 74.4679222 22.8260964 74.4679222 23.5673402 74.6856486 24.1771931 75.1421317 24.6568943 75.5992333 25.1576678 76.2734428 25.5939852 77.1431112 25.9862991 78.0350471 26.3779932 79.405115 26.9227702 81.2755824 27.5766266 83.3415087 28.3395624 84.9726008 29.0151107 86.1472098 29.5815797 87.3212003 30.1697406 88.3869461 31.0417557 89.3438287 32.1963856 90.3007114 33.3516352 90.757813 34.8551951 90.757813 36.6853733 90.757813 39.4315702 89.757014 41.6106784 87.7343855 43.2016257 85.7340245 44.7919533 82.9932702 45.5982729 79.557276 45.5982729 77.2519744 45.5982729 75.207697 45.2276509 73.4677417 44.4870268M112.854008 14.7415802C112.962872 14.6325008 113.071735 14.589117 113.223896 14.589117L118.334898 14.589117C118.48706 14.589117 118.595304 14.6325008 118.704167 14.7415802 118.813031 14.8506596 118.856328 14.9597389 118.856328 15.1122021L118.856328 44.7266296C118.856328 44.8790928 118.813031 44.9881722 118.704167 45.0972515 118.595304 45.2063309 118.48706 45.2497147 118.334898 45.2497147L113.397706 45.2497147C113.115033 45.2497147 112.897306 45.1406354 112.789062 44.9007847L101.458012 26.1385144C101.392447 26.0511269 101.349149 26.0077431 101.283584 26.029435 101.218637 26.0511269 101.196988 26.1168225 101.196988 26.2259018L101.283584 44.7266296C101.283584 44.8790928 101.240286 44.9881722 101.131423 45.0972515 101.023178 45.2063309 100.914315 45.2497147 100.762154 45.2497147L95.6511512 45.2497147C95.4989902 45.2497147 95.390127 45.2063309 95.2812638 45.0972515 95.1724007 44.9881722 95.1291028 44.8790928 95.1291028 44.7266296L95.1291028 15.1122021C95.1291028 14.9597389 95.1724007 14.8506596 95.2812638 14.7415802 95.390127 14.6325008 95.4989902 14.589117 95.6511512 14.589117L100.587725 14.589117C100.870399 14.589117 101.088125 14.6981963 101.196988 14.9374272L112.484121 33.6129299C112.549686 33.7003173 112.592984 33.7437012 112.658549 33.7220092 112.723496 33.7003173 112.745145 33.6346218 112.745145 33.5261622L112.701847 15.133894C112.701847 14.9597389 112.745145 14.8289676 112.854008 14.7415802"/><g transform="translate(123.598 14.262)"><mask id="b" fill="#fff"><use xlink:href="#a"/></mask><path fill="#FFF" d="M5.37202696,30.0067413 C3.65372058,29.1130343 2.32695054,27.871017 1.39233537,26.2583777 C0.45710166,24.6457385 0,22.7938684 0,20.7015279 L0,10.5906146 C0,8.47658214 0.45710166,6.62471204 1.39233537,5.03376473 C2.32695054,3.4211255 3.65372058,2.1791082 5.37202696,1.30709306 C7.09033333,0.435697686 9.09069432,0 11.3526981,0 C13.5930529,0 15.571765,0.414005767 17.2684224,1.2420173 C18.9644613,2.07002883 20.2912314,3.24697038 21.248114,4.79391408 C22.2049966,6.31916586 22.6620983,8.10596021 22.6620983,10.1109133 C22.6620983,10.3724559 22.4876698,10.5249191 22.1400498,10.5906146 L17.0290471,10.895541 L16.9418329,10.895541 C16.6591597,10.895541 16.5069987,10.7430778 16.5069987,10.4158397 C16.5069987,8.86889599 16.0288666,7.62687869 15.0936329,6.68978779 C14.1367503,5.7526969 12.8971945,5.29530729 11.3526981,5.29530729 C9.78717128,5.29530729 8.52534802,5.7526969 7.56846538,6.68978779 C6.61158274,7.62687869 6.15509963,8.86889599 6.15509963,10.4158397 L6.15509963,20.9847624 C6.15509963,22.5106339 6.63323167,23.7309593 7.56846538,24.6680502 C8.52534802,25.6051411 9.78717128,26.0625307 11.3526981,26.0625307 C12.8971945,26.0625307 14.1367503,25.6051411 15.0936329,24.6680502 C16.0505155,23.7309593 16.5069987,22.5106339 16.5069987,20.9847624 C16.5069987,20.658144 16.6814272,20.5056808 17.0290471,20.5056808 L22.1400498,20.7238396 C22.2922109,20.7238396 22.4010741,20.7672234 22.5099372,20.8539911 C22.6181819,20.9413785 22.6620983,21.0504579 22.6620983,21.1595372 C22.6620983,23.1644903 22.1833477,24.9512847 21.248114,26.4982284 C20.2912314,28.0457918 18.9644613,29.2438055 17.2684224,30.0941288 C15.571765,30.9438322 13.5930529,31.357838 11.3526981,31.357838 C9.06904539,31.3361461 7.09033333,30.9004484 5.37202696,30.0067413" mask="url(#b)"/></g><path fill="#FFF" d="M70.9449611 10.4704414C70.5317759 10.2522826 70.2058049 9.94735622 69.9664296 9.55504237 69.7270543 9.16272853 69.6181911 8.70533892 69.6181911 8.18225379L69.6181911 5.24020982C69.6181911 4.71774446 69.7270543 4.281427 69.9664296 3.88911315 70.2058049 3.49741908 70.5101269 3.1918729 70.9449611 2.97433394 71.3797953 2.75617522 71.836897 2.64709585 72.3805944 2.64709585 72.9242917 2.64709585 73.4024238 2.75617522 73.815609 2.95264203 74.2287943 3.17018098 74.5553839 3.45341547 74.7724917 3.8240374 75.011867 4.19465933 75.1207302 4.63035701 75.1207302 5.13175022L75.1207302 5.15344214C75.1207302 5.19682598 75.0990812 5.2185179 75.0774323 5.24020982 75.0551648 5.26252151 75.0335159 5.28421342 74.990218 5.28421342L74.1199311 5.32759726C74.0549843 5.32759726 74.0116865 5.28421342 74.0116865 5.2185179L74.0116865 5.17513406C74.0116865 4.69543277 73.8595254 4.30373869 73.5545848 3.99819252 73.2502627 3.69326611 72.8587264 3.56249483 72.336678 3.56249483 71.836897 3.56249483 71.4237117 3.71495803 71.1187711 3.99819252 70.814449 4.281427 70.662288 4.67374085 70.662288 5.17513406L70.662288 8.18225379C70.662288 8.66195508 70.814449 9.05426893 71.1187711 9.35919534 71.4237117 9.66412174 71.836897 9.79489302 72.336678 9.79489302 72.8370775 9.79489302 73.2502627 9.64242982 73.5545848 9.35919534 73.8595254 9.05426893 74.0116865 8.683647 74.0116865 8.18225379L74.0116865 8.16056187C74.0116865 8.09486635 74.0549843 8.05148251 74.1199311 8.05148251L74.990218 8.09486635C75.0551648 8.09486635 75.0990812 8.13886995 75.0990812 8.20394571 75.0990812 8.70533892 74.990218 9.14103661 74.7508428 9.53335046 74.5114675 9.9256643 74.2071454 10.2088988 73.7939601 10.4270575 73.3807749 10.6445965 72.9020243 10.7536758 72.3583269 10.7536758 71.8146295 10.7536758 71.3797953 10.6886001 70.9449611 10.4704414M77.9261839 8.35665682C77.9478328 8.37834874 77.9478328 8.37834874 77.9694817 8.37834874L80.579724 8.37834874C80.6013729 8.37834874 80.6013729 8.37834874 80.6230218 8.35665682 80.6446707 8.3349649 80.6446707 8.3349649 80.6230218 8.31327298L79.3179007 4.10751979C79.3179007 4.0852081 79.2962518 4.0852081 79.2746028 4.0852081 79.2529539 4.0852081 79.2529539 4.0852081 79.231305 4.10751979L77.9261839 8.31327298 77.9261839 8.35665682ZM81.3188802 10.6014605 80.905695 9.2720558C80.905695 9.25036388 80.884046 9.22805219 80.8623971 9.22805219L77.6868086 9.22805219C77.6651596 9.22805219 77.6435107 9.25036388 77.6435107 9.2720558L77.2303255 10.6014605C77.2086765 10.6665363 77.1647601 10.6882282 77.0998133 10.6882282L76.1862286 10.6882282C76.0996328 10.6882282 76.0773654 10.6448444 76.0996328 10.5574569L78.5787444 2.8431908C78.6003934 2.77811504 78.6436912 2.75642313 78.7092565 2.75642313L79.8399491 2.75642313C79.9055145 2.75642313 79.9488123 2.77811504 79.9704613 2.8431908L82.4718403 10.5574569 82.4934892 10.6014605C82.4934892 10.6448444 82.4495728 10.6882282 82.384626 10.6882282L81.4493923 10.6882282C81.3844456 10.6882282 81.3405292 10.6665363 81.3188802 10.6014605L81.3188802 10.6014605ZM88.5393545 2.75623719 89.4090229 2.75623719C89.4745883 2.75623719 89.5178861 2.79962103 89.5178861 2.86531656L89.5178861 10.5795827C89.5178861 10.6446585 89.4745883 10.6886621 89.4090229 10.6886621L88.5826524 10.6886621C88.5393545 10.6886621 88.4744078 10.6663504 88.4521403 10.6012746L84.9072829 4.82626603C84.9072829 4.80457411 84.885634 4.80457411 84.863985 4.80457411 84.8423361 4.80457411 84.8423361 4.82626603 84.8423361 4.84795795L84.863985 10.6012746C84.863985 10.6663504 84.8206872 10.710354 84.7551219 10.710354L83.8854535 10.710354C83.8198881 10.710354 83.7765903 10.6663504 83.7765903 10.6012746L83.7765903 2.86531656C83.7765903 2.79962103 83.8198881 2.75623719 83.8854535 2.75623719L84.711824 2.75623719C84.7551219 2.75623719 84.8206872 2.77792911 84.8423361 2.84362464L88.3655446 8.63970537C88.3655446 8.66201706 88.3871935 8.66201706 88.4088424 8.66201706 88.4304914 8.66201706 88.4304914 8.63970537 88.4304914 8.61801345L88.4304914 2.86531656C88.4304914 2.79962103 88.4744078 2.75623719 88.5393545 2.75623719M92.6715164 8.35665682C92.6931654 8.37834874 92.6931654 8.37834874 92.7148143 8.37834874L95.3250565 8.37834874C95.3467055 8.37834874 95.3467055 8.37834874 95.3683544 8.35665682 95.3900033 8.3349649 95.3900033 8.3349649 95.3683544 8.31327298L94.0632333 4.10751979C94.0632333 4.0852081 94.0415843 4.0852081 94.0199354 4.0852081 93.9982865 4.0852081 93.9982865 4.0852081 93.9766376 4.10751979L92.6715164 8.31327298C92.6498675 8.3349649 92.6498675 8.35665682 92.6715164 8.35665682M96.0642128 10.6014605 95.6510275 9.2720558C95.6510275 9.25036388 95.6293786 9.22805219 95.6077297 9.22805219L92.4321411 9.22805219C92.4104922 9.22805219 92.3888433 9.25036388 92.3888433 9.2720558L91.975658 10.6014605C91.9540091 10.6665363 91.9100927 10.6882282 91.8451459 10.6882282L90.9315611 10.6882282C90.8449654 10.6882282 90.822698 10.6448444 90.8449654 10.5574569L93.324077 2.8431908C93.3457259 2.77811504 93.3890238 2.75642313 93.4545891 2.75642313L94.5852817 2.75642313C94.650847 2.75642313 94.6941449 2.77811504 94.7157938 2.8431908L97.2171729 10.5574569 97.2388218 10.6014605C97.2388218 10.6448444 97.1949054 10.6882282 97.1299586 10.6882282L96.1947249 10.6882282C96.1297781 10.6882282 96.0858617 10.6665363 96.0642128 10.6014605M98.5000884 10.5793968 98.5000884 2.86513063C98.5000884 2.80005487 98.5433862 2.75605126 98.6089516 2.75605126L99.4786199 2.75605126C99.5441853 2.75605126 99.5874831 2.80005487 99.5874831 2.86513063L99.5874831 9.70800139C99.5874831 9.72969331 99.6091321 9.75138523 99.630781 9.75138523L103.545526 9.75138523C103.611091 9.75138523 103.654389 9.79476907 103.654389 9.86046459L103.654389 10.5793968C103.654389 10.6444725 103.611091 10.6884761 103.545526 10.6884761L98.6306005 10.6884761C98.5433862 10.6884761 98.5000884 10.6444725 98.5000884 10.5793968M112.353794 3.69326611 108.330186 3.69326611C108.308537 3.69326611 108.286889 3.71495803 108.286889 3.73664995L108.286889 6.17730071C108.286889 6.19899263 108.308537 6.22130432 108.330186 6.22130432L111.09259 6.22130432C111.157536 6.22130432 111.200834 6.26468816 111.200834 6.32976392L111.200834 7.04931586C111.200834 7.11439161 111.157536 7.15839522 111.09259 7.15839522L108.330186 7.15839522C108.308537 7.15839522 108.286889 7.18008714 108.286889 7.20177906L108.286889 9.68581366C108.286889 9.70750558 108.308537 9.72981726 108.330186 9.72981726L112.353794 9.72981726C112.418741 9.72981726 112.462658 9.7732011 112.462658 9.83827686L112.462658 10.5578288C112.462658 10.6229046 112.418741 10.6662884 112.353794 10.6662884L107.330006 10.6662884C107.264441 10.6662884 107.221143 10.6229046 107.221143 10.5578288L107.221143 2.86525458C107.221143 2.79955906 107.264441 2.75617522 107.330006 2.75617522L112.353794 2.75617522C112.418741 2.75617522 112.462658 2.79955906 112.462658 2.86525458L112.462658 3.58418675C112.484306 3.64988228 112.441009 3.69326611 112.353794 3.69326611M114.92012 10.5140111C114.485286 10.339856 114.158696 10.0783134 113.941589 9.75107534 113.702213 9.42445702 113.59335 9.03214317 113.59335 8.57475357L113.59335 8.24751548C113.59335 8.18243972 113.637267 8.13843612 113.702213 8.13843612L114.528584 8.13843612C114.594149 8.13843612 114.637447 8.18243972 114.637447 8.24751548L114.637447 8.50905804C114.637447 8.90137189 114.811257 9.2062983 115.137847 9.46784086 115.463818 9.70769151 115.920301 9.83846279 116.507914 9.83846279 117.029963 9.83846279 117.420881 9.72938343 117.681905 9.51184447 117.942929 9.29368574 118.073441 9.01045126 118.073441 8.63982933 118.073441 8.39997868 118.008494 8.20413164 117.877982 8.02997652 117.74747 7.85520163 117.551393 7.70273843 117.290369 7.57196715 117.029963 7.44119586 116.660076 7.26704074 116.159676 7.0711937 115.615979 6.85303498 115.181144 6.65718794 114.854555 6.48241305 114.528584 6.30825793 114.26756 6.0900992 114.050452 5.80686472 113.832725 5.52363023 113.723862 5.17531999 113.723862 4.73900254 113.723862 4.08576589 113.963238 3.58437268 114.419721 3.21375075 114.876822 2.84312882 115.507115 2.6689737 116.311837 2.6689737 116.877183 2.6689737 117.355934 2.75636115 117.790768 2.95220819 118.203953 3.148675 118.530543 3.41021756 118.7693 3.73683588 119.008675 4.06345421 119.117538 4.47745997 119.117538 4.91377743L119.117538 5.13131638C119.117538 5.19701191 119.07424 5.24039575 119.008675 5.24039575L118.160656 5.24039575C118.09509 5.24039575 118.051792 5.19701191 118.051792 5.13131638L118.051792 4.95716126C118.051792 4.56484742 117.899631 4.23822909 117.57366 3.97668653 117.26872 3.71514396 116.833885 3.58437268 116.268539 3.58437268 115.812056 3.58437268 115.442169 3.67176013 115.181144 3.86760717 114.92012 4.06345421 114.789608 4.34730846 114.789608 4.6956187 114.789608 4.93546935 114.854555 5.1530083 114.985067 5.30609127 115.115579 5.45855448 115.311657 5.61101768 115.551032 5.72009704 115.812056 5.85086832 116.181325 6.00333153 116.703373 6.19917856 117.247071 6.41733729 117.681905 6.61318433 118.008494 6.78795922 118.334465 6.96211434 118.617139 7.20196499 118.834865 7.48519947 119.051973 7.76843396 119.160836 8.13843612 119.160836 8.57475357 119.160836 9.2503019 118.922079 9.77338703 118.42168 10.1650811 117.942929 10.557395 117.26872 10.7538618 116.4207 10.7538618 115.833705 10.7755537 115.333305 10.6881662 114.92012 10.5140111M125.576774 2.8651926 125.576774 3.58412477C125.576774 3.6498203 125.533476 3.69320414 125.467911 3.69320414L123.293122 3.69320414C123.271473 3.69320414 123.249824 3.71489606 123.249824 3.73658798L123.249824 10.5577668C123.249824 10.6228426 123.205907 10.6668462 123.140961 10.6668462L122.271292 10.6668462C122.205727 10.6668462 122.162429 10.6228426 122.162429 10.5577668L122.162429 3.75889966C122.162429 3.73658798 122.14078 3.71489606 122.118513 3.71489606L120.052586 3.71489606C119.98764 3.71489606 119.943723 3.67151222 119.943723 3.60581669L119.943723 2.8651926C119.943723 2.80011685 119.98764 2.75611324 120.052586 2.75611324L125.467911 2.75611324C125.555125 2.75611324 125.576774 2.80011685 125.576774 2.8651926M132.079556 3.69326611 128.055948 3.69326611C128.034299 3.69326611 128.01265 3.71495803 128.01265 3.73664995L128.01265 6.17730071C128.01265 6.19899263 128.034299 6.22130432 128.055948 6.22130432L130.818351 6.22130432C130.883298 6.22130432 130.926596 6.26468816 130.926596 6.32976392L130.926596 7.04931586C130.926596 7.11439161 130.883298 7.15839522 130.818351 7.15839522L128.055948 7.15839522C128.034299 7.15839522 128.01265 7.18008714 128.01265 7.20177906L128.01265 9.68581366C128.01265 9.70750558 128.034299 9.72981726 128.055948 9.72981726L132.079556 9.72981726C132.144502 9.72981726 132.188419 9.7732011 132.188419 9.83827686L132.188419 10.5578288C132.188419 10.6229046 132.144502 10.6662884 132.079556 10.6662884L127.034118 10.6662884C126.968553 10.6662884 126.925255 10.6229046 126.925255 10.5578288L126.925255 2.86525458C126.925255 2.79955906 126.968553 2.75617522 127.034118 2.75617522L132.057907 2.75617522C132.122854 2.75617522 132.16677 2.79955906 132.16677 2.86525458L132.16677 3.58418675C132.188419 3.64988228 132.144502 3.69326611 132.079556 3.69326611M135.689793 10.6011507 133.275628 2.88688452 133.253979 2.84350069C133.253979 2.79949708 133.297277 2.75611324 133.362842 2.75611324L134.276427 2.75611324C134.341374 2.75611324 134.384672 2.77780516 134.406939 2.84350069L136.276788 9.11928271C136.276788 9.14097463 136.299056 9.14097463 136.320705 9.14097463 136.342353 9.14097463 136.342353 9.14097463 136.364002 9.11928271L138.23447 2.84350069C138.256119 2.77780516 138.299417 2.75611324 138.364982 2.75611324L139.256299 2.75611324C139.343513 2.75611324 139.365162 2.79949708 139.343513 2.88688452L136.9077 10.6011507C136.886051 10.6662264 136.842753 10.6885381 136.777188 10.6885381L135.863603 10.6885381C135.75474 10.6885381 135.711442 10.6662264 135.689793 10.6011507M145.628754 3.69326611 141.605146 3.69326611C141.583497 3.69326611 141.561848 3.71495803 141.561848 3.73664995L141.561848 6.17730071C141.561848 6.19899263 141.583497 6.22130432 141.605146 6.22130432L144.367549 6.22130432C144.432496 6.22130432 144.475794 6.26468816 144.475794 6.32976392L144.475794 7.04931586C144.475794 7.11439161 144.432496 7.15839522 144.367549 7.15839522L141.605146 7.15839522C141.583497 7.15839522 141.561848 7.18008714 141.561848 7.20177906L141.561848 9.68581366C141.561848 9.70750558 141.583497 9.72981726 141.605146 9.72981726L145.628754 9.72981726C145.693701 9.72981726 145.737617 9.7732011 145.737617 9.83827686L145.737617 10.5578288C145.737617 10.6229046 145.693701 10.6662884 145.628754 10.6662884L140.604966 10.6662884C140.5394 10.6662884 140.496102 10.6229046 140.496102 10.5578288L140.496102 2.86525458C140.496102 2.79955906 140.5394 2.75617522 140.604966 2.75617522L145.628754 2.75617522C145.693701 2.75617522 145.737617 2.79955906 145.737617 2.86525458L145.737617 3.58418675C145.737617 3.64988228 145.715968 3.69326611 145.628754 3.69326611"/><mask id="d" fill="#fff"><use xlink:href="#c"/></mask><path fill="#FFF" d="M55.6680546,33.4681518 C53.6460447,35.7166741 50.5261248,36.9549728 46.883538,36.9549728 C45.9266553,36.9549728 44.6190601,36.7349548 43.0943569,36.385405 C44.4279309,33.4638134 44.9079186,29.9472435 44.4904036,26.0048922 C43.4772337,16.4536304 33.4816142,9.25067376 21.240073,9.25067376 C19.5483638,9.25067376 18.0001562,9.34611821 16.5663786,9.51221633 C20.4260733,5.97395447 25.9131488,3.71861467 31.8913458,3.71861467 C49.7480005,3.71861467 57.6121284,15.3206924 58.3747892,22.633968 C58.8523027,27.2208792 57.917069,30.9673834 55.6680546,33.4681518 M27.4001209,41.6075796 C25.6886185,41.6075796 24.2319549,41.3361207 22.6886955,41.0485478 C21.0996642,40.752918 19.4568198,40.4473718 17.5269725,40.4473718 C14.0680922,40.4473718 11.7120703,42.7863804 9.9906712,44.4950838 C9.61892818,44.865086 9.12533261,45.3547036 8.72328108,45.6881394 C8.96327491,35.4855003 16.6084394,34.6816597 18.9774507,34.6816597 C23.3653792,34.6816597 29.5965593,36.4802297 35.0935315,38.0668386 C35.6928976,38.2397542 36.2817484,38.4095709 36.8594656,38.5750493 C34.501588,40.5359988 31.2090952,41.6075796 27.4001209,41.6075796 M7.97175399,26.2379254 C8.2037068,27.0876288 8.38679488,27.7588388 8.38679488,28.3941021 C8.38679488,29.760693 7.49424048,30.7907492 6.31159045,30.7907492 C4.58586158,30.7907492 3.71124488,28.8905371 3.71124488,25.1440329 C3.71124488,23.0021108 4.30133281,19.2004471 7.95629047,16.4127256 C7.48248821,18.0451975 7.22579377,19.7427451 7.22579377,21.482437 C7.22579377,23.503504 7.63959758,25.0194593 7.97175399,26.2379254 M62.0656222,22.2478518 C61.5503777,17.3051931 58.7019973,11.9813765 54.447055,8.00555762 C50.5384956,4.35325824 43.4524921,0 31.8913458,0 C22.9317821,0 14.9105448,4.42081307 10.5888002,10.839142 C0.929666841,14.2584082 0,22.247232 0,25.1440329 C0,33.2927572 3.95494996,34.5093639 6.31159045,34.5093639 C9.55583701,34.5093639 12.0980398,31.8232846 12.0980398,28.3941021 C12.0980398,27.2593048 11.8196964,26.241644 11.5518682,25.2574506 C11.2487832,24.1499232 10.9370386,23.0039701 10.9370386,21.482437 C10.9370386,18.8254868 11.6706281,16.2831939 12.9677081,13.993147 C15.171569,13.3547848 17.8857261,12.9692884 21.240073,12.9692884 C31.5789826,12.9692884 39.9874264,18.7424377 40.7995705,26.3984456 C41.1818288,30.0036425 40.7160675,33.0287355 39.4257914,35.4365385 C38.3588085,35.1396691 37.2485277,34.8192485 36.1209278,34.4938697 C30.387673,32.8384664 23.8892833,30.9630451 18.9774507,30.9630451 C12.5328739,30.9630451 5.00708788,34.9494 5.00708788,46.1827151 C5.00708788,48.5378378 6.6245721,49.7711783 8.22226302,49.7711783 C9.94922897,49.7711783 11.238268,48.4913551 12.6033876,47.1365398 C14.0742776,45.675744 15.595888,44.1659864 17.5269725,44.1659864 C19.1147667,44.1659864 20.5219471,44.4281488 22.0107748,44.7051856 C23.6505265,45.010112 25.3465654,45.3261942 27.4001209,45.3261942 C32.9193606,45.3261942 37.6561461,43.4346589 40.7389535,39.9998985 C40.8267863,39.901975 40.9078152,39.7990933 40.9925553,39.6993105 C43.3133204,40.283133 45.3297634,40.6735875 46.883538,40.6735875 C51.5912521,40.6735875 55.6903221,38.9989714 58.4255095,35.9571446 C61.3975981,32.6525357 62.6563287,27.911302 62.0656222,22.2478518" mask="url(#d)"/></g></svg>