<svg width="142px" height="122px" viewBox="0 0 142 122" version="1.1" xmlns="http://www.w3.org/2000/svg" xmlns:xlink="http://www.w3.org/1999/xlink">
    <g id="Desktop" stroke="none" stroke-width="1" fill="none" fill-rule="evenodd">
        <g id="01-Home" transform="translate(0.000000, 1.000000)" fill-rule="nonzero">
            <g id="logoEsteve_Esquina" transform="translate(0.000000, -0.073742)">
                <path d="M0.0998708646,0 L141.616886,0 C141.616886,0 143.714174,40.5664463 100.769702,63.9471074 C57.8252306,87.427686 26.2660374,91.6242149 10.0869573,106.411983 C0.599225188,115.004876 0,120.800083 0,120.800083 L0.0998708646,0 Z" id="Path" fill="#9A0079"></path>
                <path d="M40.9470545,28.2766116 C38.9496372,28.2766116 37.3517034,28.676281 36.3529947,29.9752066 C35.1545443,31.3740496 35.3542861,33.3723967 36.2531239,34.571405 C37.1519616,35.7704132 39.9483458,36.4698347 40.9470545,37.4690083 C41.4464088,37.8686777 41.5462797,38.5680992 41.4464088,39.1676033 C41.2466671,40.6663636 39.5488624,40.5664463 39.1493789,40.5664463 C38.7498955,40.5664463 38.0507994,40.4665289 37.2518325,39.8670248 C36.7524782,39.5672727 36.3529947,39.067686 36.3529947,39.067686 L35.5540278,41.3657851 C35.5540278,41.3657851 36.9522199,42.0652066 39.7486041,42.0652066 C41.9457631,42.0652066 43.543697,41.4657025 44.6422765,39.7671074 C45.740856,38.1684298 45.0417599,36.3699174 44.242793,35.5705785 C43.0443427,34.3715702 41.6461505,34.0718182 40.547571,33.472314 C39.6487333,32.8728099 38.7498955,32.2733058 39.0495081,31.0742975 C39.2492498,29.9752066 40.1480876,29.4756198 41.5462797,29.4756198 C43.1442135,29.4756198 43.543697,30.374876 43.6435678,30.6746281 C43.8433096,31.1742149 44.242793,31.8736364 44.242793,31.8736364 L44.4425348,31.8736364 C44.4425348,31.773719 44.4425348,31.6738017 44.4425348,31.4739669 C44.4425348,30.7745455 44.5424056,29.8752893 44.5424056,29.8752893 C44.5424056,29.8752893 44.6422765,29.3757025 44.242793,29.0759504 C44.0430513,28.8761157 43.543697,28.676281 42.6448592,28.5763636 C42.1455049,28.3765289 41.5462797,28.2766116 40.9470545,28.2766116" id="Path" fill="#FFFFFF"></path>
                <path d="M46.9393064,28.7761983 L56.6267802,28.7761983 C57.6254889,28.7761983 57.525618,29.6754545 57.525618,29.6754545 L57.525618,32.1733884 L57.3258763,32.0734711 C57.1261346,31.5738843 57.0262637,31.3740496 56.6267802,30.9743802 C56.1274259,30.4747934 55.7279425,30.4747934 55.7279425,30.4747934 L53.5307834,30.4747934 L53.5307834,39.4673554 C53.5307834,39.7671074 53.6306543,40.3666116 54.1300086,40.6663636 C54.7292338,41.0660331 55.2285881,41.1659504 55.328459,41.2658678 C55.5282007,41.3657851 55.4283299,41.5656198 55.4283299,41.5656198 L51.4334953,41.5656198 C50.0353032,41.5656198 50.135174,40.3666116 50.135174,40.3666116 L50.135174,30.374876 L47.938015,30.374876 C47.938015,30.374876 47.5385316,30.374876 47.0391772,30.8744628 C46.6396938,31.2741322 46.5398229,31.4739669 46.3400812,31.9735537 L46.1403395,32.0734711 L46.1403395,29.5755372 C46.0404686,29.5755372 45.9405977,28.7761983 46.9393064,28.7761983" id="Path" fill="#FFFFFF"></path>
                <path d="M58.3245849,28.7761983 L68.2118005,28.7761983 C68.2118005,28.7761983 69.1106383,28.676281 69.1106383,29.5755372 C69.1106383,30.4747934 69.1106383,32.1733884 69.1106383,32.1733884 C69.1106383,32.1733884 69.0107675,32.1733884 68.9108966,31.9735537 C68.8110257,31.773719 68.611284,31.1742149 68.2118005,30.8744628 C67.8123171,30.5747107 67.5127045,30.4747934 67.0133502,30.4747934 L63.8174825,30.4747934 L63.8174825,33.9719008 L66.5139958,33.9719008 C66.5139958,33.9719008 67.2130919,33.8719835 67.7124462,34.4714876 C68.1119297,34.9710744 68.0120588,36.1700826 68.0120588,36.1700826 L67.7124462,35.9702479 C67.5127045,35.8703306 67.2130919,35.8703306 67.2130919,35.8703306 L63.8174825,35.8703306 L63.8174825,39.6671901 L67.6125753,39.6671901 C67.6125753,39.6671901 68.3116714,39.7671074 68.8110257,39.1676033 C69.2105092,38.6680165 69.7098635,37.668843 69.7098635,37.668843 L69.9096052,37.3690909 L70.109347,37.3690909 L69.9096052,41.5656198 L62.2195487,41.5656198 C62.2195487,41.5656198 60.521744,41.6655372 60.521744,40.2666942 L60.521744,30.9743802 C60.521744,30.9743802 60.6216148,30.374876 60.3220022,29.9752066 C60.0223896,29.4756198 59.3232936,29.4756198 58.9238101,29.2757851 C58.2247141,28.9760331 58.3245849,28.7761983 58.3245849,28.7761983" id="Path" fill="#FFFFFF"></path>
                <path d="M83.6917846,28.7761983 L93.5790002,28.7761983 C93.5790002,28.7761983 94.4778379,28.676281 94.4778379,29.5755372 C94.4778379,30.4747934 94.4778379,32.1733884 94.4778379,32.1733884 C94.4778379,32.1733884 94.3779671,32.1733884 94.2780962,31.9735537 C94.1782253,31.773719 93.9784836,31.1742149 93.5790002,30.8744628 C93.1795167,30.5747107 92.8799041,30.4747934 92.3805498,30.4747934 L89.1846821,30.4747934 L89.1846821,33.9719008 L91.8811955,33.9719008 C91.8811955,33.9719008 92.5802915,33.8719835 93.0796458,34.4714876 C93.4791293,34.9710744 93.3792584,36.1700826 93.3792584,36.1700826 L93.0796458,35.9702479 C92.8799041,35.8703306 92.5802915,35.8703306 92.5802915,35.8703306 L89.1846821,35.8703306 L89.1846821,39.6671901 L92.979775,39.6671901 C92.979775,39.6671901 93.678871,39.7671074 94.0783545,39.1676033 C94.4778379,38.6680165 94.9771923,37.668843 94.9771923,37.668843 L95.176934,37.3690909 L95.3766757,37.3690909 L95.176934,41.5656198 L87.4868774,41.5656198 C87.4868774,41.5656198 85.7890727,41.6655372 85.7890727,40.2666942 L85.7890727,30.9743802 C85.7890727,30.9743802 85.8889436,30.374876 85.589331,29.9752066 C85.2897184,29.4756198 84.5906223,29.4756198 84.1911389,29.2757851 C83.5919137,28.9760331 83.6917846,28.7761983 83.6917846,28.7761983" id="Path" fill="#FFFFFF"></path>
                <path d="M69.7098635,28.7761983 L73.3052146,28.7761983 C73.3052146,28.7761983 73.7046981,28.7761983 74.1041816,28.9760331 C74.9031485,29.4756198 75.3026319,30.5747107 75.3026319,30.5747107 L77.9991453,37.1692562 L80.7955295,30.7745455 C80.7955295,30.7745455 80.9952712,30.374876 80.9952712,30.075124 C80.9952712,29.6754545 80.396046,29.4756198 80.396046,29.4756198 L79.5970791,29.0759504 L79.3973374,28.8761157 L79.3973374,28.7761983 L81.9939799,28.7761983 C81.9939799,28.7761983 82.593205,28.7761983 82.8928176,29.2757851 C83.2923011,29.8752893 82.7929468,30.8744628 82.7929468,30.8744628 L82.4933342,31.5738843 L77.3000492,43.3641322 L71.4076682,30.374876 C71.4076682,30.374876 71.2079265,29.9752066 70.9083139,29.6754545 C70.6087013,29.4756198 69.8097344,29.1758678 69.8097344,29.1758678 L69.6099926,29.0759504 L69.6099926,28.7761983 L69.7098635,28.7761983 Z" id="Path" fill="#FFFFFF"></path>
                <path d="M20.2737855,24.2799174 L32.2582893,24.2799174 C32.2582893,24.2799174 32.6577727,24.2799174 32.9573853,24.5796694 C33.1571271,24.7795041 33.1571271,25.2790909 33.1571271,25.2790909 L33.3568688,28.0767769 C33.3568688,28.0767769 33.2569979,28.3765289 33.1571271,27.9768595 C32.9573853,27.5771901 32.6577727,26.8777686 32.1584184,26.5780165 C31.8588058,26.3781818 31.4593224,26.1783471 30.6603554,26.1783471 L26.6655209,26.1783471 L26.6655209,30.4747934 C26.6655209,30.4747934 27.1648752,30.4747934 27.6642295,30.5747107 C27.9638421,30.6746281 30.1610011,31.3740496 31.3594515,31.3740496 C32.5579019,31.3740496 34.1558357,30.6746281 34.1558357,30.6746281 C34.1558357,30.6746281 33.2569979,31.9735537 32.3581601,32.5730579 C31.4593224,33.172562 30.3607428,33.3723967 29.6616468,33.3723967 C28.762809,33.3723967 27.0650043,32.7728926 26.0662957,32.4731405 C25.067587,32.1733884 24.4683618,32.1733884 24.0688784,32.1733884 C22.870428,32.1733884 22.4709445,32.6729752 22.4709445,32.6729752 L22.3710737,32.6729752 C22.3710737,32.6729752 22.5708154,32.3732231 22.5708154,32.0734711 L22.5708154,26.2782645 C22.5708154,26.2782645 22.5708154,25.7786777 22.1713319,25.2790909 C21.7718485,24.7795041 20.9728816,24.8794215 20.5733981,24.4797521 C20.1739147,24.4797521 20.2737855,24.2799174 20.2737855,24.2799174" id="Path" fill="#FFFFFF"></path>
                <path d="M26.6655209,36.0701653 L26.6655209,39.4673554 L31.5591932,39.4673554 C32.5579019,39.4673554 33.0572562,38.8678512 33.4567396,38.4681818 C33.8562231,37.968595 34.2557066,37.0693388 34.3555774,36.9694215 L34.65519,36.8695041 L34.2557066,41.6655372 L24.4683618,41.6655372 C24.4683618,41.6655372 23.5695241,41.7654545 22.9702989,41.0660331 C22.5708154,40.5664463 22.6706863,39.4673554 22.6706863,39.4673554 L22.6706863,36.3699174 C21.372365,36.0701653 20.1739147,35.5705785 18.9754643,35.5705785 C17.8768848,35.5705785 16.978047,35.9702479 16.978047,35.9702479 C16.978047,35.9702479 18.9754643,33.6721488 20.9728816,33.6721488 C22.2712028,33.6721488 24.2686201,34.7712397 25.9664248,34.7712397 C27.6642295,34.7712397 28.762809,34.0718182 28.762809,34.0718182 C28.762809,34.0718182 27.8639712,35.2708264 26.6655209,36.0701653" id="Path" fill="#FFFFFF"></path>
            </g>
        </g>
    </g>
</svg>