<svg xmlns="http://www.w3.org/2000/svg" width="102" height="73" viewBox="0 0 102 73"><g fill="none" fill-rule="evenodd"><path fill="#FFF" d="M0.43702012,68.4378319 C0.154845039,67.6852385 0,66.8722786 0,66.0234671 L0,15.9738198 C0,15.1305314 0.152113054,14.3202846 0.431458578,13.5704042 L24.6818309,36.5106011 L26.9582579,38.6914459 C27.8017584,39.4989796 28.6037913,40.2680454 29.3699181,40.9986435 C28.6065233,41.7292415 27.7961969,42.5065435 26.9443052,43.3196003 C25.370584,44.8302135 23.6529456,46.4755125 21.7419217,48.2828221 L1.16167929,67.7401787 L1.16714326,67.7456048 L0.43702012,68.4378319 Z M89.0390198,70.8493868 L88.9366679,70.951031 C87.6617088,72.2145587 85.9054323,73 83.9777238,73 L7.02510575,73 C5.09739722,73 3.34112078,72.2145587 2.06596651,70.9483179 L1.96361463,70.8466737 L23.6779238,50.3042725 C25.5614327,48.5244815 27.2983901,46.8600939 28.8941624,45.3301983 L31.4055401,42.9267827 L31.6075119,43.1163119 L31.6959111,43.1986737 L31.9587672,43.44324 L31.9835502,43.4679485 L32.2684573,43.7315064 L32.3043633,43.7645481 L32.5478028,43.989735 L32.8244163,44.2451537 L32.9792614,44.3880757 L33.0982003,44.4951461 L33.3111976,44.6901983 L33.3692523,44.7423285 C38.477675,49.3896684 41.8741185,51.7133384 45.5000488,51.7133384 C49.250382,51.7133384 52.7602029,49.2249447 58.1756813,44.2451537 L58.3581389,44.0777169 L58.4521972,43.989735 L58.6983686,43.7617381 L58.7315427,43.7315064 L59.0164498,43.4679485 L59.0440624,43.44043 L59.3040889,43.1986737 L59.5944599,42.9267827 L62.1085696,45.3329114 C63.7016099,46.8600939 65.4413969,48.5244815 67.3220762,50.3042725 L89.0390198,70.8493868 Z M90.5658094,13.5648812 C90.8478869,14.3175715 91,15.1278183 91,15.9738198 L91,66.0234671 C91,66.8722786 90.845155,67.6852385 90.5629799,68.4378319 L89.8328567,67.7456048 L89.8384183,67.7401787 L69.2581759,48.2828221 C67.3469568,46.4755125 65.629416,44.8302135 64.0556948,43.3223134 C63.2065351,42.5065435 62.3963062,41.7292415 61.6300819,40.9986435 C62.3989407,40.2653323 63.2038031,39.4961696 64.0474012,38.6859228 L67.4604318,35.4228433 L90.5658094,13.5648812 Z M7.02510575,9 L83.9777238,9 C85.9081643,9 87.6672703,9.78553823 88.9366679,11.0462559 L89.0279943,11.1369508 C80.0308828,19.62962 71.0365033,28.1277154 62.0975441,36.6754217 C61.0686588,37.6641514 60.1005602,38.5925148 59.1878819,39.4577986 L59.0994827,39.5456836 L58.7481298,39.8753248 L58.6291909,39.9879182 C52.3507953,45.9371567 48.7802853,48.9117759 45.5000488,48.9117759 C43.7575298,48.9117759 41.9349052,48.0713944 39.6641373,46.3930537 L39.4623607,46.2420893 C37.5040149,44.7697502 35.2167575,42.6851234 32.3708091,39.9879182 L31.7457699,39.3973354 C30.8551426,38.5486207 29.9092901,37.6422528 28.9052854,36.6809447 L23.6779238,31.6929175 L3.09777892,12.238274 L1.95551624,11.1561363 L2.0633321,11.0462559 C3.33555924,9.78553823 5.09183567,9 7.02510575,9 L7.02510575,9 Z"/><circle cx="89" cy="13" r="13" fill="#59C4D8"/><path fill="#FFF" fill-rule="nonzero" d="M89.11,5.666 C89.198,5.622 89.2933333,5.6 89.396,5.6 L90.584,5.6 C90.7306667,5.6 90.804,5.67333333 90.804,5.82 L90.804,20.78 C90.804,20.9266667 90.7306667,21 90.584,21 L89.462,21 C89.3153333,21 89.242,20.9266667 89.242,20.78 L89.242,7.382 C89.242,7.35266667 89.231,7.33066667 89.209,7.316 C89.187,7.30133333 89.1613333,7.30133333 89.132,7.316 L86.8,8.262 L86.712,8.284 C86.624,8.284 86.5653333,8.22533333 86.536,8.108 L86.426,7.272 L86.426,7.228 C86.426,7.15466667 86.4773333,7.08133333 86.58,7.008 L89.11,5.666 Z"/></g></svg>