<svg width="40px" height="59px" viewBox="0 0 40 59" version="1.1" xmlns="http://www.w3.org/2000/svg" xmlns:xlink="http://www.w3.org/1999/xlink">
    <defs>
        <polygon id="path-ehbuu7wfn0-1" points="3.58195897e-15 0 21.048516 0 21.048516 58.7717577 3.58195897e-15 58.7717577"></polygon>
        <polygon id="path-ehbuu7wfn0-3" points="0 0 32.4848259 0 32.4848259 41.9720524 0 41.9720524"></polygon>
    </defs>
    <g id="Xeristar" stroke="none" stroke-width="1" fill="none" fill-rule="evenodd">
        <g id="pagina-XERISTAR-completa" transform="translate(-300.000000, -4417.000000)">
            <g id="Group-9" transform="translate(300.000000, 4417.000000)">
                <g id="Group-3" transform="translate(18.951484, 0.000000)">
                    <mask id="mask-ehbuu7wfn0-2" fill="white">
                        <use xlink:href="#path-ehbuu7wfn0-1"></use>
                    </mask>
                    <g id="Clip-2"></g>
                    <path d="M19.21372,25.010712 C18.2317022,22.8772935 17.2416185,20.1510347 16.3725227,17.7453935 C15.4913281,15.3135384 14.7976646,13.393865 14.2733841,12.5207363 C13.999145,12.0650155 7.52024734,1.3172643 5.09242513,0.103353195 C4.98756902,0.052941604 4.87464706,0.0206781859 4.75769216,0.0126123313 C3.38649689,-0.0882108504 2.13427298,0.417921522 1.23493019,1.44228505 C0.206533741,2.61385042 -0.222973013,4.34397622 0.11175995,5.95714713 C0.561431341,8.10064797 1.86406685,9.32060847 2.90052916,10.2098689 C3.48933654,12.2081844 4.83230132,14.4746895 6.11073926,15.6361726 C6.45152162,16.916627 7.11493815,18.0377808 8.13526875,19.052062 L9.39959145,17.7857228 C8.54057794,16.9267093 8.02839618,16.0253501 7.78642054,14.946542 C7.74407481,14.7469121 7.63115284,14.5694633 7.47386868,14.4424261 C6.4858015,13.6519724 5.07830988,11.4681422 4.5560458,9.47587617 C4.5116836,9.29842737 4.41086042,9.13912674 4.27172443,9.02015539 C3.30987127,8.20550408 2.22098091,7.27994727 1.86809978,5.59015074 C1.64427231,4.51739209 1.91851137,3.38212306 2.5819279,2.6259492 C2.92875965,2.23273879 3.44094141,1.73063935 4.43102506,1.79113326 C5.98975145,2.85985898 10.5550251,9.81464206 12.7348223,13.4442766 C13.1703784,14.168187 13.9063877,16.2027989 14.6867591,18.356382 C15.5679537,20.796303 16.5701361,23.5588582 17.6368454,25.8677091 C19.5081237,29.9288668 19.7057371,30.3523242 18.5361882,33.5665672 C17.5985326,36.1476407 15.3118628,43.8989269 14.0354413,48.2907847 C13.5071279,50.1096349 13.2328888,51.9930119 13.2228065,53.8925207 L13.1965925,58.7622803 L14.9872122,58.7723626 L15.0154427,53.902603 C15.025525,52.1704607 15.27355,50.4504172 15.7554848,48.7908677 C17.0278734,44.421191 19.3004279,36.7122505 20.2219518,34.1795722 C21.6415422,30.2716656 21.1858214,29.2835985 19.21372,25.010712" id="Fill-1" fill="#FFFFFF" mask="url(#mask-ehbuu7wfn0-2)"></path>
                </g>
                <g id="Group-6" transform="translate(0.000000, 16.794664)">
                    <mask id="mask-ehbuu7wfn0-4" fill="white">
                        <use xlink:href="#path-ehbuu7wfn0-3"></use>
                    </mask>
                    <g id="Clip-5"></g>
                    <path d="M11.5257028,9.80139158 C13.1308079,10.1845197 15.7380954,10.3055075 17.1435705,10.08168 C18.0046005,10.8418868 19.8859611,12.3360864 21.4285558,13.0156346 C21.7874863,14.3666653 21.5132472,14.5642787 18.3796627,16.8428826 C15.6957496,18.7948194 13.3889152,18.9420212 11.709201,17.2602906 C10.9671424,16.518232 10.9005991,16.157285 10.7574302,15.3668312 C10.6424918,14.7296287 10.4811747,13.8585164 9.91656486,12.5820949 C9.58989775,11.8420528 9.18862149,11.2290478 8.73491717,10.7329978 C9.78549473,10.5091703 10.7876772,10.1482233 11.5257028,9.80139158 M29.3814883,4.99212582 C27.8973711,4.35492331 17.3230358,0.426852147 16.2563265,0.0699380836 C15.4719222,-0.190185725 13.596611,0.24537042 7.52705546,1.88273889 C5.55898695,2.41306883 3.60906661,2.93936584 2.15519633,3.27611526 C1.73375543,3.37290552 1.44136821,3.75401714 1.45951638,4.18554036 C1.53210907,5.97817653 2.28223354,7.74258221 3.23602084,9.00690491 L3.1049507,9.0351354 C1.60873469,9.34970373 -0.000403292727,10.2631618 -0.000403292727,11.525468 C-0.000403292727,13.1507377 2.24392073,20.3535458 4.38137219,23.7028919 C5.05285458,24.7554859 5.41581803,25.7536354 5.79692966,26.8102623 C6.50269193,28.7662321 7.23466823,30.7887451 9.88631791,33.2185838 C13.2780097,36.3279707 13.265911,38.5763277 13.2517957,41.4235743 L13.2497793,41.9720524 L15.0424154,41.9720524 L15.0444319,41.4336566 C15.0605636,38.5359984 15.0746788,35.5435663 11.0961961,31.8978001 C8.77121352,29.7643816 8.14409333,28.0342558 7.48269326,26.2012903 C7.08343346,25.0982847 6.67207487,23.9589828 5.89371991,22.7390223 C3.87725628,19.5792237 1.79223288,12.7575273 1.77408471,11.6323406 C1.91523716,11.3439863 3.10898363,10.6967014 4.57091977,10.6825862 C4.85322468,10.6886356 5.16174361,10.7229155 5.4783284,10.7975246 C5.48841072,10.7995411 5.49849304,10.8015575 5.50857536,10.8055905 C5.53277292,10.8096234 5.55697048,10.8176893 5.58318451,10.8237386 C6.55108706,11.0798295 7.59158229,11.7513119 8.27919639,13.3080218 C8.75709827,14.3888464 8.88211902,15.0784769 8.99302452,15.6874489 C9.15837454,16.600907 9.30154345,17.3913607 10.4408454,18.5286462 C11.5378016,19.6256024 14.6108922,21.8013667 19.4362897,18.2907035 C22.938887,15.7439099 23.882592,15.0583123 23.0356773,12.1001601 C22.9550187,11.8178552 22.7412736,11.5920113 22.4630016,11.4972375 C21.1442344,11.0455496 18.7426262,9.17427139 18.0408968,8.47052559 C17.8009377,8.23258288 17.4480565,8.14385848 17.1234059,8.25476398 C16.3813473,8.50077254 13.2437299,8.45036095 11.6850035,7.99060724 C11.4631925,7.92204748 11.2272662,7.94624504 11.017554,8.05311761 C9.58586483,8.79719269 7.24475055,9.39204947 5.95018089,9.06739882 C5.29281375,8.90003234 3.69980748,7.10134678 3.3267617,4.83887458 C4.68182527,4.50615808 6.33129252,4.06253608 7.99285856,3.61488115 C10.9631095,2.81232863 15.0121685,1.67101021 15.6876838,1.77183339 C16.701965,2.10858282 27.2783168,6.04068691 28.6737096,6.63957661 C29.923917,7.1779724 30.2727653,7.44817852 30.8071281,8.86373599 L32.4848259,8.23056641 C31.7447837,6.27258022 30.9644123,5.67369052 29.3814883,4.99212582" id="Fill-4" fill="#FFFFFF" mask="url(#mask-ehbuu7wfn0-4)"></path>
                </g>
                <path d="M17.9493494,13.7804211 C18.6793092,14.8491468 20.0081588,15.9158561 21.0385717,16.6498488 L22.0790669,15.1899292 C20.7098881,14.2159772 19.7036728,13.2682393 19.3165117,12.5907075 C19.2035898,12.3930941 19.0200916,12.2458923 18.8063464,12.179349 C17.8646579,11.8849453 17.1225993,11.4110763 16.1143675,9.85436639 C15.4247369,8.78967359 15.1605802,7.78950763 15.3702924,7.03938316 C15.5356424,6.44452639 16.0155608,5.9504928 16.7979487,5.56938117 L16.0135443,3.95621026 C14.7492216,4.57324813 13.9527185,5.44839335 13.6421831,6.55946481 C13.2893019,7.82782044 13.6220184,9.30588828 14.6100856,10.8303348 C15.6485644,12.4334234 16.6084011,13.288404 17.9493494,13.7804211" id="Fill-7" fill="#FFFFFF"></path>
            </g>
        </g>
    </g>
</svg>