
<svg viewBox="0 0 47 50" version="1.1" xmlns="http://www.w3.org/2000/svg" xmlns:xlink="http://www.w3.org/1999/xlink">
    <defs>
        <polygon id="path-paaujz-i6h-1" points="0 0 47.0052595 0 47.0052595 49.4350655 0 49.4350655"></polygon>
        <polygon id="path-paaujz-i6h-3" points="0 49.4350655 47.007 49.4350655 47.007 0 0 0"></polygon>
    </defs>
    <g id="Xeristar" stroke="none" stroke-width="1" fill="none" fill-rule="evenodd">
        <g id="pagina-XERISTAR-completa" transform="translate(-547.000000, -1176.000000)">
            <rect fill="none" x="0" y="0" width="1440" height="10763"></rect>
            <g id="Group" transform="translate(521.000000, 1153.000000)">
                <g id="Group-12" transform="translate(26.000000, 23.000000)">
                    <g id="Group-3" transform="translate(0.000696, 0.000000)">
                        <mask id="mask-paaujz-i6h-2" fill="white">
                            <use xlink:href="#path-paaujz-i6h-1"></use>
                        </mask>
                        <g id="Clip-2"></g>
                        <path d="M39.7141008,42.0224165 L13.8112543,42.0224165 L13.8112543,43.5697643 L32.4212015,43.5697643 L32.4212015,47.8880658 L1.54560729,47.8880658 L1.54560729,8.16004063 C1.54560729,6.78848822 2.66129903,5.67279647 4.0311109,5.67279647 C5.40266331,5.67279647 6.51835506,6.78848822 6.51835506,8.16004063 L6.51835506,39.5351723 C6.51835506,41.7613342 8.3267852,43.5697643 10.5512065,43.5697643 L13.8095138,43.5697643 L13.8095138,42.0224165 L13.7033403,42.0224165 C14.2463915,41.3348997 14.5840579,40.4785498 14.5840579,39.5351723 L14.5840579,1.5459554 L45.4596522,1.5459554 L45.4596522,36.273384 C45.4596522,39.4446638 42.8818995,42.0224165 39.7141008,42.0224165 L39.7141008,42.0224165 Z M13.0384507,39.5351723 C13.0384507,40.9067248 11.9227589,42.0224165 10.5512065,42.0224165 C9.17965409,42.0224165 8.06396234,40.9067248 8.06396234,39.5351723 L8.06396234,8.16004063 C8.06396234,7.21666321 7.72629589,6.36031323 7.18324468,5.67279647 L13.0384507,5.67279647 L13.0384507,39.5351723 Z M46.2324558,-0.001392439 L13.8112543,-0.001392439 C13.3848199,-0.001392439 13.0384507,0.34671731 13.0384507,0.773151753 L13.0384507,4.12718919 L4.0311109,4.12718919 C1.80843015,4.12718919 0,5.93561934 0,8.16004063 L0,48.6608694 C0,49.0890444 0.346369201,49.4354136 0.772803643,49.4354136 L33.1940051,49.4354136 C33.6204396,49.4354136 33.9668088,49.0890444 33.9668088,48.6608694 L33.9668088,43.5697643 L39.7141008,43.5697643 C43.7365089,43.5697643 47.0052595,40.2975327 47.0052595,36.273384 L47.0052595,0.773151753 C47.0052595,0.34671731 46.6588903,-0.001392439 46.2324558,-0.001392439 L46.2324558,-0.001392439 Z" id="Fill-1" fill="#FFFFFF" mask="url(#mask-paaujz-i6h-2)"></path>
                    </g>
                    <mask id="mask-paaujz-i6h-4" fill="white">
                        <use xlink:href="#path-paaujz-i6h-3"></use>
                    </mask>
                    <g id="Clip-5"></g>
                    <polygon id="Fill-4" fill="#FFFFFF" mask="url(#mask-paaujz-i6h-4)" points="18.3070917 26.0647175 30.4126082 26.0647175 30.4126082 24.5173696 18.3070917 24.5173696"></polygon>
                    <polygon id="Fill-6" fill="#FFFFFF" mask="url(#mask-paaujz-i6h-4)" points="18.3070917 9.37111445 30.4126082 9.37111445 30.4126082 7.82376662 18.3070917 7.82376662"></polygon>
                    <polygon id="Fill-7" fill="#FFFFFF" mask="url(#mask-paaujz-i6h-4)" points="18.3070917 30.2385534 38.7428746 30.2385534 38.7428746 28.6912055 18.3070917 28.6912055"></polygon>
                    <polygon id="Fill-8" fill="#FFFFFF" mask="url(#mask-paaujz-i6h-4)" points="18.3070917 17.7187862 38.7428746 17.7187862 38.7428746 16.1714384 18.3070917 16.1714384"></polygon>
                    <polygon id="Fill-9" fill="#FFFFFF" mask="url(#mask-paaujz-i6h-4)" points="18.3070917 34.4106487 41.7383589 34.4106487 41.7383589 32.8633009 18.3070917 32.8633009"></polygon>
                    <polygon id="Fill-10" fill="#FFFFFF" mask="url(#mask-paaujz-i6h-4)" points="18.3070917 13.5432098 41.7383589 13.5432098 41.7383589 11.995862 18.3070917 11.995862"></polygon>
                    <polygon id="Fill-11" fill="#FFFFFF" mask="url(#mask-paaujz-i6h-4)" points="18.3070917 21.8908816 41.7383589 21.8908816 41.7383589 20.3435338 18.3070917 20.3435338"></polygon>
                </g>
            </g>
        </g>
    </g>
</svg>