
<svg width="43px" height="59px" viewBox="0 0 43 59" version="1.1" xmlns="http://www.w3.org/2000/svg" xmlns:xlink="http://www.w3.org/1999/xlink">
    <g id="Xeristar" stroke="none" stroke-width="1" fill="none" fill-rule="evenodd">
        <g id="pagina-XERISTAR-completa" transform="translate(-299.000000, -6286.000000)" fill="#FFFFFF">
            <g id="Group-8" transform="translate(299.000000, 6286.000000)">
                <polygon id="Fill-1" points="9.54980098 58.8690043 11.3647187 58.8690043 11.3647187 53.7734396 9.54980098 53.7734396"></polygon>
                <polygon id="Fill-2" points="31.3819821 58.8675673 33.1968998 58.8675673 33.1968998 53.7720026 31.3819821 53.7720026"></polygon>
                <g id="Group-7">
                    <path d="M34.8570538,21.3479157 L9.19816965,21.3479157 C5.12717846,21.3479157 1.81348072,18.0356549 1.81348072,13.9646638 C1.81348072,9.89223557 5.12717846,6.57997482 9.19816965,6.57997482 C9.43383593,6.57997482 9.66662822,6.59290773 9.89942052,6.61589956 C10.244298,6.6647572 10.5633097,6.49519244 10.7486813,6.21354251 C12.566473,3.45883368 15.6143277,1.81491771 18.9035966,1.81491771 C21.168292,1.81491771 23.2964734,2.57221117 25.0610965,4.0020157 C25.3355615,4.22762305 25.7178007,4.26498477 26.0368124,4.10978991 C26.8932581,3.68300403 27.8057464,3.46745561 28.7484115,3.46745561 C31.7057359,3.46745561 34.2319634,5.58126714 34.7535905,8.49691879 C34.82544,8.89209089 35.1473257,9.19385868 35.5453717,9.23840536 C38.6176552,9.58328283 40.9340823,12.1784858 40.9340823,15.2708872 C40.9340823,18.6233836 38.2081132,21.3479157 34.8570538,21.3479157 M36.3975065,7.53557283 C35.4850182,4.08967206 32.365314,1.65110091 28.7484115,1.65110091 C27.7152161,1.65110091 26.7107604,1.85227944 25.7551624,2.24601456 C23.7721169,0.793218192 21.3608486,0 18.9035966,0 C15.1832308,0 11.7215232,1.77324502 9.54017315,4.77224206 C9.42665098,4.7664941 9.31312881,4.76362012 9.19816965,4.76362012 C4.12559679,4.76362012 0,8.89209089 0,13.9646638 C0,19.0372366 4.12559679,23.1642704 9.19816965,23.1642704 L34.8570538,23.1642704 C39.2082579,23.1642704 42.749,19.6235283 42.749,15.2708872 C42.749,11.474361 40.0618297,8.25837853 36.3975065,7.53557283" id="Fill-3"></path>
                    <path d="M21.3733504,44.7747241 C16.6571509,44.7747241 12.818952,40.9365252 12.818952,36.2188887 C12.818952,31.5026892 16.6571509,27.6659273 21.3733504,27.6659273 C26.0909869,27.6659273 29.9306228,31.5026892 29.9306228,36.2188887 C29.9306228,40.9365252 26.0909869,44.7747241 21.3733504,44.7747241 M37.8398128,49.835801 L38.7235614,58.9534993 L40.5298571,58.7796235 L39.6389237,49.6058827 C38.7192504,43.8536138 36.1283584,40.5643449 31.3518053,39.0123963 C31.6004045,38.1228998 31.7441035,37.1874196 31.7441035,36.2188887 C31.7441035,30.5011076 27.0911315,25.8495726 21.3733504,25.8495726 C15.6555693,25.8495726 11.0054713,30.5011076 11.0054713,36.2188887 C11.0054713,37.1874196 11.1477333,38.1228998 11.3977694,39.0138332 C6.62265341,40.5643449 4.03032439,43.8564878 3.10346618,49.6619253 L2.21971765,58.7796235 L4.02601342,58.9534993 L4.902577,49.8932806 C5.72740897,44.7373623 7.83403554,42.0343851 12.0401037,40.7051699 C13.7170705,44.1812474 17.2649975,46.5910788 21.3733504,46.5910788 C25.4831403,46.5910788 29.0325043,44.1812474 30.7094711,40.7051699 C34.9155393,42.0343851 37.0221658,44.7359254 37.8398128,49.835801" id="Fill-5"></path>
                </g>
            </g>
        </g>
    </g>
</svg>