
<svg width="83px" height="83px" viewBox="0 0 83 83" version="1.1" xmlns="http://www.w3.org/2000/svg" xmlns:xlink="http://www.w3.org/1999/xlink">
    <defs>
        <polygon id="path-895emuhuv8-1" points="-1.45860342e-15 0 81.1865052 0 81.1865052 34.5708248 -1.45860342e-15 34.5708248"></polygon>
        <polygon id="path-895emuhuv8-3" points="0 5.83441366e-15 5.81911836 5.83441366e-15 5.81911836 5.81353473 0 5.81353473"></polygon>
    </defs>
    <g id="Xeristar" stroke="none" stroke-width="1" fill="none" fill-rule="evenodd">
        <g id="pagina-XERISTAR-completa" transform="translate(-352.000000, -3244.000000)">
            <g id="Group-11" transform="translate(352.500000, 3244.000000)">
                <path d="M47.641096,2.62101735 C60.1319845,2.62101735 70.2908901,12.7832074 70.2908901,25.2740959 C70.2908901,37.7649844 60.1319845,47.9271745 47.641096,47.9271745 C35.1502076,47.9271745 24.9913019,37.7649844 24.9913019,25.2740959 C24.9913019,12.7832074 35.1502076,2.62101735 47.641096,2.62101735 M47.641096,50.5481918 C61.577157,50.5481918 72.9151919,39.2134414 72.9151919,25.2740959 C72.9151919,11.338035 61.577157,0 47.641096,0 C33.7050351,0 22.3670001,11.338035 22.3670001,25.2740959 C22.3670001,39.2134414 33.7050351,50.5481918 47.641096,50.5481918" id="Fill-1" fill="#FFFFFF"></path>
                <g id="Group-5" transform="translate(1.313136, 47.928160)">
                    <mask id="mask-895emuhuv8-2" fill="white">
                        <use xlink:href="#path-895emuhuv8-1"></use>
                    </mask>
                    <g id="Clip-4"></g>
                    <path d="M12.9408626,5.01212091 C15.6210007,3.44870705 18.8824922,2.62101735 22.3640441,2.62101735 C27.1298288,2.62101735 31.6164324,4.22056053 34.3622601,6.90069857 C35.7548809,8.26375898 37.6303206,9.01262108 39.6469931,9.01262108 L55.9150369,9.01262108 C56.8806749,9.01262108 57.7740542,9.39690558 58.4440887,10.0965004 C59.1042698,10.7960953 59.4425715,11.7157505 59.3933043,12.6813885 C59.2980543,14.4977075 57.616399,15.9757248 55.6424248,15.9757248 L31.9514497,15.9757248 L31.9514497,18.5967422 L55.6424248,18.5967422 C59.0451491,18.5967422 61.8435285,16.0578369 62.0077527,12.8193368 C62.0208906,12.6255523 61.9880458,12.4383367 61.9814768,12.2478367 L73.2341152,6.25037096 C74.7646843,5.46866403 76.640124,5.76755197 77.6780206,6.96967272 C78.3841844,7.78422447 78.6863569,8.80569866 78.5254172,9.84687974 C78.3710465,10.8749229 77.7732706,11.7814402 76.9127361,12.3168109 L46.2882175,30.7066306 C44.3175278,31.9317428 41.9001484,32.2700445 39.7422431,31.6624152 L15.4797679,23.1424665 C13.9918972,22.6793544 12.4481902,22.4560096 10.8946298,22.4067423 L10.8946298,5.68215542 C11.630354,5.56062955 12.3365178,5.36356058 12.9408626,5.01212091 L12.9408626,5.01212091 Z M8.27032794,28.7556478 L3.19251738,28.7556478 L3.19251738,31.3766652 L9.5841211,31.3766652 C10.3067073,31.3766652 10.8946298,30.7887427 10.8946298,30.0661565 L10.8946298,25.0277597 C12.1821471,25.0737425 13.4598109,25.260958 14.6586472,25.6288201 L38.9539672,34.1619067 C39.9261741,34.4345187 40.9246569,34.572467 41.9165708,34.572467 C43.9332433,34.572467 45.9302089,34.0173894 47.6545624,32.9433635 L78.279081,14.5535437 C79.80965,13.6010437 80.8475466,12.0277764 81.1168742,10.2410177 C81.3894863,8.45425899 80.8574,6.63793994 79.6585638,5.25188816 C77.8093999,3.12025876 74.6760032,2.56518115 72.022141,3.92495707 L61.2851664,9.64981076 C61.0289768,9.16699178 60.7300888,8.70387969 60.3425199,8.29331932 C59.1962353,7.08462962 57.5802697,6.39160372 55.9150369,6.39160372 L39.6469931,6.39160372 C38.320062,6.39160372 37.0949499,5.90550026 36.1950016,5.02525884 C32.9203721,1.83274146 27.8786909,0 22.3640441,0 C18.4193801,0 14.7013455,0.949215558 11.623785,2.7458277 C11.4102936,2.86735357 11.1606729,2.95275013 10.8946298,3.02500875 L10.8946298,1.31050868 C10.8946298,0.587922439 10.3067073,0 9.5841211,0 L-1.45860342e-15,0 L-1.45860342e-15,2.62101735 L8.27032794,2.62101735 L8.27032794,28.7556478 Z" id="Fill-3" fill="#FFFFFF" mask="url(#mask-895emuhuv8-2)"></path>
                </g>
                <g id="Group-8" transform="translate(0.000000, 54.319107)">
                    <mask id="mask-895emuhuv8-4" fill="white">
                        <use xlink:href="#path-895emuhuv8-3"></use>
                    </mask>
                    <g id="Clip-7"></g>
                    <path d="M2.91235099,2.62101735 C3.07000617,2.62101735 3.19481652,2.74911219 3.19481652,2.90676737 C3.19153203,3.22536221 2.62003201,3.21879324 2.62331649,2.90676737 C2.62331649,2.74911219 2.74812684,2.62101735 2.91235099,2.62101735 M2.91235099,5.81353473 C4.51189416,5.81353473 5.81911836,4.50959502 5.81911836,2.90676737 C5.81911836,1.30393971 4.51189416,5.83441366e-15 2.91235099,5.83441366e-15 C1.30952333,5.83441366e-15 -0.00098534487,1.30393971 -0.00098534487,2.90676737 C-0.00098534487,4.50959502 1.30952333,5.81353473 2.91235099,5.81353473" id="Fill-6" fill="#FFFFFF" mask="url(#mask-895emuhuv8-4)"></path>
                </g>
                <path d="M34.5767368,21.7922156 L42.8503493,21.7922156 C43.5729355,21.7922156 44.1608579,21.2042932 44.1608579,20.4817069 L44.1608579,12.2080945 L51.1239617,12.2080945 L51.1239617,20.4817069 C51.1239617,21.2042932 51.7118841,21.7922156 52.4344704,21.7922156 L60.7080828,21.7922156 L60.7080828,28.7586038 L52.4344704,28.7586038 C51.7118841,28.7586038 51.1239617,29.3432418 51.1239617,30.0691125 L51.1239617,38.3460094 L44.1608579,38.3460094 L44.1608579,30.0691125 C44.1608579,29.3432418 43.5729355,28.7586038 42.8503493,28.7586038 L34.5767368,28.7586038 L34.5767368,21.7922156 Z M33.2662282,31.3763367 L41.5365561,31.3763367 L41.5365561,39.6532336 C41.5365561,40.3791043 42.1244785,40.9637423 42.8503493,40.9637423 L52.4344704,40.9637423 C53.1603411,40.9637423 53.7482635,40.3791043 53.7482635,39.6532336 L53.7482635,31.3763367 L62.0185915,31.3763367 C62.7444622,31.3763367 63.3323846,30.7916987 63.3323846,30.0691125 L63.3323846,20.4817069 C63.3323846,19.7591207 62.7444622,19.1711982 62.0185915,19.1711982 L53.7482635,19.1711982 L53.7482635,10.8975858 C53.7482635,10.1749996 53.1603411,9.58707714 52.4344704,9.58707714 L42.8503493,9.58707714 C42.1244785,9.58707714 41.5365561,10.1749996 41.5365561,10.8975858 L41.5365561,19.1711982 L33.2662282,19.1711982 C32.5403574,19.1711982 31.952435,19.7591207 31.952435,20.4817069 L31.952435,30.0691125 C31.952435,30.7916987 32.5403574,31.3763367 33.2662282,31.3763367 L33.2662282,31.3763367 Z" id="Fill-9" fill="#FFFFFF"></path>
            </g>
        </g>
    </g>
</svg>