
<svg viewBox="0 0 58 49" version="1.1" xmlns="http://www.w3.org/2000/svg" xmlns:xlink="http://www.w3.org/1999/xlink">
    <g id="Xeristar" stroke="none" stroke-width="1" fill="none" fill-rule="evenodd">
        <g id="pagina-XERISTAR-completa" transform="translate(-542.000000, -882.000000)" fill="#FFFFFF">
            <rect x="0" y="0" width="1440" height="10763" fill="none"></rect>
            <g id="Group" transform="translate(520.000000, 858.000000)">
                <g id="Group-7" transform="translate(22.000000, 24.000000)">
                    <path d="M2.50422436,33.3851101 C1.96895427,32.7784706 1.6750805,32.0039033 1.6750805,31.2020478 L1.6750805,15.3916388 C1.6750805,14.6443598 2.28591813,14.0356213 3.03529625,14.0356213 C3.71120592,14.0356213 4.29055707,14.541504 4.37871921,15.2153146 L5.53532241,24.0147349 C5.40727741,24.0924016 5.26243962,24.1259871 5.14698921,24.2204466 C4.39341289,24.8333833 3.93790855,25.7359956 3.88962929,26.6973827 C3.84135002,27.6587697 4.20659314,28.6012649 4.88670101,29.2792737 L12.055122,36.4497937 L13.2390134,35.2659022 L6.0684934,28.0932831 C5.72214216,27.7490309 5.53742151,27.2704365 5.56261069,26.7813466 C5.58779987,26.2859594 5.81450249,25.8367523 6.20703389,25.5176894 C6.88924086,24.9614283 7.94928554,25.062185 8.62939341,25.7422929 L13.1067702,30.2175706 C13.9170222,31.0299217 15.0106525,31.5379035 16.1882467,31.6449575 C16.8599581,31.7058314 17.4854894,31.7981917 18.0669397,31.9136421 C21.9229834,32.6903085 24.7189824,36.158019 24.7189824,40.1609996 L24.7189824,48.2173392 L26.396162,48.2173392 L26.396162,40.1609996 C26.396162,35.3645598 23.0313073,31.206246 18.3964981,30.2721472 C17.7604713,30.1441022 17.0761653,30.0433455 16.3393817,29.9761743 C15.5543189,29.904805 14.8259318,29.5710483 14.2906617,29.0336791 L9.81328489,24.5584014 C9.08489776,23.8279152 8.11301521,23.5088522 7.16002455,23.5319423 L6.03910602,14.9970083 C5.84179077,13.4940539 4.54874617,12.3605408 3.03109805,12.3605408 C1.36021575,12.3605408 1.86437388e-15,13.7186574 1.86437388e-15,15.3916388 L1.86437388e-15,31.2020478 C1.86437388e-15,32.4132275 0.445008855,33.5824253 1.25106263,34.4955331 L8.45306915,42.5938546 L9.70413178,41.4813325 L2.50422436,33.3851101 Z" id="Fill-1"></path>
                    <path d="M54.7929747,33.383011 L47.5930673,41.4813325 L48.84413,42.5938546 L56.0461365,34.4955331 C56.8500911,33.5845244 57.2951,32.4153266 57.2951,31.2020478 L57.2951,15.3916388 C57.2951,13.7186574 55.9348843,12.3605408 54.2619029,12.3605408 C52.7484529,12.3605408 51.4575074,13.4919548 51.255994,14.9970083 L50.1350754,23.5319423 C49.1841839,23.5088522 48.2123013,23.8258161 47.4839142,24.5563023 L43.0023392,29.0378773 C42.4691682,29.5710483 41.7428802,29.904805 40.9641147,29.9761743 C40.2021419,30.0454446 39.498944,30.1483004 38.8461244,30.2826427 C34.2428017,31.2230387 30.898938,35.3771544 30.898938,40.1589005 L30.898938,48.2173392 L32.5761176,48.2173392 L32.5761176,40.1589005 C32.5761176,36.1706136 35.3532247,32.7071013 39.1819801,31.9241376 C39.7781241,31.8023899 40.4183491,31.7079305 41.1152497,31.6449575 C42.2844475,31.5379035 43.3759787,31.0320208 44.1862307,30.2238679 L48.6678057,25.7401938 C49.3521118,25.0600859 50.4142555,24.9635274 51.0901652,25.5176894 C51.4805975,25.8367523 51.7073001,26.2859594 51.7324893,26.7813466 C51.7576785,27.2704365 51.5729578,27.7490309 51.2266066,28.0953822 L44.0581857,35.2659022 L45.2420771,36.4497937 L52.4104981,29.2792737 C53.090606,28.6012649 53.45375,27.6587697 53.4075698,26.6973827 C53.3571915,25.7359956 52.899588,24.8333833 52.152309,24.2225457 C52.0347595,24.1259871 51.8878226,24.0924016 51.7597776,24.0147349 L52.9163808,15.2174137 C53.006642,14.5436031 53.5859932,14.0356213 54.2640019,14.0356213 C55.011281,14.0356213 55.6200195,14.6443598 55.6200195,15.3916388 L55.6200195,31.2020478 C55.6200195,32.0060024 55.3261457,32.7805697 54.7929747,33.383011" id="Fill-3"></path>
                    <path d="M14.5431833,17.4225165 C11.1195538,13.8225628 11.1195538,7.96188013 14.5431833,4.35982732 C16.1867773,2.62807116 18.3677405,1.6750805 20.6872442,1.6750805 C23.0067479,1.6750805 25.1898102,2.62807116 26.8355033,4.35982732 C27.2427284,4.78804339 27.6163679,5.26453872 27.9396291,5.78301602 C28.2460974,6.27000684 29.0500521,6.27000684 29.3586196,5.78301602 C29.688178,5.25614233 30.0597184,4.779647 30.4606462,4.35982732 C32.1042402,2.62807116 34.2852035,1.6750805 36.6068063,1.6750805 C38.9242109,1.6750805 41.1072732,2.62807116 42.7529663,4.35982732 C46.1702984,7.95558283 46.1765957,13.8015718 42.7697591,17.4057237 L28.6491243,30.5901606 L14.5431833,17.4225165 Z M43.9326596,18.6106062 C43.9452542,18.6001107 43.9578488,18.5896152 43.9683442,18.5770206 C47.996514,14.338941 47.996514,7.44340283 43.9683442,3.20532322 C42.0035882,1.13771132 39.3902107,0 36.6068063,0 L36.6047072,0 C33.8234018,0 31.2079252,1.13981042 29.2494665,3.20322412 C29.0416557,3.41943125 28.8422414,3.64823297 28.6491243,3.89172838 C28.4560073,3.65243117 28.2565929,3.42362945 28.0487822,3.20532322 C26.0861252,1.13771132 23.4727477,0 20.6893433,0 L20.6872442,0 C17.9038398,0 15.2904623,1.13981042 13.3299044,3.20532322 C9.30173462,7.44340283 9.30173462,14.338941 13.36349,18.6106062 L28.0760705,32.349205 C28.237701,32.5003401 28.4434127,32.5738086 28.6491243,32.5738086 C28.8527369,32.5738086 29.0584485,32.5003401 29.2200791,32.349205 L43.9326596,18.6106062 Z" id="Fill-5"></path>
                </g>
            </g>
        </g>
    </g>
</svg>