
<svg width="52px" height="33px" viewBox="0 0 52 33" version="1.1" xmlns="http://www.w3.org/2000/svg" xmlns:xlink="http://www.w3.org/1999/xlink">
    <defs>
        <polygon id="path-vxd-juwax_-1" points="1.84994094e-15 0 51.290248 0 51.290248 32.0765222 1.84994094e-15 32.0765222"></polygon>
    </defs>
    <g id="Xeristar" stroke="none" stroke-width="1" fill="none" fill-rule="evenodd">
        <g id="pagina-XERISTAR-completa" transform="translate(-296.000000, -6131.000000)">
            <g id="Group-3" transform="translate(296.000000, 6131.000000)">
                <mask id="mask-vxd-juwax_-2" fill="white">
                    <use xlink:href="#path-vxd-juwax_-1"></use>
                </mask>
                <g id="Clip-2"></g>
                <path d="M47.7413171,25.6375168 L34.9815626,30.0621903 C32.8089759,30.6472608 32.069874,29.4758776 31.8400693,28.7877054 L28.5967166,15.1646303 C28.4998259,14.7534661 28.0874195,14.4988176 27.6750131,14.5969505 C27.2638489,14.6938411 27.0092004,15.1074897 27.1073332,15.5186539 L27.6427162,17.7645297 C22.7410426,13.5187313 17.105236,10.8082772 16.8406499,10.6828163 C16.4592982,10.5014568 16.0021731,10.6641834 15.8195715,11.0455351 C15.638212,11.428129 15.8009386,11.8852542 16.1822903,12.0666136 C16.2518529,12.1001527 23.2428866,15.4553023 28.242693,20.3929994 C28.2513883,20.4029369 28.2638102,20.4054212 28.2737477,20.4141166 L29.9829983,27.5865097 C29.1867558,29.9143699 26.0874969,30.2187059 24.7620824,30.2348544 L4.65975502,30.5478858 C2.98777006,30.4286357 1.8412306,29.2522837 1.80893371,27.6188066 C1.76421494,25.2462276 3.45110616,24.6897274 3.88090319,24.5903524 L21.2516593,22.8463205 C21.672761,22.8053283 21.9795814,22.4289454 21.937347,22.0090859 C21.8938705,21.586742 21.5150031,21.276195 21.0988702,21.3233981 L16.068009,21.8289686 C5.20134897,19.2054677 2.6846762,11.8082385 3.04491071,9.54248773 C3.85109068,4.45200157 9.35274105,1.53161773 18.1374941,1.53161773 C27.0054738,1.53161773 32.9083509,5.74387702 34.3778592,7.7847918 C36.6200085,10.8977148 36.6200085,13.0752702 36.6200085,18.3384205 L36.6535475,22.8152658 C36.6547897,23.0562503 36.7703132,23.2835707 36.9653367,23.4264223 C37.1603602,23.5692739 37.4112822,23.6139927 37.6410869,23.5419458 L46.0693321,20.9892496 C46.8121605,20.7644136 47.5860436,20.8240386 48.1922313,21.1494918 C48.7052549,21.4252575 49.0667316,21.8736874 49.2381535,22.4488204 C49.7449662,24.1344694 49.3077161,25.0598994 47.7413171,25.6375168 M4.1678486,19.5321631 L7.28201376,19.5321631 C8.64469393,20.5420619 10.2794133,21.461281 12.2072889,22.2177734 L3.64116092,23.0798519 C3.0970826,23.2003441 2.52691834,23.4549926 2.01141034,23.8375865 C1.66111334,23.2959926 1.50335548,22.5221095 1.53441017,22.0475937 C1.53565236,22.0227499 1.73440243,19.5321631 4.1678486,19.5321631 M42.4806511,8.26551853 C46.4941604,8.26551853 49.7586303,11.5312306 49.7586303,15.5447398 C49.7586303,17.0043107 49.2928098,18.4216471 48.4766923,19.6216007 C47.5997076,19.2812412 46.5922932,19.2303115 45.625871,19.52471 L38.1777121,21.7805233 L38.1516262,18.3334518 C38.1516262,14.8578099 38.1367199,12.524981 37.4150087,10.3325193 C38.7677514,9.01828442 40.5863145,8.26551853 42.4806511,8.26551853 M49.7598725,20.4476556 C50.7337478,19.0017489 51.290248,17.2987092 51.290248,15.5447398 C51.290248,10.6853006 47.337606,6.73265862 42.4806511,6.73265862 C40.3875645,6.73265862 38.3702513,7.49163545 36.7877038,8.83071405 C36.4709459,8.19844039 36.1045005,7.56119797 35.6212894,6.8891743 C34.0014763,4.64205632 27.5979975,0 18.1374941,0 C8.52171732,0 2.46977769,3.39117307 1.5319258,9.30274546 C1.20026162,11.388379 2.29959794,14.9000443 5.48705219,18.0005454 L4.1678486,18.0005454 C1.31330072,18.0005454 0.114589362,20.3582181 0.00651901181,21.9444921 C-0.0444106936,22.7047111 0.196573766,24.0437897 0.95927716,24.9766729 C0.530722321,25.6685715 0.257440975,26.5467984 0.27855817,27.6486191 C0.325761312,30.0795809 2.08345724,31.9006284 4.61752063,32.0770191 L24.7831996,31.7664721 C25.8390594,31.7540502 28.8513651,31.5366674 30.5432251,29.6386042 C31.0674284,30.7826593 32.1506163,31.7441127 33.8946481,31.7441127 C34.3592264,31.7441127 34.8710078,31.6757924 35.4299924,31.5242455 L48.2568251,27.079697 C50.5971071,26.2163764 51.4430371,24.4636492 50.7051775,22.0090859 C50.5250602,21.4028982 50.1909117,20.8786948 49.7598725,20.4476556" id="Fill-1" fill="#FFFFFF" mask="url(#mask-vxd-juwax_-2)"></path>
            </g>
        </g>
    </g>
</svg>