
<svg width="47px" height="54px" viewBox="0 0 47 54" version="1.1" xmlns="http://www.w3.org/2000/svg" xmlns:xlink="http://www.w3.org/1999/xlink">
    <defs>
        <polygon id="path-2u069ozjq9-1" points="0 0 2.9517858 0 2.9517858 23.2662442 0 23.2662442"></polygon>
        <polygon id="path-2u069ozjq9-3" points="0 53.0989317 46.866 53.0989317 46.866 0 0 0"></polygon>
    </defs>
    <g id="Xeristar" stroke="none" stroke-width="1" fill="none" fill-rule="evenodd">
        <g id="pagina-XERISTAR-completa" transform="translate(-300.000000, -6612.000000)">
            <g id="Group-13" transform="translate(300.000000, 6612.000000)">
                <path d="M2.89643117,27.0865442 C0.763893935,29.4238935 -0.246328117,32.4905402 0.0512030355,35.7232508 C0.959019016,45.5999012 1.4738171,46.3471887 3.32266184,47.6590935 C3.99522063,48.1351433 5.63371777,48.7648023 7.76902274,49.1329106 L7.76902274,53.0976862 L9.47809703,53.0976862 L9.47809703,36.9452043 L7.76902274,36.9452043 L7.76902274,47.3975429 C5.88558135,47.0432732 4.64702144,46.5035655 4.28721632,46.2489342 C3.07910146,45.3909374 2.62657733,45.0684967 1.75197413,35.5668739 C1.50011055,32.8199003 2.35395577,30.2168487 4.1585168,28.2379205 C6.01012927,26.2091732 8.62978728,25.0453421 11.3476998,25.0453421 L21.8457059,25.0453421 L21.8457059,23.3376516 L11.3476998,23.3376516 C8.1509697,23.3376516 5.07048438,24.7035272 2.89643117,27.0865442" id="Fill-1" fill="#FFFFFF"></path>
                <g id="Group-5" transform="translate(33.519168, 29.832688)">
                    <mask id="mask-2u069ozjq9-2" fill="white">
                        <use xlink:href="#path-2u069ozjq9-1"></use>
                    </mask>
                    <g id="Clip-4"></g>
                    <path d="M0,0.867683872 C0.743135948,2.1297695 1.24132764,5.72505291 1.24132764,8.28797242 L1.22472125,23.2641684 L2.93517941,23.2669361 L2.9517858,8.28935629 C2.9517858,6.05718071 2.55046471,1.83085449 1.47243324,0 L0,0.867683872 Z" id="Fill-3" fill="#FFFFFF" mask="url(#mask-2u069ozjq9-2)"></path>
                </g>
                <path d="M15.3620177,1.70810559 C20.4920084,1.70810559 24.6643638,5.88322878 24.6643638,11.0132194 C24.6643638,16.14321 20.4920084,20.3169493 15.3620177,20.3169493 C10.2306433,20.3169493 6.05690394,16.14321 6.05690394,11.0132194 C6.05690394,5.88322878 10.2306433,1.70810559 15.3620177,1.70810559 M4.34782965,11.0132194 C4.34782965,17.0856226 9.28823064,22.0260236 15.3620177,22.0260236 C21.434421,22.0260236 26.374822,17.0856226 26.374822,11.0132194 C26.374822,4.93943229 21.434421,0.000415159747 15.3620177,0.000415159747 C9.28823064,0.000415159747 4.34782965,4.93943229 4.34782965,11.0132194" id="Fill-6" fill="#FFFFFF"></path>
                <path d="M32.6765318,27.4934007 C31.5680552,29.1540397 29.1324514,29.0364111 27.2088779,28.1867175 C25.6354225,27.490633 24.2543244,25.8549036 25.0943309,23.3556419 C25.4195394,22.3910874 25.7862638,21.8306218 26.2166461,21.6396483 C26.3647197,21.5732227 26.5418546,21.5427777 26.7425151,21.5427777 C27.6074313,21.5427777 28.9165683,22.1046272 30.3890016,22.7384377 C32.0565599,23.4566641 33.3504744,24.0683328 33.5898832,24.8751266 C33.7600987,25.4494309 33.4528805,26.3309534 32.6765318,27.4934007 M35.2283804,24.3893897 C34.7426434,22.7508925 32.8730407,21.9468665 31.0643281,21.1691339 C28.7920204,20.1921246 26.9971464,19.4213114 25.5205616,20.0786476 C24.6182811,20.4813526 23.969248,21.3490365 23.4752079,22.8090149 C22.4968148,25.7220525 23.7173844,28.5105421 26.516945,29.749102 C27.6669375,30.2583646 28.8100107,30.5060766 29.8672841,30.5060766 C31.6552388,30.5060766 33.1954815,29.7961534 34.097762,28.4427327 C35.1993192,26.7917807 35.5591243,25.5047855 35.2283804,24.3893897" id="Fill-8" fill="#FFFFFF"></path>
                <mask id="mask-2u069ozjq9-4" fill="white">
                    <use xlink:href="#path-2u069ozjq9-3"></use>
                </mask>
                <g id="Clip-11"></g>
                <polygon id="Fill-10" fill="#FFFFFF" mask="url(#mask-2u069ozjq9-4)" points="25.9294939 53.0975478 27.6385682 53.0975478 27.6385682 45.019923 25.9294939 45.019923"></polygon>
                <path d="M43.1406332,22.1727134 L45.6869463,17.3485571 C45.8364038,17.0676324 45.8156458,16.7258175 45.6357433,16.4642669 C45.4544569,16.2041001 45.1375516,16.0629458 44.8275656,16.1003102 L39.5937851,16.7438078 L38.0175619,11.7798811 C37.9220752,11.4795822 37.6702116,11.2567798 37.3616095,11.1986574 C37.0557752,11.1363834 36.7361022,11.2553959 36.5382094,11.5003402 L33.3414793,15.4554287 L29.4901807,14.5213193 C29.2134075,14.4548937 28.9255635,14.5282386 28.7152159,14.7164443 C28.5062521,14.9074178 28.403846,15.1883426 28.4425943,15.4678835 L28.7982478,18.0197321 C28.8632895,18.4888626 29.2895202,18.8071517 29.7628023,18.7476455 C30.2291651,18.6839877 30.5557574,18.2522215 30.4907157,17.7844749 L30.3094293,16.4781055 L33.4646434,17.2419995 C33.7870841,17.3264153 34.1233635,17.2074028 34.3309434,16.9513876 L36.8689533,13.8100122 L38.1808581,17.9367001 C38.3040221,18.329718 38.6887368,18.5746623 39.0983611,18.5276108 L43.4118709,17.9962063 L41.3388399,21.9250014 C41.1644728,22.2543615 41.223979,22.6570664 41.4827619,22.9213848 L44.2933934,25.7942903 L40.2829503,26.5747906 C39.914842,26.6453677 39.6380688,26.9470505 39.5965528,27.3193104 L39.23398,30.5907692 L37.7629306,29.8725428 C37.3380838,29.6635791 36.8274373,29.8420978 36.6198574,30.2669446 C36.4122776,30.6904075 36.5894124,31.201054 37.0128753,31.4086339 L39.574411,32.6582647 C39.6934234,32.7163871 39.8207391,32.7454483 39.9494386,32.7454483 C40.0905929,32.7454483 40.2331311,32.7094678 40.3618306,32.6388906 C40.6040071,32.5060395 40.7686872,32.2610953 40.7991322,31.985706 L41.2253629,28.1330235 L46.1740671,27.1698529 C46.484053,27.1089628 46.7345327,26.8847765 46.8272518,26.5844776 C46.9213546,26.2855626 46.8424743,25.9575864 46.6224396,25.7334002 L43.1406332,22.1727134 Z" id="Fill-12" fill="#FFFFFF" mask="url(#mask-2u069ozjq9-4)"></path>
            </g>
        </g>
    </g>
</svg>