<svg viewBox="0 0 28 25" version="1.1" xmlns="http://www.w3.org/2000/svg" xmlns:xlink="http://www.w3.org/1999/xlink">
	<defs>
		<polygon id="path-0ft90_ma7t-1" points="0 0 21.7976 0 21.7976 24.494 0 24.494"></polygon>
	</defs>
	<g id="Xeristar" stroke="none" stroke-width="1" fill="none" fill-rule="evenodd">
		<g id="Group" transform="translate(-3.185832, -5.000000)">
			<g id="Group-6" transform="translate(4.000000, 5.000000)">
				<g id="Group-3" transform="translate(4.635400, 0.000000)">
					<mask id="mask-0ft90_ma7t-2" fill="white">
						<use xlink:href="#path-0ft90_ma7t-1"></use>
					</mask>
					<g id="Clip-2"></g>
					<path d="M2.203,0.897 C1.575,0.897 0.897,1.396 0.897,2.202 L0.897,22.292 C0.897,23.098 1.575,23.597 2.203,23.597 C2.43,23.597 2.648,23.538 2.851,23.42 L20.249,13.375 C20.657,13.14 20.901,12.718 20.901,12.247 C20.901,11.776 20.657,11.354 20.249,11.119 L2.851,1.074 C2.648,0.957 2.43,0.897 2.203,0.897 M2.203,24.494 L2.203,24.494 C0.988,24.494 0,23.506 0,22.292 L0,2.202 C0,0.988 0.988,0 2.203,0 C2.584,0 2.963,0.102 3.3,0.297 L20.698,10.342 C21.386,10.739 21.798,11.452 21.798,12.247 C21.798,13.042 21.386,13.755 20.698,14.152 L3.3,24.197 C2.963,24.392 2.584,24.494 2.203,24.494" id="Fill-1" fill="#ED6F82" mask="url(#mask-0ft90_ma7t-2)"></path>
				</g>
				<path d="M17.159,10.9472 L9.705,6.6432 L2.251,2.3402 C1.25,1.7622 0,2.4842 0,3.6392 L0,12.2472 L0,20.8542 C0,22.0092 1.25,22.7312 2.251,22.1542 L9.705,17.8502 L17.159,13.5462 C18.159,12.9692 18.159,11.5252 17.159,10.9472" id="Fill-4" fill="#ED6F82"></path>
			</g>
		</g>
	</g>
</svg>