
<svg width="39px" height="43px" viewBox="0 0 39 43" version="1.1" xmlns="http://www.w3.org/2000/svg" xmlns:xlink="http://www.w3.org/1999/xlink">
    <defs>
        <polygon id="path-nauij2veqk-1" points="0 0 38.31674 0 38.31674 29.6169301 0 29.6169301"></polygon>
    </defs>
    <g id="Xeristar" stroke="none" stroke-width="1" fill="none" fill-rule="evenodd">
        <g id="pagina-XERISTAR-completa" transform="translate(-752.000000, -1929.000000)">
            <rect fill="none" x="0" y="0" width="1440" height="10763"></rect>
            <g id="Group" transform="translate(732.000000, 1914.000000)">
                <g id="Group-8" transform="translate(20.020000, 15.400000)">
                    <path d="M20.6247342,17.782882 C20.2276156,17.5538323 19.7144848,17.6802559 19.5166691,17.8825335 C19.2311007,18.1100959 19.0883165,18.4685437 19.1433479,18.873099 L19.7010988,21.877517 L16.7442756,23.3797259 L17.2812037,24.4372215 L20.6351455,22.7342223 C20.8701446,22.6152354 20.9980554,22.356439 20.9489733,22.0961553 L20.3421404,18.9563898 L23.123458,20.2325238 C23.3777924,20.348536 23.6782342,20.2756565 23.8463031,20.0510688 L26.2379388,16.869658 L26.9548345,20.8110973 C27.0068913,21.0936911 27.2523017,21.2989434 27.5393574,21.2989434 L30.5214653,21.2974561 L29.0445411,23.9151667 C28.9329909,24.1129824 28.9448896,24.3569054 29.0728004,24.5428224 L31.2443104,27.7093599 L32.2229773,27.0385715 L30.2611816,24.1769378 L31.6875365,21.6440053 C31.8719661,21.3272028 31.8704787,20.9315715 31.6771251,20.5998957 C31.4912081,20.2964792 31.166969,20.1135369 30.8040591,20.1090749 L28.0346402,20.1105623 L27.3385671,16.2881097 C27.267175,15.8909911 26.9682206,15.5727013 26.6276207,15.4908979 C26.2870208,15.371911 25.7857887,15.4447904 25.516581,15.8538077 L23.1844388,18.9563898 L20.6247342,17.782882 Z" id="Fill-1" fill="#FFFFFF"></path>
                    <path d="M17.7277019,1.18838115 C20.8168979,1.18838115 23.3290078,3.69900366 23.3290078,6.78819973 C23.3290078,9.87590845 20.8168979,12.386531 17.7277019,12.386531 C14.6399931,12.386531 12.1278833,9.87590845 12.1278833,6.78819973 C12.1278833,3.69900366 14.6399931,1.18838115 17.7277019,1.18838115 M17.7277019,13.5749121 C21.4713256,13.5749121 24.5159016,10.5288488 24.5159016,6.78819973 C24.5159016,3.04606333 21.4713256,0 17.7277019,0 C13.9855655,0 10.9409895,3.04606333 10.9409895,6.78819973 C10.9409895,10.5288488 13.9855655,13.5749121 17.7277019,13.5749121" id="Fill-3" fill="#FFFFFF"></path>
                    <g id="Group-7" transform="translate(0.000000, 12.474668)">
                        <mask id="mask-nauij2veqk-2" fill="white">
                            <use xlink:href="#path-nauij2veqk-1"></use>
                        </mask>
                        <g id="Clip-6"></g>
                        <path d="M36.5838453,26.7976854 C36.0484045,27.4625244 35.3895148,27.815023 34.6800557,27.815023 C34.3216078,27.815023 33.9586979,27.7242955 33.6790788,27.5815113 L22.3872269,20.2429974 C23.3019383,19.8250561 23.8448158,18.9921481 24.0351947,17.7323749 C24.1809536,16.7685814 23.9667773,15.885104 23.4179505,15.1786196 C22.870611,14.4751099 22.024317,14.0140358 21.0947322,13.917359 C21.7104892,13.7463154 22.2295693,13.6020439 22.4288723,13.5529618 C23.2454195,13.4250509 24.0946882,13.5752718 24.6881351,14.0571686 L36.3339729,23.4794397 C37.3022284,24.4119991 37.4063419,25.7773732 36.5838453,26.7976854 M29.5591592,28.4292926 C28.7589726,28.4292926 28.1417284,28.0916674 28.1342917,28.0916674 L20.1160654,22.2315651 C20.6053988,21.8151111 21.0664729,21.4105558 21.4487181,21.0491333 L31.5462396,27.6082833 C30.8457045,28.1913189 30.0960873,28.4292926 29.5591592,28.4292926 M11.6754358,26.8824635 C8.15788709,28.6315702 5.51786638,28.2954324 3.11879404,25.7862972 C1.46190217,24.0595005 0.386558525,18.8627499 1.93636223,11.5361347 C2.87784567,7.09346324 4.06771416,4.38799976 5.79599814,2.76531661 C6.99181597,1.64386556 8.43155684,1.20063955 9.76718422,1.20063955 C10.7339524,1.20063955 11.6456891,1.4326639 12.3700215,1.80895981 C14.0447614,2.67756381 14.8910554,4.27644959 14.6352337,6.08653703 C14.3585893,8.05428204 13.1181514,13.5737845 13.1062527,13.6288159 C13.0675819,13.7953975 13.103278,13.9694158 13.2029295,14.107738 C13.302581,14.2460602 13.4557765,14.333813 13.6238455,14.3501737 L20.9623594,15.0983035 C21.5751416,15.1592843 22.1284305,15.455264 22.480929,15.9089014 C22.8259909,16.3521274 22.9568764,16.9202896 22.8616869,17.5553819 C22.6638713,18.8672119 22.0525764,19.377368 20.7452084,19.3803427 L10.085474,18.3183851 C8.30662065,17.9881966 8.21291851,17.1686747 8.18465913,15.4939348 C8.14747574,13.3179628 8.87180818,8.35026183 8.87924486,8.29820508 L7.70424973,8.12716149 C7.67450302,8.33538847 6.95909459,13.2421087 6.99776531,15.5147575 C7.02453736,17.0511752 7.05725874,18.9624014 9.91889245,19.4933802 L20.2722356,20.5226165 C17.7616131,22.811626 13.3129923,26.068891 11.6754358,26.8824635 M37.1177988,22.590013 L25.4347775,13.1320458 C24.5825342,12.4448968 23.5503233,12.162303 22.1938732,12.3898653 C21.5870403,12.5415736 18.5067683,13.4131522 17.8806,13.5901452 L14.4091587,13.2376466 C14.7497585,11.6982543 15.5811791,7.87728911 15.8102288,6.25311862 C16.13893,3.92246372 15.057637,1.8669659 12.917361,0.755926202 C10.7666738,-0.362550177 7.47966205,-0.438404293 4.9839129,1.89968729 C3.06822463,3.69936338 1.76978064,6.59520581 0.776240455,11.289237 C-0.873214737,19.0813883 0.334501779,24.597916 2.26060139,26.6087938 C3.90113257,28.3207171 5.67254929,29.1729604 7.67450302,29.1729604 C9.06367448,29.1729604 10.5629088,28.7609684 12.2049273,27.9444212 C13.6669782,27.2186014 16.7219655,25.023294 19.179044,23.0168783 L27.4813513,29.0822329 C27.5170474,29.1045429 28.3886261,29.6176737 29.5591592,29.6176737 C29.9711512,29.6176737 31.3171899,29.5016615 32.5829125,28.2820463 L33.0826573,28.6062855 C33.57794,28.8650819 34.1312289,29.0019168 34.6800557,29.0019168 C35.4341349,29.0019168 36.5377379,28.7490697 37.508968,27.5413532 C38.7122225,26.0480683 38.5649763,23.9791844 37.1177988,22.590013" id="Fill-5" fill="#FFFFFF" mask="url(#mask-nauij2veqk-2)"></path>
                    </g>
                </g>
            </g>
        </g>
    </g>
</svg>