
<svg viewBox="0 0 55 55" version="1.1" xmlns="http://www.w3.org/2000/svg" xmlns:xlink="http://www.w3.org/1999/xlink">
    <defs>
        <polygon id="path-u7vz_s65t--1" points="-9.72402277e-16 0 54.1243368 0 54.1243368 23.0472165 -9.72402277e-16 23.0472165"></polygon>
        <polygon id="path-u7vz_s65t--3" points="0 3.88960911e-15 3.87941224 3.88960911e-15 3.87941224 3.87568982 0 3.87568982"></polygon>
    </defs>
    <g id="Xeristar" stroke="none" stroke-width="1" fill="none" fill-rule="evenodd">
        <g id="pagina-XERISTAR-completa" transform="translate(-243.000000, -878.000000)">
            <rect fill="none" x="0" y="0" width="1440" height="10763"></rect>
            <g id="Group" transform="translate(220.000000, 858.000000)">
                <g id="Group-11" transform="translate(23.000000, 20.000000)">
                    <path d="M31.7607307,1.7473449 C40.0879897,1.7473449 46.8605934,8.5221383 46.8605934,16.8493973 C46.8605934,25.1766563 40.0879897,31.9514497 31.7607307,31.9514497 C23.4334717,31.9514497 16.660868,25.1766563 16.660868,16.8493973 C16.660868,8.5221383 23.4334717,1.7473449 31.7607307,1.7473449 M31.7607307,33.6987946 C41.051438,33.6987946 48.610128,26.1422942 48.610128,16.8493973 C48.610128,7.55868998 41.051438,0 31.7607307,0 C22.4700234,0 14.9113334,7.55868998 14.9113334,16.8493973 C14.9113334,26.1422942 22.4700234,33.6987946 31.7607307,33.6987946" id="Fill-1" fill="#FFFFFF"></path>
                    <g id="Group-5" transform="translate(0.875424, 31.952107)">
                        <mask id="mask-u7vz_s65t--2" fill="white">
                            <use xlink:href="#path-u7vz_s65t--1"></use>
                        </mask>
                        <g id="Clip-4"></g>
                        <path d="M8.62724175,3.34141394 C10.4140005,2.29913803 12.5883281,1.7473449 14.9093627,1.7473449 C18.0865525,1.7473449 21.0776216,2.81370702 22.9081734,4.60046572 C23.8365872,5.50917265 25.0868804,6.00841405 26.4313287,6.00841405 L37.2766913,6.00841405 C37.9204499,6.00841405 38.5160361,6.26460372 38.9627258,6.73100029 C39.4028465,7.19739686 39.628381,7.81050034 39.5955362,8.45425899 C39.5320362,9.66513835 38.4109327,10.6504832 37.0949499,10.6504832 L21.3009664,10.6504832 L21.3009664,12.3978281 L37.0949499,12.3978281 C39.3634327,12.3978281 41.229019,10.7052246 41.3385018,8.54622451 C41.3472604,8.41703485 41.3253639,8.2922245 41.3209845,8.16522449 L48.8227435,4.16691397 C49.8431228,3.64577602 51.093416,3.84503465 51.7853471,4.64644848 C52.256123,5.18948298 52.4575712,5.87046577 52.3502781,6.56458649 C52.2473643,7.24994859 51.8488471,7.85429344 51.2751574,8.21120725 L30.8588117,20.4710871 C29.5450185,21.2878285 27.9334322,21.513363 26.4948287,21.1082768 L10.3198453,15.428311 C9.32793144,15.1195696 8.29879346,14.9706731 7.26308652,14.9378282 L7.26308652,3.78810361 C7.7535693,3.70708637 8.22434518,3.57570705 8.62724175,3.34141394 L8.62724175,3.34141394 Z M5.51355196,19.1704319 L2.12834492,19.1704319 L2.12834492,20.9177768 L6.38941407,20.9177768 C6.87113823,20.9177768 7.26308652,20.5258285 7.26308652,20.0441043 L7.26308652,16.6851731 C8.12143139,16.7158283 8.97320728,16.8406387 9.77243146,17.08588 L25.9693115,22.7746044 C26.6174494,22.9563458 27.2831046,23.0483113 27.9443805,23.0483113 C29.2888289,23.0483113 30.6201393,22.6782596 31.7697083,21.9622423 L52.186054,9.70236249 C53.2064333,9.06736246 53.8983644,8.01851759 54.0779161,6.82734512 C54.2596575,5.63617266 53.9049334,4.42529329 53.1057092,3.50125877 C51.8729333,2.0801725 49.7840022,1.71012076 48.0147607,2.61663804 L40.8567776,6.43320717 C40.6859845,6.11132785 40.4867259,5.80258646 40.2283466,5.52887955 C39.4641569,4.72308641 38.3868465,4.26106915 37.2766913,4.26106915 L26.4313287,4.26106915 C25.546708,4.26106915 24.7299666,3.93700017 24.130001,3.35017256 C21.9469147,1.22182764 18.5857939,0 14.9093627,0 C12.2795867,0 9.80089698,0.632810372 7.74918999,1.8305518 C7.6068624,1.91156905 7.4404486,1.96850009 7.26308652,2.0166725 L7.26308652,0.873672452 C7.26308652,0.391948293 6.87113823,0 6.38941407,0 L-9.72402277e-16,0 L-9.72402277e-16,1.7473449 L5.51355196,1.7473449 L5.51355196,19.1704319 Z" id="Fill-3" fill="#FFFFFF" mask="url(#mask-u7vz_s65t--2)"></path>
                    </g>
                    <g id="Group-8" transform="translate(0.000000, 36.212738)">
                        <mask id="mask-u7vz_s65t--4" fill="white">
                            <use xlink:href="#path-u7vz_s65t--3"></use>
                        </mask>
                        <g id="Clip-7"></g>
                        <path d="M1.94156733,1.7473449 C2.04667078,1.7473449 2.12987768,1.83274146 2.12987768,1.93784491 C2.12768802,2.15024147 1.74668801,2.14586216 1.74887766,1.93784491 C1.74887766,1.83274146 1.83208456,1.7473449 1.94156733,1.7473449 M1.94156733,3.87568982 C3.00792944,3.87568982 3.87941224,3.00639668 3.87941224,1.93784491 C3.87941224,0.869293141 3.00792944,3.88960911e-15 1.94156733,3.88960911e-15 C0.873015555,3.88960911e-15 -0.00065689658,0.869293141 -0.00065689658,1.93784491 C-0.00065689658,3.00639668 0.873015555,3.87568982 1.94156733,3.87568982" id="Fill-6" fill="#FFFFFF" mask="url(#mask-u7vz_s65t--4)"></path>
                    </g>
                    <path d="M23.0511579,14.5281437 L28.5668995,14.5281437 C29.0486237,14.5281437 29.440572,14.1361954 29.440572,13.6544713 L29.440572,8.13872966 L34.0826411,8.13872966 L34.0826411,13.6544713 C34.0826411,14.1361954 34.4745894,14.5281437 34.9563136,14.5281437 L40.4720552,14.5281437 L40.4720552,19.1724026 L34.9563136,19.1724026 C34.4745894,19.1724026 34.0826411,19.5621612 34.0826411,20.046075 L34.0826411,25.5640063 L29.440572,25.5640063 L29.440572,20.046075 C29.440572,19.5621612 29.0486237,19.1724026 28.5668995,19.1724026 L23.0511579,19.1724026 L23.0511579,14.5281437 Z M22.1774854,20.9175578 L27.6910374,20.9175578 L27.6910374,26.4354891 C27.6910374,26.9194029 28.0829857,27.3091615 28.5668995,27.3091615 L34.9563136,27.3091615 C35.4402274,27.3091615 35.8321757,26.9194029 35.8321757,26.4354891 L35.8321757,20.9175578 L41.3457277,20.9175578 C41.8296415,20.9175578 42.2215898,20.5277992 42.2215898,20.046075 L42.2215898,13.6544713 C42.2215898,13.1727471 41.8296415,12.7807988 41.3457277,12.7807988 L35.8321757,12.7807988 L35.8321757,7.26505721 C35.8321757,6.78333305 35.4402274,6.39138476 34.9563136,6.39138476 L28.5668995,6.39138476 C28.0829857,6.39138476 27.6910374,6.78333305 27.6910374,7.26505721 L27.6910374,12.7807988 L22.1774854,12.7807988 C21.6935716,12.7807988 21.3016233,13.1727471 21.3016233,13.6544713 L21.3016233,20.046075 C21.3016233,20.5277992 21.6935716,20.9175578 22.1774854,20.9175578 L22.1774854,20.9175578 Z" id="Fill-9" fill="#FFFFFF"></path>
                </g>
            </g>
        </g>
    </g>
</svg>