
<svg viewBox="0 0 54 64" version="1.1" xmlns="http://www.w3.org/2000/svg" xmlns:xlink="http://www.w3.org/1999/xlink">
    <defs>
        <polygon id="path-1s2sfjn3bo-1" points="0 0 53.5196 0 53.5196 37.4947819 0 37.4947819"></polygon>
    </defs>
    <g id="Xeristar" stroke="none" stroke-width="1" fill="none" fill-rule="evenodd">
        <g id="pagina-XERISTAR-completa" transform="translate(-247.000000, -1168.000000)">
            <rect fill="none" x="0" y="0" width="1440" height="10763"></rect>
            <g id="Group" transform="translate(220.000000, 1153.000000)">
                <g id="Group-10" transform="translate(27.000000, 15.000000)">
                    <path d="M21.5308553,1.81587445 C27.3448393,1.81587445 32.0733945,6.54670527 32.0733945,12.3606893 C32.0733945,18.1746733 27.3448393,22.9032285 21.5308553,22.9032285 C15.7123202,22.9032285 10.9814894,18.1746733 10.9814894,12.3606893 C10.9814894,6.54670527 15.7123202,1.81587445 21.5308553,1.81587445 M9.1633394,12.3606893 C9.1633394,19.1759073 14.7133617,24.7213785 21.5308553,24.7213785 C28.3460733,24.7213785 33.8915445,19.1759073 33.8915445,12.3606893 C33.8915445,5.54547123 28.3460733,0 21.5308553,0 C14.7133617,0 9.1633394,5.54547123 9.1633394,12.3606893" id="Fill-1" fill="#FFFFFF"></path>
                    <g id="Group-5" transform="translate(0.000000, 26.583741)">
                        <mask id="mask-1s2sfjn3bo-2" fill="white">
                            <use xlink:href="#path-1s2sfjn3bo-1"></use>
                        </mask>
                        <g id="Clip-4"></g>
                        <path d="M45.8305777,35.6770871 C42.5924958,35.6770871 39.9597054,33.0442967 39.9597054,29.8062148 C39.9597054,26.5681329 42.5924958,23.9353425 45.8305777,23.9353425 C49.0686596,23.9353425 51.70145,26.5681329 51.70145,29.8062148 C51.70145,33.0442967 49.0686596,35.6770871 45.8305777,35.6770871 L45.8305777,35.6770871 Z M36.4849682,34.6690264 C33.6974416,33.7838445 26.0448279,30.500252 26.0448279,21.225184 L26.0334502,13.7750926 C28.0017853,13.0947085 31.1169885,12.3164766 36.2596906,12.3164766 C40.2009118,12.3164766 43.7917011,12.8216447 46.9433128,13.8206032 L46.9364862,21.229735 C46.9364862,21.5778914 46.8955266,21.8919148 46.8727713,22.221867 C46.529166,22.1763563 46.1878362,22.1171925 45.8305777,22.1171925 C41.5912618,22.1171925 38.1415554,25.5668988 38.1415554,29.8062148 C38.1415554,31.1442275 38.5147427,32.3821169 39.1177586,33.4789232 C38.041432,34.0591839 37.0925352,34.4505754 36.4849682,34.6690264 L36.4849682,34.6690264 Z M1.81723977,28.1564541 L1.81723977,14.7786021 C1.81723977,7.71307558 6.80975675,4.34983943 11.2925546,2.75241604 C10.926194,3.88563093 10.7236716,4.97788624 10.7236716,6.42740006 L10.7236716,10.6439607 C7.52199824,11.0125968 5.03711741,13.2517202 5.03711741,15.9823585 L5.03484187,21.8509553 C5.02346422,22.3857052 5.01208656,22.9932723 5.46946847,23.4597563 C5.76528761,23.762402 6.18170995,23.9148627 6.71190888,23.9148627 C7.2125259,23.9148627 7.57205994,23.5029914 7.57205994,23.0046499 C7.57205994,22.581401 7.24893441,22.2241425 6.84616526,22.1217435 C6.84616526,22.0443755 6.8484408,21.9601808 6.85071633,21.8873638 L6.85526739,15.9823585 C6.85526739,14.0003702 8.99654291,12.3870181 11.6338844,12.3870181 C14.2689503,12.3870181 16.4125014,14.0003702 16.4125014,15.9823585 L16.4170524,21.8828127 C16.419328,21.9533542 16.4216035,22.0352733 16.4216035,22.1126414 C15.9824258,22.1740808 15.641096,22.5518191 15.641096,23.0114765 C15.641096,23.5120935 16.0484163,23.9194137 16.5513088,23.9194137 C17.0815077,23.9194137 17.5024811,23.7669531 17.7983003,23.4643074 C18.2579577,22.9955478 18.2443045,22.3834297 18.2329269,21.8464042 L18.2306513,15.9823585 C18.2306513,13.2517202 15.748046,11.0103213 12.5418216,10.6439607 L12.5418216,6.42740006 C12.5418216,4.71620007 12.8512939,3.59208731 13.4702386,2.09251179 C13.7546801,2.01969477 14.0345705,1.95370435 14.3053588,1.89226499 L20.9180545,7.9429043 C21.2639354,8.26147876 21.7964098,8.26147876 22.1445662,7.9429043 L28.7481598,1.90136711 C29.2738076,2.01741924 29.7562204,2.16987988 30.2500108,2.31096285 C30.8211693,3.77185433 31.0919576,4.80722135 31.0919576,6.42740006 L31.0919576,10.8009724 C28.1633481,11.1605064 26.1722577,11.7771755 24.8069385,12.2868947 C24.44968,12.4188755 24.2153002,12.7602053 24.2153002,13.1402192 L24.2266779,21.2274595 C24.2266779,23.9785776 24.8410715,26.2632116 25.7899683,28.1564541 L1.81723977,28.1564541 Z M40.5536193,10.7327064 C39.1655448,10.593899 37.7433374,10.5006022 36.2596906,10.5006022 C35.0309033,10.5006022 33.934097,10.5506639 32.9101076,10.6257564 L32.9101076,6.42740006 C32.9101076,5.09393836 32.7417183,4.09270433 32.4254193,3.04595966 C36.5646118,4.68889369 39.3680671,7.32395962 40.5536193,10.7327064 L40.5536193,10.7327064 Z M48.6613394,22.6724223 C48.702299,22.1991116 48.7546362,21.7349031 48.7546362,21.229735 L48.7614628,13.1629745 C48.7614628,12.7784096 48.5157054,12.4302532 48.1493447,12.3050989 C46.3994607,11.7066341 44.5198713,11.2538032 42.5287809,10.9511575 C41.0155522,5.43981921 36.1345363,1.56003733 28.6616896,0.0286043618 C28.3749725,-0.0351105313 28.0791534,0.0513596807 27.8652534,0.249330956 L21.5301726,6.04283517 L15.1859897,0.240228828 C14.9720897,0.0445330851 14.6808216,-0.041937127 14.3941046,0.0195022342 C5.24646634,1.87861179 -0.000910212759,7.26024473 -0.000910212759,14.7786021 L-0.000910212759,29.0666669 C-0.000910212759,29.5672839 0.406409997,29.9746041 0.909302546,29.9746041 L26.8981523,29.9746041 C30.01108,34.3754828 34.9057491,36.0980605 36.2437618,36.494003 C36.3279565,36.5190339 36.4144267,36.5326871 36.5008969,36.5326871 C36.5987448,36.5326871 36.6965927,36.5144828 36.7898895,36.4826253 C37.4520693,36.2618988 38.7218161,35.7681083 40.1713299,34.9693966 C41.5776086,36.5099317 43.5846277,37.495237 45.8305777,37.495237 C50.0698936,37.495237 53.5196,34.0455307 53.5196,29.8062148 C53.5196,26.5681329 51.5012032,23.8033616 48.6613394,22.6724223 L48.6613394,22.6724223 Z" id="Fill-3" fill="#FFFFFF" mask="url(#mask-1s2sfjn3bo-2)"></path>
                    </g>
                    <path d="M47.8883412,53.7808311 L45.0257221,57.6810927 L43.2212253,56.2679874 C42.8252827,55.9630662 42.2563998,56.0290566 41.9469274,56.4227236 C41.6374551,56.8186661 41.7079966,57.3898247 42.1016636,57.699297 L44.6434327,59.6881119 C44.807271,59.8109906 45.0006912,59.8815321 45.2032136,59.8815321 C45.2464487,59.8815321 45.2851327,59.876981 45.3283678,59.8724299 C45.5695742,59.838297 45.7903008,59.7063161 45.9359348,59.5106204 L49.3515082,54.8571576 C49.6473274,54.452113 49.5608572,53.88323 49.158088,53.5874109 C48.7553189,53.2893162 48.1864359,53.3757864 47.8883412,53.7808311" id="Fill-6" fill="#FFFFFF"></path>
                    <path d="M34.6686387,56.6386716 C32.0881855,55.1026875 29.5213855,52.4039067 29.5213855,47.7481685 L29.5145589,42.9604493 C30.6978355,42.723794 32.3999334,42.4803121 34.6686387,42.3938419 L34.6686387,56.6386716 Z M35.5629227,40.5529366 C32.1336961,40.614376 29.7739696,41.0194206 28.3949972,41.3470972 C27.9854015,41.4426696 27.6986845,41.8090302 27.6986845,42.2300036 L27.7032355,47.7481685 C27.7032355,54.4814673 32.3976578,57.667212 35.1942865,58.9665407 C35.3171653,59.023429 35.4468706,59.0530109 35.5765759,59.0530109 C35.7495163,59.0530109 35.9179057,59.0029492 36.0658152,58.9073769 C36.3275014,58.741263 36.4867886,58.454546 36.4867886,58.1427982 L36.4867886,41.4608738 C36.4867886,41.2173919 36.3889408,40.9830121 36.2137248,40.8146228 C36.0407844,40.6439579 35.8701195,40.580243 35.5629227,40.5529366 L35.5629227,40.5529366 Z" id="Fill-8" fill="#FFFFFF"></path>
                </g>
            </g>
        </g>
    </g>
</svg>