
<svg width="33px" height="49px" viewBox="0 0 33 49" version="1.1" xmlns="http://www.w3.org/2000/svg" xmlns:xlink="http://www.w3.org/1999/xlink">
    <defs>
        <polygon id="path-88wgdv2dh4-1" points="0 0 32.03354 0 32.03354 33.5890989 0 33.5890989"></polygon>
    </defs>
    <g id="Xeristar" stroke="none" stroke-width="1" fill="none" fill-rule="evenodd">
        <g id="pagina-XERISTAR-completa" transform="translate(-352.000000, -1928.000000)">
            <rect fill="none" x="0" y="0" width="1440" height="10763"></rect>
            <g id="Group" transform="translate(330.000000, 1916.000000)">
                <g id="Group-6" transform="translate(22.330000, 12.320000)">
                    <g id="Group-3" transform="translate(0.000000, 15.117986)">
                        <mask id="mask-88wgdv2dh4-2" fill="white">
                            <use xlink:href="#path-88wgdv2dh4-1"></use>
                        </mask>
                        <g id="Clip-2"></g>
                        <path d="M17.2607723,19.7714651 C17.1910761,19.7981572 17.1228628,19.8248494 17.0561325,19.8545073 L10.1028287,22.9285527 L12.7527655,18.0142322 L17.2607723,19.7714651 Z M30.4526236,30.9940292 C29.5347103,32.1892442 28.4640587,31.788862 28.2193807,31.6761618 L19.5103269,26.1019522 C19.3175503,25.9788717 19.0728723,25.9773888 18.8815786,26.0960206 C18.8815786,26.0960206 11.9164116,30.378627 9.95305607,31.5397353 C8.02529003,32.6771173 5.04170135,32.9366242 3.04127336,30.8220132 C1.64141864,29.3435649 0.165936169,24.838524 2.16043257,19.038914 C4.21424485,13.0747024 6.80634873,11.7890308 8.57841059,11.339713 C8.95506642,11.2448076 9.43107634,11.181043 9.95305607,11.181043 C10.8101705,11.181043 11.7933312,11.3515762 12.6845523,11.8275861 L18.9305142,15.0855107 C19.0788039,15.1626214 19.25082,15.1700358 19.408007,15.1166515 C19.5651941,15.0588186 19.6897575,14.937221 19.7520391,14.7844826 L22.0371833,9.15688869 C22.6629659,7.62505614 24.1503115,8.21080043 24.2111103,8.23452679 C25.2639671,8.6645669 25.5472004,9.33780212 25.1319893,10.4114195 L21.8651673,18.4576184 C21.3683968,19.6810084 20.2636386,19.6172438 19.4628742,19.3607026 L12.6949325,16.7211461 C12.4205966,16.6158604 12.1017738,16.7285605 11.9594156,16.9925162 L8.24031008,23.8865041 C8.12019543,24.1104216 8.15578496,24.3832746 8.327801,24.5686367 C8.49981705,24.7554817 8.7697043,24.8073831 9.00103622,24.7095119 L17.5365911,20.9355392 C18.3477357,20.5737123 19.8869828,20.6196821 21.1533768,21.4234123 L30.1916337,28.4034083 C30.9671888,29.1166817 31.0739574,30.1814017 30.4526236,30.9940292 L30.4526236,30.9940292 Z M23.7291688,32.1314112 L17.9073153,28.0816196 C18.4559872,27.745002 18.9067879,27.4691832 19.1840896,27.2971671 L26.0350735,31.6806105 C24.9303153,32.7171555 23.8211084,32.1744152 23.7291688,32.1314112 L23.7291688,32.1314112 Z M18.0600537,10.3283773 C15.537646,10.3283773 13.4867995,8.2775308 13.4867995,5.75512308 C13.4867995,3.23568115 15.537646,1.18483467 18.0600537,1.18483467 C20.5809785,1.18483467 22.6333079,3.23568115 22.6333079,5.75512308 C22.6333079,6.23706459 22.5443341,6.70566003 22.3975273,7.15942649 C21.8147488,7.41151898 21.279423,7.88159731 20.9413225,8.70905381 L20.6017391,9.54689059 C19.8484274,10.0540413 18.976484,10.3283773 18.0600537,10.3283773 L18.0600537,10.3283773 Z M30.9538427,27.500324 L21.8562699,20.4728753 C21.8414409,20.4610122 21.8280949,20.4521148 21.8132659,20.4417345 C21.7776764,20.4194911 21.740604,20.3957647 21.7035315,20.3735213 C22.2522034,20.0784248 22.6852093,19.5831372 22.9610281,18.9039704 L26.2322988,10.8459083 C26.8832906,9.16430318 26.3108924,7.81338405 24.6589452,7.13866594 C24.3786776,7.02596577 24.04206,6.95033802 23.6846819,6.93106036 C23.7647583,6.54550715 23.8151768,6.15402236 23.8151768,5.75512308 C23.8151768,2.5817236 21.2334532,0 18.0600537,0 C14.8851713,0 12.3034477,2.5817236 12.3034477,5.75512308 C12.3034477,8.92852256 14.8851713,11.513212 18.0600537,11.513212 C18.7065968,11.513212 19.3353451,11.3990289 19.9329526,11.1929062 L18.9008563,13.7360745 L13.2376728,10.7821438 C11.508615,9.85978185 9.49187511,9.88943979 8.28627989,10.1934337 C6.24877947,10.7094818 3.28150267,12.146409 1.04084537,18.6533608 C-1.13901315,24.9927453 0.527763026,29.889271 2.18119313,31.6361236 C3.50393721,33.0330125 5.1647818,33.5890989 6.77965658,33.5890989 C8.15133627,33.5890989 9.48890932,33.1872338 10.5551122,32.5584855 C11.7162205,31.8733871 14.6197328,30.0983595 16.8070058,28.7578206 L23.1004205,33.1323666 C23.4370381,33.3221775 23.9619836,33.4927106 24.5670055,33.4927106 C25.3351462,33.4927106 26.2263672,33.1813022 27.0345461,32.3182562 L27.639568,32.7067752 C28.6405235,33.1961312 30.2272232,33.2332036 31.3912973,31.7132343 C32.3848383,30.4156994 32.215788,28.6555007 30.9538427,27.500324 L30.9538427,27.500324 Z" id="Fill-1" fill="#7DA1C4" mask="url(#mask-88wgdv2dh4-2)"></path>
                    </g>
                    <path d="M10.0853305,3.99492439 C10.2232399,3.99492439 10.3611493,4.00233888 10.4975758,4.01568495 C10.711113,4.03199682 10.926133,3.93264272 11.0462477,3.75172929 C12.1080019,2.144269 13.8874783,1.18335177 15.8078298,1.18335177 C17.129091,1.18335177 18.3732415,1.62525506 19.402372,2.46160894 C19.5818026,2.60841574 19.8324122,2.63362499 20.0400177,2.532788 C20.5367882,2.28366131 21.0661824,2.15909797 21.6133714,2.15909797 C23.3305661,2.15909797 24.7956683,3.38545375 25.0981792,5.07595627 C25.144149,5.33398034 25.3532375,5.53120564 25.6142274,5.56086358 C27.3966695,5.76105467 28.7416571,7.26619507 28.7416571,9.06198329 C28.7416571,11.0075441 27.159406,12.5883122 25.2153281,12.5883122 L10.0853305,12.5883122 C7.71566114,12.5883122 5.7878951,10.6605462 5.7878951,8.29087687 C5.7878951,5.92269043 7.71566114,3.99492439 10.0853305,3.99492439 M10.0853305,13.7731469 L25.2153281,13.7731469 C27.8118807,13.7731469 29.9250088,11.6585359 29.9250088,9.06198329 C29.9250088,6.80649702 28.3383091,4.89504285 26.1688308,4.45165666 C25.6127445,2.41415624 23.7606062,0.974263299 21.6133714,0.974263299 C21.0068665,0.974263299 20.4166736,1.08992926 19.8546556,1.3168125 C18.6816841,0.465629644 17.258103,0 15.8078298,0 C13.6057278,0 11.5548814,1.04544235 10.2573465,2.81305552 C7.21295907,2.75225675 4.60454333,5.2108999 4.60454333,8.29087687 C4.60454333,11.3145038 7.06318648,13.7731469 10.0853305,13.7731469" id="Fill-4" fill="#7DA1C4"></path>
                </g>
            </g>
        </g>
    </g>
</svg>