<svg width="71px" height="66px" viewBox="0 0 71 66" version="1.1" xmlns="http://www.w3.org/2000/svg" xmlns:xlink="http://www.w3.org/1999/xlink">
    <defs>
        <polygon id="path-ttwcsu038q-1" points="0 0 70.0672485 0 70.0672485 65.9162482 0 65.9162482"></polygon>
    </defs>
    <g id="Xeristar" stroke="none" stroke-width="1" fill="none" fill-rule="evenodd">
        <g id="pagina-XERISTAR-completa" transform="translate(-335.000000, -2526.000000)">
            <g id="Group-3" transform="translate(335.000000, 2526.000000)">
                <mask id="mask-ttwcsu038q-2" fill="white">
                    <use xlink:href="#path-ttwcsu038q-1"></use>
                </mask>
                <g id="Clip-2"></g>
                <path d="M11.4978595,62.4516808 C9.0637155,62.2357238 6.63265665,62.0135966 4.20776799,61.779129 C4.7692562,55.2356317 4.547129,48.6489431 3.54755657,42.1794882 C6.24393404,42.1548074 8.9804178,42.1640627 11.6953059,42.2072541 C12.3925385,48.9358574 12.3246663,55.7446732 11.4978595,62.4516808 L11.4978595,62.4516808 Z M12.0408371,38.7797079 C8.9372264,38.7272612 5.79967963,38.7180059 2.70840935,38.7550271 C1.89702803,38.7704526 1.13809342,39.1252391 0.632137005,39.7330038 C0.123095493,40.3407686 -0.0928615122,41.155235 0.0367126909,41.9697014 C1.12266792,48.55639 1.36022062,55.2726529 0.746285708,61.9395542 C0.601286004,63.5468913 1.77670913,64.987633 3.37787607,65.1480582 C6.12361513,65.4133768 8.8724393,65.6663551 11.6181784,65.9069929 C11.7014761,65.9131631 11.7847738,65.9162482 11.8649864,65.9162482 C13.3489195,65.9162482 14.6693423,64.7161442 14.8698738,63.1334879 C15.7645529,56.0439279 15.8416804,48.8433044 15.0950861,41.7259785 C14.9192354,40.0939605 13.5772169,38.8013036 12.0408371,38.7797079 L12.0408371,38.7797079 Z M68.6524234,46.5911813 C67.0790224,44.8789508 62.8894565,45.0424611 49.1607612,47.3686265 C48.8306554,47.4241583 48.4912944,47.4796901 48.1581036,47.538307 C48.4357626,46.8719254 48.5344858,46.211714 48.448103,45.5515026 C48.2383162,43.9256548 46.9456593,42.6175724 44.6133236,41.6673616 C39.5445042,39.6003445 31.3813294,37.7307739 25.4641075,38.5113042 C23.7642174,38.7365165 21.6478387,39.3288557 19.1705033,40.2759815 C18.2850796,40.6122574 17.8408252,41.6025745 18.1801862,42.4879982 C18.5164621,43.376507 19.5129495,43.8207614 20.392203,43.4814004 C22.6227303,42.6299128 24.4768755,42.1054458 25.911447,41.9141696 C30.9864366,41.247788 38.5079106,42.882891 43.3175816,44.8450147 C44.6997064,45.4065029 45.0328973,45.8939487 45.0452377,45.9926719 C45.0452377,45.9988421 45.0730036,46.7238406 43.0090716,48.2941565 C39.9609927,50.1637272 34.3368553,49.7688344 32.4179231,49.4572393 C31.4800526,49.3091545 30.6007991,49.9385149 30.4465441,50.8733002 C30.2953742,51.8080855 30.9247346,52.6904241 31.8595199,52.8446791 C32.01686,52.86936 33.8062181,53.1531892 36.1570643,53.1531892 C38.6313146,53.1531892 41.7225849,52.8261685 44.1844947,51.5551073 C44.6688554,51.5551073 48.1426781,51.021385 49.7345898,50.7498962 C54.1030915,50.0125573 64.2469005,48.2941565 66.2306199,49.0284104 C66.7612571,49.6670261 66.6687041,50.0865997 66.5391299,50.4290458 C64.8886013,54.751271 48.9262935,60.5543442 34.913769,61.9302989 C32.9948368,62.1154049 26.1150636,61.8284906 19.6949704,60.9523221 C18.760185,60.8227479 17.8901868,61.4798743 17.7636977,62.4208298 C17.6341235,63.3617853 18.2912498,64.2256133 19.2291202,64.3521024 C24.3503864,65.0524201 29.9375026,65.4164619 33.2200491,65.4164619 C34.0622814,65.4164619 34.7564289,65.3917811 35.2469598,65.3424195 C47.6737429,64.123805 67.1098734,58.5490292 69.7445488,51.6538305 C70.4171007,49.8891533 70.0314631,48.0905399 68.6524234,46.5911813 L68.6524234,46.5911813 Z M27.0806999,22.4533583 L24.6434709,24.8689917 L32.3099446,32.5940823 C32.630795,32.9180178 33.0688792,33.1000387 33.525474,33.1000387 L33.5285591,33.1000387 C33.9851539,33.1000387 34.4232381,32.9180178 34.7440885,32.5940823 L49.8271428,17.4277303 L47.3929988,15.0090119 L33.5285591,28.9505791 L27.0806999,22.4533583 Z M18.791036,34.5407804 C17.1065714,31.4680207 16.2149775,27.9787726 16.2149775,24.4494181 C16.2149775,18.837621 18.4023134,13.5559297 22.3728372,9.58849103 C26.3402759,5.61796723 31.6188821,3.43063128 37.2337643,3.43063128 C48.8275703,3.43063128 58.2587213,12.8586971 58.2587213,24.4494181 C58.2587213,30.4252569 55.7011733,36.1388623 51.2462888,40.1248115 C50.5398009,40.754172 50.4780989,41.8401272 51.1105444,42.5466151 C51.4499054,42.9260824 51.9188406,43.1173586 52.3908609,43.1173586 C52.7980941,43.1173586 53.2053273,42.975444 53.532348,42.6823595 C58.7153161,38.0454541 61.6893525,31.4001485 61.6893525,24.4494181 C61.6893525,10.9675308 50.7187367,-1.09604772e-14 37.2337643,-1.09604772e-14 C30.7026074,-1.09604772e-14 24.5632583,2.54212246 19.9448635,7.16051727 C15.3264687,11.7789121 12.7843462,17.9213463 12.7843462,24.4494181 C12.7843462,28.5526012 13.8209398,32.6125929 15.7799784,36.191309 C16.2365732,37.0212009 17.279337,37.3235407 18.112314,36.870031 C18.9422059,36.4134362 19.2445457,35.3706723 18.791036,34.5407804 L18.791036,34.5407804 Z" id="Fill-1" fill="#FFFFFF" mask="url(#mask-ttwcsu038q-2)"></path>
            </g>
        </g>
    </g>
</svg>