
<svg width="69px" height="107px" viewBox="0 0 69 107" version="1.1" xmlns="http://www.w3.org/2000/svg" xmlns:xlink="http://www.w3.org/1999/xlink">
    <defs>
        <polygon id="path-muq58xvkrc-1" points="0 0 68.403 0 68.403 72.6564793 0 72.6564793"></polygon>
    </defs>
    <g id="Xeristar" stroke="none" stroke-width="1" fill="none" fill-rule="evenodd">
        <g id="pagina-XERISTAR-completa" transform="translate(-373.000000, -7601.000000)">
            <g id="Group-6" transform="translate(373.500000, 7601.000000)">
                <path d="M17.9009491,8.75543438 C18.2215632,8.75543438 18.5368336,8.77680865 18.8547758,8.80352648 C19.2929483,8.86764929 19.7124183,8.63787591 19.9528788,8.27451336 C22.3922171,4.58210862 26.4827176,2.37254371 30.8938321,2.37254371 C33.8889013,2.37254371 36.8225196,3.41721104 39.149643,5.30883372 C39.5103337,5.60005812 40.0099572,5.66150914 40.4267554,5.45311003 C41.5863095,4.87867659 42.8126581,4.58478041 44.0737399,4.58478041 C48.0520254,4.58478041 51.4451904,7.427558 52.1398541,11.3417208 C52.2333665,11.857375 52.6555083,12.2554707 53.1765061,12.3115782 C57.3017397,12.7791403 60.4143675,16.2631459 60.4143675,20.4177692 C60.4143675,24.9197243 56.7540241,28.5827394 52.252069,28.5827394 L17.9009491,28.5827394 C12.4344802,28.5827394 7.98596075,24.1342199 7.98596075,18.667751 C7.98596075,13.201282 12.4344802,8.75543438 17.9009491,8.75543438 M17.9009491,30.9579549 L52.252069,30.9579549 C58.063198,30.9579549 62.789583,26.2288982 62.789583,20.4177692 C62.789583,15.3440524 59.1933624,11.0398092 54.2933116,10.0833108 C53.0829937,5.47181251 48.9123397,2.2122367 44.0737399,2.2122367 C42.6924278,2.2122367 41.345849,2.47941505 40.0607211,3.01109995 C37.4129837,1.06336981 34.1881411,0 30.8938321,0 C25.9162995,0 21.2860988,2.37521549 18.3685112,6.39090602 C18.2135478,6.38289067 18.0585844,6.38021889 17.9009491,6.38021889 C11.1253063,6.38021889 5.61074525,11.8921082 5.61074525,18.667751 C5.61074525,25.4433938 11.1253063,30.9579549 17.9009491,30.9579549" id="Fill-1" fill="#FFFFFF"></path>
                <g id="Group-5" transform="translate(0.000000, 34.017147)">
                    <mask id="mask-muq58xvkrc-2" fill="white">
                        <use xlink:href="#path-muq58xvkrc-1"></use>
                    </mask>
                    <g id="Clip-4"></g>
                    <path d="M60.2372282,43.306938 L42.6675802,46.5130782 C40.0011403,46.9619378 38.6251719,46.0294854 37.9011185,43.2935791 C37.5404278,41.9389849 37.6660016,40.6992774 38.2591375,39.7080457 C38.8522735,38.7194858 39.8835819,38.0274939 41.190084,37.7202388 L55.2490085,35.0057068 L54.8001489,32.6732399 L51.6928647,33.2717194 C51.5352295,32.5209482 51.3134715,31.6178854 51.0596521,31.0728416 C49.654294,28.0563981 45.9324996,26.4212666 42.0076497,27.0838689 C37.6472991,27.8212811 34.6174967,31.3694095 34.959485,35.3343362 C35.0503256,36.3790035 35.4938417,39.0400998 35.6327744,39.8603374 C35.2533811,41.1000449 35.2293351,42.4893723 35.6033848,43.9054175 C35.958732,45.2386375 36.5037758,46.3073508 37.2117984,47.119573 L38.8041814,55.287215 C37.1476756,55.6906543 34.8739879,55.6933261 34.0510786,55.6933261 C32.6590794,55.6933261 30.8689845,55.5383627 29.5998874,55.2204204 L31.1789114,47.1329319 C31.8922776,46.3153662 32.442665,45.2466528 32.7980122,43.9054175 C33.1774054,42.4813569 33.1533594,41.0813424 32.7659507,39.8309477 C32.9075553,38.9866642 33.343056,36.3709882 33.4312248,35.337008 C33.7785567,31.3694095 30.7487542,27.8212811 26.3857319,27.0838689 C22.460882,26.4212666 18.7364158,28.0563981 17.3337295,31.0701698 C17.0799101,31.6125418 16.8554803,32.5182764 16.6978451,33.2690476 L13.601248,32.6732399 L13.1523884,35.0057068 L27.1658926,37.7095517 C28.5204868,38.0274939 29.5517953,38.7194858 30.1422594,39.7080457 C30.7380671,40.6992774 30.8609691,41.9416567 30.5029502,43.2935791 C29.7762251,46.0321571 28.3788823,46.9646096 25.755191,46.5157499 L8.1962301,43.3122816 C4.49046645,42.5428079 2.58815663,40.6244674 2.37975752,37.4503887 C2.07250243,32.7560652 11.1351919,17.446746 20.7162074,14.6467169 C21.2478923,21.6708356 27.075052,27.2441759 34.243447,27.2441759 C41.3958113,27.2441759 47.2149557,21.6815227 47.7573277,14.6654194 C57.30361,17.5188841 66.3262227,32.7667523 66.0243112,37.4503887 C65.8132403,40.6244674 63.9109305,42.5428079 60.2372282,43.306938 L60.2372282,43.306938 Z M53.7287637,63.9758548 C53.9932703,65.4480075 53.7073895,66.8774116 52.9245569,67.9995607 C52.133709,69.1350687 50.8726272,69.9072141 49.3791003,70.1743924 C46.2771597,70.722108 43.9366774,69.1377404 43.3168236,66.0197692 L39.9583918,48.7814223 C40.4553435,48.9043243 40.9790131,48.9871496 41.548103,48.9871496 C42.0343676,48.9871496 42.5420064,48.9417293 43.0763631,48.8535605 L51.4230146,47.3306439 L53.7287637,63.9758548 Z M37.3266851,35.1312806 C37.0888964,32.363313 39.2236514,29.9640514 42.4030737,29.427023 C45.2725691,28.9354148 47.9496961,30.0281742 48.9061946,32.0747604 C49.0451273,32.3740001 49.2134497,33.0499613 49.357726,33.7232508 L40.695804,35.398459 C39.4587683,35.6896834 38.4194445,36.2347272 37.5698174,36.9587805 C37.4576025,36.2293836 37.3587465,35.5320482 37.3266851,35.1312806 L37.3266851,35.1312806 Z M30.8235642,36.9507652 C29.9712653,36.2293836 28.9239261,35.6843398 27.6655161,35.3877719 L19.0329838,33.720579 C19.1772601,33.0472895 19.3455825,32.3766719 19.487187,32.0747604 C20.4383419,30.0228307 23.1154689,28.9300712 25.9903079,29.427023 C29.172402,29.9640514 31.307157,32.363313 31.0666965,35.1312806 C31.0319633,35.5293764 30.9357791,36.2240401 30.8235642,36.9507652 L30.8235642,36.9507652 Z M25.0738862,66.0170974 C24.4567042,69.1377404 22.126909,70.7327952 19.0142813,70.1743924 C17.5180826,69.9072141 16.2570008,69.1350687 15.4661529,67.9968889 C14.6833203,66.8747399 14.3974395,65.4453357 14.6672896,63.9304345 L16.9676952,47.3279721 L25.3437363,48.8562322 C25.8727494,48.9444011 26.3777165,48.9898214 26.8586375,48.9898214 C27.4223838,48.9898214 27.9407098,48.9096679 28.4349898,48.7867659 L25.0738862,66.0170974 Z M34.243447,2.37521549 C40.4419846,2.37521549 45.4863118,7.41954265 45.4863118,13.6260956 C45.4863118,19.8246332 40.4419846,24.8716322 34.243447,24.8716322 C28.0342223,24.8716322 22.9872233,19.8246332 22.9872233,13.6260956 C22.9872233,7.41954265 28.0342223,2.37521549 34.243447,2.37521549 L34.243447,2.37521549 Z M47.717251,12.2047068 C46.9958694,5.36494118 41.2648939,0 34.243447,0 C27.2193283,0 21.4883528,5.35425404 20.7562841,12.1860043 C9.52945005,14.8524442 -0.358820518,31.9919351 0.00988559878,37.6053521 C0.204925791,40.5790471 1.69845274,44.3890103 7.74202692,45.6447485 L14.6298847,46.9004868 L12.3214638,63.5590566 C11.9474141,65.651063 12.3722276,67.7136799 13.5184227,69.3568267 C14.6726332,71.0133324 16.476087,72.1354815 18.5974831,72.512203 C19.1478705,72.6110589 19.6822272,72.6564793 20.2058967,72.6564793 C23.8395222,72.6564793 26.6448949,70.3186687 27.4063531,66.4739723 L29.1430124,57.5715899 C31.1228039,58.0364802 33.527409,58.0658698 34.0510786,58.0658698 C35.5472773,58.0658698 37.5618021,57.9937317 39.2557128,57.6009795 L40.9870284,66.4793159 C41.7484867,70.3186687 44.5538594,72.6564793 48.1901566,72.6564793 C48.7111544,72.6564793 49.2455111,72.6110589 49.7958985,72.512203 C51.9146228,72.1354815 53.7207484,71.0133324 54.8722871,69.3594985 C56.0184822,67.7163517 56.4432957,65.6537348 56.0745896,63.6071487 L53.7608251,46.9031585 L60.6941032,45.639405 C66.7002724,44.3890103 68.1964711,40.5790471 68.3941831,37.6026803 C68.7575457,32.0026222 58.9066801,14.9299259 47.717251,12.2047068 L47.717251,12.2047068 Z" id="Fill-3" fill="#FFFFFF" mask="url(#mask-muq58xvkrc-2)"></path>
                </g>
            </g>
        </g>
    </g>
</svg>