<svg xmlns="http://www.w3.org/2000/svg" version="1.0" viewBox="0 0 907 698" fill="#fff"><path d="M892 4.9c-24.4 10.3-36.1 16.5-56 29.5-44.1 29.1-82.5 68.7-117.9 121.4-42.7 63.7-78.9 150.7-97.6 234.6-2.5 11.1-4.5 21-4.5 21.9 0 .9-.2 1.7-.5 1.7s-10.3-8.1-22.2-18l-21.7-17.9-3.7-13.7c-20.8-75.9-57.7-122.4-111-139.8-17.6-5.7-27.6-7.1-50.9-7.1-39.3.1-62.1 5.7-85.1 21-20.5 13.7-38.2 35-52.2 63-4.3 8.6-5.1 9.5-17.8 20.6-25.7 22.4-48.2 45.9-56.7 59-2 3.2-4 5.8-4.3 5.8-.4.1-.9-4.7-1.3-10.7-2.6-39.6-9.7-112.3-13.1-133.7-1.2-7.6-1.8-9.4-4.1-11.4-2.4-2-3.4-2.2-7.7-1.7-14.8 2-50 20.9-112.7 60.7-19.7 12.5-22.6 16.2-21.8 28.2.7 11.6 10.7 28.4 26 44.4 10 10.3 13.8 11.8 30.1 11.8h12.8l-.6 2.5c-1.4 7-2.5 44.4-2.5 85.6 0 45.6 1.4 140.7 2.5 174.2l.6 17.3-2.8-.8c-5-1.3-46.2-.6-64.8 1.1-24.7 2.3-30.7 3.4-30.3 5.5.4 2 8.4 2 29.3 0 14-1.4 66.8-2 68-.8.3.4.9 7.1 1.2 15 .6 16 .7 16.2 8.2 21.1 11.5 7.3 19.6.6 20.8-17.2.4-5.9.2-8.3-1.1-10.8-2.4-4.7-8.7-8.8-16.6-10.8l-6.8-1.8-.6-17c-1.1-29-2.3-107.5-2.4-164.6-.2-48.7.6-80.5 2.4-95.6.6-5 .7-5.2 4.7-6.3 9.5-2.8 22.4-10 28.4-15.9 13.7-13.5 24.3-37.9 24.3-56.1 0-10.1-7.3-17.8-15.5-16.6-17.7 2.7-35.4 32.3-43.9 73.5l-2.3 11.5-3.9.7c-6.8 1.2-16.8.9-22.5-.8-4.7-1.3-6.6-2.8-14.4-10.7-19.2-19.6-27.6-38.5-21.6-48.2 1.1-1.9 8.8-7.5 21.2-15.4 57.4-36.7 99.2-58.9 109.3-57.9 3.7.4 3.4-1 7.6 35.8 3.7 33.7 5.4 51.3 8.5 93.4l2.5 34-2.9 9c-10.7 33-14.4 59.3-15.7 112.8-1.2 50.8 2.6 78.2 11.1 80.4 9.9 2.5 14.3-12.3 15.4-51.6.7-26.2-.3-100.6-1.8-129.5l-1-20 2.4-5c3.9-7.9 14.4-21.2 28.3-35.6 12.4-12.9 37.2-36.2 37.9-35.5.2.1-.4 1.9-1.2 3.9-2.9 7-9.5 31-11.9 43.6-4.2 21.4-5.8 36.5-6.3 61.1-.8 37.2 2.8 67.7 10.7 90.5 17.2 49.5 49.2 92.7 75.5 102 15.5 5.5 38.6 1.2 59.3-10.9l6.1-3.7 8.3 6.6c9.2 7.3 25.2 15.6 34.3 17.9 14.6 3.7 27.5 2.9 41-2.3 10.3-4 19.9-10.7 32.6-22.9 37.2-35.7 61.4-82.3 69.6-134.2 2.7-17.3 2.4-53.6-.5-72.7-1.2-7.8-2.5-15-2.9-15.9-.4-1-.2-1.5.5-1.3.6.2 9.9 7.6 20.6 16.4 15.7 12.9 19.5 16.5 19.5 18.5 0 1.4-.8 7.8-1.9 14.3-4.2 25.5-5.4 40.5-5.4 66.7 0 28.5 1.1 36.4 6.3 47.6 3.8 8.1 7.6 10.8 14.1 9.9 20-2.5 29-16.1 29-43.9 0-32-13.3-69.9-32.3-91.9l-5-5.8 2.3-11.2c12.4-62.3 35.6-129.2 64.7-186.9 42.4-84 97.5-148.2 160.8-187.4 13.1-8 34.5-18.8 48.8-24.4 6.3-2.5 10.7-4.8 10.7-5.6 0-2.1-1.6-1.7-14 3.5zM439 225.8c27 5.6 48.1 16.5 66.9 34.7 21.3 20.5 36.2 44.8 48.4 79 4.4 12.3 9.9 30.7 9.3 31.2-.5.5-57.6-46.3-59.3-48.6-2.8-3.7-6.1-6.2-13-9.7-9.8-5-18.8-5.6-33.3-2.3-6.5 1.4-10.6 1.9-11.4 1.3-10.6-8-18.5-11.7-28.9-13.4-6.5-1-10.9-.1-14.4 3.2-6 5.6 1.3 18.3 13 22.7 4.9 1.9 12 1.2 21.3-1.9l8.9-3.1 3.4 3.8c17.4 19.7 30.7 53.4 34.1 86.2 4.5 44.7-6.4 97.9-26 127.2-14.7 22-38.9 47.1-60.1 62.7l-5.6 4.1-5-5.2c-24.2-24.9-45.2-68.5-54.7-113.4-6.8-32.4-7.9-56.3-4.2-99.3 5.3-63 5.3-66.3.5-80.7-4.3-12.9-11.3-18.6-22.9-18.7-5.8 0-7.5.5-13.5 3.8-3.9 2.1-8.8 5.3-11 7-6.6 5.3-7 5.2-3.6-1 8.8-15.6 21.9-32.4 32-41.2 20-17.3 37-25 63.2-28.6 6.3-.9 12.8-1.8 14.4-2 1.7-.2 11.8-.3 22.5-.1 14.4.3 22 .9 29 2.3zM149.4 289c3.3 1.2 5.6 5.9 5.6 11.2 0 6.9-3.8 20.6-8 29.3-8.8 18.3-19.9 28.4-37.8 34.6l-5.4 1.8.7-4.2c1.5-9.1 6.8-27.7 10.6-37.1 7-17.6 15.7-29.8 24-34 5.9-2.9 6.7-3 10.3-1.6zm164.3 3.9c5.4 2.5 8.6 7.5 11.4 17.6 2.6 9.6 2.4 18.1-1.7 66-4.1 47.2-3.3 72.5 3.1 105.4 8.9 45.8 29.9 90.5 55.4 118.3l5.2 5.7-2.3 1.5c-1.3.8-6.6 3.5-11.8 6-31.6 14.9-52.6 9.9-76.6-18.1-15.8-18.5-33.2-50.3-41.8-76.3-14.5-43.8-13.7-115.7 2-171 5.6-19.9 10.9-32.3 15.2-36.2 4-3.6 18.1-14.3 22.3-17 6.2-4 13.5-4.6 19.6-1.9zm106.4 11.5c6.7 1.5 13 4.1 18.3 7.9l2.8 2-6.3 2.4c-3.5 1.4-8.5 2.5-11.1 2.5-10.5.1-21.7-11.3-14.8-14.9 3.1-1.6 3-1.6 11.1.1zm60.2 11.1c11.8 3.1 19.1 8 52.9 35.7l32.6 26.8 1.7 7.2c6.3 27.7 7.7 64.1 3.4 90.6-7.9 50.1-30.6 93.4-67.1 128.8-21 20.3-33.4 26.5-53.3 26.5-17 0-33.2-6.7-49.7-20.3l-4.7-3.9 10.2-7.7c19.5-14.7 44.4-41.5 57.6-62.1 12.6-19.7 20.6-44.7 24.7-77 2.3-19 1.6-54.1-1.5-69.4-5.1-25.4-18.3-54.7-31.4-69.7l-3-3.4 2.9-.8c10.1-2.8 17.4-3.2 24.7-1.3zM187.5 481c.5 34.8.4 56.9-.4 71-2.2 39.4-6.4 52.7-11.5 37.2-3-9.1-3.9-21.4-3.9-55.2 0-35.3 1.1-55.8 4.3-78 1.9-13 7.2-37 8.8-39.4 1.3-2.1 2 13.7 2.7 64.4zM628 434.5c9.4 14 17.8 35.2 22.1 55.5 3.2 15 3.2 34.7.1 44.6-3.9 12.7-13.2 20.4-24.4 20.4-4.9 0-7.9-3-10.8-10.8-6.8-18.1-6.6-62.1.6-108.7 2.3-14.8 2.1-14.5 5.5-10.4 1.6 1.9 4.7 6.1 6.9 9.4zM110.3 662c4.2 1.3 7.7 3.2 9.8 5.2 3.1 3.2 3.1 3.3 2.6 10.4-.9 12.5-4.9 17.4-11.3 14.1-6.4-3.3-7.1-5.1-7.7-19-.3-7-.4-12.7-.2-12.7s3.2.9 6.8 2z"/><path fill="#ABABAB" fill-opacity=".3" d="M773.9 90.7c-1.3 1.6-1.2 1.7.4.4.9-.7 1.7-1.5 1.7-1.7 0-.8-.8-.3-2.1 1.3zM56 364.4c0 .2.8 1 1.8 1.7 1.5 1.3 1.6 1.2.3-.4s-2.1-2.1-2.1-1.3zm40.1 21.2c0 1.1.3 1.4.6.6.3-.7.2-1.6-.1-1.9-.3-.4-.6.2-.5 1.3zm-.9 16.9c0 1.6.2 2.2.5 1.2.2-.9.2-2.3 0-3-.3-.6-.5.1-.5 1.8zm89.3 15.5c.3.5.8 1 1.1 1 .2 0 .4-.5.4-1 0-.6-.5-1-1.1-1-.5 0-.7.4-.4 1zm-90.1 25c0 7.4.1 10.5.3 6.7.2-3.7.2-9.7 0-13.5-.2-3.7-.3-.6-.3 6.8zm143.9-3c0 4.7.2 6.6.4 4.2.2-2.3.2-6.1 0-8.5-.2-2.3-.4-.4-.4 4.3zM94.4 483.5c0 8.8.2 12.3.3 7.7.2-4.6.2-11.8 0-16-.1-4.2-.3-.5-.3 8.3zm92.8-7c0 1.6.2 2.2.5 1.2.2-.9.2-2.3 0-3-.3-.6-.5.1-.5 1.8zm5.9 35.1c0 1.1.3 1.4.6.6.3-.7.2-1.6-.1-1.9-.3-.4-.6.2-.5 1.3zm-22 14c0 1.1.3 1.4.6.6.3-.7.2-1.6-.1-1.9-.3-.4-.6.2-.5 1.3zm16.1 2.4c0 1.4.2 1.9.5 1.2.2-.6.2-1.8 0-2.5-.3-.6-.5-.1-.5 1.3zm-91.9 18c0 4.7.2 6.6.4 4.2.2-2.3.2-6.1 0-8.5-.2-2.3-.4-.4-.4 4.3zm75.8-2.4c0 1.1.3 1.4.6.6.3-.7.2-1.6-.1-1.9-.3-.4-.6.2-.5 1.3zM96.3 605c0 4.1.2 5.8.4 3.7.2-2 .2-5.4 0-7.5-.2-2-.4-.3-.4 3.8zm82.5-3.3c.7.3 1.6.2 1.9-.1.4-.3-.2-.6-1.3-.5-1.1 0-1.4.3-.6.6zm-81.6 48.8c0 1.6.2 2.2.5 1.2.2-.9.2-2.3 0-3-.3-.6-.5.1-.5 1.8zm1 24c0 1.6.2 2.2.5 1.2.2-.9.2-2.3 0-3-.3-.6-.5.1-.5 1.8z"/><path fill="#7A7A7A" fill-opacity=".4" d="M470.8 314.7c.6.2 1.8.2 2.5 0 .6-.3.1-.5-1.3-.5-1.4 0-1.9.2-1.2.5zM94.3 462c0 2.5.2 3.5.4 2.2.2-1.2.2-3.2 0-4.5-.2-1.2-.4-.2-.4 2.3zm92.8 10.6c0 1.1.3 1.4.6.6.3-.7.2-1.6-.1-1.9-.3-.4-.6.2-.5 1.3zm6 42c0 1.1.3 1.4.6.6.3-.7.2-1.6-.1-1.9-.3-.4-.6.2-.5 1.3zm-6 17c0 1.1.3 1.4.6.6.3-.7.2-1.6-.1-1.9-.3-.4-.6.2-.5 1.3zm6.1 6.4c0 1.4.2 1.9.5 1.2.2-.6.2-1.8 0-2.5-.3-.6-.5-.1-.5 1.3zm-97.1 58.6c0 1.1.3 1.4.6.6.3-.7.2-1.6-.1-1.9-.3-.4-.6.2-.5 1.3zm413.3 10.6-1.9 2.3 2.3-1.9c1.2-1.1 2.2-2.1 2.2-2.3 0-.8-.8-.2-2.6 1.9zM97.2 646c0 1.4.2 1.9.5 1.2.2-.6.2-1.8 0-2.5-.3-.6-.5-.1-.5 1.3z"/><path fill-opacity=".7" d="m304.9 258.7-2.4 2.8 2.8-2.4c2.5-2.3 3.2-3.1 2.4-3.1-.2 0-1.4 1.2-2.8 2.7zm206.6-.7c1 1.1 2 2 2.3 2 .3 0-.3-.9-1.3-2s-2-2-2.3-2c-.3 0 .3.9 1.3 2zm-338.4 10.6c0 1.1.3 1.4.6.6.3-.7.2-1.6-.1-1.9-.3-.4-.6.2-.5 1.3zm2 19c0 1.1.3 1.4.6.6.3-.7.2-1.6-.1-1.9-.3-.4-.6.2-.5 1.3zm-46.7 3.6-1.9 2.3 2.3-1.9c2.1-1.8 2.7-2.6 1.9-2.6-.2 0-1.2 1-2.3 2.2zm25.8 12.3c0 1.6.2 2.2.5 1.2.2-.9.2-2.3 0-3-.3-.6-.5.1-.5 1.8zm23.9 14.1c0 1.1.3 1.4.6.6.3-.7.2-1.6-.1-1.9-.3-.4-.6.2-.5 1.3zm269.9 3.8c0 .2.8 1 1.8 1.7 1.5 1.3 1.6 1.2.3-.4s-2.1-2.1-2.1-1.3zm-24.2 4.3c.7.3 1.6.2 1.9-.1.4-.3-.2-.6-1.3-.5-1.1 0-1.4.3-.6.6zm-244.7 3.9c0 1.1.3 1.4.6.6.3-.7.2-1.6-.1-1.9-.3-.4-.6.2-.5 1.3zm61.8 9.1c-1.3 1.6-1.2 1.7.4.4.9-.7 1.7-1.5 1.7-1.7 0-.8-.8-.3-2.1 1.3zm-60.8 2.9c0 1.1.3 1.4.6.6.3-.7.2-1.6-.1-1.9-.3-.4-.6.2-.5 1.3zm1 13c0 1.1.3 1.4.6.6.3-.7.2-1.6-.1-1.9-.3-.4-.6.2-.5 1.3zm1 13c0 1.1.3 1.4.6.6.3-.7.2-1.6-.1-1.9-.3-.4-.6.2-.5 1.3zm1.1 14.4c0 1.4.2 1.9.5 1.2.2-.6.2-1.8 0-2.5-.3-.6-.5-.1-.5 1.3zm1 15c0 1.9.2 2.7.5 1.7.2-.9.2-2.5 0-3.5-.3-.9-.5-.1-.5 1.8zm136 16c0 1.9.2 2.7.5 1.7.2-.9.2-2.5 0-3.5-.3-.9-.5-.1-.5 1.8zm170 11.5c0 1.6.2 2.2.5 1.2.2-.9.2-2.3 0-3-.3-.6-.5.1-.5 1.8zm-170 6.5c0 1.4.2 1.9.5 1.2.2-.6.2-1.8 0-2.5-.3-.6-.5-.1-.5 1.3zm170 3c0 1.9.2 2.7.5 1.7.2-.9.2-2.5 0-3.5-.3-.9-.5-.1-.5 1.8zm-304 1.5c0 1.6.2 2.2.5 1.2.2-.9.2-2.3 0-3-.3-.6-.5.1-.5 1.8zm387.1 5c0 2.7.2 3.8.4 2.2.2-1.5.2-3.7 0-5-.2-1.2-.4 0-.4 2.8zM192.2 456c0 1.9.2 2.7.5 1.7.2-.9.2-2.5 0-3.5-.3-.9-.5-.1-.5 1.8zm-23.1 7.6c0 1.1.3 1.4.6.6.3-.7.2-1.6-.1-1.9-.3-.4-.6.2-.5 1.3zm18.2 2.9c0 2.7.2 3.8.4 2.2.2-1.5.2-3.7 0-5-.2-1.2-.4 0-.4 2.8zm-19.2 7.1c0 1.1.3 1.4.6.6.3-.7.2-1.6-.1-1.9-.3-.4-.6.2-.5 1.3zm-.9 12.9c0 1.6.2 2.2.5 1.2.2-.9.2-2.3 0-3-.3-.6-.5.1-.5 1.8zm-.9 19.5c0 2.5.2 3.5.4 2.2.2-1.2.2-3.2 0-4.5-.2-1.2-.4-.2-.4 2.3zm489.9 4c0 1.4.2 1.9.5 1.2.2-.6.2-1.8 0-2.5-.3-.6-.5-.1-.5 1.3zm-462.9 10c0 2.5.2 3.5.4 2.2.2-1.2.2-3.2 0-4.5-.2-1.2-.4-.2-.4 2.3zm-22.2.6c0 1.1.3 1.4.6.6.3-.7.2-1.6-.1-1.9-.3-.4-.6.2-.5 1.3zm22.1 12.4c0 1.9.2 2.7.5 1.7.2-.9.2-2.5 0-3.5-.3-.9-.5-.1-.5 1.8zm-98.1 1.6c0 1.1.3 1.4.6.6.3-.7.2-1.6-.1-1.9-.3-.4-.6.2-.5 1.3zm92.2 1.9c0 2.2.2 3 .4 1.7.2-1.2.2-3 0-4-.3-.9-.5.1-.4 2.3zm-16.2 11.1c0 1.1.3 1.4.6.6.3-.7.2-1.6-.1-1.9-.3-.4-.6.2-.5 1.3zm15.1 11.4c0 1.4.2 1.9.5 1.2.2-.6.2-1.8 0-2.5-.3-.6-.5-.1-.5 1.3zm-19.9 2.5c0 2.2.2 3 .4 1.7.2-1.2.2-3 0-4-.3-.9-.5.1-.4 2.3zm-65.2 22.1c0 1.1.3 1.4.6.6.3-.7.2-1.6-.1-1.9-.3-.4-.6.2-.5 1.3zm-4.9 9.4c0 1.4.2 1.9.5 1.2.2-.6.2-1.8 0-2.5-.3-.6-.5-.1-.5 1.3zm.9 49.6c0 1.1.3 1.4.6.6.3-.7.2-1.6-.1-1.9-.3-.4-.6.2-.5 1.3z"/><path fill="#CBCBCB" fill-opacity=".1" d="m781.5 83.2-6 6.3 6.3-6c5.8-5.5 6.7-6.5 5.9-6.5-.1 0-2.9 2.8-6.2 6.2zM405.8 216.7c.7.3 1.6.2 1.9-.1.4-.3-.2-.6-1.3-.5-1.1 0-1.4.3-.6.6zm67 91c.6.2 1.8.2 2.5 0 .6-.3.1-.5-1.3-.5-1.4 0-1.9.2-1.2.5zm-236.9 27c-1.3 1.6-1.2 1.7.4.4 1.6-1.3 2.1-2.1 1.3-2.1-.2 0-1 .8-1.7 1.7zm-1 10c-1.3 1.6-1.2 1.7.4.4 1.6-1.3 2.1-2.1 1.3-2.1-.2 0-1 .8-1.7 1.7zM53 361.4c0 .2.8 1 1.8 1.7 1.5 1.3 1.6 1.2.3-.4s-2.1-2.1-2.1-1.3zm42.1 37.2c0 1.1.3 1.4.6.6.3-.7.2-1.6-.1-1.9-.3-.4-.6.2-.5 1.3zm90 22c0 1.1.3 1.4.6.6.3-.7.2-1.6-.1-1.9-.3-.4-.6.2-.5 1.3zm435.9-1.2c0 .2.8 1 1.8 1.7 1.5 1.3 1.6 1.2.3-.4s-2.1-2.1-2.1-1.3zM94.3 426c0 2.5.2 3.5.4 2.2.2-1.2.2-3.2 0-4.5-.2-1.2-.4-.2-.4 2.3zm143.9 4c0 1.4.2 1.9.5 1.2.2-.6.2-1.8 0-2.5-.3-.6-.5-.1-.5 1.3zm-52 14c0 1.4.2 1.9.5 1.2.2-.6.2-1.8 0-2.5-.3-.6-.5-.1-.5 1.3zm51.9 5.6c0 1.1.3 1.4.6.6.3-.7.2-1.6-.1-1.9-.3-.4-.6.2-.5 1.3zm-50.8 33.9c0 2.7.2 3.8.4 2.2.2-1.5.2-3.7 0-5-.2-1.2-.4 0-.4 2.8zm-93 21c0 3.3.2 4.5.4 2.7.2-1.8.2-4.5 0-6s-.4 0-.4 3.3zm98.8 3.1c0 1.1.3 1.4.6.6.3-.7.2-1.6-.1-1.9-.3-.4-.6.2-.5 1.3zm-5.8 14.9c0 2.2.2 3 .4 1.7.2-1.2.2-3 0-4-.3-.9-.5.1-.4 2.3zm-16.1 7c0 1.6.2 2.2.5 1.2.2-.9.2-2.3 0-3-.3-.6-.5.1-.5 1.8zm0 10.5c0 1.4.2 1.9.5 1.2.2-.6.2-1.8 0-2.5-.3-.6-.5-.1-.5 1.3zm-75.9 19.5c0 3.3.2 4.5.4 2.7.2-1.8.2-4.5 0-6s-.4 0-.4 3.3zm326.6 18.2c-1.3 1.6-1.2 1.7.4.4 1.6-1.3 2.1-2.1 1.3-2.1-.2 0-1 .8-1.7 1.7zM96.2 614c0 1.4.2 1.9.5 1.2.2-.6.2-1.8 0-2.5-.3-.6-.5-.1-.5 1.3zm0 5.5c0 1.6.2 2.2.5 1.2.2-.9.2-2.3 0-3-.3-.6-.5.1-.5 1.8zm242.6 8.2c1.2.2 3.2.2 4.5 0 1.2-.2.2-.4-2.3-.4s-3.5.2-2.2.4zm-236.7 2.9c0 1.1.3 1.4.6.6.3-.7.2-1.6-.1-1.9-.3-.4-.6.2-.5 1.3zM98.2 679c0 1.4.2 1.9.5 1.2.2-.6.2-1.8 0-2.5-.3-.6-.5-.1-.5 1.3z"/><path fill-opacity=".9" d="M320.1 427.6c0 1.1.3 1.4.6.6.3-.7.2-1.6-.1-1.9-.3-.4-.6.2-.5 1.3zm170.1 1.4c0 1.4.2 1.9.5 1.2.2-.6.2-1.8 0-2.5-.3-.6-.5-.1-.5 1.3zm-304 2c0 1.4.2 1.9.5 1.2.2-.6.2-1.8 0-2.5-.3-.6-.5-.1-.5 1.3zm1 28.5c0 1.6.2 2.2.5 1.2.2-.9.2-2.3 0-3-.3-.6-.5.1-.5 1.8zm-21.1 52.1c0 1.1.3 1.4.6.6.3-.7.2-1.6-.1-1.9-.3-.4-.6.2-.5 1.3zm490.2 4.9c0 2.7.2 3.8.4 2.2.2-1.5.2-3.7 0-5-.2-1.2-.4 0-.4 2.8zM187.2 542c0 1.4.2 1.9.5 1.2.2-.6.2-1.8 0-2.5-.3-.6-.5-.1-.5 1.3zm-21.1 14.6c0 1.1.3 1.4.6.6.3-.7.2-1.6-.1-1.9-.3-.4-.6.2-.5 1.3z"/></svg>