<svg xmlns="http://www.w3.org/2000/svg" version="1.0" viewBox="0 0 3640 4003" fill="#fff"><path d="M737.7 67.2c-2.6 2.1-4.7 8.3-4.7 14.3 0 10.3 6.5 25.6 24.9 58.5 8.9 15.8 11.4 22.6 13.2 35.2 1.3 9.8.2 19.5-3.2 26.4-2.5 5.2-10.5 12.3-27.7 24.5-20.2 14.3-25.8 18.7-33.2 26.5-12 12.7-16.6 25.4-14 38.7 1.3 6.5 6.7 18.4 9.5 20.7 2.3 1.9 4.5 6.5 4.5 9.5 0 1.4-2 7.4-4.4 13.3-5.2 12.5-7.9 24.4-7 30.5 1.7 11.6 6.9 25.4 10.9 28.7 2.2 1.8 5.5 8.4 5.5 10.9 0 3.9-2.5 4.6-40.5 11.6-38.5 7.1-65.2 16.9-77.6 28.5-3.2 3-5.9 6.1-5.9 6.9 0 .7 3.4 4.8 7.6 9.1 15.6 16 29.2 20 76.2 22 69.9 3 184.7-1.2 207.3-7.6 3-.8 10.1-2.6 15.8-4 5.7-1.4 13.1-3.6 16.5-5 8.1-3.2 30.8-16.9 35.8-21.6 4-3.7 4-3.7 1.4-6.8-2.9-3.6-3.5-8.7-1-9.7 3.2-1.2 6.1 1.6 10.4 9.9 2.3 4.5 6 10.2 8.2 12.4 5.1 5.3 4.6 7.2-3 11.2-10 5.3-43.7 15.7-66.7 20.7-28.1 6.1-72 11.5-109.7 13.6-24.2 1.4-134.1.6-152.3-1.1-11.6-1-32.1-4.9-37.8-7.2-4.1-1.6-9.6-6.3-13-11.1-4.3-6-9.8-11.6-12.9-13.3-7.4-3.8-15.8.3-15.8 7.8 0 4.1 1.5 6.4 11.5 16.8 4 4.1 8.2 9.4 9.4 11.8 2.7 5.2 3.7 12.7 2.2 16.4-1.2 3.3-3.7 3.5-11.9 1.4-14.6-3.9-43.4-4.6-49.9-1.2-4.9 2.5-10 7.3-16.5 15.5-22 27.7-26.1 64.7-14.3 129.9C500.6 744.9 532 797.2 587 831.5c13.5 8.4 30.9 17.1 40.1 20 4.3 1.3 10.7 3.8 14.1 5.4 3.5 1.6 10.6 4.8 15.8 7.1 5.2 2.3 10.1 4.9 10.8 5.8.6.9 1.2 3.5 1.2 5.7 0 10.7-14.8 22.3-33 25.7-7 1.3-31.1.3-41-1.7-9.8-2-17.9-6-20.8-10.5-2.2-3.3-2.3-4.1-1.7-14.5.6-10 .5-11.2-1.2-13.4-3.6-4.4-8.3-1.1-17.6 11.9-4.7 6.5-10.3 8.1-47.9 13.4-35.5 5.1-47.6 7.3-66.8 12.1-34.1 8.6-67.7 23.2-94.5 41-49.7 33.2-104.9 103.8-139.7 178.8-27.7 59.8-39.2 106.4-44.9 182.2-1.6 20.6-1.6 83.9 0 106.5 3.4 51.6 9.8 94.4 19.6 132.5 4 15.7 7.2 25.5 16.9 51.7 4.9 13.4 5.3 17.8 2.6 26.3-2 6.2-2.3 9.6-2.8 31.2-.5 28.4.7 42.7 4.8 58.8 10.4 40.2 33.2 80 69.6 121.2 32.6 36.9 62.1 65.9 71 69.9 2.8 1.2 8 4.8 11.5 7.9 25.3 22.3 108.3 66.8 165.9 88.8 67.7 25.9 149.9 39.9 215 36.7 63.3-3.2 113.8-18.4 156.7-47.2 34.5-23.3 58.9-46.2 82.2-77.3 16.6-22.2 15.5-20.4 25.9-40 12.1-22.7 44-91.3 46.7-100.5.4-1.4 4.6-11.7 9.2-23 10.6-25.4 14.1-34.6 25.9-68 5.1-14.6 12.2-34.2 15.7-43.5 3.5-9.4 10.4-28 15.2-41.5 8-22.3 12-32.8 23-59.5 3.9-9.6 6.7-13.5 9.7-13.5 2.5 0 2.4 5.8-.2 18.5-8.7 42.1-11.6 73.3-9.9 105.4 2.1 41.2 10.5 76.7 26.5 112.5 23.4 52.1 62.9 97.1 109.6 124.7 24.9 14.8 74.1 36.1 87.3 37.8 16.9 2.3 41.3 3.2 73.9 2.9 33.9-.2 33.9-.2 38 4.3 2.3 2.5 5.7 7.4 7.6 10.8 19.3 34.1 43.4 56.8 68.7 64.7 11.3 3.6 23.9 3.2 33-1 3.4-1.5 7.1-3.8 8.3-5.1 2.1-2.2 2.1-2.4.5-5.4-.8-1.7-4-6.9-7.1-11.6-8.2-12.5-10.6-19.7-11.2-33-.5-12.9.9-20.1 6.3-31 11.5-23.7 43.2-48.9 67.7-53.9 20.3-4.2 63.7-.2 109.8 10 22.3 5 52.9 16.5 83.5 31.4 25.2 12.3 33.5 17.9 33.5 22.5 0 3.4-7.1 16.7-16.8 31.8-9.8 15-14.6 24.8-13.7 27.6 2.4 7.6 25.9 3.4 50.4-8.8 19.1-9.6 29.9-17.1 43.6-30.2 8-7.5 12-10.2 17.9-12.1 1.7-.5 18.9-1.3 38.1-1.8 19.3-.5 39.3-1.4 44.5-2 33.7-4 71.7-18.3 111.3-41.9 27.1-16.1 49.5-33.9 72.5-57.3 18.2-18.5 25.2-24.5 26.3-22.5 1.1 1.8 1.7 15 2.9 53.7 1.2 41.5 3.3 52.8 13.6 72.9 8.8 17.2 22.7 34.5 56.5 70 51.8 54.5 66.1 71 79.2 91.1 9.9 15.4 16.2 30.6 20.8 50.8 2.7 11.5 3.7 41.9 2 58.8-4.6 45.1-19.1 90.9-46.1 145.9-42.6 86.6-94.6 141.3-187.1 196.8-9.6 5.7-32.5 18.8-50.9 28.9-73.9 40.9-89.2 50.6-117.6 74.9-38.2 32.6-64.1 64.1-83.2 100.9-36.3 69.8-52.1 132-66.2 260-6.4 58.1-10.1 80.3-17.5 105.9-5.1 17.4-16.5 42.2-32.8 71.1-12.3 21.9-19 30.6-42.6 55.5-21.3 22.5-47 43.6-69.3 56.8-13.7 8.2-52.5 27.9-66.3 33.7-5.5 2.4-10.4 4.6-11 5-1.9 1.5-24.1 9.8-31.8 11.9-4.3 1.2-9.5 2.9-11.5 3.7-2 .9-6.6 2.4-10.2 3.4-3.6.9-12.1 3.4-19 5.3-8 2.4-26.3 6-51 10.1-55.9 9.4-70.8 11.2-111.5 13.8-27.5 1.8-224 1.8-267 0-53.3-2.2-94.5-5.3-108.5-8.3-10.1-2.1-12.7-3.7-15.4-9.2-3-6.2-7.1-22.8-8.6-34.7-1.6-13.8-1.2-30.7 1.1-44.6 2.7-15.7 2.2-17.4-4.8-17.5-10.9-.2-12.5-2.1-15.1-18.1-1.8-10.6-2.6-13-8.2-23.9-6.2-12.2-6.2-12.2-5.6-21.8.4-5.3.9-27.8 1.1-50.1.5-54.9 1.8-65 8.3-68 5.3-2.4 23.5-3.2 59.2-2.5 40.5.7 55.3-.2 66.6-4 22-7.4 47.7-24.8 70.9-48 13.6-13.6 19.7-21.6 24.7-32.5 4.2-9 6.7-12.4 10.9-14.6 1.5-.7 9.3-2.3 17.5-3.4 54.7-7.8 112.2-32.5 154.9-66.5 21.1-16.7 49.8-47.5 68.1-73.1 15.1-21.1 34.2-56.8 40.5-75.4 3.8-11.4 5.4-29.5 4.5-51.5-.8-20-2.4-27.6-8.1-39.2-12.2-24.8-45.6-53.6-64.2-55.6-7-.8-9-2-10.4-6.5-1.4-4.7.5-12.8 5.5-24.1 6.2-13.8 9-27 10.6-49.7 1.7-24.8-1-48.4-7-61.3-7.6-16.1-27.9-36.5-45-45.1-9.7-4.8-14.6-5.5-39-5.5-28.3 0-37.4 1.7-49.7 9.5-7.2 4.6-8.5 4.2-14-4.3-9-13.6-35.4-38.9-52.9-50.8-20.1-13.6-50.3-24.1-73.5-25.6-7.6-.5-9.8-.2-17.8 2.2-11.8 3.6-13.3 3.2-28.1-8.6-17.4-13.8-26.5-19.4-45.2-28.1-15.5-7.2-17.7-7.9-26.1-8.8-19.6-2.1-65.9-.6-81.7 2.6-9.6 2-25.4 8.3-37.4 14.9-27.7 15.3-54 41.3-66.8 66-8.5 16.4-15 23.5-21.4 23.5-2.6 0-3.6-.7-5.2-3.3-3.9-6.7-22.7-19-57.7-37.7-28.8-15.4-38.9-20.2-59-27.7-21.5-8.1-30.7-11-38.5-12.3-11.4-1.7-44-3.1-58.5-2.5-18.8.9-25.7 2-30 5-2 1.3-5.7 2.7-8.3 3-7 .9-12.2 3.1-21.6 9-16 10-37 27.4-46.7 38.7-17.9 20.8-25.3 37.5-32.9 74.3-4.4 21.1-5.9 25.2-10.4 27.3-4.1 2-11.7.7-16.2-2.8-4.2-3.4-9.6-4.5-21-4.4-8.3.1-15.1 1.7-16.9 3.8-1.8 2.3-5 3.4-12.5 4.5-12 1.6-30 9.9-49 22.6-21.6 14.3-37.3 33.2-51.9 62.4-11.9 23.7-17.1 47.8-17.1 79.8 0 38.7 9.3 74.7 25.6 98.8 15.3 22.7 40.7 47.9 60.3 59.7 10.6 6.5 14.8 10.1 15.6 13.8.3 1.5-.4 8.2-1.6 14.7-4.1 21.9-2.7 51.8 3.3 71.3 13.5 43.6 60.6 76 110.8 76.2 27.2.2 47.2-6.8 68.9-24.1 5.4-4.3 11.7-9.1 14-10.7 4.3-2.8 4.3-2.8 6.2-.3 1.1 1.3 3.9 5.8 6.4 10.1 6.3 10.7 14.6 20.7 28 33.6 20.6 19.8 35.7 30.4 53.2 37.2 27.1 10.6 55.6 13.3 82.7 7.9 12.5-2.5 22.5-6.4 34.6-13.4 5.2-3 10.5-5.5 11.7-5.5 3.4 0 9.4 6 19.3 19.1 31.4 41.8 46.9 74.1 59.4 124.4 9.7 39.1 21.1 119.1 22.2 157 .5 14.1.3 16.4-1.3 19.5-2.2 4.3-5.4 6-11.6 6-8.8 0-81-11.1-152.2-23.4-11-1.9-39.1-6.7-62.5-10.6-23.4-4-57.3-9.8-75.5-13.1-121-21.8-160.7-27.1-205-27-41.5 0-53.3 2.3-84.1 15.9-14.1 6.2-18.9 9.5-29.4 20.1-13.9 14.1-22.6 29-24.9 42.6-2.7 16.4-2 45.6 1.4 59 2.9 11.5 8.1 20.3 17.4 29.6 13.4 13.4 27 22.2 41.1 26.7 11.8 3.8 18.8 4.6 39.5 4.6 21.4-.1 37.3-1.4 81-6.9 68.6-8.7 77.3-8.6 116.5 1.1 37.8 9.4 66.3 23.3 97.1 47.6 8 6.3 19.4 13.8 21 13.8 3.1 0 .5-8.7-4.5-15.3-4.6-6-6.5-11.8-7.7-23.7-1.4-14-.9-18.4 3-27.8 8.3-19.9 22.1-33.4 44.3-43.3 10.2-4.6 17.5-4.9 30.4-1.4 11.4 3.1 39.2 13 60.8 21.7 22.2 8.9 30.8 10.9 50.2 11.5 24 .8 29-1.2 43.2-17.7 13.2-15.2 17.7-27.6 19.1-52.1.5-8 1.4-15.5 2-16.7.9-1.8 2.1-2.2 5.9-2.2 11.5 0 64.6 7.1 82.5 11 4.8 1.1 10.8 2.8 13.3 3.9 4.5 2 4.6 2.1 14.3 22.3 12.7 26.2 17.7 33.7 31.5 47.4 27.2 27 69.9 46.7 112.1 51.8 23.6 2.8 53.8 3.7 153.5 4.6 54.2.5 103.7 1.4 110 2 26 2.4 45.3 6.8 80 18.3 43.7 14.5 90.9 40.7 185 102.7 40.2 26.4 76.3 49.2 92.5 58.3 33.9 19.1 84.2 31.9 112.7 28.7 31.6-3.5 75-16.5 105-31.6 32.4-16.3 92.6-57 122.3-82.9 5.5-4.8 16-13.7 23.4-19.8 7.4-6.2 18.9-15.7 25.6-21.3 19.1-15.9 55.2-42.6 69-51.1 9.6-6 11-5.8 18.2 2.4 7.9 9 12.6 12.3 17.5 12.3 5.8 0 9.8-4.2 9.8-10.5 0-6.2-2.6-10.8-11-19.9-6.6-7.2-7-7.8-7-12.3 0-6.4 6.9-22.5 14.6-34 11.2-16.9 35.6-39.5 73.3-68.3 40.9-31.1 65.8-52 88.4-74 27.6-26.7 34.2-38.5 26.5-46.7-5.1-5.5-10.6-7.2-27.3-8.3-22.2-1.5-31.6-4.5-45-14.5-22.9-17.2-56.7-53.5-73.2-78.6-6.3-9.6-17.6-31.9-18.9-37.2-.6-2.7-.6-2.7 4.2-2.7 5.4 0 13.3 3 22.2 8.2 10.9 6.3 24.9 22.5 48.2 55.7 27.6 39.3 55.8 58.5 79.8 54.3 13.6-2.3 25.2-10.1 47.2-32.1 13.3-13.2 24.9-23.1 27.1-23.1 1.5 0 1 5.5-1 11.7-1 3.2-4.5 11.6-7.6 18.8-3.2 7.1-8.4 19.8-11.6 28.2-10.1 26.5-15.2 34.3-30 46.8-24.3 20.5-36.9 33.5-47.9 49.7-6.6 9.6-12.9 15.2-28.9 26.1-18.4 12.5-37.9 33-49.9 52.3-18.4 29.6-31.9 69.7-35.3 105-1.4 14-.7 74.3 1.1 93.4 2.7 30.5 5.6 45.3 13.6 70.1 23.5 73.5 58.8 126.5 125.8 189.1 22 20.6 34.7 29.7 52.6 38.1 38.7 18 56.2 19.3 91.9 7.2 50.1-17 156.4-68.7 187.1-91 2.5-1.8 9.6-6 15.8-9.4 6.2-3.3 24.8-15 41.5-25.9 16.6-10.9 33.6-21.7 37.7-23.9 4.2-2.2 15.4-9.1 25-15.3 36.6-23.7 46.1-29.7 65.1-41.1 42.3-25.4 91.1-51.1 108.9-57.4 9.9-3.5 13.3-3.1 36 4.5 26.9 9.1 48.9 12.1 88 12.3 22.5.2 31.4-1.1 41.8-6 6.7-3.1 16-11.7 21.9-20.2 5.7-8.2 11-13.8 14.5-15.7 4.4-2.3 14.9-1.8 23.6 1.2 11.2 3.7 29.2 12.5 39 19.1 23.8 15.8 48.7 39.3 61 57.4 8.3 12.3 27.8 53 34.1 71.4 14 40.3 21.6 87.7 25.1 157 1.1 21 3.3 46 4.6 50.9.8 3.4 3.2 3.3 4.5-.2 1.3-3.1.6-45.2-1.1-69.2-5-71.7-12.1-109.3-28.5-151-6.1-15.4-16-36.4-22-46.6-15.4-26.1-45.5-59.6-66.5-73.9-3.6-2.5-15.7-8.8-27-14.1-18.9-8.8-26.4-11.5-36.2-12.9-3.1-.5-3.8-1.1-4.8-4-1.3-4-.9-9.5 2.7-34 6.9-47.7 1.9-92-16.8-147.7-22.1-66-58.2-126.4-101.3-169.4-28.2-28.1-41.5-35.4-64.3-35.4-15.4 0-14.6 1.4-14.4-26.5.2-30.1 1.8-38 13.1-66.5 10.7-27 17.1-50.4 21.1-77.5 1.8-12.1 1.8-46.9 0-56-3.8-19.7-22.4-56.8-40.7-81.5-10.1-13.6-36.8-40.3-50.6-50.6-28.2-20.9-60.1-37.2-89.8-45.9-32.9-9.5-62.4-12.9-125-14.5-36.7-.9-46.6-1.7-51-4-2.5-1.3-4.2-4.7-6.8-13.5-3.9-13-11.9-23.8-21.6-29.1-5.1-2.9-5.1-2.9-37.6-3.5-20.9-.4-34.4-1-37.9-1.8-8.8-2.1-14.5-8.5-43.6-49.1-25.2-35.1-37.3-43-64-41.7-12.3.6-22.7 3.2-37 9.1-13.7 5.7-22.4 8.6-29 9.7-3.3.6-8.9 2.2-12.4 3.6-3.6 1.4-8.4 2.8-10.7 3.1-10.1 1.1-32.4-4-74.4-17.1-51-15.9-50.8-15.9-81.2-9.1-13.4 3-22.6 6.3-35.2 12.6-19.3 9.7-35.5 21.1-50.9 35.8-15.2 14.4-24.8 30.2-33.2 54-5.7 16.4-7.5 25.3-8.5 41.5-2 32.8-8.8 55.6-29.7 100-14.8 31.2-18.4 42.5-18.4 56.5 0 14.8 5.6 24.8 27.1 48 15.1 16.5 22.8 26.4 26.6 34.5 4.1 8.7 7.2 32.5 9.9 75 .9 13.2 2 26.9 2.6 30.5 1.6 10.6 5.6 17.4 16.1 27.6 15.4 14.9 38 28.8 84.8 52.4 31.3 15.7 44 21.3 53.3 23.6 5.9 1.5 7.3 1.5 16 0 11.8-2 26.7-2 45-.1 26.5 2.8 33.2 5.2 33 11.8-.2 6.2-5.1 13.6-16.8 25.2-19.4 19.5-66.1 58.4-95.6 79.7-7.4 5.3-16.3 12.2-19.9 15.2-3.6 3.1-10.3 8.6-15 12.3-12.5 10.1-19.5 16.9-26.5 25.8-13.1 16.8-24.2 36.3-28.3 50-3.7 12.3-13.6 24.5-19.7 24.5-2.8 0-8.6 3.8-23.1 15.1-6.7 5.2-22.1 16.7-34.2 25.7-12.1 8.9-28.5 21.8-36.4 28.5-43.8 37.3-58.5 49.4-69.3 57.2-6.6 4.8-14.9 11.2-18.4 14.2-3.5 3-8.2 6.3-10.5 7.5-2.3 1.1-6.8 4-10.1 6.3-3.4 2.4-20.2 11.5-37.5 20.2-31 15.7-46.4 21.9-65.6 26.8-37.6 9.4-75.5 8.1-110.7-3.7-17.2-5.7-52.8-23.4-68.4-33.9-4-2.7-9.2-5.8-11.5-7-6.2-3.1-33.6-21.5-38.4-25.8-19-16.7-100.8-67.8-140.1-87.4-7-3.6-23.1-10.6-35.6-15.6-12.6-5-23.7-9.6-24.7-10.1-1.8-1-12.2-3.5-41.9-10.1-25.5-5.7-62.3-10-103.7-12-19.5-.9-25.8-.9-41.7.5-42.4 3.7-85.4 4.2-126.7 1.5-20.1-1.3-32.1-3.1-49.7-7.4-27.5-6.8-42-13.2-66.1-29.1-24.4-16.2-36.1-29.5-48.6-55.4-6.8-14-8.5-19.8-6.8-23.5 2.4-5.2 6.8-5.5 32.5-2.1 98.6 13.3 329.4 13.8 412.7 1 86.9-13.4 160.7-34.6 217.5-62.5 58.6-28.7 99.3-62.7 138.6-115.5 13.5-18.1 31.5-52.3 38.8-73.6 11.2-32.7 17-63 23.6-122.8 13.6-122.4 25.7-173.2 57.9-243 17.6-37.9 35.1-63.6 62.1-90.6 34.6-34.7 71.5-59.8 159-108 37.9-20.8 73.2-43.2 99.2-62.8 41.5-31.2 74.8-67.1 100-107.5 63.1-101.2 89.6-211.5 66.5-277.4-12.7-36.2-25.9-54.5-79.1-110.2-56.7-59.3-62.8-66.9-74-92.2-11.5-25.9-13-33.6-13.1-64.4 0-33 2.1-51 8.7-72.8 4.1-13.9 6.1-18.5 17.3-42.1 10.8-22.8 14.1-32.1 17.9-50.3 3.7-17.6 5.1-31.9 5.1-50.1 0-33.8-4.9-64.1-13.9-87.2-32.6-83.5-121.5-162.5-219.2-194.8-15.9-5.2-45.5-12.8-60.7-15.5-33.3-6-78.5-5.2-121.7 2-51.9 8.7-100.8 25.7-131.2 45.7-11.9 7.9-14.5 9.2-18.3 9.2-4.7 0-8.9-2.1-17-8.9-15.8-13-34.9-24.5-67.9-41-21.9-11-35.4-17-45.7-20.2-3.8-1.2-9.8-3.2-13.4-4.5-14.5-5.1-28.8-8.3-47.5-10.4-10.4-1.1-22.8-2.7-27.5-3.5-4.7-.8-12.8-1.6-18-1.9-5.2-.3-18.3-1.3-29-2.2-45.4-3.8-105.5 2-143.5 13.9-18.9 6-48.7 17.3-55.5 21.1-28.4 16.1-66.5 53.3-89.9 88.1-18 26.5-46.6 76.6-55.1 96.3-2.3 5.3-6.2 14-8.5 19.3-2.4 5.2-6.1 14.7-8.3 21-2.2 6.3-6 16.2-8.6 22.2-5.6 13.1-15.2 39.6-25.6 70.2-22.6 67-42.7 114.9-77.4 184.5-21.6 43.4-37.2 65.6-65.2 93.1-37.6 36.8-72.7 58.2-120.4 73.7-19.6 6.4-27.5 8.1-42 9.2-27.3 2-85.4.9-127-2.6-31.9-2.6-45.9-5.1-53.4-9.5-2.1-1.2-6.7-2.3-11.9-2.9-11.8-1.4-22.7-4.7-48.7-15-12.4-4.9-25.7-9.8-29.7-10.9-11.8-3.5-55.7-25.9-93.1-47.7-38.2-22.3-61.7-40.6-105.7-82.1-27-25.5-42.6-43.1-47.4-53.8-1.8-3.9-3.7-6.5-5-7-6.2-1.9-35-62.3-41.1-85.8-5.8-22.7-8.7-71.3-5-81.3.5-1.3 1.8-2.4 2.7-2.4 2.2 0 8.1 3.8 14.3 9.3 5.9 5.1 15.1 9.7 19.5 9.7 7.6 0 18.8-7.4 25.6-16.8 5.9-8.3 5.1-14.3-2.6-21.1-11.8-10.3-32.3-14.3-40.8-7.8-5.3 4-10.6 3.8-15.1-.7-12.5-12.5-27.9-71.6-35.6-136.6-3.7-31.6-5.1-54-5.7-91-1.5-97.3 9.8-162.9 39.9-231 6-13.5 36.4-73 40.1-78.3 1.1-1.6 2.9-3.2 4.2-3.7 1.6-.6 2.6-2.2 3.4-5.6 1.5-6 4.2-9.8 22.5-32.4 30.3-37.2 49.8-54.7 85-75.9 20.9-12.7 31.5-17.8 50.1-24.1 9.9-3.4 22.5-7.7 28-9.6 11.5-4 21.7-5.7 46.5-7.9 24.5-2.2 30.6-3.1 45.8-7.2 18.5-5 25.8-3.9 36.5 5.3 5.2 4.4 25.3 13.1 33.5 14.5 8.5 1.5 32.6.5 40.7-1.6 12.5-3.3 28.1-15.8 33.6-27.1 2.9-5.9 3.1-6.8 2-10.3-2.4-8.3-14-15.7-32.6-21-18.9-5.4-50-21.9-71.3-37.8-29.2-21.9-51.5-54.5-67.4-98.8-17.9-49.7-24.6-112.2-15.7-146.3 5.3-20.3 17.4-37.4 30.6-43.3 9.8-4.5 24.5-4.4 33.3.1 9.6 4.9 6.2 14-13.3 35.8-22.5 25.1-28 36.5-29.3 61.2-2.6 48.5 26.1 122.7 62.2 160.9 8 8.5 17.8 16.5 22.8 18.6 7.7 3.2 16.8.6 25.8-7.4s11.5-18.5 7.9-32.6c-2.7-10.3-12.8-30.8-22.9-46-14.9-22.6-14.1-17.9-15.2-87.5-.5-30.5-1.3-57.8-1.9-60.6-.5-2.8-1.7-17.1-2.6-31.7-1.8-29.2-1.6-31.9 3.3-35.8 2.4-1.9 3.5-2 9.7-1.4 3.9.3 8.7 1.1 10.8 1.6 17.5 4.6 173.2 5.9 218.2 1.9 17.5-1.6 49.9-6.6 65.5-10.2 39.7-9.1 64.6-17.9 73.9-26.3 2.1-1.9 4.7-3.5 5.7-3.5 5.1 0 9.7 6.8 11.9 17.9 3.3 15.9 5.4 56.1 6.2 116.1.6 51.9-.4 84.4-3.7 112.7-10.8 94.8-35.5 135-89.6 146-7.5 1.5-12.6 1.7-32.4 1.4-49.5-.9-69-.6-76.3 1.2-8.6 2.1-14.4 5.1-15.2 7.8-1.4 4.3 8.3 11.2 22.5 15.7 14.2 4.6 33.4 7.3 92.6 13.2 51.4 5.1 62.4 6.3 90.9 10.5 26.9 4 51.5 6.7 81.5 9.2 31.2 2.5 129.5 2.5 159 0 61.2-5.3 89.4-10.3 109.5-19.6 18.4-8.5 21.6-17 8.8-23.5-10.1-5.1-27.4-6.6-84.3-7.6-52.1-.9-57.8-1.5-68.8-6.5-8.3-3.8-14.5-9-22.9-19-10.2-12-14-18.3-17.9-29-9.6-27.1-11.8-60.5-11.8-182.5 0-53.4.4-84.5 1.2-94.8 1.7-21.8 2-23.2 5-24.3 7.3-2.8 26.7-3.2 169.2-3.4 132.6-.2 147.4-.3 156-1.9 5.2-.9 11.8-2 14.5-2.5 8.6-1.3 43.9-11.6 54.5-15.8 3.6-1.5 8.4-3.9 10.8-5.5 6.3-4.3 12.2-6.8 16.4-6.8 3.9 0 6.8 2 6.8 4.8 0 10.4 11.7 20.8 27.1 24.2 6.7 1.5 20.5.8 29.9-1.5 3.6-.9 12-1.8 18.7-2.2 18.1-.9 22.7 1.5 32.9 16.9 13.5 20.3 17.2 49.3 16 127.8-.8 49.2-1.9 72.2-4.2 82-2.6 11.8-10.3 23.2-36.5 54.2-24.8 29.2-25.7 29.9-38.2 30.6-7 .4-9.4 0-16.2-2.3-12.6-4.2-24.8-12.4-28.2-18.8-1.4-2.8-1.4-3.2.1-4.3 2.1-1.5 9.9-2.3 34.6-3.4 26-1.1 35-3.7 44.8-12.5 11.7-10.6 18.3-30.4 23.2-69.1 6.4-51.2 4.8-126.7-3.2-148.3-3-8.1-13-17.7-24-23-34.9-16.9-81.5-10.5-93.3 12.9-5.2 10.3-6.3 25.8-7.1 97.5-.7 58.9.3 93.8 3.1 109.5 2.7 15 1.8 20.2-4.5 27.3-5 5.7-7 12.4-8 26.6-1.4 20.5-6.4 32.5-18.5 44.7-13.3 13.5-16.8 14.4-61.5 15.4-44.8 1-52 2.5-52 10.9 0 4.6 12.1 11.3 27 15 16.9 4.2 28.5 5.4 51.5 5.5 20.9.1 22.6 0 32.8-2.6 27.9-7.1 59.5-23.7 81.1-42.4 22.5-19.7 35.5-29.2 50.2-36.8 14.2-7.4 28.3-21.6 36.2-36.5 2.2-4.2 5.7-12.5 7.7-18.5 4.7-14.2 12.4-30 22.5-46.1 40.4-64.8 51.1-121.4 69.5-370 9.7-130.7 18.8-223.2 25-252.4 2-9.4 1.9-15-.1-17.2-2.6-2.9-5.1-.7-7.2 6.4-2 6.4-2.6 10.1-6.7 45.2-1.4 11.5-3.6 30.2-5 41.5-2.9 23.9-6.2 61.5-10.4 117-1.7 21.7-4.9 63.6-7.1 93-14.7 192.1-24.4 249.6-52.2 309-6 12.9-10.9 21.1-12.3 20.7-2-.7-2.5-9.9-3.5-65.7-.5-31.1-1.4-62.6-2-70-2.1-25.7-5.8-40.9-12.8-52.5-4.1-6.8-17.1-20.3-22.3-23.1-3.7-2.1-8-2.2-50.4-1.3-21 .4-21 .4-26.6-2.4-7.4-3.6-10-7.6-15.3-24-2.4-7.3-5.5-15.6-7-18.4-3.4-6.8-11.5-14.7-20.3-20-18.5-11-57.8-22.9-110.8-33.7-41.5-8.5-48.6-11.3-49.9-20.1-2-14.9-24-38.7-51.5-55.7-11.5-7.2-18.1-12.2-18.1-13.9 0-2.3 9.7-11.1 23.5-21.4 20.5-15.3 29.7-24 33.5-31.9 4.5-9.2 6.3-21.1 5.7-37.6-.6-16.2-2.6-26.6-7.4-38-4.6-11.2-11.5-31.2-14.8-42.9-4.8-17.4-14.2-33.4-25.7-43.5-7-6.2-21.7-13.6-26.9-13.6-3.1 0-4.7.8-7.9 3.7-6.5 5.8-6.6 6.4-1.9 12.3 2.2 2.8 11 12.3 19.4 21 16.7 17.3 28.1 30.5 33.5 39 3.1 4.8 3.5 6.4 3.8 13 .8 16.5-7.8 31.4-30.1 52.2-21 19.6-28.4 27.5-31.5 33.8-2.6 5.2-2.7 6.2-2.7 20 .1 14.5.1 14.5 4.4 25 4.8 11.8 4.8 13.2.2 20.6-10.6 17.1-1.7 39.5 21.8 55.2 6 4 21.5 9.7 33.1 12.2 7.1 1.6 25.3 8.6 28.1 10.9 3 2.4 2 4.9-5 11.9-6.7 6.6-14.9 11.3-23.7 13.6-9.3 2.4-29.3 4.4-55.9 5.6-44 1.9-70.2 4.7-96.7 10-25.3 5.1-41.7 11.1-49.2 18-5.7 5.3-8 11-7.4 18.5.6 6.7 2.5 9 12.3 14.8 7 4.2 7 4.2 26 4.8 10.4.3 44.4.6 75.4.7 31 .1 56.7.4 57.1.7.4.2 27.6.4 60.6.3 32.9 0 62.4-.1 65.4 0 3 0 13.6-.8 23.5-1.8 22.9-2.4 49.9-8.9 60.3-14.6 14.2-7.9 16.8-11.6 11.6-16.5-2.6-2.4-2.6-2.4-33.2-2.2-16.9.2-55.2.7-85.2 1.3-151.5 2.8-184.6 3.1-195 2-5.8-.6-13-1.3-16-1.6-11.3-1-13.2-2.2-9.2-5.6 3.4-3.1 13.3-4.3 50.7-6.3 41.4-2.3 53.2-3.8 86.5-11.1 19.9-4.4 76.7-2.2 138 5.2 56.9 6.8 66 8.5 78.2 14.2 8.4 3.9 10.5 6.5 8.7 10.6-2 4.4-21.8 14.1-43.8 21.6-29.2 10-33.3 10.5-80.1 10.5-65.6 0-250-1.5-259.1-2.1-5.9-.4-12.3 0-20 1.2-10.3 1.5-11.7 2-14.6 4.9-7 7-7.4 12.9-8 107.5-1.1 177.9 3.7 208.8 37.1 242.4 13 13.1 21.8 17 44.1 19.6 5 .6 31.6 1.7 59.3 2.5 62.8 1.8 68.2 2.6 68.2 9.5 0 7.2-13.9 11.8-55.5 18.4-28.1 4.5-72.6 6.6-139 6.6-65.9 0-110-2-142.5-6.5-28.1-3.9-54.2-7.1-107-13-88.5-10-103.7-12.6-101.7-17.7 1-2.8 14.8-4.3 59.7-6.3 35.5-1.6 62.1-3.7 72.3-5.7 7.7-1.4 15-6.3 27.1-17.8 12-11.6 20.7-22.2 25-30.9 11.9-23.5 21.5-66.8 24.6-110.1 1.7-23.2 2.4-126.6 1.1-159.6-1.3-34.7-2.5-48.1-5.2-59.1-6.7-27.4-23.4-49-42.6-55.3-9-3-20.5-8.9-32.2-16.8-34.9-23.3-85.4-45.6-155.9-68.6-12.8-4.2-25-8.5-27.1-9.6-8-4-13.2-10.2-11.4-13.5.5-.7 3.7-3.4 7.2-6s10-7.8 14.5-11.7c4.4-3.9 14.9-12.1 23.1-18.3 19.2-14.3 26.2-21.8 32.5-35 6.1-12.7 8.1-21.6 8.7-38.5.6-16.5-1.1-27.9-5.7-37.5-5.9-12.4-18.9-30.3-36.1-50-12.2-13.8-19.8-27.5-21.4-38-1.1-7.9-4.6-13.5-8.4-13.5-.4 0-1.5.6-2.4 1.2zM1321 86.5c14 9.3 24.6 22.3 23.8 29.2-.8 6.7-6.2 3.3-26.5-16.5-12.2-11.8-14.3-14.3-14.3-16.9 0-1.6.3-3.2.6-3.5 1.2-1.3 7 1.4 16.4 7.7zm-545.1 51.2c9.9 10.1 16.9 20.1 21 30.1 10.3 25 8.8 57.7-3.6 77.1-5.8 9.1-13.8 16.6-34.3 32.1-10.7 8.2-22.7 17.7-26.6 21.2-10 9.1-13.8 11.8-16.3 11.8-3.7 0-7.8-3.7-10.8-9.8-2.6-5.3-2.8-6.6-2.8-17.7 0-9.8.3-12.6 1.9-15.4 3.5-6.5 12.1-14.3 25.1-22.8 35.6-23.3 47.2-35.7 50.6-53.7 2-11.2-1.1-26.6-9.7-47.2-3-7.2-5.4-13.4-5.4-13.7 0-2.1 3.3.3 10.9 8zm591.5 41.8c2.8 2.8 3.6 8.8 3.6 27 0 26.1-2.4 34.4-13.6 46.4-6.1 6.6-22.9 19.4-35.3 27-19.6 11.9-26.3 8.8-26.5-12.3-.1-11.2 1-15.6 5.7-22.6 4.1-6 19-20.6 30.5-29.7 9.8-7.9 14.9-13.9 20.3-24.3 3.8-7.3 9-13 11.9-13 1 0 2.5.7 3.4 1.5zM1316 313c3.5 3.4 6.7 5.4 10.1 6.4 2.7.8 6.8 2.8 9.2 4.4 6.1 4.3 22.8 20.3 31.8 30.6 9.4 10.8 12.5 16.1 11.5 20.1-.7 2.7-.8 2.8-6.4 2.2-8-.8-39.1-11.1-49.2-16.3-22.4-11.6-31-25.8-25.1-41.5 4.6-12.2 9.8-13.9 18.1-5.9zm-589.1 16.5c1.6.8 13 5 25.2 9.4 21.7 7.7 32.1 11.8 59.4 23.3 7.2 3 19.1 7.9 26.5 10.7 26 10.1 60.9 28.7 64.3 34.2.6.9.7 2.4.3 3.4-.6 1.7-1.8 1.8-15.4 1.2-8.1-.4-31.1-1.4-51.2-2.2-83.6-3.4-104.9-5-110.7-8.6-6.6-4.1-15.4-17.2-19.3-28.9-1.8-5.4-2.1-8-1.7-15 .8-13.7 5.5-23.7 12.9-27.3 4.1-2.1 6.1-2.1 9.7-.2zm698.8 66c4 .7 11.4 2.7 16.5 4.4 5.1 1.6 14 3.7 19.8 4.6 29.6 4.6 39.3 7.2 62.8 17.2 20.9 8.9 31.3 16.2 28.8 20.2-1.3 2.1-11.7.8-46.1-5.9-27.8-5.4-61.7-10.1-99-13.9-31.3-3.2-37.5-4.2-37.5-5.8 0-3.7 13.4-19.6 18.5-22 3.7-1.7 25.2-1 36.2 1.2zM793 413.9c5.2.6 22.3 1.7 38 2.5 15.7.9 37.3 2.1 48 2.7 37.4 2 50.3 4.8 52.5 11.2 2.1 6.2-5 7.3-41.5 6.3-66.7-1.7-111.3-7.5-124.5-16.2-3.1-2-4.4-6.2-2.4-7.6 1.5-1 13.1-.5 29.9 1.1zm-64 4.1c8.2 2 30.3 9.1 40.5 13 16 6 35.6 8.6 89.5 11.5 63 3.4 73.8 6.2 56.9 14.7-15.4 7.8-51.2 14-106.9 18.5-31.4 2.5-127.8 2.6-149.6 0-40.9-4.7-59.4-12.2-59.4-24.1 0-2.8.7-4 3.3-6 4.5-3.5 16.4-8.8 26.6-12 15.7-5 88.1-18.2 93.1-17.1.8.2 3.5.9 6 1.5zm547.3 12.1c7.5 3.5-1.9 5.7-24.4 5.8-13.7.1-17.9-.2-19.5-1.3-1.8-1.4-1.7-1.5 1.9-3.1 2.1-.9 6.4-2 9.5-2.5 7.8-1.2 29-.5 32.5 1.1zm-106.2 21.1c.8 6.9 1.6 8.1 7.2 10.1 10.9 3.9 63 5 131.2 2.8 53.1-1.8 197.1-2 200.8-.4 3.4 1.6 3.5 4.5.2 6.7-3.3 2.1-8.4 3.1-31.5 6.1-10.7 1.3-21.7 2.9-24.5 3.5-10.2 2.1-84.4 3.2-179 2.7-110.2-.6-114-.8-122.1-8-6.2-5.4-8-11.4-4.8-16.2 3-4.5 17.3-13.8 20.4-13.3 1 .2 1.7 2.1 2.1 6zm-598.9 21.7c1.8 1.6 4.1 4.3 5.1 6 2.3 3.9 1.2 4-6.8 1-3.7-1.4-6-2.9-6.7-4.4-2.6-5.8 2.9-7.4 8.4-2.6zM1625 527.6c14.6 2.5 20.4 4.9 27.4 11.4 11.2 10.5 13.3 17.4 15.7 50.5 1.6 22.5.7 81.4-1.5 99.5-6.9 56.7-15.3 73.4-40.2 79.7-10.1 2.5-49.3 2.5-57.6 0-3.6-1.1-6.3-2.6-7.2-4-6.4-10.3-9.1-75.4-6.6-162.7 1.9-68.3 3.9-72.6 36-76.4 5.8-.7 24.9.5 34 2zm-1048.5 20c4.4 4.7 6.1 14.1 7.5 41 .5 10.4 1 33.4 1 51 0 36 1 49.8 4.4 59.5 1.4 4 6.3 12.8 12.4 22.2 23.8 36.4 27.7 53.7 14.9 66.2-6.6 6.4-12 8.3-17.2 6-12-4.9-36.3-36.5-51.8-67.2-18.7-37-23.5-53.6-25.8-89.1-1.5-22.6-.2-31.2 6.5-44.7 10.2-20.4 34.9-47.5 43.3-47.5 1.3 0 3.5 1.2 4.8 2.6zM1676 768.5c0 8.5-17.3 28.6-21.2 24.7-1.6-1.6.4-5.6 6.7-14 9.6-12.8 14.5-16.3 14.5-10.7zm-109.7 23.9c14.3 15.2 17.8 17.4 29.2 18.7 4.1.4 8.3 1.3 9.5 1.9 7 3.7.6 14.7-16.8 28.7-26.1 21-50.1 32.6-78.7 38-11.7 2.2-62.3 2.5-72.6.5-7.3-1.5-13.5-4.6-15.6-7.9-1.4-2-1.2-2.3 1.7-3.8 2.4-1.2 4.7-1.5 8.9-1.1 12.6 1.3 49.9 1.8 56.8.7 4.9-.8 10.7-2.8 19.4-6.9 15.7-7.5 20.8-12.4 27.9-27.5 6.3-13.2 7.8-19.3 9-35.7 1.2-16 2.1-19 5.9-19 2.2 0 5.2 2.6 15.4 13.4zm-80.8 524.1c25 1.6 44.2 3.6 65.4 6.6 14.4 2 33.6 6.3 35.6 7.9.5.4 3.7 1.5 7 2.5 3.3.9 11.2 3.8 17.5 6.5 6.3 2.7 14.2 5.6 17.5 6.6 13.6 4 46.4 22.8 73 41.8 21.6 15.3 27.8 22.6 23 26.6-3.5 2.9-9.8-.5-31.8-16.7-21.6-16-45.5-30.3-71.2-42.7-38.4-18.6-73.1-25.1-152.3-28.7-27.5-1.2-38.5-.9-68.2 2.2-51.7 5.2-78.7 11.8-111 26.9-23.6 11.1-32 14.3-34.4 13.2-1.9-.8-1.1-1.6 7.4-7.2 5.2-3.4 12.4-7.7 16-9.5 17.8-9 53-21.7 77.5-28 32.2-8.3 79.9-11.2 129-8zm3 19.5c37.6 2.4 68.9 6.3 87.3 11 17.1 4.3 23.8 6.8 45.7 16.9 16.9 7.9 44.7 25.2 61.7 38.3 5.1 4 10.6 8 12.2 8.8 3.4 1.8 12.6 11.6 12.6 13.5 0 1.7-7.8 12.1-17.3 23-21.8 25.3-44.5 69.1-50.7 98-5.8 27.5-5 78.9 2 118 2.8 15.7 10.5 42.4 15.5 53.5 2.4 5.2 4.6 10.6 5 12 1.3 4.3 4.5 10 14 25 5.1 8 10 16.1 10.9 18 .9 1.9 4.3 6.6 7.7 10.5 3.3 3.8 6.7 8.2 7.4 9.6 1.3 2.4 1.2 2.8-1.8 5.6-7.6 7.2-42.8 31.9-57.9 40.7-12.6 7.4-21.3 10.6-28.4 10.6-18.5 0-72.1 11.8-95.7 21-13.5 5.3-21.4 10.2-34.2 21.5-16.4 14.3-25.3 18.1-52 22.1-16.1 2.4-41.5 2.4-55 0-22.2-4-42.4-11.2-72-25.6-68.6-33.4-108.2-73.7-139.1-141.1-18.5-40.4-23.8-67.7-23.8-122.9 0-45.9 5.4-81.5 17.9-118 9.2-26.9 32.5-65.7 52.4-87.3 6.4-6.9 31.8-28.4 40.9-34.6 15.4-10.4 40.4-21.6 70.7-31.5 27-8.8 51.5-14.1 77-16.5 12.9-1.2 68.2-1.3 87-.1zm521.2 17.1c29.3 2.9 47 7.9 81.3 23.1 32 14.1 58.4 29.3 77.7 44.4 5.5 4.4 14.7 11.5 20.4 15.9 5.7 4.4 16.2 13.8 23.4 21 44.9 44.6 74.7 101.8 81.4 156.5 3.1 24.9-.8 69-8.1 90.5-4 11.9-11.7 28-12.8 26.9-1.1-1.1.4-20.4 2.6-33.4 2.2-12.7 3.1-63.2 1.5-79.6-1.6-16.3-3.4-24.4-9.2-41.9-13.1-39.3-40.3-83.1-72.2-116.2-25.3-26.3-51.1-45.1-85.7-62.7-24.7-12.6-41.5-18.4-82.8-28.7-15.7-3.9-33.1-8.7-38.6-10.6-5.6-1.9-13.2-4.3-17.1-5.4-7-2-7-2 10.2-1.4 9.4.3 22 1 28 1.6zm-28 11.8c7.3 1.1 14.9 2.5 17 3 2.1.5 6.7 1.7 10.3 2.6 3.6.9 15.1 4.1 25.5 7.1 58.1 16.9 76.3 25.5 115 54.3 18 13.4 29.4 23.2 40.6 34.7 35.9 37.2 63.9 86.8 75.4 133.8 7.7 31.4 3.7 109.1-8 155.7-5.4 21.5-10.6 30-31 50.4-32.1 32.2-83.4 71.6-115.5 88.8-9.7 5.2-39.9 17-50.8 19.8-8.6 2.2-30.3 5.3-49.2 7-45.2 4-104.6-7.6-156.5-30.8-23.5-10.5-35.2-18.5-62.1-42.1-31-27.1-59.4-55.9-59.4-60.2 0-1.7 5.6-9.6 20.3-28.4 9.6-12.3 22.9-36.5 29.3-53.3 3.2-8.5 16-56.8 17.8-67.3 3.2-18.8 4.1-32.8 4.1-64-.1-34.3-1.3-47.4-5.9-62.6-8.7-28.7-22.9-58-37.3-76.6-2.5-3.4-7.3-10-10.5-14.7-5.9-8.6-5.9-8.6-2.3-11.8 7.4-6.4 19-13.7 28.6-17.9 20.3-9 62.1-21.4 88.4-26.4 16.8-3.1 29.9-3.8 68-3.5 29.9.2 36.9.5 48.2 2.4zm-239.7 62.6c3.6 1.9 7.8 7.1 17 21 18 27.3 33.3 67.5 37 97.5 1.2 10.5 1.4 38.8.1 37.5-1-1.1-8.8-25.2-15.1-46.9-9.7-33-29.5-75.7-42.9-92.2-8.1-10.1-8.6-12.3-3.4-16.4 3.1-2.4 3.6-2.4 7.3-.5zm-13.7 20.6c3.1 2.1 6.5 5.8 10.1 11.2 22.2 33.6 39.3 83.1 46.2 134.2 2.4 17.9 2.4 52.1 0 66-2.1 12.6-10.1 36.6-16.5 49.8-9.1 18.9-32.1 54.5-40.1 62.2-2.8 2.7-3 2.7-5.4 1.2-3.2-2.1-16.3-19.7-24.5-32.9-23.2-37.1-36.9-74-41.1-110.7-1.6-13.5-.8-43.4 1.5-56.1 4.4-24.6 18.7-63.8 29.7-81.4 1.7-2.8 5-8.5 7.3-12.7 6.3-11.6 24.2-33.9 27.2-33.9.5 0 3.1 1.4 5.6 3.1zm-29.8 10c-2 3.8-6.3 11.6-9.7 17.2-13.3 22.3-21.5 39.6-27.7 58.2-3.3 9.9-6.6 20.9-7.5 24.5-.8 3.6-2 7.8-2.6 9.5-1 2.6-1.3 2.8-2.3 1.4-.9-1.1-1-5.4-.6-14.5.5-11.9.9-14.1 5.3-27.5 8.3-25.6 23-51.2 38.6-67.2 4.7-4.8 8.9-8.7 9.3-8.7.4 0-.9 3.2-2.8 7.1zm-1453 139.5c2.1.9 6.4 4.2 9.6 7.2 5.3 4.9 5.9 5.8 5.9 9.4 0 3.6-.7 4.7-6.2 10.2-7.1 7.1-11.2 8.6-17.6 6.5-6.9-2.2-19.5-13.2-22.4-19.4-1.3-3-.1-4.6 7.5-10.2 8.9-6.5 15.2-7.5 23.2-3.7zM1674 1716.7c9.4 18.4 25 43 32.8 51.6 5.2 5.7 7.6 11.3 6.6 15.4-1.3 5.2-6.3 2.1-14.5-8.9-11.7-15.8-24.2-37.9-27.2-48.4-.8-2.8-3.1-9.5-5.1-14.8-3.3-8.8-3.8-11.6-1.8-11.6.4 0 4.5 7.5 9.2 16.7zm53.4 80.4c1.4 1.1 5.4 5.5 8.8 9.7 3.5 4.2 11.1 12.9 17 19.4 11.5 12.6 14.2 16.1 13.6 17.9-1 2.9-37.8-31-44.2-40.8-4.5-6.8-1.3-11 4.8-6.2zm.5 24.5c5.3 5.5 15.3 15.3 22.2 21.7 6.9 6.4 13.4 13.2 14.4 15.1 3.9 7.2-.7 8.5-12.8 3.6-14.8-5.9-44.7-11.5-69.6-13-15.8-1-19.1-1.6-19.1-3.4 0-3.6 31.9-30.3 43.4-36.4 3.9-2.1 3.9-2.1 7.9.1 2.2 1.2 8.3 6.7 13.6 12.3zm-118.9 37.7c0 2-3.7 5-12.5 10-15.1 8.6-32.7 15.3-60 22.7-14.3 4-30.2 8.5-35.3 10.1-5.2 1.6-9.8 2.6-10.3 2.3-1.4-.8-1.1-5.2.6-8.4 6.7-13 54.8-32 87.5-34.6 4.7-.4 11.2-1.3 14.5-2 8.2-1.7 15.5-1.8 15.5-.1zm-33.6 33.2c-.1 1.8-2.1 6.1-4.7 10.1-2.6 3.9-5.9 10.7-7.4 15-2.5 7.3-2.7 9-2.7 23.4 0 13.6.2 16.3 2.3 22 1.2 3.6 4 8.8 6.2 11.6 7.3 9.5 8.2 15.6 2.8 18.5-3 1.6-14.2 1.3-21.4-.6-14.4-3.8-26.9-11.8-40.5-26.2-19.6-20.7-30.8-43.6-24.2-49.6 2.9-2.7 11.6-5.5 31-10.3 10.3-2.5 22.8-6.2 27.7-8.2 11.5-4.6 26.4-9.2 29-8.9 1.5.2 2 .9 1.9 3.2zm330.6 30.6c18.3 3.1 24 5.6 24 10.5 0 5.5-10.2 13.3-38.5 29.4-29.1 16.5-34.1 18.8-37.7 16.9-1.7-.9-2-1.8-1.5-5.6.3-3.3 2.1-6.8 6.6-13.6 3.4-5.1 9.2-15.2 12.8-22.5 3.6-7.3 7.7-14.1 9.1-15.2 3.3-2.6 9.4-2.6 25.2.1zm-889 399.7c18.4 4.3 33.1 10.8 51.8 22.6 15.9 10.1 22.5 16.1 22.5 20.4 0 4.3-2.5 6.9-15.2 15.5-30.1 20.5-44.9 43.3-50.6 77.6-1.5 8.7-1.7 14.1-1.2 32 .9 30.2 3.9 50.7 9.2 61 3.2 6.4 6.5 18.4 6.5 23.9 0 6-1.9 6.5-20 5.9-15.5-.6-20.1-1.5-23.5-4.7-1.1-1.1-4.5-2.4-7.4-3-2.9-.5-6.5-1.8-7.9-2.9-1.5-1-5.8-7.6-9.7-14.6-8.4-15.4-16-24.7-23.4-28.8-4.5-2.6-7-3.2-16-3.9-12.6-1.1-16.2-2.6-25.5-11-6.1-5.5-37.4-39.2-55.7-59.8-14.6-16.6-17.3-22.4-14.4-31.2 2.5-7.7 9.9-22.1 16-31.3 22.8-34 60.3-58.5 103-67.4 14.4-3 14.2-2.9 34.5-2.6 14.1.2 20.5.8 27 2.3zm-381.3 23.7c24.3 3.1 54 12.1 78 23.5 31.7 15.1 89.3 50 103 62.4 4.8 4.4 4.8 4.4 4.7 13.4-.1 5-.7 15.5-1.4 23.3-2.6 29.2 1.6 63.8 10.5 86.5 1.5 3.8 5.4 11.2 8.6 16.5 3.3 5.3 5.9 10.6 5.9 11.9 0 3.4-6.5 11.2-20.4 24.8-14.3 13.9-19.3 16.7-25.1 13.9-9-4.3-14.4-21.4-28.5-91.2-10.1-50.2-13.3-62.5-15.5-60.4-1.2 1.3 9.1 66.3 16.1 101.4 5.6 28.5 10.2 39.8 20.4 50.9 5.4 5.8 9.9 8.6 13.9 8.6 3.1 0 15.7-9.1 27.1-19.5 12.3-11.3 17.9-15 21.2-13.9 1.2.4 7 5.2 12.8 10.8 17.8 17.1 27.8 21.9 46 21.9 21.4 0 29.2-3.3 44-18.2 10.8-10.9 11.9-12.4 13.9-19.9 2.2-7.9 12.6-15.5 16.6-12.2 3.4 2.8 11.6 4.2 31 4.9 11 .5 21.9 1.4 24.3 2.2 4.7 1.4 6.3 3 20 19 19.5 22.8 51.3 49.9 83.8 71.3 15.4 10.1 54 32.2 71.3 40.8 14.8 7.4 19.1 11 19.1 16.1 0 9-6.9 32.4-17.2 58.2-7.8 19.8-26.1 56.7-33.6 68-17.9 27-69.3 75.8-95 90.2-6.1 3.4-20.1 8.8-30.7 11.8-7.4 2.2-25.5 4.5-34.3 4.5-19.7 0-20.1-8.2-1.7-34.5 3.6-5.2 10.6-14.6 15.4-20.8 4.8-6.1 12.6-16.6 17.3-23.3 14.2-19.9 54.3-70.5 73.3-92.4 6.4-7.4 15.9-18.4 21.2-24.5 11.4-13.2 19-24.3 19.9-29.1.9-4.8-1.5-9.9-5.1-10.8-6.1-1.6-18.4 7-40.7 28.2-7.1 6.7-14.1 12.8-15.7 13.7-8.6 4.4-8.2-.6 1.5-17 10.9-18.4 15.4-27.2 15.4-29.9 0-4.1-13.6-15.5-21-17.6-2.7-.8-3.3-.5-5.4 2.3-2.8 3.8-7.8 12.6-21.1 37.2-12.7 23.4-29.9 52-37.8 62.8-16.3 22.3-42.3 53.3-68.1 81.2-40 43.2-63.9 74.8-73.6 97.5-6.5 15.2-9.5 17.8-14.5 12.4-5.7-6.1-10.9-22.7-13.6-43.4-1.7-12.3-1.7-50-.1-61.1 1.7-12 6.8-32.1 9.3-37.2 4.7-9.3 8.8-11.9 27-17.2 31.7-9.3 54.9-22.9 92.8-54.5 17-14.1 23.5-20.4 32.2-30.8 19.5-23.5 21.3-42.8 5.8-59.7-5.8-6.3-12.3-8.8-21.8-8.3-13.4.6-24 7.1-45.4 27.8-38.2 36.8-84.7 97.9-84.7 111.3 0 3.7-4.5 8.2-9.6 9.6-13 3.6-39.8-2.3-57.1-12.5-23.3-13.9-36.9-33.8-44.6-65.4-4.7-19.3-6.7-33.2-13.2-93.5-9.2-84.9-14.5-106.6-30.9-127.1-8.6-10.6-38.4-38.4-41.3-38.4-2.9 0-4.5-8.4-2.1-10.8 4.6-4.6 20.2 3.6 39.7 21 20.1 18 22.9 13.4 12.7-20.8-5.5-18.9-6.3-25.4-3.3-29.2.7-.9 3.2-1.2 8.5-1 8.5.3 9.8-.7 5.8-4.7-5.1-5.1-17.3-2.4-20.9 4.5-3 5.8-1.9 18.2 2.7 29.7 4 10.2 4.3 12.1 2.1 12.9-2.5 1-7.4-1.6-17-8.9-15.2-11.6-22.9-14.5-30-11.2-4.9 2.4-9 8.5-8 12.2 1.1 4.5 4 7.9 24.5 28.8 20.6 21 24.8 26.1 29.9 36.2 9.6 19.2 13.5 41.4 22.1 125.8 8.7 85.1 15 105.6 39.9 130.5 15.9 15.9 32.2 24.3 56.3 29.1 11.2 2.2 14.9 3.8 17.2 7.1 2.4 3.4 1.9 11.5-1.3 22.1-3.9 12.6-4.8 17.7-6.2 35.9-1.4 17.8-.6 43.3 1.6 56.2 3.2 18.6 25.3 67.6 30.4 67.6 1.6 0 3.9-7.4 5.1-16 .6-4.6 2.2-11.8 3.6-16.1 4.8-15.1 18.7-39.5 31.9-55.9 4.9-6 46.7-52.7 77-85.9 7.2-7.8 16.6-19.3 21-25.6 18.1-25.9 50.8-77.8 61.6-97.8 7.5-13.9 11.2-18.7 14.3-18.7 8.3 0 5.6 14-7.1 37.8-19.2 35.8-23.1 46.1-17.4 45.4 5-.5 16.7-10.3 49.1-41 22.5-21.2 28-24.6 28-17.4 0 3.9-7.3 14.1-19.6 27.5-5.5 5.9-14.5 15.8-20.2 22-5.7 6.1-13.8 15.7-18 21.2-4.2 5.5-10.6 13.6-14.3 18-9 10.9-43.2 56.6-56.1 75-19.6 28.1-32.8 50.7-32.8 56.3 0 3.8 4.5 7.9 10.5 9.8 6.4 1.9 22.2 1.8 32.6-.2 20.1-3.8 50.6-16.2 68.2-27.7 34.5-22.5 73.5-66.5 97.6-110.1 13.1-23.7 22.3-47.3 29.6-76.3 4.7-18.6 6.3-22.6 9.8-24.5 1.6-.9 9.3-1.2 27.7-1.3 21.6 0 26.5-.3 32-1.8 21-5.9 35.6-21 44.4-45.5 2.8-8 3.1-9.8 3.1-21.3 0-12.4 0-12.5-3.7-20-4.8-9.7-13-17.7-23-22.4-8.1-3.8-17.4-6.5-22.6-6.5-9.1 0-37.6 12.9-46.5 21-9.7 8.8-12.8 17.7-16.7 47.5-2.4 18.2-4.5 28.5-6.4 31-1.2 1.6-1.6 1.7-7.2 0-6.5-1.8-16-6.7-42.4-21.8-40.9-23.4-77.1-50-105.3-77.6-13.8-13.5-20.7-22.6-20.7-27.2 0-4.6 5.6-9.1 20.4-16.3 7.4-3.7 17.1-9.3 21.5-12.6 20.1-15.2 35.8-38.4 42.7-63 3.5-12.7 4.4-33.4 2-46.2-2-10.6-8.9-31.1-15.4-45.6-5-11.1-11.5-22.2-13.1-22.2-1.5 0-4.3-7.1-3.7-9.5 1-3.9 5.7-5 21.1-5 25.7.1 47.6 6.5 67.6 19.8 20.9 14 44.8 36.4 55.9 52.7 5.2 7.5 7.1 9.6 9.2 9.8 1.6.2 7.3-1.8 14.8-5.3 18.3-8.5 24.3-9.8 43.5-9.9 18.4-.1 23.5 1 38 7.8 16.7 7.9 29.9 20.9 39.3 38.6 7.3 13.6 7.7 16 7.7 47 0 29.4-.7 36-5.2 50.5-2.9 9.3-6.2 15.9-13.2 26.9-6.5 10.2-7.4 14.1-3.8 17.2 1.6 1.4 4.6 2.5 7.4 2.8 14.7 1.8 22.8 4.9 37.8 14.6 22.8 14.8 31.6 26.2 40 51.3 7 21 7.8 33.7 3.4 55.2-5.1 24.6-12.3 43.2-24.9 64.2-34 56.7-74.8 98.1-125.5 127.3-14.1 8.2-26.8 14.2-48.6 22.8-21.1 8.5-25.9 9.8-41 11.1-7.1.7-15.8 2.3-22.4 4.2-7.1 2-11.8 2.9-13.9 2.5-1.8-.4-5.9-2.9-9.2-5.7-10-8.6-17.6-11.3-22.1-7.7-3.3 2.6-.3 10.4 5.1 13.7 5.6 3.5 9.6 8.7 9.6 12.5 0 9.7-19.3 34-42 53-12.8 10.7-21 15.7-41.1 25.4-18.4 8.7-18.4 8.7-74.9 9.2-54.7.5-56.6.6-61 2.6-5.7 2.6-9.5 7-11.7 13.7-1.6 4.7-1.7 10.6-1.8 58.2 0 41.4-.3 54-1.3 57.5-1.1 3.6-3.4 6.5-11.7 14.5-13.7 13.3-15.2 18.3-9 30.4 5.9 11.8 11.1 14.9 25.8 15.8 13.2.7 14.1 1.2 13.3 7-.8 6 1.2 10.5 6.4 13.9 6 4 7.3 7.2 6.5 15.3-.9 8.8.7 19.9 6.1 41.5 2.4 9.9 4.4 18.8 4.4 19.9 0 1.9-.5 2-16.2 1.4-15-.5-54.4-4.4-69.7-6.8-15.4-2.4-16.4-5-19.6-49.9-2.5-36-6.2-63.6-14.1-107-6.3-34.6-8.8-45.1-15.4-65-9.3-28.2-20.6-52.1-34.5-73-6.5-9.6-9.6-13.5-21.7-27.5-7.6-8.7-10.8-14.5-10.8-19.6 0-1.9.9-8.2 2-14.1 5.6-30.7 4.6-50.8-3-65.8-5.9-11.6-37.5-36.9-46.1-37-6.2-.1-30-13.5-34.8-19.7-4.9-6.1-10.7-31.1-17.6-75.3-4.8-30.4-5.8-44.5-5.1-69 .9-29.7 3-48 9.3-80.8 4.6-24.5 2.6-32.9-8.4-33.9-4.2-.5-5.3-.2-8.1 2.2-1.8 1.5-3.9 3.9-4.6 5.4-3.7 7.1-11.5 54-15.1 90.6-2 20.3-4.2 36.9-5.5 41.7-.9 3.2-1.5 3.8-3.9 3.8-5.3 0-7.5-4.2-18.1-35.7-12.6-36.9-25.9-62.3-32.7-62.3-2.8 0-8.4 4-11 7.9-2.8 4.1-3 11.1-.8 25.1 4.5 28.1 19.9 65.7 42.2 102.8 16.6 27.6 30.7 46.1 52.9 69.3 15.8 16.4 18.9 20.9 19.7 28.5.8 7 3.9 15.9 10.2 29.1 11.3 23.8 24.5 43.3 43.3 64.1 6.6 7.4 13.2 15.6 14.6 18.3 2.6 4.6 2.6 5 1.1 7.9-4.9 9.5-33.7 19.5-61.5 21.5-5.2.4-15.3.1-22.5-.5-12.1-1-13.7-1.4-24.3-6-17.9-7.7-40.4-22.7-59.4-39.6-16-14.2-34.8-42.5-34.8-52.2 0-4.1.4-4.9 9.6-18.7 8.7-13.1 15.3-26.7 19-39 3.7-12.4 3.9-27.6.6-35-4-8.6-13.9-17.3-18.6-16.1-3.6.9-14.4 13.2-18.3 21-5.9 11.7-7.6 20-7.7 37.1 0 12.6.3 16.4 2.3 24 5.7 21.8 2.3 31.8-14.6 43.3-3.2 2.2-9.2 6.7-13.3 10.1-8.1 6.6-13.6 9.1-25.1 11.5-23.9 4.8-58 1.7-75.1-7-24.7-12.5-45-34.2-54.9-58.9-8.5-21.4-10.8-45.1-6.4-66.8 1.7-8 4.6-13.2 8.5-15.2 4.1-2.1 10.2-1.9 13.2.5 3.8 2.9 9.5 3.9 30.4 5.1 19.8 1.2 44.9.2 52.6-2.1 5.1-1.5 15.3-11.1 18.5-17.4 5.3-10.4 3.8-26.2-3.7-37.9-9.9-15.7-30-25.7-45.5-22.7-17.7 3.4-40.1 19-61.3 42.6-5 5.5-10.8 11.3-13 12.8-4 2.8-4 2.8-8.4.8-18.9-8.5-59.6-50.9-70.8-73.9-8.5-17.3-15.5-43.5-18.1-67.8-1.6-14.9-.6-40.1 2.1-52.7 6.7-31.6 23.8-61.8 48.7-85.9 21.5-20.8 46.5-34.3 72.8-39.5 15.6-3 41.2-1.5 52.2 3.1 6.1 2.6 6.5 4.1 7.4 30.3.8 26.8 3.1 45.3 8.4 66.7 4.5 18.7 9.6 33.8 15.7 46.4 4.1 8.5 6.2 11.6 12.1 17.5 13.8 13.7 30 18.6 45.6 13.7 10.4-3.2 18.7-10.6 23.4-20.9 3.3-7 3-23.1-.7-36.6-3.8-14.1-8.9-27.3-15.7-41.1-13.6-27.5-31.9-47.1-64-68.6-14.7-9.8-16.5-12.1-16.2-21.1.3-13.7 4.4-33.5 10-48.3 13.8-36.8 43.1-67.7 81.3-85.9 20-9.4 33-12.3 56.2-12.5 7.5-.1 19 .6 25.5 1.4zm469.4 34.8c11.9 7.3 30.6 44.5 35.5 70.5 2 10.7 1.5 33.5-1.1 42.7-2.5 9.4-11.7 27.1-18.9 36.6-14.3 18.8-41.9 40-56.2 42.9-9.2 1.9-14.1-1.7-20.3-15-7.9-17.1-15.1-59.7-13.7-81.8 2.1-33 13.3-57.2 37.2-80.2 9.2-8.9 16-14.1 21.7-16.5 4.9-2.2 11.6-1.9 15.8.8zm-255.3 82.9c24.8 25.3 53.2 57.9 53.2 61.4 0 2.2-7.4 9.8-14.4 14.8-7.5 5.4-17.1 15.3-21.8 22.6-5 7.7-8.1 10.4-12.3 10.4-6.9 0-11.7-7.2-18.8-28.1-8.5-24.8-11.6-45.6-9.7-65.8 1.6-18.1 4.6-30.5 7.3-30.5.8 0 8.2 6.9 16.5 15.2zm-376.3 54.7c7.6 3.5 20.6 14.3 36 29.7 12.2 12.2 19.5 21.1 19.5 23.4 0 .8 3.1 6.6 6.9 13 12.7 21.3 16.5 33.3 16.6 52.5 0 14.5-1.4 20.3-6.5 27.4-3.7 5.1-8.9 7.8-16.6 8.6-30.2 3.5-51.2-25-61.8-83.5-4.4-24.6-7.7-62.3-6.2-70.4.6-3.1 1.1-3.6 3.4-3.6 1.5 0 5.4 1.3 8.7 2.9zm466.8 11.2c5 2.6 17.5 15 20.1 20 4.4 8.4-1.4 8.9-12.8 1.2-10.1-6.9-18.6-15.3-18.6-18.4 0-5.2 4.3-6.3 11.3-2.8zm-18.7 9.7c9.4 6.2 47.9 36.2 48.2 37.7.9 4-15.5 29.3-24 37-8.1 7.3-13.6 8.8-31.8 8.9-14.7.1-15.8-.1-21-2.5-3.1-1.4-9-5.6-13.2-9.2-8.6-7.6-21.8-22.1-21.8-24.1 0-4.3 23.6-31.9 35.6-41.7 13.6-11.1 18.6-12.2 28-6.1zm402 89.3c8.1 2.1 21.8 17.1 24.4 26.9 2.6 9.7-1.8 32.1-8.5 43.5-12.2 20.7-51.9 36.6-74.5 29.9-6-1.8-13.4-6.4-15-9.4-1.5-2.9-1.2-12.5 1-27.7 4.2-28.7 8.8-41.1 18.9-51.2 6.7-6.7 12.3-9.7 21.8-11.6 8.5-1.6 25.9-1.9 31.9-.4zm-629.4 9c1 1.7.9 2.3-3 21.4-11 52.6-11.6 117.5-1.7 178 1.3 8.3 3.1 17.9 3.9 21.5.9 3.6 1.6 8.2 1.6 10.2 0 3.2-.3 3.8-2.2 3.8-5.1 0-14.3-9.3-29.5-30-21.1-28.7-45.5-69.6-53.3-89.5-6.3-15.9-11.9-37.8-14-54.8-1.8-14.8.9-19.8 7.9-14.8 4.3 3.1 8.3 11.8 16.6 36.1 15.3 44.6 27 70 32.3 70 2.4 0 4.3-3.4 5.2-9.4.4-2.8 1.7-10.1 2.8-16.1 3.9-20 8.4-53.3 11.7-86.5.9-8.5 2.8-20.9 4.3-27.5 2.3-10.3 3-12.1 5.2-13.3 3-1.6 10.9-1 12.2.9zm1662.8 41.3c17.1 2.2 29.5 5 50.6 11.5 29.5 9.2 37 10.6 55.9 10.6 19.4 0 23.6-.9 54.2-11.1 35.3-11.8 46.6-14 56.4-11.1 14.7 4.5 28.2 18.5 57.3 60.1 23.2 33.1 34.2 37.9 73.1 32.5 17-2.4 24.2-2.1 30.5 1.1 6.3 3.2 13.2 10.7 17 18.4 2.9 5.8 3.5 8.2 3.8 15.6.7 14.6-2.7 20.3-14.6 23.9-9 2.7-23.9 10-34.2 16.9-10.6 6.9-25.8 22.1-32.9 32.7-2.9 4.4-6 8.4-6.8 8.9-.9.5-7 .6-13.7.4-9.1-.4-13.5-1.1-17.8-2.7-13.7-5.3-19.8-11.9-43.1-46.6-24.1-36-32.8-46.9-45-56.1-8.7-6.6-15.6-9.4-25.6-10.4-11.1-1.2-20.3-5.6-37.6-18.1-24.6-17.7-44.9-28.7-66.9-36.2-10.9-3.7-13.1-4.1-22.2-4.1-10.1-.1-10.1-.1-14.2 3.6-3 2.7-5.3 3.8-8.9 4.3-13.1 1.8-31.3 22.2-40.2 45.1-10.6 27.3-18.1 34.3-50.7 47-15.3 6-17.8 7.3-24.4 12.7-23.9 19.7-45 67.2-46.7 104.7-.8 18.5 2.3 29.4 11.2 39.9 5.5 6.4 6.3 9.2 4.1 13.7-3.6 7.6-2.5 11.1 14.1 46.3 14.7 31.3 22.3 49 22.3 52.2 0 3.4 8 26.4 15.5 44.4 10.3 24.7 19.7 43 27.1 53 10.5 14 36.6 39.5 52.4 51.2 13.3 9.8 21 17 21 19.6 0 8.3-24.3 2.6-55.4-13-53.9-27-96.5-54.7-104.1-67.7-4.2-7.3-6.6-23.4-8.5-58.6-2.4-44.6-6-60.8-17-77-2.2-3.3-10.2-12.5-17.6-20.3-20-20.9-26.1-29.6-28.9-40.6-1.4-5.3-1.5-7.1-.4-11.4 1.7-7.4 10.3-28.4 19.9-48.7 16.3-34.6 20.8-49 26-83 8.7-56.8 15.8-76.8 35.8-100.9 8.2-9.8 19.2-19.2 35.3-30.1 21.3-14.5 34.8-20.6 50.7-22.9 9.3-1.4 30.9-1.2 43.2.3zm-1331.1 20.1c4.7 2.4 11 10.3 12.6 15.8 2.3 7.7 1.9 17.2-.9 23.2-4.4 9.6-15.7 22.8-31.7 37-25.9 23.3-49.6 39.4-77.8 53.1-21.1 10.3-27.1 12.5-29.9 10.8-7-4.4 4.8-29 29.7-61.8 26.6-35.3 57.1-64.2 80.8-76.7 6.2-3.3 12.7-3.8 17.2-1.4zm1393.6 28.9c5.7 1.9 13.6 5.1 17.6 7.1 20.1 10.2 48.1 30.1 51.5 36.7 1.7 3.2 1.4 3.7-5.8 13-2.3 3-3.4 10.6-2.4 16.3.8 4.2 6.3 10.7 10.6 12.5 3.7 1.5 8.9.6 12.4-2.1 3.9-3 6.5-8.8 8.1-18 2.1-12.3 5.3-15.8 12.4-13.9 6.2 1.7 20.7 12.6 33.7 25.5 9.6 9.6 12.3 12.9 13.3 16.2 1.4 5.2 20 33.1 31.5 47.4 4.7 5.9 10.9 12.4 13.8 14.5 2.8 2.2 13.3 7.9 23.2 12.9 11.3 5.6 18.7 10 19.9 11.6 1.9 2.6 1.9 2.7-1.1 12.1-1.7 5.1-4.3 14.1-5.7 19.8-8.9 35.3-17.7 53.4-36.4 74.9-13.6 15.7-19.8 28.3-32.5 65.1-11.2 32.5-30.7 68.9-44.8 83.5-5.6 5.7-10.2 7.3-11.5 3.9-.3-.9.7-7.1 2.3-13.8 5-21.2 3.7-33.6-3.6-33.6-3.2 0-5.3 2.4-6.4 7.1-1.3 5.6-13.6 17.4-28.3 27.2-4 2.7-14.4 8.6-23.2 13.2-8.8 4.6-19.7 10.8-24.3 13.8-10.3 6.8-21.1 16.6-22.8 20.7-1.1 2.8-1 3.5 1.6 7.7 1.6 2.6 5.7 7 9.2 9.8 7.8 6.3 9.8 9 8.2 11-2.1 2.5-8.2 1.7-15.6-2-15.4-7.7-27.6-21.1-56.4-61.8-4.6-6.5-12-16.1-16.4-21.4-13.6-16-15.6-18.7-16.7-22.3-1-3.4-.8-4.1 4.3-13 8.8-15.4 9.8-20.2 4.9-25.1-6.2-6.2-13.3-3.1-28.7 12.7-6.1 6.3-11.6 11.4-12.2 11.4-3.3 0-6.4-2.8-9-7.9-2.4-5.1-2.7-6.6-2.7-16.6 0-13.6 2.1-19.2 9.8-26.1 10.5-9.5 27.4-17.6 36.9-17.8 4.9-.1 6.2.3 9.5 3 11 8.8 18.8 29.2 23.4 61.4 4.3 30.5 4.9 34.2 6.9 39.8 3.7 10.7 13.6 17 22.2 14.1 6.1-2 15.9-11.5 19.7-19.2 1.7-3.5 6.2-10 10-14.4 13-15.4 13.4-17.2 4.9-25-13.6-12.7-13.6-12.6-14.5-30.8-.6-12.7.4-20.9 3.4-27.3 1-2.2 10.6-12.6 23.3-25.2 21-20.9 27-27.9 29.1-33.9 2.3-6.7-3.3-9.6-17-8.9-17 .9-26.4 9.4-35.7 32.3-5.5 13.6-6.5 14.5-11.7 10.5-7.1-5.6-9.6-14.2-7.7-26.6 2.7-17.5 10.5-33.5 27.8-56.2 19.5-25.7 27.1-38.4 32.3-53.7 3.4-9.8 3.4-26.3 0-34.8-4.9-12.4-20.4-31.7-28.8-35.9-4.4-2.1-6-2.3-20.8-2.2-18.8 0-23.6 1.1-40 8.6-6 2.7-14.3 5.8-18.3 6.9-4 1-7.8 2.2-8.5 2.6-7.2 4.3-17.5 16.1-24.3 28-4.6 8.1-10.3 24.3-19.3 55-5.7 19.4-9.7 30.1-14.6 38.8-10.7 19.2-22.9 26.8-43 26.8-15.2 0-19.2-3-24.6-18.5-3.9-11.3-4-24.5-.3-41.9 6.9-33 19-57.6 36.2-74.1 10.1-9.6 19.6-15.2 33.6-19.9 15.8-5.2 22.1-8.5 29.7-15.7 7.1-6.7 10.9-12.9 17.4-28.7 5.9-14.5 13.3-28.1 18.2-33.5 7-7.8 14.1-11.4 29.8-15 12.9-2.9 21-2.6 33 1.4zm-1956 49.1c8.1 3.9 17.8 13.3 21.6 21.1 2.8 5.6 3.1 7.1 2.6 12.2-.2 3.2-1.5 7.8-2.7 10.2-3.3 6.5-11.3 14.5-17.3 17.1-5 2.3-6.2 2.4-27.7 2.4-18.7-.1-24.4-.5-34-2.3-12.9-2.4-22.5-5.4-25.2-7.9-4.4-4-.2-11.3 16.1-27.3 16.5-16.4 30.2-25.2 43.5-28 7-1.5 16.8-.4 23.1 2.5zm2037.6 10.4c2.1 1.7 2.4 2.8 2.4 8.6s-.3 6.9-2.4 8.6c-2.3 1.9-8.6 2.6-10.7 1.1-2.2-1.4-3.4-5.1-3.4-10.2 0-4.1.5-5.6 2.5-7.5 3-3.1 8.3-3.3 11.6-.6zm-81.4 25.7c7.1 2.4 19.6 10.8 25.2 17 6.8 7.4 10.8 16 12.3 26.1 1 7 .9 9.2-.6 16.5-2.2 10.1-6.6 21.9-10.3 27.5-1.6 2.3-5.8 7.6-9.5 11.8-13.1 15.1-31 42.4-35.8 54.7-8.2 21.1-7.4 42.5 2 53.4 2.2 2.5 4.7 5.8 5.5 7.4 2.3 4.4 3.5 15 3.5 31 .1 24.2 2.4 33.2 9.9 38.8 4.3 3.1 6.4 7.6 5.7 11.8-.6 3.2-11.4 20.5-17.9 28.8-8.7 11-19.1 12.7-23.3 3.8-1.9-4-4-14.7-8.4-42-8.6-53.9-18.4-70-41.5-67.9-13.2 1.2-26.2 7.9-38.9 19.9-12.4 11.6-14.7 16.8-13.4 30.3.3 2.7 0 3-2.8 3.3-2.6.3-3.7-.4-6.6-3.7-5.9-6.9-10.1-19.7-16.2-49.6-4-19.2-6.5-27.3-10.2-32.7-3.4-4.8-4.2-10.9-2-14.3 1.5-2.3 2.1-2.5 7-1.9 7.1.8 13.5-1.3 22.3-7.5 11-7.8 20.4-19.1 25.3-30.6 2.9-6.9 8.4-24.3 13.9-44 2.7-9.9 6.4-21.4 8.1-25.5 8.3-20.2 24.5-44 29.9-44 2 0 5.5 3.7 8.3 8.9 3.1 5.7 7.6 3.5 13.3-6.4 4.1-7.2 8.7-12.7 13.2-15.8 9.1-6.3 22.2-8.4 32-5.1zm449.8 10.8c30.9 3.1 58.6 7.4 72.5 11.3 10.3 2.9 30.4 11.5 52.5 22.4 22.2 11 34 18.3 34 20.9 0 1.7-8.3 1.9-27.1.5-9.9-.7-11.9-.6-18 1.3-12.5 3.9-20.5 11.3-46.3 42.8-16.8 20.4-27.5 30.9-33.1 32.4-10.1 2.8-23.3-.9-51.1-14.1-13.6-6.5-18-8.1-24.5-9-15.4-2.2-41.3.9-53.8 6.5-20.7 9.2-44.2 32.1-55.2 53.8-4.2 8.3-7.4 19.7-7.4 26.3-.1 11.2-5 26-11.9 35.3-4.1 5.5-8.4 8.2-38.5 24.1-13.6 7.2-27.8 15.1-31.4 17.5-14.8 9.9-23.8 20.4-26.2 30.8-.9 3.7-2.4 6.2-5.4 9.2-8.8 8.9-26 19.3-32.7 19.8-3 .3-3.4 0-3.7-2.2-.3-2.5 1.3-5.9 10.6-23 5.4-10 9.1-19.4 17.2-44 7.1-21.7 14-38.2 21.1-50.5 4.2-7.5 8.5-13.2 21.2-28.7 13.5-16.5 18.5-27.9 27.7-63.7 3.8-15 8-29.6 9.3-32.5 3.2-7 7.2-9.8 19.2-13.5 18.4-5.6 39.1-18.1 54.5-32.8 7.1-6.7 9.2-9.4 10.1-12.7 1.8-7.1 5-12.4 10.3-17.4 6.8-6.4 13.1-10 20.8-11.7 8.5-2 62.6-1.4 85.3.9zm-121.5 18.2c0 2.8-6.9 12.1-14 18.8-21 19.8-53.6 35.7-54.8 26.9-.5-3.2 5-9.6 18.3-21.6 16.5-14.9 24.7-20.8 32.3-23.4 8.1-2.7 18.2-3.1 18.2-.7zm-2159.3 11.9c4.1 2.9 5.6 9.3 5 21.8-.6 12.8-3 21.4-9.8 35-9.9 19.6-16.1 25-19.7 16.9-1.3-2.9-1.6-7-1.7-20.2 0-17.1 1.1-25.7 4.6-36.4 4.7-14.1 14.6-22 21.6-17.1zm2430.9 36.3c15.3 4.9 33.4 15.8 50.7 30.6 12.7 10.9 16.1 18.6 8.3 18.6-3.5 0-9.6-3.7-22.1-13.5-8.3-6.6-26.4-15.8-35.5-18.1-11.7-2.9-22.1-.2-37.4 10-10.9 7.3-27.6 24.6-33.7 35.2-2.6 4.3-6.8 11.6-9.5 16.2-10.6 18.1-19.5 27.2-28.3 28.7-7.7 1.3-24.5-4.7-32.8-11.7-5.8-4.9-20.8-10.8-27.5-10.8-10.1 0-26.4 10.4-32.4 20.6-6.2 10.6-8.9 22.6-13.4 60.9-3.3 28.2-5.1 38-8.2 44.5-4.7 9.7-19 20-29.8 21.5-3.7.5-6.2 0-13.5-2.8-12.8-4.9-25.2-8.5-31.6-9.3-8-.9-14.1 2-22.3 10.6-7.7 8.2-9.1 11.8-8.3 21.4 1 12.2 9.7 33.1 23 55.4 3.6 5.9 8.1 13.9 10.1 17.9 4.1 8.3 4.3 7-3.9 25.8-2.5 5.7-4.5 11.7-4.5 13.4 0 3.4 3.8 8.4 8.1 10.6 9.1 4.8 18-1.7 28.8-20.8 6.7-12 15.7-23.3 26.2-33 14.1-13.2 26.9-20.6 38.9-22.7 16.5-2.9 136.3-2.1 159.5 1.1 16.4 2.2 19.3 2.2 23.8.5 5.2-2 9-5.7 11.2-11 1.3-3 1.5-5.6 1-12.5-.6-7.4-.5-8.9.9-10 3.7-3.1 16.4 4 19.9 11 1.5 3.2 1.6 4.1.4 8-.8 2.5-4.1 8.7-7.4 13.9-11.6 18.2-17.8 33.2-20.8 50.4-2.1 12.5-1.9 17 1.6 32.2 3.9 16.6 3.8 16.9-6.8 16.2-5.5-.4-8.8-1.3-13.6-3.6-3.6-1.8-7.6-3.2-9-3.2-6.1 0-17.7 13.5-17.7 20.5 0 1.7-.7 4.1-1.6 5.4-1.5 2.1-2.3 2.3-6.3 1.8-10.8-1.3-37.7-12.2-42.3-17.2-3.7-4-10.6-4.1-14.4-.4-2.5 2.6-2.6 2.9-1.5 8 1.6 7.2 8.9 22.3 15.8 32.8 3.2 4.7 11 14 17.4 20.6 12.3 12.7 14.2 15.5 15.4 22.1.7 4.4-.8 17.6-2.6 23.2-1.3 4.1-1.7 4-17-2.4-11.3-4.7-21.1-10.9-31.1-19.6-7.2-6.3-21.4-22.5-28.2-32.3-15.5-22.1-25.4-33.4-36.2-41.1-12.9-9.2-25.7-13-48.6-14.4-17.9-1.1-33.3-3.1-49.8-6.5-20.5-4.2-31.2-9.2-43.1-20.3-9.2-8.5-17.1-20.5-29.4-44.2-16-30.9-24.2-42.2-39.1-54-8.2-6.6-10.4-10.2-10.4-17.2 0-7.2 3.3-20 6.6-25.6 6-10.2 18.6-19.4 47.4-34.7 32-16.9 46.9-28.7 53.1-41.9 2.6-5.6 3.3-8.5 4-18.4 1.2-14.8 2.9-21.4 8.4-32.7 9.3-19.1 26.6-35.7 48-46 18.4-8.8 39.5-9.6 63.9-2.4 3.7 1.1 14.1 5.2 23 8.9 8.9 3.8 19 7.7 22.6 8.6 8.2 2.1 17.2 1.5 23.7-1.7 9.8-4.6 47.4-44.8 51.8-55.2 2-4.8 15.7-14.4 26.4-18.4 5.9-2.2 20.8-1.1 31.7 2.5zm-2291.3 16.4c51.3 23.5 68.2 43.9 64.7 78.2-1.1 10.9-4.2 23.6-6.6 27.3-3.3 5.1-9.5 1-21.8-14.4-23-28.5-50.1-74.4-52.2-88-1.2-8.4 2.7-9.1 15.9-3.1zm2292 10.3c7.7 2 13.4 5 30.9 16.1 17 10.8 31.3 18.3 36.6 19.1 5.9.9 8.8 2.9 12.1 8.3 6.4 10.4 19.1 42.8 19.1 48.8 0 3.3-.9 4.9-6 10.8-3.3 3.8-6.7 8.3-7.5 10.1-2.9 6.1-2.3 7.2 8.8 16.8 4.5 3.9 6.2 9.7 5.3 18.4-1.3 12.3-4.7 24-19.4 66.6-9.1 26.4-13.3 41.4-15.2 54-.6 3.8-1.5 21.8-2 40-1.2 42.4-2.5 52.3-9.3 67-8.3 18.2-32.3 43.1-69.5 72.5-17.2 13.6-35.1 26.2-42.7 30-6 3.1-6 3.1-6.9 1-.6-1.4-.6-5.6.2-11.8 2.3-18.5 1.9-19.7-9.1-27.6-14.8-10.6-37.7-39.4-37.7-47.5 0-4.5 11.5-3.9 18.9.9 2.5 1.7 7 3.8 10.1 4.6 11.9 3.3 13.6 4.2 37.7 20.6 11.1 7.5 24.4 10.2 29.1 5.8 1.2-1.1 1.9-2.7 1.6-3.5-.9-2.2-8.8-7.6-17.9-12.3-15.3-7.9-18.8-12.8-16.6-22.8.9-3.8 2.1-6.1 4.2-7.9 4.5-3.7 8.9-3.3 18.5 1.6 6.3 3.2 8.7 3.9 11.6 3.6 5.2-.7 9.5-4.1 10.9-8.5.6-2.1 1.5-16.1 1.9-31.7 1.1-36.2 1.6-38.2 16.8-62.4 7.1-11.3 13.1-18.1 16-18.1.9 0 5 1.1 9 2.5 12 4.1 20.3 2.8 18.7-2.9-.4-1.1-.9-2.9-1.1-3.8-.3-.9-2.2-3.2-4.3-5.1-3.8-3.4-10.4-5.7-16.9-5.7-4.8-.1-12.5-3.5-24.7-10.9-12.9-7.9-43.2-23.1-60.8-30.6-10.8-4.5-21.7-7.9-29-9-2.2-.4-5.2-1.9-7.4-3.8-3.3-2.9-4.3-3.2-9.7-3.1-8.3 0-16.2 3.9-24.4 12-7.2 7-7.8 9.6-2.6 12.6 4.1 2.4 13.9 3.6 38.4 4.8 23.7 1.1 33.2 3 45.6 9 19.4 9.4 28.4 20.9 23.9 30.4-2.6 5.5-6.9 8.1-13.5 8.1-6.5 0-11.7-3-12.6-7.3-1.5-7.3-4-12-9-16.8-10.7-10.5-25.2-14.7-30.9-8.9-2.7 2.6-3.2 6.3-1.4 9.8.6 1.2 4.5 5.5 8.8 9.5 7.1 6.8 7.5 7.4 5.6 8.5-1.5.9-19.4 1.4-69 1.8-44.3.4-68.7 1-72 1.8-2.7.6-7.9 2.5-11.5 4.2-18 8.4-42.5 33.9-55.9 58.4-1.9 3.3-4.9 8.2-6.9 10.8-2.8 3.9-3.9 4.8-6 4.5-4.2-.5-5.9-4.6-4.4-10.3.7-2.5 2.4-6.4 3.8-8.6 5.9-9.5 6.9-18.2 3-27.8-1.3-3.2-6.5-12.7-11.6-21.1-23.6-39-27.4-56.5-14.7-67.7 8.4-7.4 19.7-7.2 41.7.7 23.7 8.5 30.4 7.4 46-7.7 12.6-12.1 14.6-17.2 18-45.3 1.1-9.1 2.7-22.4 3.6-29.5 4.1-34.4 11.7-51.2 25.1-55.1 8.7-2.5 18.8-.3 37.3 8.4 10.9 5.1 22.9 9.2 28.8 9.9 9.5 1 22.5-6.7 31.8-19 2.5-3.4 7.1-11.1 10.1-17.2 14.9-29.6 32.6-46.6 55.3-53.1 6-1.7 8.5-1.7 15.3.1zm-557.8 62.5c1.7 1.9 1.7 2.3.3 5.3-3.7 7.7-18.6 24.7-27.1 30.8-3.7 2.7-4.3 2.8-5.3 1.4-3.7-5.1 9.9-28.6 21-36.2 5.5-3.8 8.5-4.1 11.1-1.3zm-220.3 20.7c2.7 3.2 3.8 6.1 4.5 12.3.5 5.5.4 6-1.4 6-2.3 0-5.7-3.5-10.7-11-5-7.6-4.8-9 1.2-9 3.4 0 5.4.5 6.4 1.7zm94.2 91.9c2.3 5.9-1.5 16.2-7.4 20.1-3.8 2.6-10.1 3.1-12 .8-1.8-2.1 1.7-8.7 8.6-16.3 5.7-6.3 9.5-7.9 10.8-4.6zm596 25.9c14.7 4.2 22.3 9.2 16.9 10.9-7.5 2.3-37.2 3.6-40.2 1.7-1.2-.8-1.2-1.6-.1-5.6 2.1-7.4 4.3-9.5 10-9.5 2.6 0 8.7 1.1 13.4 2.5zm-413 36.1c0 6.1-.5 7.8-4.2 14.9-12.2 23.5-44.1 51.4-61.2 53.6-3.3.5-9.7-2.5-13.8-6.5-13.2-12.3-5.6-24.2 24.2-38 11.7-5.3 27-14.2 40.5-23.3 6.8-4.6 12.9-8.2 13.5-8 .7.2 1.1 3.1 1 7.3zm439.4 3.8c9.1 4.7 11.9 16 3 12.3-6.7-2.8-14.7-11.8-11.5-13 2.3-1 5.8-.7 8.5.7zm-354.9 5.7c7.9 4 21.6 16.9 29.5 27.9 3.3 4.5 10.6 17.4 16.2 28.7 13.1 26.1 20.7 37.5 32.1 48.4 16.9 16 29.9 20.4 76.7 25.9 62.6 7.4 68.1 10.6 102.7 59 18 25.1 28.7 34.8 50.4 45.5 15.7 7.8 31.4 13.2 66.4 22.9 30.1 8.4 44.4 13.8 71.6 27 40.3 19.6 67.7 37.6 70.6 46.4 1.7 5.3 7.3 12.6 13.6 17.7 5.9 4.8 8.6 5.5 11.5 2.8 3.8-3.4 1.6-8.3-11.9-26.3-11-14.6-15.6-23.2-17.7-33.2-.9-4-3.2-22.2-5.1-40.3-5.3-50.1-8.2-68.6-12.4-79.3-2.9-7.2-2.6-11.2 1.1-19.5 3-6.8 3.2-7.9 3.2-19.2 0-6.6-.3-20.3-.8-30.5-.8-16.4-.7-18.9.8-21.7 2.3-4.5 4.9-5.6 11.7-5.1 18.7 1.4 51.8 28.4 79.5 64.9 26.9 35.5 53.5 85.1 70.7 131.5 20.8 56.1 26.1 102.5 17.2 148.3-3.9 19.6-6.3 27.1-9.4 28.3-1.4.6-15.9 1.4-32.1 1.8-16.9.5-34.6 1.5-41.5 2.5-28 3.8-58.4 11-82.5 19.5-9.3 3.3-16.8 5.3-21 5.6-6 .5-7.3.3-16.3-3.5-15.9-6.7-45.8-20.7-84.7-39.6-69.6-33.9-91.1-43.3-120.5-52.8-35.6-11.6-72.8-16-101.9-12.2-58.5 7.7-111.6 37.7-176.6 100-27 25.8-34.4 31.5-39.3 29.9-1.2-.4-6.5-3.2-11.7-6.2-5.2-3-18.5-9.9-29.5-15.2-24-11.8-35.7-20.1-54.5-39-31.6-31.6-48.5-60.3-58.5-99.4-4.7-18.4-5.9-29.7-5.2-49 .7-19.3 3.3-33.1 10.5-55.2 10.6-32.2 15.7-38.6 42.7-52.9 15.4-8.2 21.9-12.7 30.6-21.6 12.8-12.9 24.5-32.1 47.4-77.9 17.3-34.7 33.7-62 43.4-72.4 4.8-5.1 15.1-12.9 19.2-14.5 4.1-1.7 7.4-1.2 13.8 2zm-46.9 10.4c0 1.3-3.5 7.1-10 17.1-4.2 6.3-7.6 12.8-8.5 16.2-.9 3.1-2 6.8-2.4 8.2-.8 3.1-4 3.8-5.8 1.4-1.5-2.1-1.7-9.7-.3-12.4.5-1 2.1-2.1 3.5-2.4 1.6-.4 2.7-1.5 3-3.4 1.1-5.2 4.1-9.7 11.4-17.4 6.6-7 9.1-9 9.1-7.3zm-29 51c1.8 2.1-.2 6.5-2.9 6.5-2.2 0-5.1-2.5-5.1-4.4 0-3.4 5.7-4.9 8-2.1zm-1569.3 1.7c6.4 7.1 8.1 22.5 3.4 31.7-2.4 4.6-4.6 6.1-9.2 6.1-8.3 0-16.9-9.8-15.6-17.7 1.1-6.6 13.5-22.3 17.6-22.3 1 0 2.7 1 3.8 2.2zm2135 54.8c1.5 4.5 1.6 23.1.1 28.1-1.5 5.2-3.9 7.1-9.7 7.7-4.2.4-5 .1-6.5-1.9-2.5-3.6-2-5.7 3.4-16.2 2.7-5.4 5.2-11.4 5.5-13.5 1.5-8.8 4.9-10.9 7.2-4.2zm-2673.2 11.9c42.9 5.1 95.2 13.5 200.5 32.1 90.9 16.1 155.4 26.6 214.5 35 33.4 4.8 40.8 6.8 45.3 12.5 3.1 3.9 3.5 9.3 1.7 22.2-4.3 29.7-14.8 47.9-33.1 56.9-7.1 3.6-8.5 3.9-17.9 4.2-13.5.5-16.6-.4-54.4-15.4-46.2-18.5-59.2-22.4-73.8-22.4-16.9 0-42.7 11.5-53.3 23.8-10.8 12.5-17.2 34.7-16.3 56.9.4 12.2.4 12.2-3.4 10.9-5.3-1.9-15.7-7.2-22-11.2-9.1-5.8-18.9-10.3-38.2-17.6-32.7-12.3-41-14.2-68.5-16-19.7-1.2-56.7.1-76.6 2.6-5.8.8-15.9 2.1-22.5 3-18.8 2.4-38.2 3.6-61 3.6-41.1 0-57-5.2-75.2-24.4-28.4-29.9-34-66.7-15.3-101.3 15.7-29.1 48.4-50.3 88-56.8 12.8-2.1 58.1-1.3 81.5 1.4zm2070.1 3.5c.8 2.2-3.2 9.7-9 16.7-8.4 10-27.3 25.9-30.9 25.9-1 0-3.2 1.3-4.9 3-1.6 1.6-3.2 3-3.5 3-1.6 0 1.1-9.9 3.7-14 5.3-8.2 24.2-25.1 36.5-32.5 6.5-3.9 7.3-4.1 8.1-2.1zm586.9 34c4.6 1 7.6 2.2 8.7 3.6 5.7 7 9.9 28.3 16.3 83.8 2.3 19.4 4.5 34.1 7.1 45.9.6 3.2.5 3.3-2.5 3.3-4.6 0-13.4-3.9-25.8-11.3-21.3-12.9-69.6-34.6-87-39.1-3.3-.9-9.9-1.9-14.7-2.2-10.5-.8-13.6-2.7-13.6-7.9 0-4.9 1.8-8.2 4.9-9 10.4-2.6 45.1-28.4 70.9-52.8 13.2-12.4 20.6-17.2 25.7-16.3 1.7.3 6.2 1.2 10 2zm-674.7 49.4c.2 1.1-1.5 8.3-3.6 15.9-11.3 39.2-13.4 61.9-8.7 92.8 7.8 51.7 31 94.6 68.9 127.2 15.3 13.1 33.3 24.8 58.3 37.7 23.2 11.9 29.7 16.3 32.5 21.7 1.1 2.2 2.5 8.6 3.4 15.8 1.5 12.8 2.5 16.5 5.1 19.3 2 2.3 8.6 2.4 10.7.2 1.9-1.8 1.8-1.3 2-22 .1-16.1.1-16.1 3.9-21.7 3.4-4.9 26.7-27.4 49.9-48.2 12.9-11.5 28.3-23.2 45.8-34.9 35.6-23.7 50.5-30.6 75.5-35.2 8.7-1.7 15.4-1.9 52.5-1.9 46.6 0 50.1.3 70.8 6.5 36.2 10.7 200.2 90 200.2 96.8 0 1.9-11.8 9.1-30 18.2-22.4 11.2-41.5 21.5-60.3 32.7-8.6 5.1-18.5 10.7-22 12.4-8.6 4.4-32.5 19.6-89.6 56.8-84.1 54.9-99.6 64.4-144.1 88.1-48.6 26-110 53-137 60.3-10.7 2.9-12.7 3.1-28 3.1-15.2 0-17.2-.2-25.5-2.8-14.3-4.4-32.6-14.1-49-26.1-27.7-20.3-69.5-61.3-83.2-81.7-6.7-10-8-11.5-11.6-13.3-1.2-.5-2.4-2.4-2.7-4-.9-4.2-3.4-8.8-14-25.5-28.5-45.3-45.6-98.7-50.9-159-3.7-42.5-1.3-91.8 5.8-119.1 2.8-11 15.5-43.9 20.8-54.1 2.5-4.7 8.1-13.4 12.4-19.2 13.2-17.8 36.6-40.5 40.3-39.3.6.2 1.2 1.3 1.4 2.5zm-139.4 127.4c3 1.3 6.9 8.7 6.4 12-.5 3.5-4.2 3.5-7.7.1-3.2-3.2-4.9-9.7-3-11.9 1.4-1.7 1.2-1.7 4.3-.2zm996 117.8c5.6 1.7 9 5.4 8.1 8.8-1 4-8.3 13-16.1 19.5-8.3 7.1-18.2 11.9-28.8 14.2-15.5 3.4-48.3.9-84.3-6.4-38-7.8-36.1-13.5 8-24.6 24-6 44.7-9.9 62.8-12 14.4-1.6 44.4-1.3 50.3.5z"/></svg>