<svg xmlns="http://www.w3.org/2000/svg" version="1.0" viewBox="0 0 857 956" fill="#EE5F79"><path d="M519.8 36.7c.6.2 1.8.2 2.5 0 .6-.3.1-.5-1.3-.5-1.4 0-1.9.2-1.2.5zm-129 28c.7.3 1.6.2 1.9-.1.4-.3-.2-.6-1.3-.5-1.1 0-1.4.3-.6.6zm10 0c.6.2 1.8.2 2.5 0 .6-.3.1-.5-1.3-.5-1.4 0-1.9.2-1.2.5zm-63.1 1.4c.7.7 1.5 1 1.8.7.3-.3-.2-.9-1.2-1.2-1.4-.6-1.5-.5-.6.5zm211.6 94.6c.9.2 2.3.2 3 0 .6-.3-.1-.5-1.8-.5-1.6 0-2.2.2-1.2.5zm-9.7 8c-.6 1.4-.5 1.5.5.6.7-.7 1-1.5.7-1.8-.3-.3-.9.2-1.2 1.2zm-14.1 55.2c-.3.5-.2 1.2.3 1.5.5.3.9-.1.9-.9 0-1.7-.3-1.9-1.2-.6zm-185.7 36.8c.7.3 1.6.2 1.9-.1.4-.3-.2-.6-1.3-.5-1.1 0-1.4.3-.6.6zm262.7 1.3c-.3.5-.1 1 .4 1 .6 0 1.1-.5 1.1-1 0-.6-.2-1-.4-1-.3 0-.8.4-1.1 1zm96.8 97c0 2.5.2 3.5.4 2.2.2-1.2.2-3.2 0-4.5-.2-1.2-.4-.2-.4 2.3zm-280.2 40.6c0 1.1.3 1.4.6.6.3-.7.2-1.6-.1-1.9-.3-.4-.6.2-.5 1.3zm-71.3 1.1c.7.3 1.6.2 1.9-.1.4-.3-.2-.6-1.3-.5-1.1 0-1.4.3-.6.6zm9 6c.6.2 1.8.2 2.5 0 .6-.3.1-.5-1.3-.5-1.4 0-1.9.2-1.2.5zm110.5 9.3c0 3 .2 4.3.4 2.7.2-1.5.2-3.9 0-5.5-.2-1.5-.4-.2-.4 2.8zm-68.5-2.3c.7.3 1.6.2 1.9-.1.4-.3-.2-.6-1.3-.5-1.1 0-1.4.3-.6.6zm166.3 24.9c0 1.1.3 1.4.6.6.3-.7.2-1.6-.1-1.9-.3-.4-.6.2-.5 1.3zm-247.3 2.1c.7.3 1.6.2 1.9-.1.4-.3-.2-.6-1.3-.5-1.1 0-1.4.3-.6.6zm-41.4 4.5-2.9 3.3 3.3-2.9c1.7-1.7 3.2-3.1 3.2-3.3 0-.8-.8-.1-3.6 2.9zm47.7 14.4c0 1.1.3 1.4.6.6.3-.7.2-1.6-.1-1.9-.3-.4-.6.2-.5 1.3zm84.9 17.8c0 .2.8 1 1.8 1.7 1.5 1.3 1.6 1.2.3-.4s-2.1-2.1-2.1-1.3zm-110.1 5.3c-1.3 1.6-1.2 1.7.4.4.9-.7 1.7-1.5 1.7-1.7 0-.8-.8-.3-2.1 1.3zm65.9-1c.7.3 1.6.2 1.9-.1.4-.3-.2-.6-1.3-.5-1.1 0-1.4.3-.6.6zm320 18c.6.2 1.8.2 2.5 0 .6-.3.1-.5-1.3-.5-1.4 0-1.9.2-1.2.5zm-21.5 1c.9.2 2.3.2 3 0 .6-.3-.1-.5-1.8-.5-1.6 0-2.2.2-1.2.5zm-371.2 2.9c0 1.1.3 1.4.6.6.3-.7.2-1.6-.1-1.9-.3-.4-.6.2-.5 1.3zm393.7-.9c.7.3 1.6.2 1.9-.1.4-.3-.2-.6-1.3-.5-1.1 0-1.4.3-.6.6zm15 0c1.2.2 3.2.2 4.5 0 1.2-.2.2-.4-2.3-.4s-3.5.2-2.2.4zm-412.7 2.9c0 1.1.3 1.4.6.6.3-.7.2-1.6-.1-1.9-.3-.4-.6.2-.5 1.3zm-10.2 28.1c-1.3 1.6-1.2 1.7.4.4 1.6-1.3 2.1-2.1 1.3-2.1-.2 0-1 .8-1.7 1.7zm412.4 31c.9.2 2.3.2 3 0 .6-.3-.1-.5-1.8-.5-1.6 0-2.2.2-1.2.5zm-56 1c.9.2 2.3.2 3 0 .6-.3-.1-.5-1.8-.5-1.6 0-2.2.2-1.2.5zm-23.5 1c.7.3 1.6.2 1.9-.1.4-.3-.2-.6-1.3-.5-1.1 0-1.4.3-.6.6zm-43.5 1c.9.2 2.3.2 3 0 .6-.3-.1-.5-1.8-.5-1.6 0-2.2.2-1.2.5zm74.3 1.1c-.9.2-1.6.7-1.6 1.2 0 .7 11.9.2 12.8-.5.5-.5-9.4-1-11.2-.7zm-283.3.9c.9.2 2.3.2 3 0 .6-.3-.1-.5-1.8-.5-1.6 0-2.2.2-1.2.5zm107.5 0c1.7.2 4.7.2 6.5 0 1.7-.2.3-.4-3.3-.4-3.6 0-5 .2-3.2.4zm153 0c1.2.2 3.2.2 4.5 0 1.2-.2.2-.4-2.3-.4s-3.5.2-2.2.4zm-45 1c.7.3 1.6.2 1.9-.1.4-.3-.2-.6-1.3-.5-1.1 0-1.4.3-.6.6zm-23.5 1c.9.2 2.3.2 3 0 .6-.3-.1-.5-1.8-.5-1.6 0-2.2.2-1.2.5zm58.5 0c.6.2 1.8.2 2.5 0 .6-.3.1-.5-1.3-.5-1.4 0-1.9.2-1.2.5zm-106.5 1c.9.2 2.5.2 3.5 0 .9-.3.1-.5-1.8-.5-1.9 0-2.7.2-1.7.5zm95.5 0c.6.2 1.8.2 2.5 0 .6-.3.1-.5-1.3-.5-1.4 0-1.9.2-1.2.5zm67 0c.7.3 1.6.2 1.9-.1.4-.3-.2-.6-1.3-.5-1.1 0-1.4.3-.6.6zM376 574c0 .5.7 1 1.5 1s1.5-.5 1.5-1c0-.6-.7-1-1.5-1s-1.5.4-1.5 1zm57.5 0c.3.5 2.4 1 4.6 1 2.1 0 3.9-.5 3.9-1 0-.6-2.1-1-4.6-1-2.7 0-4.3.4-3.9 1zm207.3-.3c1.2.2 3 .2 4 0 .9-.3-.1-.5-2.3-.4-2.2 0-3 .2-1.7.4zm-21 1c.7.3 1.6.2 1.9-.1.4-.3-.2-.6-1.3-.5-1.1 0-1.4.3-.6.6zm-35.5 1c1.5.2 3.7.2 5 0 1.2-.2 0-.4-2.8-.4-2.7 0-3.8.2-2.2.4zm10.5 0c.6.2 1.8.2 2.5 0 .6-.3.1-.5-1.3-.5-1.4 0-1.9.2-1.2.5zm-43 1c.6.2 1.8.2 2.5 0 .6-.3.1-.5-1.3-.5-1.4 0-1.9.2-1.2.5zm5 0c.6.2 1.8.2 2.5 0 .6-.3.1-.5-1.3-.5-1.4 0-1.9.2-1.2.5zm-140 1c1.2.2 3 .2 4 0 .9-.3-.1-.5-2.3-.4-2.2 0-3 .2-1.7.4zm-22 1c1.7.2 4.7.2 6.5 0 1.7-.2.3-.4-3.3-.4-3.6 0-5 .2-3.2.4zM350.3 599c0 3.6.2 5 .4 3.2.2-1.7.2-4.7 0-6.5-.2-1.7-.4-.3-.4 3.3zm353.8 2.6c0 1.1.3 1.4.6.6.3-.7.2-1.6-.1-1.9-.3-.4-.6.2-.5 1.3zm-279.3 1.1c.7.3 1.6.2 1.9-.1.4-.3-.2-.6-1.3-.5-1.1 0-1.4.3-.6.6zm8.2 2.7c0 .2.8 1 1.8 1.7 1.5 1.3 1.6 1.2.3-.4s-2.1-2.1-2.1-1.3zm-82.8 7.1c0 1.6.2 2.2.5 1.2.2-.9.2-2.3 0-3-.3-.6-.5.1-.5 1.8zm143 2.5c0 1.4.2 1.9.5 1.2.2-.6.2-1.8 0-2.5-.3-.6-.5-.1-.5 1.3zm-30.2 2.6c0 .8.5 1.2 1 .9.6-.4.8-1.1.5-1.6-.9-1.4-1.5-1.1-1.5.7zm19.6 1.7c.3 1 .9 1.5 1.2 1.2.3-.3 0-1.1-.7-1.8-1-.9-1.1-.8-.5.6zm-133.4 5.2c0 1.6.2 2.2.5 1.2.2-.9.2-2.3 0-3-.3-.6-.5.1-.5 1.8zm-3.1.1c0 1.1.3 1.4.6.6.3-.7.2-1.6-.1-1.9-.3-.4-.6.2-.5 1.3zM466 624c-.9.6-1 1-.3 1 .6 0 1.5-.5 1.8-1 .8-1.2.4-1.2-1.5 0zm240.3 8.5c0 4.4.2 6.1.4 3.7.2-2.3.2-5.9 0-8-.2-2-.4-.1-.4 4.3zm-360.1 1c0 1.6.2 2.2.5 1.2.2-.9.2-2.3 0-3-.3-.6-.5.1-.5 1.8zm8.1 11c0 2.7.2 3.8.4 2.2.2-1.5.2-3.7 0-5-.2-1.2-.4 0-.4 2.8zm304.3-2.8c-.6 1.4-.5 1.5.5.6.7-.7 1-1.5.7-1.8-.3-.3-.9.2-1.2 1.2zm-60.7 3c-1.3 1.6-1.2 1.7.4.4.9-.7 1.7-1.5 1.7-1.7 0-.8-.8-.3-2.1 1.3zM703.2 655c0 1.4.2 1.9.5 1.2.2-.6.2-1.8 0-2.5-.3-.6-.5-.1-.5 1.3zm-358 7.5c0 1.6.2 2.2.5 1.2.2-.9.2-2.3 0-3-.3-.6-.5.1-.5 1.8zm5 1.5c0 1.9.2 2.7.5 1.7.2-.9.2-2.5 0-3.5-.3-.9-.5-.1-.5 1.8zm354.2 10.5c0 4.9.1 7.1.3 4.8.2-2.3.2-6.4 0-9-.2-2.6-.3-.8-.3 4.2zm-3.2-1.5c0 1.4.2 1.9.5 1.2.2-.6.2-1.8 0-2.5-.3-.6-.5-.1-.5 1.3zm-2.9 6c0 2.5.2 3.5.4 2.2.2-1.2.2-3.2 0-4.5-.2-1.2-.4-.2-.4 2.3zm-345 2c0 3 .2 4.3.4 2.7.2-1.5.2-3.9 0-5.5-.2-1.5-.4-.2-.4 2.8zm-5.2 5.6c0 1.1.3 1.4.6.6.3-.7.2-1.6-.1-1.9-.3-.4-.6.2-.5 1.3zm.2 9.4c0 4.1.2 5.8.4 3.7.2-2 .2-5.4 0-7.5-.2-2-.4-.3-.4 3.8zm2 3.5c0 3.8.2 5.3.4 3.2.2-2 .2-5.2 0-7-.2-1.7-.4-.1-.4 3.8zm347 7c0 2.7.2 3.8.4 2.2.2-1.5.2-3.7 0-5-.2-1.2-.4 0-.4 2.8zm-195.5 8.2c.6.2 1.8.2 2.5 0 .6-.3.1-.5-1.3-.5-1.4 0-1.9.2-1.2.5zm-147.6 4.8c0 1.6.2 2.2.5 1.2.2-.9.2-2.3 0-3-.3-.6-.5.1-.5 1.8zm-9 7c0 1.6.2 2.2.5 1.2.2-.9.2-2.3 0-3-.3-.6-.5.1-.5 1.8zm78.7 10.2c-1.3 1.6-1.2 1.7.4.4 1.6-1.3 2.1-2.1 1.3-2.1-.2 0-1 .8-1.7 1.7zm116.4 12c.9.2 2.5.2 3.5 0 .9-.3.1-.5-1.8-.5-1.9 0-2.7.2-1.7.5zm109.5 0c.7.3 1.6.2 1.9-.1.4-.3-.2-.6-1.3-.5-1.1 0-1.4.3-.6.6zm-109 3c1.2.2 3 .2 4 0 .9-.3-.1-.5-2.3-.4-2.2 0-3 .2-1.7.4zm8 0c1.2.2 3.2.2 4.5 0 1.2-.2.2-.4-2.3-.4s-3.5.2-2.2.4zm38 0c1.2.2 3.2.2 4.5 0 1.2-.2.2-.4-2.3-.4s-3.5.2-2.2.4zM365.5 756c.3.5.8 1 1.1 1 .2 0 .4-.5.4-1 0-.6-.5-1-1.1-1-.5 0-.7.4-.4 1zm170.3.7c.7.3 1.6.2 1.9-.1.4-.3-.2-.6-1.3-.5-1.1 0-1.4.3-.6.6zm38 0c.7.3 1.6.2 1.9-.1.4-.3-.2-.6-1.3-.5-1.1 0-1.4.3-.6.6zm9 0c1.8.2 4.5.2 6 0s0-.4-3.3-.4-4.5.2-2.7.4zm12 0c.7.3 1.6.2 1.9-.1.4-.3-.2-.6-1.3-.5-1.1 0-1.4.3-.6.6zm-191.5 1.8c0 .8.4 1.2.9.9.5-.3.6-1 .3-1.5-.9-1.3-1.2-1.1-1.2.6zm193.5 1.2c.6.2 1.8.2 2.5 0 .6-.3.1-.5-1.3-.5-1.4 0-1.9.2-1.2.5zm16.5 1c.9.2 2.3.2 3 0 .6-.3-.1-.5-1.8-.5-1.6 0-2.2.2-1.2.5zm160.9 2.3c0 1.9.2 2.7.5 1.7.2-.9.2-2.5 0-3.5-.3-.9-.5-.1-.5 1.8zm-3.1 3.6c0 1.1.3 1.4.6.6.3-.7.2-1.6-.1-1.9-.3-.4-.6.2-.5 1.3zm-102 7c0 1.1.3 1.4.6.6.3-.7.2-1.6-.1-1.9-.3-.4-.6.2-.5 1.3zM519.2 787c0 1.4.2 1.9.5 1.2.2-.6.2-1.8 0-2.5-.3-.6-.5-.1-.5 1.3zm-36.4 10.7c.7.3 1.6.2 1.9-.1.4-.3-.2-.6-1.3-.5-1.1 0-1.4.3-.6.6zm285.2.3c-.9.6-1 1-.3 1 .6 0 1.5-.5 1.8-1 .8-1.2.4-1.2-1.5 0zm-3.1 3.7c-1.3 1.6-1.2 1.7.4.4 1.6-1.3 2.1-2.1 1.3-2.1-.2 0-1 .8-1.7 1.7zm-371.8 12.9c0 1.1.3 1.4.6.6.3-.7.2-1.6-.1-1.9-.3-.4-.6.2-.5 1.3zm312.7 27.1c.7.3 1.6.2 1.9-.1.4-.3-.2-.6-1.3-.5-1.1 0-1.4.3-.6.6zm-199.9 2c-1.3 1.6-1.2 1.7.4.4.9-.7 1.7-1.5 1.7-1.7 0-.8-.8-.3-2.1 1.3zm248.9 15c.7.3 1.6.2 1.9-.1.4-.3-.2-.6-1.3-.5-1.1 0-1.4.3-.6.6zm-30.5 5c.9.2 2.3.2 3 0 .6-.3-.1-.5-1.8-.5-1.6 0-2.2.2-1.2.5zm46.5 21c.6.2 1.8.2 2.5 0 .6-.3.1-.5-1.3-.5-1.4 0-1.9.2-1.2.5zm-500 62c.6.2 1.8.2 2.5 0 .6-.3.1-.5-1.3-.5-1.4 0-1.9.2-1.2.5zm10 0c.6.2 1.8.2 2.5 0 .6-.3.1-.5-1.3-.5-1.4 0-1.9.2-1.2.5z"/><path fill="#AAA" d="M416 61.4c0 .2.8 1 1.8 1.7 1.5 1.3 1.6 1.2.3-.4s-2.1-2.1-2.1-1.3zM302 75c0 .5.7.7 1.5.4.8-.4 1.5-.8 1.5-1 0-.2-.7-.4-1.5-.4s-1.5.4-1.5 1zm261.5 89c-.3.5-.1 1 .4 1 .6 0 1.1-.5 1.1-1 0-.6-.2-1-.4-1-.3 0-.8.4-1.1 1zm14.6 4.6c0 1.1.3 1.4.6.6.3-.7.2-1.6-.1-1.9-.3-.4-.6.2-.5 1.3zM314 173c0 .5.5 1 1.1 1 .5 0 .7-.5.4-1-.3-.6-.8-1-1.1-1-.2 0-.4.4-.4 1zm213 4.9c0 .6.4 1.3 1 1.6.6.3.7-.1.4-.9-.7-1.8-1.4-2.1-1.4-.7zm190.4 5.3-1.9 2.3 2.3-1.9c2.1-1.8 2.7-2.6 1.9-2.6-.2 0-1.2 1-2.3 2.2zM596.5 200c1 1.1 2 2 2.3 2 .3 0-.3-.9-1.3-2s-2-2-2.3-2c-.3 0 .3.9 1.3 2zm-268.4 27.6c0 1.1.3 1.4.6.6.3-.7.2-1.6-.1-1.9-.3-.4-.6.2-.5 1.3zm181.9.4-2.5.8 2.8.1c1.5.1 2.7-.4 2.7-.9 0-.6-.1-1-.2-.9-.2.1-1.4.5-2.8.9zm-12.6 3.1c-.3.5.6.9 2 .9 3.1 0 3.4-.6.6-1.3-1.1-.3-2.3-.1-2.6.4zm-35.6.6c.7.3 1.6.2 1.9-.1.4-.3-.2-.6-1.3-.5-1.1 0-1.4.3-.6.6zm-303 17c.7.3 1.6.2 1.9-.1.4-.3-.2-.6-1.3-.5-1.1 0-1.4.3-.6.6zm6.5 0c.9.2 2.5.2 3.5 0 .9-.3.1-.5-1.8-.5-1.9 0-2.7.2-1.7.5zm428.5 21c.7.3 1.6.2 1.9-.1.4-.3-.2-.6-1.3-.5-1.1 0-1.4.3-.6.6zm162 7c.6.2 1.8.2 2.5 0 .6-.3.1-.5-1.3-.5-1.4 0-1.9.2-1.2.5zm-380.5 67c.9.2 2.3.2 3 0 .6-.3-.1-.5-1.8-.5-1.6 0-2.2.2-1.2.5zm61 4.3c0 2.5.2 3.5.4 2.2.2-1.2.2-3.2 0-4.5-.2-1.2-.4-.2-.4 2.3zm-40.3 2.4c0 .2.8 1 1.8 1.7 1.5 1.3 1.6 1.2.3-.4s-2.1-2.1-2.1-1.3zm299.3 9.6c0 2.5.2 3.5.4 2.2.2-1.2.2-3.2 0-4.5-.2-1.2-.4-.2-.4 2.3zm-361.9 9.2-1.9 2.3 2.3-1.9c2.1-1.8 2.7-2.6 1.9-2.6-.2 0-1.2 1-2.3 2.2zM316.2 387c0 1.4.2 1.9.5 1.2.2-.6.2-1.8 0-2.5-.3-.6-.5-.1-.5 1.3zm48.9 9.6c0 1.1.3 1.4.6.6.3-.7.2-1.6-.1-1.9-.3-.4-.6.2-.5 1.3zm-80.9 8.9c0 1.6.2 2.2.5 1.2.2-.9.2-2.3 0-3-.3-.6-.5.1-.5 1.8zm17.4 1.7c.3.5 1 .6 1.5.3 1.3-.9 1.1-1.2-.6-1.2-.8 0-1.2.4-.9.9zm50.7-.5c.9.2 2.3.2 3 0 .6-.3-.1-.5-1.8-.5-1.6 0-2.2.2-1.2.5zm62.2.4c-.4.6-.5 1.2-.2 1.5.2.3.7-.2 1-1.1.7-1.7.1-2-.8-.4zm-13.7 9.6c.7.3 1.6.2 1.9-.1.4-.3-.2-.6-1.3-.5-1.1 0-1.4.3-.6.6zm-113.7 2.9c0 1.1.3 1.4.6.6.3-.7.2-1.6-.1-1.9-.3-.4-.6.2-.5 1.3zm180 3c0 1.1.3 1.4.6.6.3-.7.2-1.6-.1-1.9-.3-.4-.6.2-.5 1.3zm3.1.4c0 1.4.2 1.9.5 1.2.2-.6.2-1.8 0-2.5-.3-.6-.5-.1-.5 1.3zm217 8.5c0 1.6.2 2.2.5 1.2.2-.9.2-2.3 0-3-.3-.6-.5.1-.5 1.8zm-387.3 13.2c-1.3 1.6-1.2 1.7.4.4.9-.7 1.7-1.5 1.7-1.7 0-.8-.8-.3-2.1 1.3zM769.2 464c0 1.4.2 1.9.5 1.2.2-.6.2-1.8 0-2.5-.3-.6-.5-.1-.5 1.3zm-364 2c0 1.4.2 1.9.5 1.2.2-.6.2-1.8 0-2.5-.3-.6-.5-.1-.5 1.3zm2.9-.4c0 1.1.3 1.4.6.6.3-.7.2-1.6-.1-1.9-.3-.4-.6.2-.5 1.3zm2.9 9.8c0 .2.8 1 1.8 1.7 1.5 1.3 1.6 1.2.3-.4s-2.1-2.1-2.1-1.3zm-49.2 6.3c.7.3 1.6.2 1.9-.1.4-.3-.2-.6-1.3-.5-1.1 0-1.4.3-.6.6zm401.1 3c-1.3 1.6-1.2 1.7.4.4 1.6-1.3 2.1-2.1 1.3-2.1-.2 0-1 .8-1.7 1.7zm-81.1 15c.7.3 1.6.2 1.9-.1.4-.3-.2-.6-1.3-.5-1.1 0-1.4.3-.6.6zm19.5 0c.9.2 2.3.2 3 0 .6-.3-.1-.5-1.8-.5-1.6 0-2.2.2-1.2.5zm-278.5 6c.6.2 1.8.2 2.5 0 .6-.3.1-.5-1.3-.5-1.4 0-1.9.2-1.2.5zm-96.8 2.7c0 .2.8 1 1.8 1.7 1.5 1.3 1.6 1.2.3-.4s-2.1-2.1-2.1-1.3zm254.9 16.3c-1.3 1.6-1.2 1.7.4.4.9-.7 1.7-1.5 1.7-1.7 0-.8-.8-.3-2.1 1.3zm-26.6 4c.9.2 2.3.2 3 0 .6-.3-.1-.5-1.8-.5-1.6 0-2.2.2-1.2.5zm-72.3 4.7c0 .2.8 1 1.8 1.7 1.5 1.3 1.6 1.2.3-.4s-2.1-2.1-2.1-1.3zm25.3 13.3c.9.2 2.3.2 3 0 .6-.3-.1-.5-1.8-.5-1.6 0-2.2.2-1.2.5zm134 19c2 .2 5.4.2 7.5 0 2-.2.3-.4-3.8-.4s-5.8.2-3.7.4zm-27.5 1c.6.2 1.8.2 2.5 0 .6-.3.1-.5-1.3-.5-1.4 0-1.9.2-1.2.5zm-41.5 1c.9.2 2.5.2 3.5 0 .9-.3.1-.5-1.8-.5-1.9 0-2.7.2-1.7.5zm-23.5 1c.6.2 1.8.2 2.5 0 .6-.3.1-.5-1.3-.5-1.4 0-1.9.2-1.2.5zm90 0c.7.3 1.6.2 1.9-.1.4-.3-.2-.6-1.3-.5-1.1 0-1.4.3-.6.6zm-159 1c2.9.2 7.4.2 10 0 2.6-.2.2-.3-5.3-.3s-7.6.1-4.7.3zm130.5 0c1.5.2 3.7.2 5 0 1.2-.2 0-.4-2.8-.4-2.7 0-3.8.2-2.2.4zm44 0c.9.2 2.3.2 3 0 .6-.3-.1-.5-1.8-.5-1.6 0-2.2.2-1.2.5zm-83.5 1c.7.3 1.6.2 1.9-.1.4-.3-.2-.6-1.3-.5-1.1 0-1.4.3-.6.6zm73 0c.7.3 1.6.2 1.9-.1.4-.3-.2-.6-1.3-.5-1.1 0-1.4.3-.6.6zm-106 1c1.8.2 4.5.2 6 0s0-.4-3.3-.4-4.5.2-2.7.4zm75 0c.6.2 1.8.2 2.5 0 .6-.3.1-.5-1.3-.5-1.4 0-1.9.2-1.2.5zm-116.5 1c.9.2 2.5.2 3.5 0 .9-.3.1-.5-1.8-.5-1.9 0-2.7.2-1.7.5zm164.5 0c.6.2 1.8.2 2.5 0 .6-.3.1-.5-1.3-.5-1.4 0-1.9.2-1.2.5zM366 574c0 .5 1.4 1 3 1 1.7 0 3-.5 3-1 0-.6-1.3-1-3-1-1.6 0-3 .4-3 1zm76 0c0 .5 1.1 1 2.5 1s2.5-.5 2.5-1c0-.6-1.1-1-2.5-1s-2.5.4-2.5 1zm88.3-.3c2.6.2 6.7.2 9 0s.2-.3-4.8-.3c-4.9 0-6.8.1-4.2.3zm103.5 0c1.2.2 3 .2 4 0 .9-.3-.1-.5-2.3-.4-2.2 0-3 .2-1.7.4zm-17 1c.7.3 1.6.2 1.9-.1.4-.3-.2-.6-1.3-.5-1.1 0-1.4.3-.6.6zm-119 2c.6.2 1.8.2 2.5 0 .6-.3.1-.5-1.3-.5-1.4 0-1.9.2-1.2.5zm49.5 0c.9.2 2.3.2 3 0 .6-.3-.1-.5-1.8-.5-1.6 0-2.2.2-1.2.5zm-136 1c.9.2 2.3.2 3 0 .6-.3-.1-.5-1.8-.5-1.6 0-2.2.2-1.2.5zm289.9 4.8c0 1.6.2 2.2.5 1.2.2-.9.2-2.3 0-3-.3-.6-.5.1-.5 1.8zM354.3 592c0 2.5.2 3.5.4 2.2.2-1.2.2-3.2 0-4.5-.2-1.2-.4-.2-.4 2.3zm-4.1-1c0 1.4.2 1.9.5 1.2.2-.6.2-1.8 0-2.5-.3-.6-.5-.1-.5 1.3zm3.9 8.6c0 1.1.3 1.4.6.6.3-.7.2-1.6-.1-1.9-.3-.4-.6.2-.5 1.3zm68.2-.9c.9.2 2.5.2 3.5 0 .9-.3.1-.5-1.8-.5-1.9 0-2.7.2-1.7.5zm281.9 6.3c0 1.4.2 1.9.5 1.2.2-.6.2-1.8 0-2.5-.3-.6-.5-.1-.5 1.3zm-1 9.5c0 1.6.2 2.2.5 1.2.2-.9.2-2.3 0-3-.3-.6-.5.1-.5 1.8zm-354 5.5c0 1.4.2 1.9.5 1.2.2-.6.2-1.8 0-2.5-.3-.6-.5-.1-.5 1.3zm357 2.5c0 1.6.2 2.2.5 1.2.2-.9.2-2.3 0-3-.3-.6-.5.1-.5 1.8zM354.3 633c0 4.1.2 5.8.4 3.7.2-2 .2-5.4 0-7.5-.2-2-.4-.3-.4 3.8zm347.1 8.5c0 4.9.1 7.1.3 4.8.2-2.3.2-6.4 0-9-.2-2.6-.3-.8-.3 4.2zm-138.1-1c0 3.3.2 4.5.4 2.7.2-1.8.2-4.5 0-6s-.4 0-.4 3.3zm-217-1c0 2.2.2 3 .4 1.7.2-1.2.2-3 0-4-.3-.9-.5.1-.4 2.3zm110.8-.9c0 1.1.3 1.4.6.6.3-.7.2-1.6-.1-1.9-.3-.4-.6.2-.5 1.3zm249.1 3.9c0 1.6.2 2.2.5 1.2.2-.9.2-2.3 0-3-.3-.6-.5.1-.5 1.8zm-146 3.5c0 1.9.2 2.7.5 1.7.2-.9.2-2.5 0-3.5-.3-.9-.5-.1-.5 1.8zm-209.1-.4c0 1.1.3 1.4.6.6.3-.7.2-1.6-.1-1.9-.3-.4-.6.2-.5 1.3zm220.2 2.9c0 2.7.2 3.8.4 2.2.2-1.5.2-3.7 0-5-.2-1.2-.4 0-.4 2.8zm134.8-.9c0 1.1.3 1.4.6.6.3-.7.2-1.6-.1-1.9-.3-.4-.6.2-.5 1.3zm-4.8 9.4c0 3.6.2 5 .4 3.2.2-1.7.2-4.7 0-6.5-.2-1.7-.4-.3-.4 3.3zm2.9 6.5c0 1.6.2 2.2.5 1.2.2-.9.2-2.3 0-3-.3-.6-.5.1-.5 1.8zm-358.9 8c0 3.8.2 5.3.4 3.2.2-2 .2-5.2 0-7-.2-1.7-.4-.1-.4 3.8zm8-1c0 3.3.2 4.5.4 2.7.2-1.8.2-4.5 0-6s-.4 0-.4 3.3zm347.9-2.5c0 1.9.2 2.7.5 1.7.2-.9.2-2.5 0-3.5-.3-.9-.5-.1-.5 1.8zm-350.8 12c0 7.4.1 10.5.3 6.7.2-3.7.2-9.7 0-13.5-.2-3.7-.3-.6-.3 6.8zm-2.1-2.5c0 4.4.2 6.1.4 3.7.2-2.3.2-5.9 0-8-.2-2-.4-.1-.4 4.3zm352.8-.9c0 1.1.3 1.4.6.6.3-.7.2-1.6-.1-1.9-.3-.4-.6.2-.5 1.3zm-287.3 5.1c.7.3 1.6.2 1.9-.1.4-.3-.2-.6-1.3-.5-1.1 0-1.4.3-.6.6zm284.4 4.3c0 1.9.2 2.7.5 1.7.2-.9.2-2.5 0-3.5-.3-.9-.5-.1-.5 1.8zm-344.9 6.5c0 3.8.2 5.3.4 3.2.2-2 .2-5.2 0-7-.2-1.7-.4-.1-.4 3.8zm-4.9 19c0 4.9.1 7.1.3 4.8.2-2.3.2-6.4 0-9-.2-2.6-.3-.8-.3 4.2zm355.9-.5c0 2.5.2 3.5.4 2.2.2-1.2.2-3.2 0-4.5-.2-1.2-.4-.2-.4 2.3zm-241 2.7c.9.2 2.5.2 3.5 0 .9-.3.1-.5-1.8-.5-1.9 0-2.7.2-1.7.5zm-118 5.8c0 2.7.2 3.8.4 2.2.2-1.5.2-3.7 0-5-.2-1.2-.4 0-.4 2.8zm130.8.2c.7 1.2 1.5 2 1.8 1.7.3-.2-.3-1.2-1.3-2.2-1.7-1.6-1.8-1.6-.5.5zM354.2 725c0 1.9.2 2.7.5 1.7.2-.9.2-2.5 0-3.5-.3-.9-.5-.1-.5 1.8zM524 738.4c0 .2.8 1 1.8 1.7 1.5 1.3 1.6 1.2.3-.4s-2.1-2.1-2.1-1.3zm24.8 10.3c.6.2 1.8.2 2.5 0 .6-.3.1-.5-1.3-.5-1.4 0-1.9.2-1.2.5zm38 0c.6.2 1.8.2 2.5 0 .6-.3.1-.5-1.3-.5-1.4 0-1.9.2-1.2.5zm32 1c2.9.2 7.4.2 10 0 2.6-.2.2-.3-5.3-.3s-7.6.1-4.7.3zm-84 2c.7.3 1.6.2 1.9-.1.4-.3-.2-.6-1.3-.5-1.1 0-1.4.3-.6.6zm59.5 0c.9.2 2.5.2 3.5 0 .9-.3.1-.5-1.8-.5-1.9 0-2.7.2-1.7.5zm54.5 0c1.2.2 3 .2 4 0 .9-.3-.1-.5-2.3-.4-2.2 0-3 .2-1.7.4zm-35 1c.6.2 1.8.2 2.5 0 .6-.3.1-.5-1.3-.5-1.4 0-1.9.2-1.2.5zm18 0c.7.3 1.6.2 1.9-.1.4-.3-.2-.6-1.3-.5-1.1 0-1.4.3-.6.6zm-271.9 2.4c-1 .6-.8.9.8.9 1.2 0 2.9.3 3.9.7 1.1.4 1.5.3 1.1-.4-1-1.5-4.3-2.2-5.8-1.2zm189.4 1.6c.9.2 2.5.2 3.5 0 .9-.3.1-.5-1.8-.5-1.9 0-2.7.2-1.7.5zm11 0c2.6.2 6.7.2 9 0s.2-.3-4.8-.3c-4.9 0-6.8.1-4.2.3zm16.5 0c.6.2 1.8.2 2.5 0 .6-.3.1-.5-1.3-.5-1.4 0-1.9.2-1.2.5zm59.5 0c1.5.2 3.9.2 5.5 0 1.5-.2.2-.4-2.8-.4s-4.3.2-2.7.4zm15 0c1.5.2 3.9.2 5.5 0 1.5-.2.2-.4-2.8-.4s-4.3.2-2.7.4zm9.5 0c.7.3 1.6.2 1.9-.1.4-.3-.2-.6-1.3-.5-1.1 0-1.4.3-.6.6zm-33.5 1c.9.2 2.3.2 3 0 .6-.3-.1-.5-1.8-.5-1.6 0-2.2.2-1.2.5zm-245.5 1c1.2.2 3.2.2 4.5 0 1.2-.2.2-.4-2.3-.4s-3.5.2-2.2.4zm219 1c.6.2 1.8.2 2.5 0 .6-.3.1-.5-1.3-.5-1.4 0-1.9.2-1.2.5zm18.9 1c1.8.2 5 .2 7 0 2.1-.2.7-.4-3.2-.4-3.8 0-5.5.2-3.8.4zm18.1 0c.6.2 1.8.2 2.5 0 .6-.3.1-.5-1.3-.5-1.4 0-1.9.2-1.2.5zm31.4 8.3c0 1.9.2 2.7.5 1.7.2-.9.2-2.5 0-3.5-.3-.9-.5-.1-.5 1.8zm105.2 6c0 5.2.1 7.4.3 4.7.2-2.6.2-6.8 0-9.5-.2-2.6-.3-.4-.3 4.8zm-255.3 8.6c0 1.1.3 1.4.6.6.3-.7.2-1.6-.1-1.9-.3-.4-.6.2-.5 1.3zm5 9c0 1.1.3 1.4.6.6.3-.7.2-1.6-.1-1.9-.3-.4-.6.2-.5 1.3zm244.8.1c-1.3 1.6-1.2 1.7.4.4 1.6-1.3 2.1-2.1 1.3-2.1-.2 0-1 .8-1.7 1.7zm-8.8 14.9c0 1.1.3 1.4.6.6.3-.7.2-1.6-.1-1.9-.3-.4-.6.2-.5 1.3zm-83.9 3.4c0 1.4.2 1.9.5 1.2.2-.6.2-1.8 0-2.5-.3-.6-.5-.1-.5 1.3zm-115.2.4c0 .2.8 1 1.8 1.7 1.5 1.3 1.6 1.2.3-.4s-2.1-2.1-2.1-1.3zm-5.3 5.5c-.4 1.7-.3 2.1.5 1.3.5-.5.8-1.6.6-2.3-.3-.8-.7-.3-1.1 1zm-14.5 6.1c0 1.4.2 1.9.5 1.2.2-.6.2-1.8 0-2.5-.3-.6-.5-.1-.5 1.3zm150.8 7.4c0 .2.8 1 1.8 1.7 1.5 1.3 1.6 1.2.3-.4s-2.1-2.1-2.1-1.3zm45.1 4.5c-.7.5-.9 1.1-.5 1.4.5.3 1.5-.1 2.2-.9 1.4-1.6.5-1.8-1.7-.5zm-13.5 1.9c-.3.6-.1 1.4.5 1.7 1.4.9 2 .2 1-1.4-.6-.8-1.1-.9-1.5-.3zm-11.8 4.9c2.3.2 6.1.2 8.5 0 2.3-.2.4-.4-4.3-.4s-6.6.2-4.2.4zm-287 2c.7.3 1.6.2 1.9-.1.4-.3-.2-.6-1.3-.5-1.1 0-1.4.3-.6.6zM479 848c-.9.6-1 1-.3 1 .6 0 1.5-.5 1.8-1 .8-1.2.4-1.2-1.5 0zm196.8 3.7c.6.2 1.8.2 2.5 0 .6-.3.1-.5-1.3-.5-1.4 0-1.9.2-1.2.5zm40 1c.7.3 1.6.2 1.9-.1.4-.3-.2-.6-1.3-.5-1.1 0-1.4.3-.6.6zm-46.8 2.2c0 .6.4 1.3 1 1.6.6.3.7-.1.4-.9-.7-1.8-1.4-2.1-1.4-.7zm-7.7 3.8c.9.2 2.3.2 3 0 .6-.3-.1-.5-1.8-.5-1.6 0-2.2.2-1.2.5zm117.5 13c.7.3 1.6.2 1.9-.1.4-.3-.2-.6-1.3-.5-1.1 0-1.4.3-.6.6zm-3.7 6.9c0 1.1.3 1.4.6.6.3-.7.2-1.6-.1-1.9-.3-.4-.6.2-.5 1.3zm-220.3.1c.7.3 1.6.2 1.9-.1.4-.3-.2-.6-1.3-.5-1.1 0-1.4.3-.6.6zm213.4 2.8c0 1.6.2 2.2.5 1.2.2-.9.2-2.3 0-3-.3-.6-.5.1-.5 1.8zm-457.3 49.2c-1.3 1.6-1.2 1.7.4.4 1.6-1.3 2.1-2.1 1.3-2.1-.2 0-1 .8-1.7 1.7zm-59.1 14c.7.3 1.6.2 1.9-.1.4-.3-.2-.6-1.3-.5-1.1 0-1.4.3-.6.6zm23.5 2c.9.2 2.5.2 3.5 0 .9-.3.1-.5-1.8-.5-1.9 0-2.7.2-1.7.5z"/><path fill="#7C7C7C" d="M396.3 60.7c1.5.2 3.9.2 5.5 0 1.5-.2.2-.4-2.8-.4s-4.3.2-2.7.4zm-108 27.8c0 2.7.2 3.8.4 2.2.2-1.5.2-3.7 0-5-.2-1.2-.4 0-.4 2.8zm-24.2 20.1c0 1.1.3 1.4.6.6.3-.7.2-1.6-.1-1.9-.3-.4-.6.2-.5 1.3zm34.4 20.4c-.3.5-.1 1 .4 1 .6 0 1.1-.5 1.1-1 0-.6-.2-1-.4-1-.3 0-.8.4-1.1 1zm266 36c-.3.5-.1 1 .4 1 .6 0 1.1-.5 1.1-1 0-.6-.2-1-.4-1-.3 0-.8.4-1.1 1zm170.3 12.7c.7.3 1.6.2 1.9-.1.4-.3-.2-.6-1.3-.5-1.1 0-1.4.3-.6.6zm-200.4 4.5-1.9 2.3 2.3-1.9c2.1-1.8 2.7-2.6 1.9-2.6-.2 0-1.2 1-2.3 2.2zm-223 1.9c-.3.6-.2 1.5.3 2s.9.1.9-1.1c0-2.3-.2-2.4-1.2-.9zm446.6 1.2c0 .2 1.5 1.6 3.3 3.3l3.2 2.9-2.9-3.3c-2.8-3-3.6-3.7-3.6-2.9zM321.2 203c0 1.4.2 1.9.5 1.2.2-.6.2-1.8 0-2.5-.3-.6-.5-.1-.5 1.3zm353.1-1.3c.9.2 2.5.2 3.5 0 .9-.3.1-.5-1.8-.5-1.9 0-2.7.2-1.7.5zM326.2 216c0 1.4.2 1.9.5 1.2.2-.6.2-1.8 0-2.5-.3-.6-.5-.1-.5 1.3zM222 225.5c-2.4 2.5-4.2 4.5-3.9 4.5.3 0 2.5-2 4.9-4.5 2.4-2.5 4.2-4.5 3.9-4.5-.3 0-2.5 2-4.9 4.5zm235.3 6.2c.9.2 2.3.2 3 0 .6-.3-.1-.5-1.8-.5-1.6 0-2.2.2-1.2.5zm19 5c.9.2 2.5.2 3.5 0 .9-.3.1-.5-1.8-.5-1.9 0-2.7.2-1.7.5zm-311 15c.9.2 2.5.2 3.5 0 .9-.3.1-.5-1.8-.5-1.9 0-2.7.2-1.7.5zm433.8 7.9c0 1.1.3 1.4.6.6.3-.7.2-1.6-.1-1.9-.3-.4-.6.2-.5 1.3zm-1.3 10.1c1.2.2 3 .2 4 0 .9-.3-.1-.5-2.3-.4-2.2 0-3 .2-1.7.4zm124.7 24.5-4 4.3 4.3-4c3.9-3.6 4.7-4.5 3.9-4.5-.2 0-2.1 1.9-4.2 4.2zm-317.7 18.5c1.2.2 3.2.2 4.5 0 1.2-.2.2-.4-2.3-.4s-3.5.2-2.2.4zm-49 2c.7.3 1.6.2 1.9-.1.4-.3-.2-.6-1.3-.5-1.1 0-1.4.3-.6.6zm14.2 2.7c0 .2.8 1 1.8 1.7 1.5 1.3 1.6 1.2.3-.4s-2.1-2.1-2.1-1.3zm-52.1 36.3c-1.3 1.6-1.2 1.7.4.4 1.6-1.3 2.1-2.1 1.3-2.1-.2 0-1 .8-1.7 1.7zm-14.8 12.9c0 1.1.3 1.4.6.6.3-.7.2-1.6-.1-1.9-.3-.4-.6.2-.5 1.3zm99.1 1.4c0 1.4.2 1.9.5 1.2.2-.6.2-1.8 0-2.5-.3-.6-.5-.1-.5 1.3zm-72.7 0c.3.5.8 1 1.1 1 .2 0 .4-.5.4-1 0-.6-.5-1-1.1-1-.5 0-.7.4-.4 1zM296 379l-3.5.7 3.2.2c1.7 0 3.5-.4 3.8-.9.3-.6.5-.9.3-.9-.2.1-1.9.5-3.8.9zm115 8.5c1.3 1.4 2.6 2.5 2.8 2.5.3 0-.5-1.1-1.8-2.5s-2.6-2.5-2.8-2.5c-.3 0 .5 1.1 1.8 2.5zm-61.2.2c.7.3 1.6.2 1.9-.1.4-.3-.2-.6-1.3-.5-1.1 0-1.4.3-.6.6zm-8.5 1c.9.2 2.5.2 3.5 0 .9-.3.1-.5-1.8-.5-1.9 0-2.7.2-1.7.5zm10.5 1c1.2.2 3.2.2 4.5 0 1.2-.2.2-.4-2.3-.4s-3.5.2-2.2.4zm-68.6 3.3c0 1.4.2 1.9.5 1.2.2-.6.2-1.8 0-2.5-.3-.6-.5-.1-.5 1.3zm41 3c0 1.4.2 1.9.5 1.2.2-.6.2-1.8 0-2.5-.3-.6-.5-.1-.5 1.3zm-38 1c0 1.4.2 1.9.5 1.2.2-.6.2-1.8 0-2.5-.3-.6-.5-.1-.5 1.3zm34.9-.4c0 1.1.3 1.4.6.6.3-.7.2-1.6-.1-1.9-.3-.4-.6.2-.5 1.3zm97 0c0 1.1.3 1.4.6.6.3-.7.2-1.6-.1-1.9-.3-.4-.6.2-.5 1.3zm-1.9 3.4c0 1.4.2 1.9.5 1.2.2-.6.2-1.8 0-2.5-.3-.6-.5-.1-.5 1.3zm-132 1c0 1.4.2 1.9.5 1.2.2-.6.2-1.8 0-2.5-.3-.6-.5-.1-.5 1.3zm124.8-1.6c0 .2.8 1 1.8 1.7 1.5 1.3 1.6 1.2.3-.4s-2.1-2.1-2.1-1.3zm9.1 3.2c0 1.1.3 1.4.6.6.3-.7.2-1.6-.1-1.9-.3-.4-.6.2-.5 1.3zm-73.3.1c.7.3 1.6.2 1.9-.1.4-.3-.2-.6-1.3-.5-1.1 0-1.4.3-.6.6zm-26.7 2.9c0 1.1.3 1.4.6.6.3-.7.2-1.6-.1-1.9-.3-.4-.6.2-.5 1.3zm92 1c0 1.1.3 1.4.6.6.3-.7.2-1.6-.1-1.9-.3-.4-.6.2-.5 1.3zm6 4c0 1.1.3 1.4.6.6.3-.7.2-1.6-.1-1.9-.3-.4-.6.2-.5 1.3zm-21.3.1c.7.3 1.6.2 1.9-.1.4-.3-.2-.6-1.3-.5-1.1 0-1.4.3-.6.6zm-68.6 2.3c0 1.4.2 1.9.5 1.2.2-.6.2-1.8 0-2.5-.3-.6-.5-.1-.5 1.3zm144.1 3c0 3 .2 4.3.4 2.7.2-1.5.2-3.9 0-5.5-.2-1.5-.4-.2-.4 2.8zm-75.6-2.9c.7.7 1.5 1 1.8.7.3-.3-.2-.9-1.2-1.2-1.4-.6-1.5-.5-.6.5zm201.1 2.6c.7.3 1.6.2 1.9-.1.4-.3-.2-.6-1.3-.5-1.1 0-1.4.3-.6.6zm-219.7 3.9c0 1.1.3 1.4.6.6.3-.7.2-1.6-.1-1.9-.3-.4-.6.2-.5 1.3zm-50.9 3.4c0 1.9.2 2.7.5 1.7.2-.9.2-2.5 0-3.5-.3-.9-.5-.1-.5 1.8zm-38.1-.4c0 1.1.3 1.4.6.6.3-.7.2-1.6-.1-1.9-.3-.4-.6.2-.5 1.3zm127.2 4.4c0 3.6.2 5 .4 3.2.2-1.7.2-4.7 0-6.5-.2-1.7-.4-.3-.4 3.3zm-129.2.6c0 1.1.3 1.4.6.6.3-.7.2-1.6-.1-1.9-.3-.4-.6.2-.5 1.3zm-1.2 7.1c-1.3 1.6-1.2 1.7.4.4 1.6-1.3 2.1-2.1 1.3-2.1-.2 0-1 .8-1.7 1.7zm128.2.9c0 1.1.3 1.4.6.6.3-.7.2-1.6-.1-1.9-.3-.4-.6.2-.5 1.3zm-46.3 1.1c.7.3 1.6.2 1.9-.1.4-.3-.2-.6-1.3-.5-1.1 0-1.4.3-.6.6zm31.1 6c-1.3 1.6-1.2 1.7.4.4.9-.7 1.7-1.5 1.7-1.7 0-.8-.8-.3-2.1 1.3zm-123 1c-1.3 1.6-1.2 1.7.4.4.9-.7 1.7-1.5 1.7-1.7 0-.8-.8-.3-2.1 1.3zm56.3 6.8c0 1.6.2 2.2.5 1.2.2-.9.2-2.3 0-3-.3-.6-.5.1-.5 1.8zm-18.7 3.4c-.3.5-.2 1.2.3 1.5.5.3.9-.1.9-.9 0-1.7-.3-1.9-1.2-.6zm53.3 2.8c.7.3 1.6.2 1.9-.1.4-.3-.2-.6-1.3-.5-1.1 0-1.4.3-.6.6zm3 2c.7.3 1.6.2 1.9-.1.4-.3-.2-.6-1.3-.5-1.1 0-1.4.3-.6.6zm38.4 3.3c0 1.4.2 1.9.5 1.2.2-.6.2-1.8 0-2.5-.3-.6-.5-.1-.5 1.3zm-90.8 5.2-2.9 3.3 3.3-2.9c1.7-1.7 3.2-3.1 3.2-3.3 0-.8-.8-.1-3.6 2.9zm-18.5-.5c-1.3 1.6-1.2 1.7.4.4 1.6-1.3 2.1-2.1 1.3-2.1-.2 0-1 .8-1.7 1.7zm42.6 8.3c1 1.1 2 2 2.3 2 .3 0-.3-.9-1.3-2s-2-2-2.3-2c-.3 0 .3.9 1.3 2zm-37.6.7c-1.3 1.6-1.2 1.7.4.4 1.6-1.3 2.1-2.1 1.3-2.1-.2 0-1 .8-1.7 1.7zm278.6.3c1 1.1 2 2 2.3 2 .3 0-.3-.9-1.3-2s-2-2-2.3-2c-.3 0 .3.9 1.3 2zm-225.2 1.7c.9.2 2.3.2 3 0 .6-.3-.1-.5-1.8-.5-1.6 0-2.2.2-1.2.5zm110.9 1.8c0 1.6.2 2.2.5 1.2.2-.9.2-2.3 0-3-.3-.6-.5.1-.5 1.8zm-81.4.2c.6.2 1.8.2 2.5 0 .6-.3.1-.5-1.3-.5-1.4 0-1.9.2-1.2.5zm-12 2c.7.3 1.6.2 1.9-.1.4-.3-.2-.6-1.3-.5-1.1 0-1.4.3-.6.6zm-121.3 3.4c-.4.6-.5 1.2-.2 1.5.2.3.7-.2 1-1.1.7-1.7.1-2-.8-.4zm118.3-.4c.6.2 1.8.2 2.5 0 .6-.3.1-.5-1.3-.5-1.4 0-1.9.2-1.2.5zm-57.4 2.5-1.9 2.3 2.3-1.9c2.1-1.8 2.7-2.6 1.9-2.6-.2 0-1.2 1-2.3 2.2zm-66.3 9.4c0 1.1.3 1.4.6.6.3-.7.2-1.6-.1-1.9-.3-.4-.6.2-.5 1.3zm67.7 7.1c.7.3 1.6.2 1.9-.1.4-.3-.2-.6-1.3-.5-1.1 0-1.4.3-.6.6zm-5.9 2c-1.3 1.6-1.2 1.7.4.4.9-.7 1.7-1.5 1.7-1.7 0-.8-.8-.3-2.1 1.3zm-19.7 4.3c0 1.4.2 1.9.5 1.2.2-.6.2-1.8 0-2.5-.3-.6-.5-.1-.5 1.3zm151.6 5.7c.7.3 1.6.2 1.9-.1.4-.3-.2-.6-1.3-.5-1.1 0-1.4.3-.6.6zm140.1 6c-1.3 1.6-1.2 1.7.4.4.9-.7 1.7-1.5 1.7-1.7 0-.8-.8-.3-2.1 1.3zm-133.1 0c.7.3 1.6.2 1.9-.1.4-.3-.2-.6-1.3-.5-1.1 0-1.4.3-.6.6zM315.5 531c1 1.1 2 2 2.3 2 .3 0-.3-.9-1.3-2s-2-2-2.3-2c-.3 0 .3.9 1.3 2zm90.9 1.2-1.9 2.3 2.3-1.9c1.2-1.1 2.2-2.1 2.2-2.3 0-.8-.8-.2-2.6 1.9zm-33.6 5.5c.7.3 1.6.2 1.9-.1.4-.3-.2-.6-1.3-.5-1.1 0-1.4.3-.6.6zm-22 17c.6.2 1.8.2 2.5 0 .6-.3.1-.5-1.3-.5-1.4 0-1.9.2-1.2.5zm304.5 11c2 .2 5.4.2 7.5 0 2-.2.3-.4-3.8-.4s-5.8.2-3.7.4zm-37 1c.9.2 2.3.2 3 0 .6-.3-.1-.5-1.8-.5-1.6 0-2.2.2-1.2.5zm-39.5 1c1.2.2 3 .2 4 0 .9-.3-.1-.5-2.3-.4-2.2 0-3 .2-1.7.4zm111 0c1.2.2 3 .2 4 0 .9-.3-.1-.5-2.3-.4-2.2 0-3 .2-1.7.4zm-136.5 1c.9.2 2.5.2 3.5 0 .9-.3.1-.5-1.8-.5-1.9 0-2.7.2-1.7.5zm79.5 0c1.2.2 3 .2 4 0 .9-.3-.1-.5-2.3-.4-2.2 0-3 .2-1.7.4zm-135.5 1c2 .2 5.4.2 7.5 0 2-.2.3-.4-3.8-.4s-5.8.2-3.7.4zm102.5 0c1.8.2 4.5.2 6 0s0-.4-3.3-.4-4.5.2-2.7.4zm61 0c1.7.2 4.7.2 6.5 0 1.7-.2.3-.4-3.3-.4-3.6 0-5 .2-3.2.4zm-280.6 1c3.7.2 10 .2 14 0 4-.1 1-.3-6.7-.3s-11 .1-7.3.3zm31.6 0c3.4.2 9 .2 12.5 0 3.4-.2.6-.3-6.3-.3-6.9 0-9.7.1-6.2.3zm23 0c2.3.2 6.1.2 8.5 0 2.3-.2.4-.4-4.3-.4s-6.6.2-4.2.4zm130.5 0c.9.2 2.5.2 3.5 0 .9-.3.1-.5-1.8-.5-1.9 0-2.7.2-1.7.5zm82 0c.9.2 2.3.2 3 0 .6-.3-.1-.5-1.8-.5-1.6 0-2.2.2-1.2.5zm-134 1c.9.2 2.5.2 3.5 0 .9-.3.1-.5-1.8-.5-1.9 0-2.7.2-1.7.5zm10.5 0c2.3.2 5.9.2 8 0 2-.2.1-.4-4.3-.4-4.4 0-6.1.2-3.7.4zm93.5 0c.9.2 2.3.2 3 0 .6-.3-.1-.5-1.8-.5-1.6 0-2.2.2-1.2.5zm62.5 0c1.8.2 4.5.2 6 0s0-.4-3.3-.4-4.5.2-2.7.4zm-195.1 1c1.8.2 5 .2 7 0 2.1-.2.7-.4-3.2-.4-3.8 0-5.5.2-3.8.4zm171.6 0c.9.2 2.3.2 3 0 .6-.3-.1-.5-1.8-.5-1.6 0-2.2.2-1.2.5zm-303.9 2.5-1.9 2.3 2.3-1.9c2.1-1.8 2.7-2.6 1.9-2.6-.2 0-1.2 1-2.3 2.2zM364 574c0 .5.5 1 1 1 .6 0 1-.5 1-1 0-.6-.4-1-1-1-.5 0-1 .4-1 1zm8 0c0 .5.7.7 1.5.4.8-.4 1.5-.8 1.5-1 0-.2-.7-.4-1.5-.4s-1.5.4-1.5 1zm75 0c0 .6 3.2 1 7.5 1s7.5-.4 7.5-1-3.2-1-7.5-1-7.5.4-7.5 1zm19.8.2c.8.8 1.7.8 3.4 0 2.2-1 2.1-1.1-1.1-1.1-2.7-.1-3.2.2-2.3 1.1zm38-.5c3.9.2 10.5.2 14.5 0 3.9-.1.7-.3-7.3-.3s-11.2.2-7.2.3zm43 0c1.2.2 3.2.2 4.5 0 1.2-.2.2-.4-2.3-.4s-3.5.2-2.2.4zm77.5 0c1.5.2 3.7.2 5 0 1.2-.2 0-.4-2.8-.4-2.7 0-3.8.2-2.2.4zm-11.5 1c.7.3 1.6.2 1.9-.1.4-.3-.2-.6-1.3-.5-1.1 0-1.4.3-.6.6zm-45 1c1.7.2 4.7.2 6.5 0 1.7-.2.3-.4-3.3-.4-3.6 0-5 .2-3.2.4zm-91.5 1c2.6.2 6.8.2 9.5 0 2.6-.2.4-.3-4.8-.3s-7.4.1-4.7.3zm16.5 0c.6.2 1.8.2 2.5 0 .6-.3.1-.5-1.3-.5-1.4 0-1.9.2-1.2.5zm13.5 0c3.7.2 9.6.2 13 0 3.4-.2.4-.3-6.8-.3-7.1 0-9.9.1-6.2.3zm24 0c2.6.2 6.7.2 9 0s.2-.3-4.8-.3c-4.9 0-6.8.1-4.2.3zm-175.4 2c-1.3 1.6-1.2 1.7.4.4 1.6-1.3 2.1-2.1 1.3-2.1-.2 0-1 .8-1.7 1.7zm31.4-1c.9.2 2.5.2 3.5 0 .9-.3.1-.5-1.8-.5-1.9 0-2.7.2-1.7.5zm19 0c.9.2 2.3.2 3 0 .6-.3-.1-.5-1.8-.5-1.6 0-2.2.2-1.2.5zm302 9.3c0 2.5.2 3.5.4 2.2.2-1.2.2-3.2 0-4.5-.2-1.2-.4-.2-.4 2.3zm-6.9 11.5c0 7.7.2 10.7.3 6.7.2-4 .2-10.3 0-14-.2-3.7-.3-.4-.3 7.3zM349.3 604c0 3.6.2 5 .4 3.2.2-1.7.2-4.7 0-6.5-.2-1.7-.4-.3-.4 3.3zm5.1 9.5c0 7.1.1 9.9.3 6.2.2-3.7.2-9.6 0-13-.2-3.4-.3-.4-.3 6.8zm151.6-5.9c0 2 2.7 3.7 3.6 2.3.4-.7.3-.9-.4-.5-.6.3-1.5-.2-2.1-1.1-.6-1-1.1-1.3-1.1-.7zm198.2 1.4c0 1.4.2 1.9.5 1.2.2-.6.2-1.8 0-2.5-.3-.6-.5-.1-.5 1.3zm-201.5 5.9c-.4 1.7-.3 2.1.5 1.3.5-.5.8-1.6.6-2.3-.3-.8-.7-.3-1.1 1zM349.2 616c0 1.4.2 1.9.5 1.2.2-.6.2-1.8 0-2.5-.3-.6-.5-.1-.5 1.3zm352.2 7.5c0 5.5.1 7.6.3 4.7.2-2.9.2-7.4 0-10-.2-2.6-.3-.2-.3 5.3zm4.8-6.5c0 1.9.2 2.7.5 1.7.2-.9.2-2.5 0-3.5-.3-.9-.5-.1-.5 1.8zm-2.9 3.5c0 2.2.2 3 .4 1.7.2-1.2.2-3 0-4-.3-.9-.5.1-.4 2.3zM392 619c0 .5.5 1 1.1 1 .5 0 .7-.5.4-1-.3-.6-.8-1-1.1-1-.2 0-.4.4-.4 1zm81.9 3.7c-1.3 1.6-1.2 1.7.4.4 1.6-1.3 2.1-2.1 1.3-2.1-.2 0-1 .8-1.7 1.7zm39.3 4.3c0 1.9.2 2.7.5 1.7.2-.9.2-2.5 0-3.5-.3-.9-.5-.1-.5 1.8zm107.4 9.9c-.3.5.3.7 1.4.4 1.4-.4 2 0 2 1 0 .9.4 1.9 1 2.2.6.4.7-.2.1-1.7-.9-2.4-3.5-3.6-4.5-1.9zm43.5.7c0 1.1.3 1.4.6.6.3-.7.2-1.6-.1-1.9-.3-.4-.6.2-.5 1.3zm-5.1 1.9c-1.1 1.3-1 1.4.4.9.9-.3 1.6-1 1.6-1.5 0-1.3-.6-1.1-2 .6zM346.3 651c0 4.7.2 6.6.4 4.2.2-2.3.2-6.1 0-8.5-.2-2.3-.4-.4-.4 4.3zm357-3.5c0 2.2.2 3 .4 1.7.2-1.2.2-3 0-4-.3-.9-.5.1-.4 2.3zm-152.2-.9c0 1.1.3 1.4.6.6.3-.7.2-1.6-.1-1.9-.3-.4-.6.2-.5 1.3zm113.9.8c0 .2.8 1 1.8 1.7 1.5 1.3 1.6 1.2.3-.4s-2.1-2.1-2.1-1.3zm41.2 4.6c0 1.9.2 2.7.5 1.7.2-.9.2-2.5 0-3.5-.3-.9-.5-.1-.5 1.8zm-89.1-.4c0 1.1.3 1.4.6.6.3-.7.2-1.6-.1-1.9-.3-.4-.6.2-.5 1.3zm-93.2 2.1c-1.3 1.6-1.2 1.7.4.4.9-.7 1.7-1.5 1.7-1.7 0-.8-.8-.3-2.1 1.3zm52.9 2c.6.2 1.8.2 2.5 0 .6-.3.1-.5-1.3-.5-1.4 0-1.9.2-1.2.5zM348.3 663c0 4.1.2 5.8.4 3.7.2-2 .2-5.4 0-7.5-.2-2-.4-.3-.4 3.8zm355.8-3.4c0 1.1.3 1.4.6.6.3-.7.2-1.6-.1-1.9-.3-.4-.6.2-.5 1.3zM353.2 662c0 1.9.2 2.7.5 1.7.2-.9.2-2.5 0-3.5-.3-.9-.5-.1-.5 1.8zm-7.8 34.5c0 10.4.2 14.6.3 9.2.2-5.4.2-13.9 0-19-.1-5.1-.3-.7-.3 9.8zm70.4-10.8c.7.3 1.6.2 1.9-.1.4-.3-.2-.6-1.3-.5-1.1 0-1.4.3-.6.6zM704.4 696c0 6.3.1 8.9.3 5.7.2-3.1.2-8.3 0-11.5-.2-3.1-.3-.5-.3 5.8zM474 688.9c0 1.1.4 2.2.9 2.5.4.3.6-.6.3-1.9-.5-3-1.2-3.3-1.2-.6zm224.3 4.6c0 2.7.2 3.8.4 2.2.2-1.5.2-3.7 0-5-.2-1.2-.4 0-.4 2.8zM353.2 702c0 1.9.2 2.7.5 1.7.2-.9.2-2.5 0-3.5-.3-.9-.5-.1-.5 1.8zm347 9c0 1.4.2 1.9.5 1.2.2-.6.2-1.8 0-2.5-.3-.6-.5-.1-.5 1.3zm-349 4c0 1.4.2 1.9.5 1.2.2-.6.2-1.8 0-2.5-.3-.6-.5-.1-.5 1.3zm161.8.4c0 .2.8 1 1.8 1.7 1.5 1.3 1.6 1.2.3-.4s-2.1-2.1-2.1-1.3zm196.8 2.3c.6.2 1.8.2 2.5 0 .6-.3.1-.5-1.3-.5-1.4 0-1.9.2-1.2.5zm12 0c.7.3 1.6.2 1.9-.1.4-.3-.2-.6-1.3-.5-1.1 0-1.4.3-.6.6zm-373.5 7.8c0 3.3.2 4.5.4 2.7.2-1.8.2-4.5 0-6s-.4 0-.4 3.3zm6 6c0 2.2.2 3 .4 1.7.2-1.2.2-3 0-4-.3-.9-.5.1-.4 2.3zm73.6-1.8c-1.3 1.6-1.2 1.7.4.4.9-.7 1.7-1.5 1.7-1.7 0-.8-.8-.3-2.1 1.3zm-81.6 8.8c0 3.3.2 4.5.4 2.7.2-1.8.2-4.5 0-6s-.4 0-.4 3.3zm5.9.5c0 1.4.2 1.9.5 1.2.2-.6.2-1.8 0-2.5-.3-.6-.5-.1-.5 1.3zm.8 4.4c0 .2.7.6 1.5 1 .8.3 1.5.1 1.5-.4 0-.6-.7-1-1.5-1s-1.5.2-1.5.4zm199.8 5.3c.7.3 1.6.2 1.9-.1.4-.3-.2-.6-1.3-.5-1.1 0-1.4.3-.6.6zm5 0c.7.3 1.6.2 1.9-.1.4-.3-.2-.6-1.3-.5-1.1 0-1.4.3-.6.6zm25 0c.6.2 1.8.2 2.5 0 .6-.3.1-.5-1.3-.5-1.4 0-1.9.2-1.2.5zm27.5 1c.9.2 2.3.2 3 0 .6-.3-.1-.5-1.8-.5-1.6 0-2.2.2-1.2.5zm24 0c.9.2 2.5.2 3.5 0 .9-.3.1-.5-1.8-.5-1.9 0-2.7.2-1.7.5zm-33.5 2c1.2.2 3 .2 4 0 .9-.3-.1-.5-2.3-.4-2.2 0-3 .2-1.7.4zm41 0c1.2.2 3 .2 4 0 .9-.3-.1-.5-2.3-.4-2.2 0-3 .2-1.7.4zm13 0c.7.3 1.6.2 1.9-.1.4-.3-.2-.6-1.3-.5-1.1 0-1.4.3-.6.6zm-34.5 1c2 .2 5.4.2 7.5 0 2-.2.3-.4-3.8-.4s-5.8.2-3.7.4zm-246 1c1.5.2 3.7.2 5 0 1.2-.2 0-.4-2.8-.4-2.7 0-3.8.2-2.2.4zm288.6.6c.6.8.7 1.8.3 2.2-.4.5-.1.5.6.1 1-.6 1-1.1.1-2.2-.6-.8-1.4-1.4-1.6-1.4-.3 0 0 .6.6 1.3zM367.5 756c-.3.5-.2 1 .4 1 .5 0 1.3-.5 1.6-1 .3-.6.2-1-.4-1-.5 0-1.3.4-1.6 1zm25 0c.3.5 1 1 1.6 1 .5 0 .9-.5.9-1 0-.6-.7-1-1.6-1-.8 0-1.2.4-.9 1zm-30.7.7c.7.3 1.6.2 1.9-.1.4-.3-.2-.6-1.3-.5-1.1 0-1.4.3-.6.6zm283.5 0c.9.2 2.3.2 3 0 .6-.3-.1-.5-1.8-.5-1.6 0-2.2.2-1.2.5zm-27.5 1c1.8.2 4.5.2 6 0s0-.4-3.3-.4-4.5.2-2.7.4zm-240 1c.7.3 1.6.2 1.9-.1.4-.3-.2-.6-1.3-.5-1.1 0-1.4.3-.6.6zm140.8.6c.3 1 .9 1.5 1.2 1.2.3-.3 0-1.1-.7-1.8-1-.9-1.1-.8-.5.6zm86.2.4c.6.2 1.8.2 2.5 0 .6-.3.1-.5-1.3-.5-1.4 0-1.9.2-1.2.5zm27 1c1.2.2 3 .2 4 0 .9-.3-.1-.5-2.3-.4-2.2 0-3 .2-1.7.4zm139.3.9c0 1.1.3 1.4.6.6.3-.7.2-1.6-.1-1.9-.3-.4-.6.2-.5 1.3zm-258.4 1.3c-.4 1.7-.3 2.1.5 1.3.5-.5.8-1.6.6-2.3-.3-.8-.7-.3-1.1 1zm-108.7.5c0 .2.8 1 1.8 1.7 1.5 1.3 1.6 1.2.3-.4s-2.1-2.1-2.1-1.3zm265.1 1.2c0 1.1.3 1.4.6.6.3-.7.2-1.6-.1-1.9-.3-.4-.6.2-.5 1.3zM408.2 773c0 1.4.2 1.9.5 1.2.2-.6.2-1.8 0-2.5-.3-.6-.5-.1-.5 1.3zm257.9.6c0 1.1.3 1.4.6.6.3-.7.2-1.6-.1-1.9-.3-.4-.6.2-.5 1.3zM519.2 780c0 1.4.2 1.9.5 1.2.2-.6.2-1.8 0-2.5-.3-.6-.5-.1-.5 1.3zm-3.1 9.6c0 1.1.3 1.4.6.6.3-.7.2-1.6-.1-1.9-.3-.4-.6.2-.5 1.3zm262 11c0 1.1.3 1.4.6.6.3-.7.2-1.6-.1-1.9-.3-.4-.6.2-.5 1.3zm-9.9 3.4c0 .8.3 2.4.7 3.4.7 1.9.8 1.9 1.3-.2.4-1.2.2-2-.2-1.7-.5.3-1.1-.3-1.3-1.2-.3-1.2-.5-1.3-.5-.3zm-99.7 4c1 1.1 2 2 2.3 2 .3 0-.3-.9-1.3-2s-2-2-2.3-2c-.3 0 .3.9 1.3 2zm-156.3 1c0 1.4.2 1.9.5 1.2.2-.6.2-1.8 0-2.5-.3-.6-.5-.1-.5 1.3zm256.2 8.2-1.9 2.3 2.3-1.9c1.2-1.1 2.2-2.1 2.2-2.3 0-.8-.8-.2-2.6 1.9zM513.2 820c0 1.9.2 2.7.5 1.7.2-.9.2-2.5 0-3.5-.3-.9-.5-.1-.5 1.8zm26.8 12.4c0 .2.7.7 1.6 1 .8.3 1.2.2.9-.4-.6-1-2.5-1.4-2.5-.6zm197.4 2.8c.9.5 2.3.5 3.2 0 1.2-.6.7-.9-1.6-.9s-2.8.3-1.6.9zm-293.6 4.5c.6.2 1.8.2 2.5 0 .6-.3.1-.5-1.3-.5-1.4 0-1.9.2-1.2.5zm250 2c.7.3 1.6.2 1.9-.1.4-.3-.2-.6-1.3-.5-1.1 0-1.4.3-.6.6zm-118.5 4.8c0 2.7.2 3.8.4 2.2.2-1.5.2-3.7 0-5-.2-1.2-.4 0-.4 2.8zm-143.5-.8c1.2.2 3.2.2 4.5 0 1.2-.2.2-.4-2.3-.4s-3.5.2-2.2.4zm115.4 5.3c0 1.9.2 2.7.5 1.7.2-.9.2-2.5 0-3.5-.3-.9-.5-.1-.5 1.8zm-12.9 3.5c0 2.2.2 3 .4 1.7.2-1.2.2-3 0-4-.3-.9-.5.1-.4 2.3zm144.7-2c0 .8.2 1.5.4 1.5s.6-.7 1-1.5c.3-.8.1-1.5-.4-1.5-.6 0-1 .7-1 1.5zm41.3.2c1.5.2 3.7.2 5 0 1.2-.2 0-.4-2.8-.4-2.7 0-3.8.2-2.2.4zm-35.5 4c2.3.2 5.9.2 8 0 2-.2.1-.4-4.3-.4-4.4 0-6.1.2-3.7.4zm-30 2c1.2.2 3 .2 4 0 .9-.3-.1-.5-2.3-.4-2.2 0-3 .2-1.7.4zm73 2c1.2.2 3 .2 4 0 .9-.3-.1-.5-2.3-.4-2.2 0-3 .2-1.7.4zm-195.7 1.9c0 1.1.3 1.4.6.6.3-.7.2-1.6-.1-1.9-.3-.4-.6.2-.5 1.3zm202.7.1c.7.3 1.6.2 1.9-.1.4-.3-.2-.6-1.3-.5-1.1 0-1.4.3-.6.6zm31.7 1.3c1 1.1 2 2 2.3 2 .3 0-.3-.9-1.3-2s-2-2-2.3-2c-.3 0 .3.9 1.3 2zm-203.6 5.7c-1.3 1.6-1.2 1.7.4.4 1.6-1.3 2.1-2.1 1.3-2.1-.2 0-1 .8-1.7 1.7zm215.9 5c.7.3 1.6.2 1.9-.1.4-.3-.2-.6-1.3-.5-1.1 0-1.4.3-.6.6zm-220.5 4c.9.2 2.3.2 3 0 .6-.3-.1-.5-1.8-.5-1.6 0-2.2.2-1.2.5zm-6.2 3.9c0 1.1.3 1.4.6.6.3-.7.2-1.6-.1-1.9-.3-.4-.6.2-.5 1.3zm-198 4c0 1.1.3 1.4.6.6.3-.7.2-1.6-.1-1.9-.3-.4-.6.2-.5 1.3zm208.7 1.1c.6.2 1.8.2 2.5 0 .6-.3.1-.5-1.3-.5-1.4 0-1.9.2-1.2.5zm5 12c1.2.2 3 .2 4 0 .9-.3-.1-.5-2.3-.4-2.2 0-3 .2-1.7.4zm253.2 1.7c0 .2.8 1 1.8 1.7 1.5 1.3 1.6 1.2.3-.4s-2.1-2.1-2.1-1.3zm-653.2 22.3c.7.3 1.6.2 1.9-.1.4-.3-.2-.6-1.3-.5-1.1 0-1.4.3-.6.6zm75 17c.7.3 1.6.2 1.9-.1.4-.3-.2-.6-1.3-.5-1.1 0-1.4.3-.6.6zm-2 2c.7.3 1.6.2 1.9-.1.4-.3-.2-.6-1.3-.5-1.1 0-1.4.3-.6.6zm17 0c.7.3 1.6.2 1.9-.1.4-.3-.2-.6-1.3-.5-1.1 0-1.4.3-.6.6z"/><g stroke-width="0"><path d="M512 34.2c-3 .5-7.7 1.3-10.5 1.8-2.7.5-9 1.7-14 2.6-9.6 1.7-24.4 5-28.5 6.3-1.4.5-4.5 1.4-7 2.1-2.5.7-5.4 1.6-6.5 2-1.1.4-5.3 1.8-9.4 3.1-8 2.5-15 7-15.8 10-.7 2.4-.8 2.4-4.6-.5-8.4-6.2-16.6-6-57.6 1.4-4.3.7-5.8.6-7.7-.6-2.6-1.8-8.9-1.5-15.9.6-2.2.6-5.8 1.5-8 2-20 4.2-29.8 7.2-40.5 12.3-9.3 4.4-18.8 10.6-20.2 13.1-1.7 3-3.7 10.5-3.8 14.3 0 1.7-.4 5.3-1 8-.5 2.6-1.6 9.5-2.5 15.3-1.8 11.8-2.8 16.6-5.1 26-.9 3.6-1.9 8.1-2.4 10-1.7 7.6-8.4 26-12.7 34.5-5 10.2-13.4 21.6-20.2 27.7-4.4 3.9-20.2 14.8-21.5 14.8-.3 0-2.5.9-4.9 1.9-8.6 3.9-18.9 6.1-27.9 6.1-5.5 0-7.8 1.3-4 2.2 3.7 1 25.8-1.8 26.8-3.3.3-.5 1.2-.9 1.9-.9 2.5 0 11.7-4.6 19.5-9.8 13.1-8.6 26.9-24.8 33.7-39.2 6.4-13.8 8.7-20.6 14.4-43.5.6-2.2 1.5-5.4 2-7.1.5-1.7.9-4.1.9-5.4 0-1.2.4-3.9.9-5.9 1.2-4.5 2.6-13.2 4.7-29.1 2.2-16.8 2.1-16.6 20.7-26.2 6.2-3.2 8.2-3.1 5.2.2-1.6 1.8-1.7 3.3-1.2 13.2.4 6.2 1.1 14 1.7 17.3 2.5 14.1 3.2 17.2 4.2 20.4.9 3 .8 3.6-1.5 5.7-1.5 1.3-2.9 2.4-3.3 2.4-.4 0-2.2 1.1-4.1 2.6-2.4 1.8-3.3 3.3-3.3 5.3 0 7.2 10.2 4.3 14.7-4.3 2.1-3.8 4.3-9.6 4.3-11.4 0-.7.9-3.1 1.9-5.5 1.1-2.3 2.7-6.4 3.6-9.1 2.6-7.9 5.7-14.6 6.7-14.6.6 0 2.3.9 3.9 2 1.5 1.2 4.8 2.4 7.1 2.8 2.4.4 4.2 1.1 4.1 1.5-.1.4-.4 2.6-.8 5-.3 2.3-1 5.2-1.6 6.4-.5 1.3-1.3 3.3-1.8 4.5-.5 1.3-1.8 4.3-2.9 6.8-3.6 8.4-6.5 18.5-9.2 33-.9 4.7-2.2 10.6-3.8 17.5-1.2 4.9-3.5 11.7-6.2 17.8-1.8 4-2.5 4.7-4.9 4.7-3.7 0-6.9 3.5-5.5 5.8 1.5 2.3 4.8 2.7 6.7.8 1.2-1.2 1.7-1.3 2.5-.3 1.6 2 6.6 12.9 8.1 17.7.8 2.5 1.8 4.9 2.3 5.4.4.6.8 1.8.8 2.8 0 1 .4 2.6 1 3.6.5.9 2.4 6.3 4.1 11.9 2.9 9.3 4.9 12.7 6.4 10.3.3-.5 1.2-.7 1.9-.4.8.3 1.7.1 2-.5.4-.6 1.3-.8 2.1-.4 1 .3 1.5-.2 1.5-1.6 0-2.2 1.4-2.8 2.5-1.1.3.5 2.2 1 4.2 1 3.8 0 24.6-3.6 44.3-7.7 6.9-1.4 14.5-2.9 17-3.4 9.3-1.7 20.4-4.1 52-11.1 2.5-.5 13.1-1.3 23.5-1.8 17.7-.8 23.9-1.5 35.5-3.9 10.7-2.3 13.9-3.1 20-5 3.6-1.2 7.4-2.1 8.5-2.1 1.1 0 2.6-.9 3.3-2l1.3-2.1 3.2 2.3c1.8 1.2 3.4 2.5 3.7 2.8.3.3 2.5 2 5 3.8l4.5 3.3-5.5-.6c-10.1-1.1-14.1 3.8-7.8 9.5 1.8 1.7 8.3 7.7 14.4 13.4 7.8 7.3 13 11.3 17.9 13.7 6.6 3.2 7.5 3.4 17.5 3.4 16.6 0 29-4.9 29-11.3 0-2.5-5.5-6.3-11-7.7-13.3-3.3-17.8-5.2-25.8-11-6.9-4.8-18.2-11.3-31.2-17.9-12.8-6.4-13-6.6-24.1-18.7l-7.9-8.6 2.5-2.9c1.4-1.6 2.5-3.5 2.5-4.2 0-.6.2-1.2.4-1.2.9 0 12.4 6.3 15.1 8.4 1.7 1.2 5.5 3.7 8.5 5.6 5.6 3.4 7.7 4.5 21.5 12 4.4 2.4 10.5 6 13.5 8 8.1 5.4 8 5.3 8 3.3-.1-1-2.6-3.8-5.6-6.3-5.3-4.4-8.3-6.3-18.9-12-7.1-3.9-18.1-9.8-24.2-13.1-2.9-1.5-7.4-4.3-10-6.1-2.6-1.8-5.1-3.6-5.7-4-.5-.4.6-2.4 2.7-4.7 2-2.3 3.7-4.6 3.7-5.2 0-.5 2 .4 4.4 2 2.4 1.7 7.9 4.7 12.2 6.7 16.9 7.8 32.1 15.5 36.4 18.4 5 3.3 6 3.6 6 1.7 0-1.4-4.8-6.3-9.5-9.4-3.1-2.1-34.5-18.2-40-20.4-2.8-1.2-2.8-1.3-.8-1.6 1.2-.3 3.2-1.5 4.5-2.8 2.1-2.2 2.3-2.2 7.2-.8 7.9 2.3 20.3 8.4 30.1 14.8 8 5.2 10.9 6.9 18 10.9 1.1.7 3.6 2.2 5.5 3.4 4.3 2.7 6 2.8 6 .3 0-1.3-1.9-2.8-6.7-5.1-12.5-6-32.6-18.7-31.7-20.1.8-1.3 6.3-1.1 10.4.4 1.9.7 8.2 3.7 14 6.7 38 19.7 50.3 24 68.5 24 9.3 0 16.5-1.3 23.7-4.3 4.3-1.8 14.1-8 17.1-10.8 16.8-15.7 26.5-15.3 43.7 2.1 6 6 9.4 10.5 11.6 15 5 10.5 5.7 13.6 5.6 25.8-.1 12.6-1.6 18.2-8 31-5 10-8.6 14.2-12.2 14.2-1.5 0-5.6.9-8.9 1.9-17.6 5.5-35.4 24.4-43.3 45.8-.4 1.3-1.2 3.3-1.7 4.5-.5 1.3-1.2 3.4-1.6 4.8-.3 1.4-1.3 5-2.1 8-.9 3.2-1.7 10-1.7 16.1-.2 10.1-.1 10.7 2.8 15.4 2.2 3.5 4.4 5.5 8.5 7.6 3 1.6 6.6 2.9 8 3 3.8.1 9.2 2.3 10.4 4.2 1.8 2.9-3 12.9-9.6 20.2-3.2 3.5-6.8 10.6-6.8 13.5 0 3 6.1 8.4 11 9.7 2.5.7 9.4 2.4 15.4 3.8 19.9 4.7 29 11 32.3 22.4 3.6 12.7-3.6 24.7-18.7 31.1-3 1.3-6.8 2.6-8.5 3.1-1.6.4-5.9 1.5-9.5 2.4-3.6.9-8.1 2-10 2.5-10.6 2.7-34.9 3.3-51.5 1.2-8.8-1.1-17.3-2.9-14.7-3.1.7-.1 4.8-3.6 9-7.9 8.5-8.5 13.1-16.6 17.7-30.6 6.6-20.4 6.2-42.9-1-51.5-3.6-4.2-10.2-6.5-16.7-5.8-6.4.8-15 5.8-18.6 11-1.5 2-4.3 6-6.2 8.7-5.6 7.8-8.5 8.4-16.5 3-8.5-5.6-21.6-10-30-10-5.2 0-12.3 1.8-17.1 4.3-7.5 3.9-14.5 15.7-14.4 24.3.1 3.4 2.2 12 3.3 13 .4.4.7 1.3.7 2 0 2.4 7.2 12.7 12.4 17.8 7.2 6.9 21.6 15.6 25.9 15.6.7 0 1.7.4 2.3.8 1.4 1.3 16.2 4.3 30.8 6.3l8.9 1.3-2.7 2c-2.8 2.3-11 5.9-24.6 11.1-2.5 1-6 2.1-7.7 2.6-1.8.5-5 1.4-7 1.9-2.1.6-7.7 2-12.6 3-6.1 1.4-9.9 2.8-12.5 4.8-4.6 3.6-8.7 4.7-23.2 6.2-6.3.6-12.5 1.6-13.8 2.1-1.3.5-3.4.9-4.7.9-3.9 0-7.6 2.1-13.8 7.7-3.2 2.9-6.7 5.3-7.7 5.3s-2.2.4-2.5 1c-.3.5-2.1 1-3.9 1-8 0-19-5.6-28-14.3-3.9-3.7-9.6-8.4-12.6-10.5l-5.5-3.7-10.3.3c-9.8.2-14.2-.7-14.2-2.8 0-.6 1.1-1 2.4-1 1.8 0 2.7-.8 3.5-3 .5-1.7.8-3.7.5-4.4-.3-.9 1.1-2.2 3.8-3.6 10.3-5.3 10.8-5.7 13.9-11.7 2-3.8 2.4-6.2 2.4-12.7 0-9-1.2-13.8-6-24.1l-3.2-7 3.8-2.7c2.4-1.7 4.9-4.9 6.6-8.5 2.7-5.6 2.8-6.3 2.8-21.8-.1-13.9-.4-16.9-2.4-22.9-3.1-9.6-8.1-16.7-16.3-23.3-9.7-7.8-11.8-11.8-11.8-22.1 0-14.3-5.8-24.6-17.3-30.9-4.7-2.5-6.1-2.8-15.2-2.8-9.2 0-10.5.3-16.9 3.2-3.7 1.8-7.6 3.3-8.5 3.3-.9 0-2.2.5-2.8 1.1-1.1 1.1-3.9 0-7.8-3.3-5.9-4.8-19.7-3.9-31.9 2.2-8 4.1-12.2 8.4-13.7 14.5-.9 3.7-1.6 4.5-3.4 4.5-2.4 0-8.9 4-11.8 7.4-3.9 4.3-6.9 10.8-8.3 17.3-.7 3.7-1.8 7.1-2.4 7.7-1.3 1.3-1.3 5.3 0 6.1 2.1 1.3-.3 2.5-4.8 2.5-2.9 0-5.9.8-7.8 1.9-2.9 1.8-3.2 2.3-2.8 6.3.1 2.4.7 13.4 1.3 24.6l1 20.3-8.8 8.7c-10.5 10.3-16.6 18.8-22 30.3-5.3 11.4-6.6 15.7-9.1 29-1.2 6.3-3.1 14.1-4.2 17.4-1.9 5.3-9.7 18.4-14.5 24.1-4.5 5.3-28.2 19.2-46.8 27.4-9.7 4.3-11.5 5.2-11.5 6.1 0 2.8 34.5-14 49.5-24.1 9.2-6.2 10.1-7 16.4-16.5 8-11.8 10-17.5 14.7-41 .9-4.4 2-9 2.5-10.3 3.9-9.8 5-12 8.8-18.7 5.1-8.8 11.1-16.4 18.7-23.5 6.9-6.4 18.1-12.7 19.7-11.1.9.9-6.9 11.3-15.7 20.9-3 3.3-3.7 4.5-2.7 5.2.9.5 4.9-3 12.9-11.6 6.9-7.3 12.4-12.4 13.5-12.4 1 0 1.7.3 1.5.7-.2.5-1 2-1.7 3.5-.7 1.4-6 7.2-11.7 12.7-9.7 9.4-11.8 12.1-9.5 12.1.5 0 3.3-1.9 6.3-4.3 9.4-7.5 12.6-9.7 17.3-11.7 4.5-1.9 9.5-2.7 9.5-1.4 0 1.2-11.9 10.4-13.4 10.4-.3 0-4.4 3-9.1 6.7-8.6 6.7-16.6 16.7-14.2 17.6 1.3.5 7.1-2.7 10.2-5.6 1.1-1 4-3.3 6.5-5 2.5-1.7 4.7-3.3 5-3.7.8-.9 9.4-4 11.3-4 2.8 0 2 1.4-4 7-3.2 2.9-7.9 7.2-10.4 9.6-6.4 5.8-9.6 12.8-11 23.9-.6 4.9-1.5 9.8-2 10.7-.5 1-.9 2.4-.9 3.2 0 .8-3.4 5.1-7.5 9.6s-7.5 8.8-7.5 9.6c0 3.8 6.6-.5 10.7-6.9 1.4-2.2 5.8-8.2 9.8-13.1 3.9-5 9.8-12.9 13-17.6 3.3-4.7 8-11 10.6-14 5.6-6.7 9.5-13.3 10.4-18 1.3-6.3 2-6.5 4.8-1.7 3.8 6.5 12.1 15.2 16.4 17.2 2.1 1 7.1 2.4 11.2 3.1 6.3 1.1 9.1 1.1 17.7-.1 5.7-.8 11-1.2 11.8-.9 1.8.7 2.2 7.3.7 10.2-1 1.7-3.9 8.2-7.3 16.2-2.7 6.2-4.2 9.7-6.7 15.2-1.1 2.6-2.1 5.1-2.1 5.5 0 .5-.7 1.6-1.4 2.6-1.4 1.8-1.7 1.8-9.6-1.6-3.1-1.4-24.2-16-32.8-22.7-6.9-5.4-12.1-7.4-17.3-6.3-4.2.8-7.9 4.9-7.9 8.6 0 7.1 9.3 19.3 25.4 33.2 6.9 5.9 13.3 9.4 19 10.1 9.6 1.4 15.4-1.8 20.8-11.3 3-5.3 3.1-5.3 6.7-4.6 5.6 1.1 16.1.8 21.3-.6 8-2.2 15.1-9.9 17.1-18.2.4-1.4 2-4.4 3.7-6.7 2.2-3.1 3.7-4.2 5.7-4.2 2.7 0 9.3 3.8 9.3 5.3 0 1.1 1.7 2.7 5.7 5.5 2.7 1.9 4.4 2.2 13.2 2.2 12.5 0 14.8 1 25.9 11.4 4.4 4.1 9.7 8.5 11.8 9.9 5.1 3.2 15.2 6.7 19.2 6.7 4.4 0 11.4-3.4 17-8.4 6.4-5.8 9.2-6.7 25.7-8.7 13.8-1.6 15.9-2 21.2-3.5 2.8-.8 6.3-2.4 7.7-3.5 1.4-1.1 5.6-2.7 9.3-3.5 26-5.9 39-10.5 56.3-20.2 5-2.7 6-2.9 10.5-2.2 17.5 2.8 23.6 3.3 38 3.2 13.1-.1 18.3-.5 28.7-2.7 32-6.5 44.5-14.2 48.8-29.8 1-3.9 1.1-5.9 0-10.5-3.4-15.2-13-21.6-43.2-28.7-13.7-3.2-17.2-6.1-14.6-12 .7-1.7 4.4-7.6 8.1-13.1 8.3-12.2 9.5-16.9 5.1-20.3-1.5-1.2-3.9-2.4-5.3-2.7-10.4-2.4-13.8-3.9-17.7-7.8-3.7-3.6-4.3-4.9-5-10.1-.4-3.6-.2-9.2.4-13.9 5.5-37.7 28.3-66.8 54.9-70.1 4.8-.6 5.6-1.1 9.2-5.6 7.8-9.8 14.4-26.7 15.8-40.6 1.5-14.5-5.3-31.5-17.8-44.7-9.9-10.5-17.4-14.8-25.8-14.8-6.8 0-9.8 1.4-17.2 7.8-7.7 6.6-18.9 13.7-25.4 15.9-4 1.4-15.1 3.5-18.4 3.5-6.9 0-20.9-3.1-31.6-6.9-1.1-.4-12.1-5.7-24.5-11.8-27.2-13.4-27.7-13.6-35.1-13.6-5.6 0-5.9-.1-5.9-2.5 0-1.4-.4-3.9-1-5.6-.5-1.7-3.5-13.2-6.6-25.6-3-12.4-6.2-25-7.1-28-.8-3-2.4-8.9-3.4-13-1.1-4.1-2.5-9.1-3-11-.6-1.9-1.4-5.1-1.9-7-4.3-18.4-10.8-40.9-11.9-41.1-2.5-.6-6.8-.5-8 .1-.8.5-2.8 0-4.5-1.1-3.4-2.1-9.2-2.3-18.6-.7zm18.4 3.9c3.6 2.8 3.7 3.2 11.3 32.9 3.5 14 6.8 27 7.4 28.7 2.2 7.8 3 10.8 7.8 29.8 7.2 28.6 7.1 28.3 7.1 30.8 0 1.3.5 2.8 1.2 3.5 2.1 2.1.2 2.2-4.1.1-5.5-2.6-12.8-3.4-16.1-1.7-1.4.7-2.9 2.8-3.4 4.5-1 3.2-1 3.2-7.4 3.2-5.4-.1-6.8.3-8.9 2.3-2.1 2-2.4 2.9-1.9 6.5.4 3.3.2 4.3-.8 4.3-2 0-5.6 4.8-5.6 7.5 0 3.8 2.9 8.1 11.6 17.5 4.7 5.1 8.4 9.3 8.2 9.5-.5.5-25.1 7.2-31.8 8.6-19.1 4.1-24.9 5-37.1 5.5-13.1.7-12.2 1.2-14-8.1-.6-2.8-1.4-7-2-9.5-.5-2.5-1.4-6.5-1.9-9-.7-3.8-5.2-25.1-9.1-43.5-1.5-6.8-2.6-12.1-3.9-18-.5-2.8-1.4-6.8-1.9-9s-2.5-12.1-4.6-22c-2-9.9-4.2-19.8-4.7-22-.5-2.2-1.1-7.3-1.3-11.3-.1-4-.7-7.8-1.4-8.5-.6-.6-1.1-2.5-1.1-4.3 0-4.1 3.6-7.2 11.6-10.3 3.3-1.3 6.8-2.7 7.9-3.1 1.1-.5 2.9-1.1 4-1.3 1.1-.3 6.1-1.7 11-3.2 5-1.4 11.3-3.1 14-3.6 2.8-.6 6.8-1.5 9-2s6.5-1.4 9.5-1.9c31.7-5.7 37.4-6.1 41.4-2.9zM401.8 60.7c-1.6.2-4 .2-5.5 0-1.6-.2-.3-.4 2.7-.4s4.3.2 2.8.4zm9.9 1.9c-.3.3-1.2.4-1.9.1-.8-.3-.5-.6.6-.6 1.1-.1 1.7.2 1.3.5zM344 65.5c-2.5.7-11.5 2.9-20 4.9-8.5 2-17.4 4.2-19.7 4.7-7.1 1.9-6.9.4.3-1.8 8.4-2.6 13.2-3.9 20.4-5.3 4.9-1.1 11.6-2.7 14.5-3.5.6-.2 2.8-.3 5-.4h4l-4.5 1.4zm69.1.8c5 2.2 5.6 3.2 7.4 12.2.9 4.4 2.5 12 3.6 17 1.8 8.5 5 23.7 7 33.2.5 2.4 1.3 6.2 1.9 8.5.5 2.4 1.4 6.5 1.9 9.3.9 4.8 4.2 20.2 8.3 39 2.7 12.5 3.5 16.2 4.7 22.5.6 3 1.9 9.7 3 14.8 1.1 5 1.8 9.8 1.5 10.6-.6 1.6-5.3 2.9-23.4 6.6-3 .7-7.1 1.6-9 2-1.9.4-6 1.3-9 2-3 .6-7.3 1.5-9.5 2s-10.3 2-18 3.5c-18.5 3.3-24.3 4.5-28.6 5.6-2 .5-4.9.9-6.4.9-1.6 0-4.3.5-6.1 1.2-3.9 1.4-7.8-.1-9-3.6-1.5-4.4-3.8-17-7.9-43.1-1.6-10.7-3-18.4-4.4-24.5-2.5-11.2-2.6-11.5-4.9-11.4-2 .1-2.2-.3-1.6-3.5.8-5 2.4-13 3.3-16.6 1.9-7 3.4-12.1 4.1-14 8.8-21.8 9.9-25.8 10.1-34.9.1-7.7 0-8.1-2.7-10.3-1.6-1.3-3.7-2.3-4.7-2.3-2.5 0-8.8 3.4-11.4 6.2-1.9 2-6.5 11.1-8.7 17.3-1.2 3.2-2.6-.2-2.6-6.2 0-5-.7-9.3-3.6-21.9-.8-3.3-1.4-6.2-1.4-6.5 0-.2 1.7-.5 3.8-.5 2-.1 5.5-.6 7.7-1.2 6.9-1.7 26.9-6.4 30.5-7.2 1.9-.5 5.8-1.3 8.5-2 10.6-2.4 24.9-5 34-6 10.7-1.2 27.4-.5 31.6 1.3zM295.7 77.6c-.3.3-1.2.4-1.9.1-.8-.3-.5-.6.6-.6 1.1-.1 1.7.2 1.3.5zm32 23.4c1 2 1 2.8 0 3.8-1.1 1-2 1-4.9-.3-4.7-1.9-5.6-3.4-3.2-5.2 2.8-2 6.6-1.2 8.1 1.7zm-32 3.2c-.3.8-.6.5-.6-.6-.1-1.1.2-1.7.5-1.3.3.3.4 1.2.1 1.9zm2 12.5c-.3 1-.5.4-.5-1.2 0-1.7.2-2.4.5-1.8.2.7.2 2.1 0 3zM300 129c0 .5-.5 1-1.1 1-.5 0-.7-.5-.4-1 .3-.6.8-1 1.1-1 .2 0 .4.4.4 1zm-4 12.3c0 1.7-5.8 7.7-7.4 7.7-2.3 0-3.6-2.2-2.1-3.6.7-.8 1.7-1.4 2.2-1.4.4 0 1.9-.9 3.3-2 2.9-2.3 4-2.5 4-.7zm254.7 26.3c-.3.3-1.2.4-1.9.1-.8-.3-.5-.6.6-.6 1.1-.1 1.7.2 1.3.5zm24.3.3c0 .4-1.1.6-2.5.3-1.4-.2-2.5-.6-2.5-.8 0-.2 1.1-.4 2.5-.4s2.5.4 2.5.9zm-39 7.4c0 2.1-4.7 6-6.5 5.3-2.2-.8-2.9-3.4-1.5-5.1 1.6-1.9 8-2 8-.2zm-223 9.9c0 1.6-.3 1.9-1.1 1.1-.6-.6-.8-1.6-.5-2.2 1.1-1.7 1.6-1.3 1.6 1.1zm215 4.6c0 .5-.9 1.7-2 2.7-2.3 2.1-4.7.8-3.7-1.9.7-1.6 5.7-2.3 5.7-.8zm-217.6 6.4c.3 1.3.6 3.8.6 5.7 0 3.3 1.1 10.4 3 20.1 1.2 5.7 2.2 16 1.4 14-.3-.8-1.9-5.1-3.6-9.5-1.6-4.4-4.3-10.5-6-13.6l-2.9-5.6 2.5-5.4c1.4-2.9 2.6-5.9 2.6-6.6 0-2.2 1.7-1.5 2.4.9zm11.3 8c-.3.7-.5.2-.5-1.2s.2-1.9.5-1.3c.2.7.2 1.9 0 2.5zm213.1 17.9c-.5 1.5-10 4.3-22.8 6.9-3 .7-6.9 1.6-8.6 2.1-4 1.2-7.7 1.2-6.9-.1.3-.6 1.6-1 2.8-1 2.6 0 23.4-5.2 29.2-7.3 5.1-1.9 6.8-2 6.3-.6zm-44.3 10.8c-1.8.7-5.5.4-5.5-.5 0-.2 1.7-.4 3.8-.3 2.8 0 3.2.2 1.7.8zm78.5 5.2c16.1 5.3 29.2 14 30.5 20.4.3 1.4.7 3.6 1 5 .4 2 1.1 2.5 3.6 2.5 1.6 0 3.2-.6 3.5-1.4.6-1.5-1.8-6.9-4.5-10-1.5-1.8-1.5-1.9.9-1.2 1.4.4 5.3 1.4 8.7 2.2 12.3 3 13.3 7 2.7 11.3-5 2.1-7.6 2.4-17.4 2.4-10.3.1-12.1-.2-17.2-2.5-3.4-1.6-8.5-5.4-13-9.6-6.6-6.4-7.2-7.3-6-9.1 2.3-3.9 1.2-7-3.8-10.4l-2.4-1.7h3.5c2 0 6.4.9 9.9 2.1zm-12.3 2.5c3.8 2.9 4.2 4.4 1.3 4.4-2.6 0-6.8-2.7-8.1-5.1-1.5-2.9 2.7-2.5 6.8.7zM604 261c.9 1.6.8 2-.5 2-.8 0-1.5-.9-1.5-2s.2-2 .5-2c.2 0 .9.9 1.5 2zm-187.3 55.6c6.1 2.1 10.7 5.5 14.7 11.1 4.1 5.9 5.6 11.2 5.6 20.6 0 10 1.8 13.6 10.7 21.2 9 7.7 11.9 11 14.7 17 4.1 8.6 5 14.2 5.1 29.5 0 14.1-.1 14.6-3 20.5-3.8 7.4-7.6 10-12.3 8.3-2.5-1-3.4-1-4.4 0-1.6 1.6.1 4.6 2.8 4.8 1.1.1 2.5.2 3.1.3 1.4.1 4.1 5.7 8.4 16.9 1.9 5.2 1.7 20-.4 23.9-2.4 4.5-6.2 8.1-10.4 9.8-5.5 2.3-6.8 1.9-10-3.3-3-4.9-10.5-10.6-17.3-13.2-5.1-2-11.4-6.5-13.6-9.7-2.5-3.8-2.4-13.6.1-19.5 1.1-2.4 2.2-4.5 2.5-4.8.3-.3 1.1-1.7 1.9-3.2 1.2-2.4 1.2-4.1.1-11.3-1.1-7-1.1-10 0-17.3.7-4.8 1.6-9.2 2.1-9.7.8-1.1 1.3-8 1.1-13.2-.1-2.2-1.7-5-4.6-8.7-5.9-7.2-8.6-12.7-8.6-17.6 0-2.2-.4-4.8-.9-5.8-.5-.9-1.5-3.1-2.2-4.7-4.9-11.1-20.5-17.3-33.9-13.5-2.8.8-4.2.6-7.3-.9l-3.8-1.9-1.6 3.2c-1.8 3.5-6.8 8.5-13 12.7l-4.2 2.9-.7-3.5c-.8-4.5-4.9-7.5-10.1-7.5-5.6 0-11 4.9-15.4 13.9-1.9 3.9-3.7 7.1-4.1 7.1-.4 0-1.7-.8-2.8-1.7-3.7-3.2-.2-14.2 6.9-21.6 4.5-4.8 8-6.7 12.5-6.7h3.4l-.1-4.9c-.2-4.4.2-5.4 3.2-8.5 4.2-4.4 13.6-8.6 22.5-10.2 7.6-1.3 12.2-.5 16.7 2.7 4.4 3.1 8 4.1 10.6 3 1.3-.6 3.3-1.5 4.6-2 1.2-.5 4.2-1.8 6.7-2.9 2.5-1.2 5.4-2.3 6.5-2.5 4.7-1.1 13.8-.6 18.2.9zm-51.2 30.6c2.2-.1 6.8-.4 10.3-.8 7.7-.7 15.1 1.9 20.1 7 3.2 3.3 7.1 12.3 7.1 16.4 0 4.8 2.7 10.6 7.6 16.3 3.9 4.5 5.3 7 5.7 10.2.5 4.1.3 5.8-2.7 18.7-1.8 7.7-2 14.6-.6 22.3 1.1 5.4 1 6-2.3 12.4-3.6 7.2-5 14.7-4 20.9.7 4.2 6.7 10.9 11.8 13.3 14.1 6.4 18.8 9.7 21.5 15.1 2.6 5 2.5 5.4-.6 8.5-1.8 1.8-2.5 3.4-2.2 5 .5 2.2 0 1.9-4.5-2-4-3.7-5.6-4.5-8.7-4.5-3.1 0-4.4.6-6.5 3.2-1.5 1.8-3.4 4.8-4.2 6.8-5.4 12.9-7.5 15.5-15.8 18.7-3.2 1.2-19.2 1.7-21.9.7-2.2-.8-2-2.6.8-8.7 1.3-2.9 3.8-8.6 5.6-12.7 1.7-4.1 4.2-9.8 5.5-12.5 4-9 4.5-10.5 4.5-15 0-6.3-1.6-6.9-13.9-5.4-6.2.7-12.6.9-17.7.4l-7.9-.9 5-.7c6.1-.8 10.9-3 20.1-9.1 12.6-8.3 19.4-16.8 15.4-19.3-1.7-1.1-1.1-2 3.3-5.1 6.2-4.4 13.8-20.7 13.9-29.9 0-2.2.7-4.9 1.4-6 2.4-3.4 1.7-7-2.1-10.4-3.1-2.7-4.3-3.1-9-3.1-3.1 0-6.3.4-7.3.9-.9.5-3 1.5-4.6 2.2-4 1.9-10.2 8.1-11.9 12.1-3.2 7.4-3.7 9-3.8 12.1-.1 5.1-3 9.1-6.8 9.5-3.6.4-6.1-1.2-6.1-3.8 0-2-2.7-4.6-3.7-3.6-.4.3-.1 1.2.5 1.8.7.7 1.2 2 1.2 3s.9 2.7 2 3.8c1.7 1.7 2.8 1.9 5.8 1.4 6.3-1.1 7.3-2.7 9.9-14.9 2.7-13 13.3-22.5 25-22.5 3.6 0 5 .6 7.4 2.9 3.2 3.2 3.5 4.8 1.7 7.4-1.1 1.5-2 1.6-6.3.7-2.7-.6-7.4-1.4-10.2-1.7-4.8-.5-5.3-.4-5.3 1.4 0 3.1 7.1 6.3 14.2 6.3h6l-.7 4.7c-.3 2.7-2.6 8.6-4.9 13.3-3.6 7.1-5.1 9-8.9 11.4-6.7 4.1-12.5 4.5-22.9 1.3-4.5-1.4-11.4-3.1-15.3-3.8-3.8-.7-7.4-1.6-7.9-2.1-1.6-1.3-5.6-.9-5.6.5 0 2.3 5.8 9.5 9.8 12.2 2 1.3 5.9 3.1 8.6 3.9 5.6 1.7 12.2.7 20.9-3.3 9.1-4.2 13.7-1 7.5 5.1-4.8 4.7-12.5 10.8-13.6 10.8-.6 0-1.2.4-1.4.8-.5 1.3-11 6-14.9 6.7-4.1.8-10.5-1.8-15.5-6.2-3.5-3.1-10.4-13.1-10.4-15 0-.7-.6-1.3-1.4-1.3-1 0-1.5-2.5-1.9-10.3-.6-9.5-1.2-16.1-3.6-34.7-.5-4.1-1.4-12-2.1-17.5-.6-5.5-1.5-11-2.1-12.3-.7-1.9-.2-3.2 3.1-7.7 5-6.8 8.1-7.8 4.5-1.5-.8 1.4-1.4 4.5-1.5 7 0 9.3 9.2 14.9 20 12.1 11.9-3.1 22.7 3.3 16 9.4-2.3 2.1-10.5 3.6-13.5 2.5-3.5-1.4-9.9-3-12.5-3.3-3.7-.3-3.2 2.3 1 5.1 3.2 2.2 4.3 2.4 13.7 2 7.6-.3 10.4 0 10.7.9 1 2.5-3 10.8-7.1 15.1-1.4 1.5-1.7 3.2-.5 3.2.4-.1 2.3-2.2 4.4-4.7 4.3-5.4 6.7-12.6 5-15.3-.9-1.4-.7-2.3.9-4.1 4-4.6 1.7-10.7-5-12.9-3.2-1-5.4-1.1-11.5-.1-12.7 2.1-19.6-1.7-19.6-10.7 0-3.5.7-4.8 5.1-9.6 2.7-3 6.7-6.5 8.7-7.8 4.4-2.7 9.2-7.2 11.7-11.1 1.4-2.2 2.3-2.7 3.9-2.1 1.2.4 3.9.7 6.1.6zm-32.7 6.4c1.6 1.1 2.2 2.5 2.2 5.3 0 6.2-4.6 8.8-5.2 2.8-.2-2.4-.8-3.2-2.2-3.2-2.9 0-4.3 2.9-2.7 5.8 3.4 6.4-12.5 18.8-18.9 14.7-1.2-.8-.9-1.5 1.8-4.3 1.7-1.8 3.2-3.9 3.2-4.6 0-.7.8-2.5 1.8-3.9 1-1.5 2.4-4 3.2-5.5 3.7-7.4 11.6-10.7 16.8-7.1zM328 362c0 .5-.5 1-1.1 1-.5 0-.7-.5-.4-1 .3-.6.8-1 1.1-1 .2 0 .4.4.4 1zm-25 12.5c1 1.3.9 1.5-.9 1.5-1.2 0-2.1-.6-2.1-1.5 0-.8.4-1.5.9-1.5s1.4.7 2.1 1.5zm14.7 22.5c1 10.4 2.5 23 4.9 40.5.6 4.2-.2 6-2 4.6-1.6-1.3-6.3-.5-12.3 2-2.4 1-4.3 1.5-4.3 1.1 0-.4 1.6-2.7 3.5-5.1 5.3-6.6 4.3-11.1-2.1-9.5-1.7.5-2.9.1-3.8-1.1-1-1.4-1.8-1.5-4.9-.7-4.2 1.2-4.5.6-2.1-4.1 3.1-6 3.4-6.7 3.4-8.8 0-3.2 1.9-5.9 4.2-5.9 2.6 0 5.8-2.7 5.8-5 0-2.5-3.8-7-6-7-1 0-2.6.7-3.5 1.6-.9.9-1.7 1.5-1.9 1.3-.1-.2-2.4-3.2-4.9-6.6-7.5-9.8-6.8-10.4 11.3-10.1l13.5.3 1.2 12.5zm-28.7-3.2c0 .5 1.7 3 3.8 5.7 3.4 4.5 3.7 5.3 3.5 11.1-.1 4.7-.8 7.8-3 12-1.5 3.2-3.3 5.9-4 6.1-1.4.5-2.1-5.3-2.7-23-.3-10.4-.1-12.7 1-12.7.8 0 1.4.4 1.4.8zm32.7 3.4c-.3.8-.6.5-.6-.6-.1-1.1.2-1.7.5-1.3.3.3.4 1.2.1 1.9zm-17.9 9.6c-.8.9-1.4.9-2.4.1-1.7-1.4-1.8-4.6-.1-5.2 1.8-.6 3.8 3.5 2.5 5.1zm38.5-5.1c-.7.2-1.9.2-2.5 0-.7-.3-.2-.5 1.2-.5s1.9.2 1.3.5zm336.6 4.7c1.5 1.4 3.2 4.5 3.9 6.9 1.6 5.4 1.7 24 .2 29.8-.6 2.4-1.6 6.2-2.2 8.4-1.7 6.5-5.9 17.5-8.3 21.7-3.4 5.9-11 14.4-16.3 18-6.2 4.3-8.1 4.2-37.2-1.2-30.8-5.7-53.2-26.5-53.4-49.5-.1-5.9.3-7.7 2.6-11.6 3.2-5.4 7.4-9.3 12.7-11.6 4.6-2 20.1-2.3 25.1-.4 5.5 2 18.2 8.2 21.2 10.3 5.7 3.9 10.5 1 18.3-10.9 4.8-7.4 9.4-11.2 15.7-13.4 4.4-1.5 5.6-1.5 10-.3 2.8.7 6.3 2.4 7.7 3.8zM347.5 403c.4.6-.5 1-2 1s-2.4-.4-2-1c.3-.6 1.2-1 2-1s1.7.4 2 1zm-23.8 8.7c-.3 1-.5.2-.5-1.7s.2-2.7.5-1.8c.2 1 .2 2.6 0 3.5zm76.6-.4c2.6.7 4.4 1.6 4.1 2-1.2 1.2-8.8.7-10.6-.7-3.8-2.8-1.3-3.3 6.5-1.3zm-74.6 13.4c-.3 1-.5.2-.5-1.7s.2-2.7.5-1.8c.2 1 .2 2.6 0 3.5zM355 445c1.9.5 7.3 1.9 12 3.1 4.6 1.1 9.6 2.5 10.9 3.1l2.6.9-3 1.4c-6 2.7-11.9 3.5-16.1 2.3-6.6-2-15.4-8.8-15.4-12 0-.8 2.3-.5 9 1.2zm-31 3.9c0 3.6-.3 4-3.2 5-1.8.5-5.3 1.3-7.8 1.7l-4.5.6 6.2-4.7c3.5-2.5 6.5-5.1 6.8-5.6 1.3-2.1 2.5-.7 2.5 3zm.7 13c-.3 2.8-1.4 6.5-2.3 8.3-1.7 3.4-8.1 12-12.9 17.3-1.4 1.6-3.5 4.6-4.5 6.5-3.2 5.8-12.4 17.4-13.5 16.9-.5-.2-.9-.6-.8-.9 0-.3.8-4.7 1.7-9.8.9-5.2 2.3-10.8 3.2-12.5.9-1.8 6.8-8.2 13.1-14.4 6.9-6.6 11.2-11.6 10.8-12.3-1.2-2 .4-4 3.1-4 2.6 0 2.7.1 2.1 4.9zm-19.8-1c1.1.7.6 1.3-2 2.6-1.9 1-6 3.8-9.2 6.3-6.1 4.8-8.1 5.3-4.4 1.1 2.5-2.8 12.5-10.9 13.5-10.9.4 0 1.3.4 2.1.9zm17.5 44.8c1.5.8 6 4.1 10 7.2 11.3 9.1 22.9 16.9 30 20.1 3.6 1.7 6.6 3.5 6.6 4 0 2.2-3.9 8.6-7 11.5-2.7 2.6-3.8 3-9.3 3-6.6 0-14.7-3-19.7-7.4-12.4-11-21.3-20.8-24.4-26.9-3-5.9-3.2-7.9-1.1-10.9 2.5-3.5 8.7-3.7 14.9-.6zM443 510c0 2-2.5 3.8-3.6 2.7-.7-.6 1.8-4.7 2.8-4.7.5 0 .8.9.8 2zm192 56.1c-17.3.4-45.2 1.2-62 1.8-50.2 1.8-163.7 3.4-190.5 2.7-22.6-.5-25.4-.4-28.5 1.2-7.3 3.6-6.9-.7-7.2 92.4l-.3 83.3 2.2 4.2c3.3 6.1 8.3 7.3 29.4 7 17-.2 20 .3 26 4.4 3.6 2.5 5.4 8.9 3.9 13.7-1.8 5.5-6.1 14.1-8.6 17.1-3 3.6-6.5 10.8-7.9 16.1-1.9 7.5-.2 12.4 7 19.6 6.8 6.9 15 10.7 22 10.3 3.8-.3 6.4 1.4 2.8 1.8-1 .1-4.9.7-8.8 1.3-3.8.6-8.8 1.3-11 1.7-2.2.3-4.4.9-4.9 1.4-.6.5-2 .9-3.3.9-2.2 0-4 .6-11.9 4.1-4.7 2-12.7 8-16 11.8-1.2 1.4-3.5 4-5.1 5.7-1.6 1.7-3.8 4.5-4.9 6.2-1.3 2.3-3 3.6-5.9 4.3-11.3 3-17.1 9-25.6 26.9-1.7 3.6-4.5 9.4-6.2 13-7.7 16-23.3 25-43.2 25-7.2 0-30.7-2.8-42.7-5.1-9.7-1.8-14.4-2.8-18.8-3.9-2.5-.6-6.1-1.5-8-1.9-1.9-.5-8-2.1-13.5-3.6-13.6-3.8-17.3-4.6-22.5-5.2-7.1-.8-4.4.4 8.5 3.7 6.6 1.7 16.3 4.3 21.5 5.6 39 10.2 75.9 14.6 89.9 11 8.8-2.4 15-5.8 21.4-12 4.5-4.3 6.8-7.9 13.6-21.7 9.2-18.7 12.2-22.7 19.5-26.9 7.1-4.1 7.6-4 6.9 2.4-.6 6.2.4 7.4 3.8 4.5 2.1-1.8 2.4-2.9 2.2-7.6-.3-5 .1-6.1 3.2-10.3 5-6.9 15.8-16.6 21.5-19.5 7-3.6 18.6-6.7 31.5-8.4 3.3-.5 7.2-1.2 8.8-1.6 1.7-.4 3.3-.3 4.2.5 1.7 1.4 13.2.9 21.5-1 6.8-1.5 16.5-.8 20.9 1.5 4.1 2.1 8.1 6.2 8.1 8.3 0 .9 1 3.7 2.2 6.3 2.7 6 7.5 8.5 23.5 12.4 8.9 2.2 22.1 8.7 26.7 13.1 4.2 4.1 4.3 4.3 1.6 7.4-2.4 2.8-2.4 3-.4 5.8 1.5 2.2 3.8 2.7 6.8 1.6 1.9-.7 2.1-3.7.4-6.3-1.4-2.2-.6-4.6 2.1-6 1.7-.9 2.6-.5 5.7 2.3 6 5.5 13.9 8.9 21.7 9.4 9 .6 15.1-2.4 25.2-12.3 12.3-12 17.8-15.4 34-21.2 11.8-4.3 19.4-6 30.8-7l6.7-.5v3.5c0 4.2 1.2 5.2 3.9 3.5 2.7-1.6 3.3-4.8 1.6-7.5-.8-1.2-1.2-2.9-.9-3.7.5-1.2 1.1-1.2 4.7.4 2.9 1.2 7.9 1.9 16.3 2.3 9.6.5 13.6 1.1 20 3.4 7.1 2.5 9.1 2.7 20.4 2.6 9.9-.2 13.6-.6 18-2.2 7.2-2.8 8.7-2.7 14.3.9 3.2 2 5.4 4.4 6.9 7.5 2.1 4.3 2.1 4.6.5 7.4-.9 1.6-1.7 4.1-1.7 5.5 0 2.1.5 2.6 2.4 2.6 2.5 0 3.6-1.6 3.6-5.5 0-3.4 2.9-4.6 8.2-3.7 8.9 1.7 16.9 7 33.7 22.4 4.7 4.3 9.2 7.8 10 7.8 3.2 0-26.2-25.7-32.7-28.6-2-.9-4.6-2.1-5.8-2.6-1.2-.5-4.7-1.1-7.8-1.2l-5.8-.3-2.9-5.2c-2.1-3.6-4.6-6.2-8-8.4-3.6-2.2-4.8-3.5-4.4-4.6 2.5-6.5.3-12.7-6.2-17.1l-3.6-2.4 2.8-2.1c4.7-3.3 16.6-15.6 21.2-21.9 5-6.8 5.7-11.5 2.1-15.3-2-2.2-2.1-3.1-1.9-20 .2-23.4-.9-28-9.5-38.9-4.2-5.2-14.1-11.7-22.8-14.8-6.9-2.5-22.4-4.7-30.4-4.3l-4.3.2.1-61.5c.1-33.8.2-65.4.3-70.2.1-10.4-2.4-16.7-7.8-19.2-3.7-1.8-10.2-1.8-64.5-.5zm62.1 1.9c2.6.7 4.1 2.1 6 5.2 2.2 3.9 2.4 5.4 2.3 15.4-.1 6-.7 19.1-1.4 29-.9 13.7-1 21.2-.1 32 .6 7.7 1.1 25.6 1.1 39.7 0 25-.1 25.7-2 25.7-1.1 0-2-.6-2-1.3-.1-.6 0-31.5 0-68.4.1-75.8.6-70.4-7.8-74.4-4.4-2-5.6-2.1-19.2-1.5-8 .4-25.5 1.1-39 1.7-13.5.5-26.7 1.1-29.5 1.3-11.9.9-103.9 1.5-113.5.7l-10.5-.8 10-.2c13.4-.2 38.8-.8 106.5-2.7 31.1-.8 64.2-1.6 73.5-1.7 9.4-.1 18.1-.4 19.5-.5 1.4-.1 4.1.3 6.1.8zm-7.2 4.1c2 .6 4.9 2.3 6.4 3.8l2.9 2.6-.3 68.1c-.3 73.7-.5 71.3 5 71.5 1.4 0 2.2.2 1.6.4-.5.1-3 .9-5.5 1.6-5.6 1.6-10.1 4.1-16.2 8.7-7.2 5.5-11 10.8-15.7 22.6-1.1 2.6-1.3 2.7-2.9 1.4-.9-.8-2.6-1.9-3.7-2.3-5-2-126.9-2.3-131.8-.3-3.6 1.4-4 .9-2.1-2.7 2.4-4.7 1.5-8.6-2.8-11.4-2.9-1.9-3.8-3.1-3.8-5.3 0-6.3-5.2-14.3-11.4-17.3-5.3-2.7-17.1-1.1-25.9 3.5-3.4 1.8-4.2 1.9-5.6.7-6.8-5.6-20.7-5-33.4 1.5-11.2 5.7-25.5 17.5-30.4 25.3-1.5 2.4-3.7 4.6-4.8 4.9-1.2.3-2.8 1.7-3.5 3.2-1.2 2.2-1.8 2.5-4.5 1.8-1.6-.5-10.2-.9-19.1-.9-17.6-.1-22.9-1.3-25.5-6.1-1.4-2.7-2.9-3.2-2.9-1 0 .8 1.9 3.1 4.2 5 3.2 2.8 5 3.6 8 3.6 2.4 0 3.7.4 3.3 1-.8 1.3-4.8 1.3-11.2-.2-4.8-1.1-5.5-1.6-7.5-5.8-2.3-4.5-2.3-4.8-2.3-54.5 0-27.5.3-65.1.7-83.5.7-30.5.9-33.7 2.6-36l1.9-2.5 54.2-.3c35.9-.1 54.1.1 54.1.8 0 .8-48.7 1.7-64.5 1.2-1.6-.1-10.3-.2-19.3-.2-16.2-.1-16.4-.1-19.8 2.5-6.8 5.2-6.4 1-6.7 80.2-.2 69.1.3 85.3 2.5 85.3.7 0 .7-2.7.2-8.3-.5-4.5-.8-39.6-.6-78 .2-75.3 0-72.4 5.6-77.6l2.5-2.3 21.8.3c20.1.4 121-.5 194.3-1.7 16.8-.3 34.6-.9 39.7-1.5 5.1-.5 15-1 22-1 7-.1 17.5-.4 23.3-.8 20-1.2 23.3-1.2 26.9 0zm-219.7 2.1c-1.7.8-2.6.8-3.4 0-.9-.9-.4-1.2 2.3-1.1 3.2 0 3.3.1 1.1 1.1zm38.6 141.2c3.8 2 6.8 5.5 8.7 9.9 1.5 3.7 1.5 4-.5 7.4-1.1 2-1.8 3.8-1.5 4.2.4.3 2.4.6 4.5.7 9.7.1 9.3 7.1-.9 16.7-3.3 3-5.1 5.6-5.1 7 0 1.3-.4 2.7-.9 3.3-1.8 1.8-7.1 12.6-7.1 14.5 0 1-.5 4-1.1 6.6-5.9 25.5-6.7 26.8-11.6 19-3.5-5.6-5-6.6-9.9-6.7-3.2 0-4.8.6-6.8 2.6-4.2 4.3-3.3 8.5 2.6 12.7 1.4 1 1.6 2.1 1.1 5.7-1.3 9-14.9 18.5-28.8 20-8.4 1-16.2-.3-18.7-3-1.8-1.9-2.1-1.9-4.9-.5-8.2 4.3-21.1.5-29.3-8.6-4.8-5.3-6.3-10.2-5.1-16.1.7-3.2 7-15.8 8.4-16.8 1.5-1 6.8-11.7 8-16.2 1.8-6.5.1-12.9-4.4-16.4-1.8-1.3-3.7-2.4-4.2-2.4-.6 0-1.6-.7-2.4-1.6-1.1-1.3-.9-1.4 1.7-.8 1.6.4 3.7 1.1 4.6 1.5 2.6 1.4 4.8 1 5.4-.9 4.8-14.4 19.2-28.6 38.1-37.4 13.5-6.4 32.2-4 28.5 3.5-2 4.1-2.4 6.8-1.2 8.2 2.8 3.4 6 0 6-6.5 0-4.5.2-4.9 3.8-6.6 8.8-4.2 18.3-5.4 23-3zm228.3 6.8c12.7 3.6 26.8 14.3 31.1 23.6 2.9 6.5 4.1 16.8 3.6 31.9l-.4 13.1-5.2 5.7c-4.4 4.8-5.2 6.3-5.2 9.5 0 4.6 2.6 6.8 6 5 2.1-1.1 2.8-4 1-4-.5 0-1 .4-1 1 0 .5-.9 1-2 1-3.3 0-2.5-4.9 1.6-9.5l3.5-4-.7 5.4c-.8 6.2.9 6.5 2.1.4.9-5 1.4-5.6 3.1-4.2 2.2 1.8 1.6 6-1.5 10.7-4.4 6.6-15 18-20 21.5-4.1 2.8-5.3 3.1-13.5 3.3-8.6.2-12.7.8-22.1 3.3-8.9 2.3-20.6.4-24.1-4-2.8-3.3-5.2-8.8-6.4-14.7-1.4-6.2-3-8.3-3-3.9 0 3.9 4 15 6.7 18.6 1.4 1.8 4.4 4.2 6.7 5.2l4.1 1.9h-5.6c-6.1 0-6.4-.2-9.9-6.5-5.9-10.5-9.2-26.5-5.6-26.5.8 0 1.8.9 2.1 2 .3 1.1 1.1 2 1.6 2 1 0 .7-1.7-1.2-6.8-.7-1.9-1.2-2.1-2.8-1.3-2.3 1.3-3.1 3.2-3.1 7.6 0 4-1.6 5.4-2.5 2.4-.4-1.2-3.4-4.8-6.7-8-5.2-5.1-5.9-6.2-5.6-9.1.2-2.5.8-3.4 2.4-3.6 1.7-.2 2.3.5 3.3 4 .7 2.4 2.1 5.4 3.2 6.8 1.8 2.3 2 2.4 3.3.7 1.8-2.4.9-6.5-2.5-10.9-2.9-3.6-2.9-3.8-2.9-17 0-15.9 1.1-23.5 4.4-30.2 5.5-11.2 17.8-20.4 32.1-24 3.6-.9 26.9.3 31.6 1.6zM480 726.9c0 1.1-.4 2.3-1 2.6-.6.4-1-.5-1-1.9s.5-2.6 1-2.6c.6 0 1 .9 1 1.9zm181.2 25.9c3.1 1.3 4.2 2.8 2.7 3.8-.6.4-31 .6-67.6.5-58.6-.1-66.7.1-69.4 1.4-4.2 2.2-5.4 1.5-2.9-1.8 4.5-5.7 2.9-5.6 71.5-5.3 41.2.2 63.9.7 65.7 1.4zM395 756c0 .5-.4 1-.9 1-.6 0-1.3-.5-1.6-1-.3-.6.1-1 .9-1 .9 0 1.6.4 1.6 1zm124 10.5c-2.6 24.7-3 30-2.5 31.5.3.9-.3 2.8-1.4 4.1-2.2 2.8-2.8 8.4-1.7 15.2 1.7 9.8-2.9 16.5-13.8 20.6-7.8 2.9-15.7 6.9-18.3 9.4l-2.3 2-1.8-2c-2-2.4-8.6-6.3-10.6-6.3-.7 0-1.8-.6-2.4-1.3-.8-.9 0-1.7 3-3.2 2.2-1 5.9-3.6 8.3-5.7 8.1-7.1 13.4-17.8 8.8-17.8-2.3 0-8.3-4.8-8.3-6.7 0-2.9 4.1-6.3 7.4-6.3 3.8.1 5.5 1.3 8.5 6.3 2.9 4.7 5.8 6.4 7.6 4.5 1.8-1.7 6.5-17.6 6.5-21.5 0-1.8.5-3.5 1-3.8.6-.3 1-1.9 1-3.6 0-1.6.4-3.7.9-4.7 4.1-8.3 7.1-15.1 7.1-15.9 0-1.4 2.3-3.4 3-2.6.4.5.4 3.9 0 7.8zm134-5.9c6.9.2 12.8.4 13.2.4.6 0 .5 12.4-.2 26.2 0 .5-.9.8-2 .8-4 0-5.3 7.5-2.3 12.7.9 1.6 3.1 3.9 4.9 5.1 2.9 1.9 8.4 11.2 8.4 14.1 0 .5 1.6 4.3 3.5 8.4 1.9 4.1 3.5 7.9 3.5 8.4s-1.6 1.5-3.5 2.2c-4.1 1.5-8.2 6.2-10.6 12.3-1.6 4.2-1.8 4.3-6.5 4.5-7.8.4-26.1 4-27.8 5.5-.6.4-1.7.8-2.6.8-3.5 0-20.8 7.9-27 12.3-3.6 2.5-9.4 7.6-13 11.2-8.5 8.7-15 11.9-22.8 11.3-6.8-.6-15.6-4.4-19.7-8.8-2.4-2.5-2.7-3.3-1.5-4 .9-.6 2.2-.2 3.7 1 4 3.1 11.8 5.3 16.4 4.5 4.4-.8 5.5-2.2 4.5-5.9-.9-3.6-5.3-4.9-15.2-4.5-6.4.3-8.8.1-9.1-.9-.3-.6.3-1.2 1.3-1.2 1.8 0 7.4-1.6 10.9-3.1 3.4-1.5 5.8-3.3 8.8-6.4 5-5.4 6.1-9 6.1-21 .1-9.2-.3-12.1-2.3-17.5-5.3-14.6-15.1-23.3-15.1-13.4 0 1.9-.2 3.4-.5 3.4s-1.9-1.4-3.7-3c-4.1-4-5.8-3.9-5.8.4 0 3-.2 3.3-2.5 2.8-2.4-.4-2.5-.2-2.5 4.1 0 2.8-.6 4.9-1.5 5.7-1.4 1.2-2.5 3.3-5.3 10.1-.5 1.4-1.6 5.9-2.3 10-1.6 9.6 0 19.1 4.6 28.3 2.9 5.9 3.2 6.8 1.8 8.1-2.1 2.2-2.9 1.9-7.3-2.4-5-4.8-18.1-11.3-27.5-13.6-9-2.2-19.7-6.2-20.7-7.8-2.8-4.3 1.3-9.7 9-11.7 9.6-2.6 15.8-7.8 21-17.5 2.9-5.6 4-9.9 4.7-18.5.9-10.7 1.2-11.8 3.7-12.2 1.5-.2 2.6-1.6 3.6-4.5 1.4-3.6 1.4-5.1.2-11.5-.7-4-1.7-7.8-2.2-8.4-.5-.7-1.1-3.5-1.5-6.3-.6-4.9-.5-5.2 3.3-8.8l3.9-3.6 55.5.7c30.5.5 61.1 1 68 1.2zm-129 27.1c1.5 7.2.2 12.3-3.1 12.3-1.7 0-1.9-.9-1.9-10.4 0-12.2.7-15.3 2.5-11 .6 1.6 1.7 5.7 2.5 9.1zm149 10.4c0 1.1-.4 1.7-1 1.4-.5-.3-1-1.3-1-2.1s.5-1.4 1-1.4c.6 0 1 .9 1 2.1zm-108.9 20.1c3 4.2 4.3 6.7 7 13.8.9 2.2 1.4 7.5 1.4 14.5-.1 9.6-.4 11.5-2.4 15-5.1 8.9-9.4 11.5-19.1 11.5-8.4 0-10.3 1.5-7 5.7 1.9 2.5 2 2.8.5 3.1-5.7 1.2-12-21.2-9.5-33.6.7-3.1 1.6-6.6 2-7.7.5-1.1 1.4-3.5 2.2-5.3 2.8-6.8 5-1.9 5.6 12.3.2 6 .7 11.4 1.1 11.8.5.4 1.9-.1 3.2-1.2 2.1-1.7 2.4-2.6 2.1-8.1-.1-4.1-1.4-9.3-3.8-15.6-4.2-11.2-4.4-16.6-.4-9.5 2.9 5.2 5.4 7.1 7 5.5.9-.9.4-2.5-1.5-6.2-1.5-2.9-2.5-5.7-2.3-6.3.6-1.7 4.5 2.6 7.3 8.1 2 3.8 2.5 4.2 3.1 2.6.4-1 .2-3.3-.4-5-1.5-4-1.6-9.6-.2-9.6.5 0 2.4 1.9 4.1 4.2zm176.4 17c-2.8 1.6-14.1 3.7-19.5 3.7l-4.5-.1 3.5-1c5.8-1.5 16.3-3.5 19.5-3.6 2.7-.1 2.8 0 1 1zm11.3 3.5c5 3.3 7.4 8.3 6 12.5-1.1 3.2-2.3 3.4-13 1.7-5.2-.8-12-.8-25.7.1-13.8.8-19.4.8-21.6 0-4.2-1.6-17.3-4-21.7-4-4.6 0-4.7-.9-.9-5.2 2.8-3.1 3.3-3.3 9.3-3.1 31.6.9 54.1-.4 59.6-3.6 2.5-1.5 3.4-1.4 8 1.6zm-245.7 1c-2 3.6-6.4 6.2-14.1 8.3-2.5.7-6 2.3-7.7 3.6-2.2 1.7-3.3 2-3.3 1.2 0-3.8 4.8-7.1 17.5-12.2 7.5-3 8.9-3.2 7.6-.9zm-67.6 1.8c2.9 1.3 2.9 1.3-3 1.4-5.5 0-5.8-.1-4.1-1.4 2.4-1.8 3.2-1.8 7.1 0zm110.5 8.7c-.1 5-.3 5.9-1.1 4.5-1-1.7-.4-10.7.7-10.7.2 0 .4 2.8.4 6.2zm136.5 2.2 6 1.4-6.2.1c-3.5.1-6.3-.3-6.3-.8s-1-1.2-2.2-1.4c-2.1-.4-2.1-.4.2-.5 1.4-.1 5.2.5 8.5 1.2zm62.3 3.2c3.3.9 2.7 1.8-2 3.1-9.3 2.5-21.6 2.4-32.8-.4-3.3-.8-3.4-1-1.5-2.1 2.1-1.2 32-1.7 36.3-.6zm-79.1 6.6c-.3.7-.5.2-.5-1.2s.2-1.9.5-1.3c.2.7.2 1.9 0 2.5zM772 881.1c0 1.1-.4 1.8-1 1.4-.5-.3-.7-1.2-.3-2 .7-2.1 1.3-1.9 1.3.6zm-204.5 1.1c3.3 1.5 2.8 4-1 5.1-3.7 1-14.5-2.6-14.5-4.9 0-1.8 11.6-2 15.5-.2zm-211.3 5c-.3 1.2-.8 1.6-1.4 1-.6-.6-.7-2-.3-3.2.9-2.8 2.5-.8 1.7 2.2zm180.6 7.3c1 2.1.9 2.7-.4 3.2-2.2.8-3.7-1.1-2.9-3.6.9-2.8 1.9-2.7 3.3.4z"/><path d="M411.6 601.3c-4.9 2.8-19.3 16.3-18.4 17.2.9 1 4-1.1 10.3-7 8.6-8 16.9-10.8 25.3-8.6 12.3 3.4 10.7 18.1-4.4 39.9-11.6 16.7-35 41.3-43.1 45.3-3.3 1.7-4.8 3-4.8 4.4 0 3 4 3.1 7.8.2 1.8-1.3 4.3-2.6 5.7-2.9 14-3 19.1-3.8 29-4.7 15-1.3 26.1 0 30.7 3.5 3.3 2.5 4.2 1.9 2.3-1.7-3.6-6.6-19.7-7.9-47.8-3.8-4.1.6-7.6.8-8 .5-.3-.4 3.5-4.8 8.5-9.9 20.9-21.1 33.7-40.1 37.2-54.9 1.8-7.5-1.6-15-8.2-18.3-4.7-2.3-17.2-1.9-22.1.8zm95.7.9c-2.4 3.8-3.3 6.4-3.3 9.7-.1 4.4-2.9 8.1-6.2 8.1-3.4 0-4.8-1.8-4.8-6.1 0-5.1-2-6.5-5.4-3.8-1.4 1.1-2.6 2.7-2.6 3.4 0 .8-1 1.9-2.2 2.6-1.8 1-1.9 1.3-.6 2 .9.5 1.9 2 2.2 3.4.8 3 3.6 3.3 6.1.5 1.3-1.5 2.2-1.7 3.6-1 2.6 1.4 5 1.2 7.1-.7 1.7-1.5 1.9-1.5 3.9.3 1.9 1.7 2.2 1.7 4.9.2l2.8-1.6.5 4.6c.3 2.6.5 5.7.6 7 0 5.7 4.6 6.1 8.5.8 4-5.5 8.7-15.4 7.6-16.1-.5-.3-1 .3-1 1.4 0 1.2-.4 2.1-1 2.1-.5 0-1 .7-1 1.5s-.3 1.5-.8 1.5c-.4 0-1.4 1.5-2.1 3.2-1.6 3.6-5.4 7.8-7.1 7.8-.6 0-1-3.4-1-8.8 0-4.9-.3-9.2-.6-9.5-.4-.4-2 .5-3.6 1.8-5.3 4.4-7.1 2.3-3.9-4.6 2-4.5 2.5-9.5 1-10.4-.4-.3-1.1 0-1.6.7zm.7 6.4c0 .8-.4 1.2-1 .9-.5-.3-1-1-1-1.6 0-.5.5-.9 1-.9.6 0 1 .7 1 1.6zm-18 5.9c-.6.8-.9 2.2-.6 3.2.3 1 .1 2.5-.4 3.3-.8 1.2-1 1.2-1.6-.3-.8-2.1.2-6.4 1.9-8.2 1.6-1.7 2.2.1.7 2zm-27.6-6.3c-1.9 3-6.2 42.3-5 45.4 1.2 3.2 2.5 0 4.3-10.9 1.4-8.3 2.1-10.7 3.3-10.5 2.7.4 5.7-2.1 7.3-6.1.9-2.2 2-4.2 2.5-4.5 1.3-.8-.3-9.7-1.9-10.6-2.5-1.6-7.9 3.3-7.9 7.2 0 1-.4 1.8-1 1.8-1.3 0-1.3-5.1 0-8.6 1.2-3-.1-5.6-1.6-3.2zm9.6 9.1c0 3.7-.4 4.5-3.1 6.1-1.7 1-3.3 1.6-3.5 1.3-1.1-1 4.7-11.6 6.4-11.7.1 0 .2 1.9.2 4.3zm-3.2 10.1c-.7.8-1.5 1.2-1.7 1.1-.5-.6 1-2.5 2-2.5.5 0 .4.6-.3 1.4zm8.7-8.4c-.3.5.1 1 .9 1 .9 0 1.6-.5 1.6-1 0-.6-.4-1-.9-1-.6 0-1.3.4-1.6 1z"/><path d="M558.2 635.7c-1.1 1.6-3 5-4.3 7.8l-2.3 5-.6-3c-.7-4.2-3.3-3.9-4 .5-.4 1.9-1.1 4.4-1.7 5.5-2 3.6-8.2 8.8-13 11.1-6.2 2.9-8.7 1.7-9.1-4.4-.3-3.5.1-4.3 2.8-6.2 3.1-2.2 3.9-5.9 1.3-6.7-1.2-.4-7.3 5-7.3 6.6 0 1.3-5.3 5.2-12 8.7-3 1.6-5.7 3.2-6 3.5-.3.4-1.4.9-2.6 1.3-1.6.5-2.5-.2-4.2-3.3-4.2-7.4-2.4-16.4 3.8-19.6 2.6-1.3 2.8-1.3 3.3.6.8 3 3.2 1.7 3.2-1.7 0-6.7-10.8-2.6-15 5.8-2.1 4.4-1.9 7 1.4 14.2l2.9 6.4-5.6 3.8c-7.5 4.9-13 10.8-13.7 14.8-.8 4.1.9 8.6 3.3 8.6 1 0 2.3.5 2.9 1.1 1.4 1.4 8.2-.9 12.1-4.1 5.1-4.3 7.5-9.3 6.9-14.7-.3-2.7-.8-6-1.2-7.4-.5-2-.3-2.8 1.2-3.2 1-.4 5.4-2.6 9.7-5.1l7.9-4.4 2.1 4.2c3 5.9 6 6.6 12.9 3.3 3-1.5 6.8-4 8.5-5.7l3.1-2.9.3 3.7c.2 2.8.7 3.7 2.2 3.7 1.3 0 2.8-2.3 5.7-9.5 2.2-5.2 4.6-10.8 5.3-12.4l1.4-2.9.5 2.9c.3 1.6.9 5.5 1.2 8.6.9 7.9 2.9 8.7 5.3 2 .7-1.7 1.7-4.6 2.3-6.2 1.8-4.7 2.9-3.6 2.9 2.8s1.8 9.2 5.8 9.2c2 0 8.1-2.9 10.9-5.2.8-.6 1.2-.3 1.5 1.3.2 1.2 1.1 2.7 2.1 3.3 1.5.9 2.5.4 6.2-3.5l4.4-4.7 1.6 2.4c1.1 1.8 2.5 2.4 5 2.4 1.9 0 3.5-.4 3.5-.8 0-.5 1.1-1.4 2.5-2 2.3-1.1 2.5-1 2.5 1.3 0 2.9 1.5 4 3 2.3.6-.7 2.6-4.2 4.4-7.7 1.8-3.6 4.2-7.1 5.3-7.8 1.8-1.2 1.9-1.1 1.5 1.7-1.1 7.3 4.4 11.9 11.2 9.6 2-.7 3.9-1.5 4.2-1.9 1.5-1.5 3-.6 4.1 2.4 1.1 2.8 1.4 2.9 3.5 1.8 1.3-.6 3.8-2.7 5.6-4.6l3.3-3.4 2 2.5c2 2.6 5.3 3.4 6.4 1.7.3-.5-.5-1.1-1.7-1.3-2.5-.3-5.7-5.3-6.7-10.1-.4-2-1.4-3.3-2.5-3.5-1.9-.4-7.6 4.4-7.6 6.4 0 1.9-7.1 7.4-9.5 7.4-1.2 0-2.6.5-3.2 1.1-.8.8-1.6.7-3.1-.2-2.9-1.8-4-4.8-3.1-8.9.7-3.4-.3-6-2.3-6-.6 0-2.6 1.6-4.5 3.5-3.2 3.2-3.5 3.3-4 1.4-.9-3.1-3.7-1.9-4.1 1.8-.4 3.7-7.3 11.3-10.3 11.3-2.4 0-5.9-5.5-5.9-9.2 0-3.4-3.1-5.4-5.8-3.7-1 .6-2.9 2.8-4.3 4.8-3.1 4.6-6.3 7.5-11.6 10.3-6.2 3.3-7.7 2-8.1-6.5-.4-9.9-3.6-11.2-7.3-3-2.5 5.7-3.9 3.6-3.9-5.8 0-6.7-1.5-7.8-4.8-3.2zm101.9 5.1c-.6 1.2-1.1 2.9-1.1 4 0 1-.9 2.7-2 3.7-1.8 1.7-2 1.7-2 .1 0-1.7 2.4-7.1 4.3-9.4 1.5-1.8 2-.7.8 1.6zm-60.1 3.1c0 .6-.4 1.3-1 1.6-.5.3-1 1.7-1 3.1 0 1.4-.6 3.2-1.4 4-3.3 3.2-3.5.8-.4-5.2 2-4.1 3.8-5.7 3.8-3.5zm-102 33.8c0 8.9-6.4 15.8-14.7 15.8-5.2 0-6.6-1.6-5.9-6.4.6-4.2 4.2-8.2 12.1-13.3 5.5-3.6 6.1-3.8 7.2-2.2.7 1 1.3 3.7 1.3 6.1z"/></g><path fill="#E7E7E7" d="M638.5 570c-.3.5-.1 1 .4 1 .6 0 1.1-.5 1.1-1 0-.6-.2-1-.4-1-.3 0-.8.4-1.1 1zm-130.7 2.7c.6.2 1.8.2 2.5 0 .6-.3.1-.5-1.3-.5-1.4 0-1.9.2-1.2.5zM430 574c0 .5.9 1 2.1 1 1.1 0 1.7-.5 1.4-1-.3-.6-1.3-1-2.1-1s-1.4.4-1.4 1zm-79.9 32.6c0 1.1.3 1.4.6.6.3-.7.2-1.6-.1-1.9-.3-.4-.6.2-.5 1.3z"/></svg>