<svg xmlns="http://www.w3.org/2000/svg" version="1.0" viewBox="0 0 676 660" fill="#EE5F79"><g stroke-width="0"><path d="M351 1.7c-23.8 4-42.9 7.7-55.7 10.9-15.9 3.9-40.9 11.7-46.4 14.5-4.2 2.1-9.9 8.2-9.9 10.6 0 1.3-.9.9-3.4-1.6-4.4-4.2-11-6.1-21.8-6.1-14.3 0-55.8 6.5-56.6 8.9-.2.6-1.1 1.1-2 1.1-.8 0-1.3.2-1 .5.2.3 4.5-.4 9.5-1.5 28.9-6.3 55.3-8.2 64.5-4.7 7.1 2.7 8 4.8 1 2.4-12.6-4.2-30.7-3.2-65.9 3.8-9.6 1.9-18.7 3.3-20.1 3-2.1-.4-2.3-.3-.7.3 1.6.8 1.5 1-1.4 1.5-1.8.4-4.5.4-5.9.1-2.2-.4-2.4-.3-1.2.6 1.2.9.7 1-2 .5s-3.2-.4-2 .5c1.2.9.7 1-2 .5s-3.1-.4-2 .5c1.1.8.6.9-2.5.5s-3.6-.3-2 .5c1.7.9 1.6 1-.7.5-1.5-.3-4.8 0-7.3.6s-4.8.9-5.1.7c-.3-.3 3.6-1.6 8.6-2.8 5-1.2 8.9-2.4 8.7-2.6-.7-.7-37.3 8.3-40.5 10C81 57.6 80 59.8 80 66.9c0 11.5 6.1 50 8.5 53.8 1.3 1.9 1.2 2.4-.4 4.5-1 1.2-4.6 3.8-7.9 5.7-7.1 4-9.1 7.1-6.7 10.7 4.3 6.6 15.4-1.8 19.9-15 1.8-5.5 2.1-7.9.6-5.6-.8 1.3-1 1.2-1-.3 0-1-.4-1.6-.9-1.3-.4.3-1.1-2-1.4-5.2-.3-3.1-1.5-11.8-2.7-19.2-1.1-7.4-2.2-17.6-2.4-22.7-.2-5.7-.8-9.8-1.6-10.8-.7-.8-1-1.8-.6-2.2.3-.3.6-.1.6.6s.5.9 1 .6c.6-.4.7-1.2.3-1.8-.4-.7 0-.6 1 .2.9.7 1.7 1.9 1.7 2.5 0 .6-.5.4-1.1-.4-.8-1.2-.9-1-.5 1 .3 1.4.6 3.3.6 4.3s.4 1.5 1 1.2c.6-.4.8.7.4 2.7-.4 2.3-.3 2.9.4 1.9C90.4 69.8 93.9 93 94 107c0 5.9.3 8 1 7 .8-1.2 1-1.2 1 .5.1 3 1.3.6 5.3-11.1 2-5.6 4.7-12.5 6.2-15.3l2.6-5.2 4.2 2.9c5.1 3.6 10.8 5.5 13.2 4.6 1.7-.7 1.8-.2 1.3 5.3-.4 4.2-2.5 10.8-6.6 21-7 17.4-8.8 23.7-13.7 47.8-3.8 18.9-7.7 32.1-12 40.4-1.3 2.8-2.1 5.2-1.6 5.5 1.2.8 3.3-2.7 6.5-10.9 4.4-11.5 4.5-11.5 4.5-7 .2 10.4 5.8 44.2 10.2 61.7 3.2 13 2 11-4.1-6.6-7.5-21.4-14.4-36.1-16.6-35.2-1.1.4-1.8-.1-2.1-1.4-1.1-4.2-8.8-1.4-8.1 3 .5 3.9 3.2 4.8 6.7 2.2l3-2.2 1.5 2.2c3.7 5.6 9.3 19.7 16.1 40.1 4 12.2 7.8 22.3 8.3 22.5.6.2 1.3-.1 1.6-.7.3-.5 1.5-.7 2.6-.4 1.7.4 2 0 2-2.3v-2.8l1.6 2.2c2.1 3 3.4 2.8 3.4-.8v-2.9l3.6 2.1 3.6 2.1 15.7-2.7c19.5-3.4 89.7-17.5 109-21.9 9.2-2 14.6-3.7 14.9-4.6.3-1 0-1.2-1.2-.8-4.1 1.6-84.7 18.1-117.9 24.1-21.2 3.8-23.5 3.7-26-1.7-.9-1.8-4.3-19.6-7.7-39.7-8.3-49.6-10-57-13-57-1.1 0-2 .5-2 1.1 0 .5-.4.8-.8.5-1.2-.7 4.4-27.5 8.3-39.1 1.8-5.5 4.9-13.8 6.8-18.5 4.2-10 6.7-19 6.7-24.1 0-3.6 0-3.6-3.7-3.2-4.1.4-11.4-1.9-13.4-4.3-1.1-1.3-.9-1.9 1.1-3.5 4.8-3.6 10.3-2 12.5 3.6l.7 2 .8-2c.8-1.8.9-1.8 1 .5.1 2.3.2 2.3 1.1.7 2.2-3.8-1.6-10-6.8-11-4.1-.8-9.2 1.2-13.7 5.3-4.8 4.4-7.5 9.5-12.1 22.3l-3.2 8.9-.6-11.8c-.7-12.2-3.4-28-6.3-36.6-1.8-5.4-1.4-6.9 1.1-4.4 1 .9 2.6 1.4 3.8 1.1 1.2-.3 13.7-3.2 27.7-6.6 51.6-12.2 71.3-15.3 92.7-14.8 11.8.4 13.2.6 17.7 3.1 2.7 1.6 4.6 2.2 4.3 1.5-.3-.8.1-1.4.9-1.4.9 0 1.2.7.9 1.8-.3.9.5 3.3 1.9 5.4 2.4 3.4 2.6 7.2.3 5.8-.6-.4-.8.3-.4 1.8.3 1.3 9.2 43.2 19.7 92.9 10.5 49.8 19.3 91.3 19.6 92.4.4 1 1 1.4 1.5.9.5-.5-7.1-38.6-18.7-93.3-15.7-74.6-19.3-92.8-18.4-94.5 1.2-2.3.2-6.2-2.3-8.7-1.9-1.9-.8-7.9 2-11 7.1-7.9 47.1-19.6 93.2-27.3 31.3-5.3 37.4-4.7 41.2 4 1 2.3 4.4 14.4 7.3 26.6 3 12.3 9.3 36.3 13.9 53.4 4.7 17 10.1 38.2 12.1 47 2 8.8 4 17.7 4.5 19.7.5 2.1.6 3.8.2 3.8-.4 0-3.5-1.1-6.9-2.5-6.2-2.5-10.8-3.3-9.8-1.6.3.5-.9 1.2-2.8 1.5-4.4.8-7.4 4.1-6 6.4 2.1 3.4 11.4 2.3 11.4-1.3 0-.8.7-1.5 1.6-1.5 2.6 0 16.1 4.8 22.4 8 6.5 3.3 7.5 3.6 6.4 1.8-.5-.7-.2-.9.8-.5 1.1.4 1.4.1 1.1-1.2-.6-2.4 2.1-3 8.8-2 3.9.6 13.3 4.8 33.4 14.8 30.5 15.3 42.7 20 58.5 22.6 25.3 4.3 45.9-2.3 68.3-21.7 9.5-8.1 14.3-10.2 21.8-9.5 8.5.7 14.9 4.7 26.4 16.2 15.9 15.8 21.9 29.4 21.7 49.5-.1 17.1-6 34.5-16.8 49.6-3.8 5.4-5 6.4-8.2 6.9-8.5 1.4-13.1 2.9-20.3 6.6-20.6 10.7-35.2 29.8-44.7 58.4-4.8 14.5-7.7 30.4-6.9 38.8.3 3.8 1.6 8.1 3.4 11.6 3.5 6.9 10.1 11.2 20.7 13.6 13.1 2.9 15 4.7 12.6 11.9-1.2 3.8-7.5 14-12.5 20.1-9 11.1-8.8 19.1.5 24 1.4.7 10.7 3.3 20.6 5.8 20.7 5.1 29.4 8.9 35.5 15.4 6 6.5 8.2 12.3 8.2 21.1-.1 12.9-7.1 22.6-20.9 29.2-6.3 3.1-25.7 8.7-39.2 11.5-19.9 4.1-42.1 4-70.7-.4l-11-1.7 5.8-3.8c14.2-9.4 24.6-26.4 31.1-50.6 7-26.4 5.6-47.2-3.8-56.6-4.9-5-10.6-6.8-18.7-6.1-10.6.9-18.7 7-27.6 20.5-6 9-10.3 12.6-14.2 11.7-1.3-.4-4.4-2-6.8-3.7-6.4-4.3-18.1-9.5-25.5-11.3-26.2-6.2-47.9 7.1-49.6 30.3-1.4 20.5 15.4 44.1 40.1 56.2 11.2 5.4 21.9 8.3 43.5 11.6 11 1.7 18.1 3.2 17.9 3.9-.1.5-5.4 3.6-11.7 6.7-13.3 6.7-36.1 14.4-54 18.3-10.7 2.4-13 3.3-16.2 6.1-4.5 4-10.5 5.9-25.2 7.9-32.7 4.5-33.6 4.8-42.2 12.5-8 7.3-14 9.5-22.8 8.6-10-1-18.5-5.8-31.1-17.5-6.8-6.3-13.3-11.3-17-13.1-5.8-2.9-6.4-3-18.1-2.8l-12.1.3-8.2-7.8c-7.5-7.2-8.4-7.7-12.4-7.7-5.9 0-9.4 3.8-14.5 15.8-2.2 5.2-4.9 10.3-5.9 11.4-5.2 5.9-16.3 9.9-26.8 9.7-7-.1-16.1-2.1-15.8-3.5.1-.5 4.7-11.3 10.3-23.9 11.6-26.1 14.1-33.9 12.2-37.9-1.7-3.8-3.5-4.1-13.2-2.3-21 4.1-37.3.6-47.6-10-4.5-4.5-13.1-17.9-12.2-18.8.3-.3 2.1 2.1 4.1 5.3 4.7 7.6 13.4 15.7 20.2 18.8 5 2.3 6 2.5 10.5 1.5 10-2.2 25.3-11.4 35.1-21.2 6.9-6.9 7.6-9.9 2.9-12.7l-2.9-1.8 3.5-1.3c1.9-.7 5.2-2.9 7.4-5 6.9-6.5 16.2-29.4 14.5-35.8-.4-1.7 0-3.1 1-4.3.9-1 1.8-3.3 2.1-5.2.5-2.7.1-4-2-6.5-5.3-6.3-14-6.7-25.2-1.2-10.5 5-17 14.4-19.4 27.9-1.9 10.6-4.5 14-10.9 14-3.3 0-6.1-2.2-6.1-4.9 0-1-.9-3-2-4.4-1.1-1.4-2-2.8-2-3.2 0-.3 2-3.5 4.4-7.1 7.4-10.8 8.6-18.4 2.8-18.4-2.7-.1-2.6-.1.9-2 6.7-3.5 7.4-10.6 1.5-14.5-4.4-2.9-9.5-3.5-18.6-2.3-4.7.6-10.2.8-12.3.4-8-1.5-13.2-9.7-10.9-17.4 1.6-5.1 6.9-11.1 16.1-18.1 8-6.1 14.5-12.7 16.2-16.5l1.1-2.3 3.9 2c3.5 1.7 4.6 1.8 9.6.8 9.4-1.9 18.1-1.4 23.8 1.3 11 5.1 15.3 11.2 18.6 26.1 2.5 11.7 3.4 13.8 9.4 20.5 8.5 9.6 9 12.6 4.9 30.3-2.4 10.4-2.6 12.3-2 26.4l.6 15.1-4 7.9c-10 19.1-5.5 31 15.6 41.3 11.3 5.4 18.4 11.2 21.5 17.2 2.6 5 2.4 6.4-1.1 10-3.7 3.6-3.8 6.5-.5 8 3.7 1.7 5.8-.8 5.8-6.4l-.1-4.4 8.4-4.3c9.9-5 13.5-9.4 16-19.3 1.4-5.4 1.5-7.4.5-13.6-1.5-8.7-4.8-18.7-8.7-26.2-1.6-3-2.9-5.8-2.9-6.2 0-.4 1.6-1.6 3.5-2.6 8.8-4.6 13.3-17.8 13.3-38.1-.1-14.3-1.9-24-6.4-34-3.7-8.2-8.2-13.6-18.1-21.8-11.2-9.5-12.1-11.1-12.9-25.7-.5-8.5-1.4-13.8-2.9-17.8-3-8-10.4-15.9-18.8-20-6.3-3.1-7.3-3.3-17.2-3.3-9.9 0-11 .2-19 3.7-15.6 6.8-16.8 7.1-20.4 4.8-11.6-7.3-17.1-8.3-29.3-5.2-10.7 2.7-18.9 6.8-23.8 11.8-4.3 4.3-6.7 10-5.8 13.4.4 1.6 0 2-2.1 2-6.9 0-18.4 9.6-22.8 19-1.4 3-3.1 8.2-3.7 11.5-.6 3.3-1.9 7.5-2.8 9.3-1.4 2.4-1.5 3.6-.7 5 3.4 5.4 10.1.2 17.4-13.8 2.9-5.5 6.6-11.2 8.2-12.5 5.1-4.3 12.8-4.5 16.9-.4 1.8 1.8 2 3 1.7 7-.3 3.1-.1 4.6.5 4.2.6-.4.7-.1.3.6-.5.7-1 1-1.3.7-.3-.3-1.5.1-2.7.9-1.1.8-2.8 1.5-3.8 1.5-1.5 0-1.6-.4-.6-3.1.8-2.4.8-3.4-.4-4.5-3.4-3.4-6.4 2-3.6 6.5 1 1.6.5 2.8-2.9 7.7-6 8.9-8.1 9.8-25.3 10.4-11.7.5-15.2 1-18.2 2.6-2.1 1-3.9 2.4-4.2 3-.2.6.3 14.5 1.2 30.8 1.6 29.4 1.6 29.8-.3 30.9-3.7 2-15.7 14.2-21.5 21.7-13.8 18.2-20.4 33.5-25.5 59.5-2.8 14.2-4.7 20.9-7.8 27-3.4 6.7-12.6 20.1-17 24.6-2.7 2.8-3.3 3.7-1.7 2.8 2.8-1.8 10.8-12 15.9-20.3 5.4-9 8.2-17.1 11.7-34.1 5-24.2 9.5-35.5 21.5-53.6 9.2-13.8 21.5-25.6 32.2-30.9 7.7-3.8 11.7-4.6 11.7-2.3 0 .5-4.8 6.9-10.7 14.2-15.5 19.1-15.3 19.4 1.3 2.3 10.5-10.7 15.6-15.2 17.2-15.2 5.7 0 .9 7.4-16.2 24.9-6.1 6.3-10.4 11-9.6 10.5 4.3-2.9 13.5-10.8 13.3-11.4-.1-.4 2.4-3.6 5.6-7.2 8.1-9.1 10.3-12.5 9.9-15.1-.6-4.4-4.3-3.3-11.3 3.4-7.4 7-8.4 7-2.5-.1 7.6-9.1 4.4-11.1-9.2-5.5-1.3.5-.8-.9 1.7-5.1 3.9-6.4 7.5-16.9 7.5-21.5 0-2.8.1-2.9 2.3-1.5 4.7 3 9.4-2.3 6.6-7.6-2.5-4.7-7.4-5.4-9-1.1-1.1 3-.9 3.2-8.1-6.7-6.4-8.8-7.1-10.5-5.7-13.1 1-1.9 2-2 19-1.7 9.8.2 17.9 0 17.9-.5 0-.4-7.8-.7-17.2-.8-10.6 0-16.5-.4-15.3-.9 1.1-.5 7.2-.9 13.5-.9 17.3-.1 21.5-1.9 27.9-12 2.5-3.8 3.9-5 6.4-5.4 1.8-.2 3.3-.3 3.5-.2.2.1-.8 1.9-2.2 4-6 8.8-4 18.2 4.8 22.7 3.6 1.8 5 2 12.6 1.3 4.7-.5 10.6-.8 13.2-.7 12.1.2 16.8 9.6 7.6 15.2-4.5 2.7-10.6 2.5-20.8-.5-4.6-1.4-9.5-2.5-10.9-2.5h-2.5l2.9 3c4.3 4.5 8.2 5.4 21.2 4.6 9.6-.6 11.4-.5 11.9.8.9 2.4-1.5 8.6-6.2 15.7-4.9 7.3-5.2 8.7-2.4 11.2 1.1.9 2 2.6 2 3.7 0 6 8.8 8 14 3.2 2.5-2.2 3.4-4.3 5.1-12.2 3-14.2 9.1-22.9 19.3-27.6 11-5.1 21-3.9 24.3 3 1.6 3.4 1.6 3.8 0 7.2-1.5 3-2.2 3.5-4 3-6.6-2-15.8-3.6-20.2-3.5h-5l3 2.4c1.7 1.4 4.5 3.2 6.3 4.1 3.8 1.8 12.1 2.1 15 .5 1.7-.9 2.2-.8 2.7.9 1.7 5.2-7.5 27.8-13.8 34.1-7.1 7.2-16.7 9.1-28.3 5.8-10.9-3.1-38.4-9.7-38.4-9.2 0 .2.9 2.1 2 4.2 6.4 12.6 23.4 19.2 37 14.3 3-1 7.9-3 10.7-4.3 4.2-1.8 5.9-2.1 8-1.3 4.7 1.6 4.1 4.7-2.2 11.3-9.2 9.7-25.9 19.7-35.8 21.5-8 1.5-20.8-7.5-28.2-19.8-3.7-6.1-6.5-8.4-6.5-5.3 0 2.1 7.2 13.7 11.7 18.6 10.2 11.5 28.3 15.7 48.8 11.5 9-1.9 12.2-1.3 13.1 2.1 1 4.2-1.3 11.1-12.5 36.5-9.1 20.4-11.2 24.4-12.7 24.2-3.6-.6-18.2-8-25.6-13-4-2.7-12-8.6-17.8-13.2-5.7-4.5-12.6-9.3-15.2-10.6-11.6-5.9-22.2.3-19.7 11.4 1.3 6.1 7.4 14.5 18.4 25.6 20.2 20.4 35 27.2 47 21.7 4.9-2.2 8.6-6.4 12.5-14.1l2.9-5.8 6.3 1.5c7.5 1.8 19 1.2 25.9-1.2 8.2-2.9 12.5-7.6 18.4-20 2.9-6.3 6.3-11.9 7.6-12.9 4.9-3.4 11.6-1.3 16.9 5.4 6.3 7.9 7.9 8.5 22.5 8.5 12.6 0 13.2.1 18 2.9 2.7 1.6 8.8 6.6 13.6 11.1 10.8 10.3 16.4 14.2 24.8 17.1 12.3 4.4 22.3 2.3 32.1-6.6 3-2.7 6.8-5.6 8.6-6.5 3.3-1.5 12.7-3.2 33.4-6 13.8-1.9 21.4-4.3 25.4-8 1.5-1.4 3.4-2.5 4.3-2.5 3.9 0 26.1-5.6 39.3-10 21.2-6.9 44.1-18.1 41.1-20-.7-.4-1.2-1.1-1.1-1.6 0-.5-8.2-2.1-18.2-3.7-21.6-3.2-33.3-6.3-44.5-11.7-34.7-16.8-49.9-54.7-29.6-74.2 14-13.5 36.7-12.7 61.4 2.3 12.5 7.6 14.5 6.9 25.8-9 7.2-10.2 11.2-13.9 18.3-17.1 11.3-5.1 25.4.5 28.8 11.5 2.1 7.1 2.4 27.2.5 36.6-5.7 28.5-17.4 49.8-32.9 60-3.6 2.4-6.1 4.6-5.5 5 .6.3.9 1 .7 1.5-.4 1.1 16.9 3.9 34.2 5.5 23.6 2.1 43.5-.1 69.9-7.6 15.7-4.5 23.6-8.2 30.4-14.5 7.5-6.8 10.1-13 10.2-23.5 0-7.1-.4-8.8-3.3-14.8-5.9-11.9-16.1-17.6-43.6-24.2-26.7-6.3-29.3-9.9-18.6-25 10.3-14.6 12.3-17.9 13.6-22.2.9-2.9 1-5.2.4-6.8-1.2-3.1-6.8-5.9-15-7.4-16.2-3.1-22-10.4-22-27.3.1-19.5 8.7-46 20.7-63.9 12.4-18.3 34.3-32.9 49.4-32.9 3.4 0 4-.5 8.6-7.3 6.8-9.7 11.7-19.8 15-30.4 2.3-7.6 2.7-10.6 2.7-21.8 0-11.7-.3-13.8-2.8-21C668 205 658 191.2 646.5 182c-9.6-7.7-16.2-10.3-24.3-9.8-7.8.4-11.8 2.5-22.5 11.8-23.2 20-47.3 25.1-77.4 16.4-12.7-3.7-23.3-8.3-47.8-20.9-12.1-6.2-23.7-11.8-25.7-12.4-6.1-2-14.3-1.9-16.5.1-1.1 1-2.6 1.8-3.4 1.8-1.1-.1-1-.4.4-1.4.9-.7 1.7-2.4 1.7-3.6 0-4.5-36.9-146.2-40.7-156.6-2-5.3-4.3-6.4-5.3-2.4l-.6 2.5-.8-2.3c-.9-2.6-4.6-3.1-4.6-.5 0 1.5-.1 1.5-1.8 0C372 0 365.5-.8 351 1.7zm43.5 28.7c3.1 11.4 5.5 21 5.2 21.2-.4.4-10.1-33.7-11.2-39.6-1.7-8.5.8-.9 6 18.4zm-8.8-10.2c-.3.8-.6.5-.6-.6-.1-1.1.2-1.7.5-1.3.3.3.4 1.2.1 1.9zm7.1 23.8c6.7 23.6 18.2 67 18.2 68.4 0 2.7-1.6-2.7-9.5-32.4-4.7-17.9-10.2-37.9-12.1-44.5-3.2-11.3-3.9-14.4-3-13.4.2.2 3.1 10.1 6.4 21.9zm-286.1 7.6c-.3.3-1.2.4-1.9.1-.8-.3-.5-.6.6-.6 1.1-.1 1.7.2 1.3.5zm-4 1c-.3.3-1.2.4-1.9.1-.8-.3-.5-.6.6-.6 1.1-.1 1.7.2 1.3.5zm298 2.6c-.3.8-.6.5-.6-.6-.1-1.1.2-1.7.5-1.3.3.3.4 1.2.1 1.9zm-278 20.4c-.3.3-1.2.4-1.9.1-.8-.3-.5-.6.6-.6 1.1-.1 1.7.2 1.3.5zm-9 4.2c-1 1-1.4 2.2-1 2.7.5.4.2.5-.5.1-1.1-.6-1-1.2.4-2.7.9-1 1.9-1.9 2.2-1.9.3 0-.2.8-1.1 1.8zm298 36.4c-.3.8-.6.5-.6-.6-.1-1.1.2-1.7.5-1.3.3.3.4 1.2.1 1.9zm-322 3c-.3.7-.5.2-.5-1.2s.2-1.9.5-1.3c.2.7.2 1.9 0 2.5zm322 8c-.3.8-.6.5-.6-.6-.1-1.1.2-1.7.5-1.3.3.3.4 1.2.1 1.9zm-323.4 5c-4.1 7.1-7.4 9.5-10.8 8-3.3-1.5-2.9-3.1 1.4-5.7 1.8-1.1 5.1-3.4 7.4-5.1 2.3-1.7 4.4-3 4.6-2.8.2.2-1 2.7-2.6 5.6zm324.4-1c-.3.8-.6.5-.6-.6-.1-1.1.2-1.7.5-1.3.3.3.4 1.2.1 1.9zm1 4c-.3.8-.6.5-.6-.6-.1-1.1.2-1.7.5-1.3.3.3.4 1.2.1 1.9zm7 5c-.3.8-.6.5-.6-.6-.1-1.1.2-1.7.5-1.3.3.3.4 1.2.1 1.9zm-5 4c-.3.8-.6.5-.6-.6-.1-1.1.2-1.7.5-1.3.3.3.4 1.2.1 1.9zm9.7 14.7c-.9.9-1.7-1.1-2.5-5.6-.4-2.7-1-6.4-1.4-8.3-.3-1.9.6.3 1.9 5 1.3 4.7 2.2 8.7 2 8.9zm-8.7-9.7c-.3.7-.5.2-.5-1.2s.2-1.9.5-1.3c.2.7.2 1.9 0 2.5zm1 4c-.3.8-.6.5-.6-.6-.1-1.1.2-1.7.5-1.3.3.3.4 1.2.1 1.9zm1 4c-.3.8-.6.5-.6-.6-.1-1.1.2-1.7.5-1.3.3.3.4 1.2.1 1.9zm-16.7 2.3c0 .8-.6 1.5-1.4 1.5-.7 0-1.6.9-1.9 2-.7 2.7-6 2.9-5.5.2.2-.9 1.4-1.9 2.7-2 1.3-.2 3.1-1 3.8-1.8 1.8-1.8 2.3-1.8 2.3.1zm21.6 1.6c.3.6 1.5.9 2.5.6 1.4-.4 1.9 0 1.9 1.4 0 2.2-.6 2.3-4.8.8-2-.7-2.9-1.5-2.5-2.5.6-1.7 1.9-1.8 2.9-.3zM110 175c0 .5-.4 1-1 1-.5 0-1-.5-1-1 0-.6.5-1 1-1 .6 0 1 .4 1 1zm4.7 5.2c-.3.8-.6.5-.6-.6-.1-1.1.2-1.7.5-1.3.3.3.4 1.2.1 1.9zm.8 6.3c-.5-4.8-.4-4.9.6-1.5 1.2 3.9 13 74.3 12.5 74.7-.2.2-1.1-2.4-2-5.7-1.8-6.2-2.9-8.1-2-3.3.2 1.6 0 4.1-.6 5.8l-1 3 .5-3.4c.3-1.9 0-4-.6-4.7-.6-.8-.9-1.4-.6-1.4.2 0-.1-2.9-.8-6.5-.6-3.5-1-7.8-.8-9.5.1-1.7 0-2.9-.5-2.7-.4.3-.8-2.3-.9-5.8-.1-3.4-1.1-10-2.2-14.7-1.1-4.7-2.5-12.3-3.1-16.9-.5-4.6-1.2-10-1.5-11.9-.2-1.9.4-.6 1.5 3l1.9 6.5-.4-5zm-6.1-2.3c.4 2.4.9 5.4 1.2 6.8.3 2.1.2 2-.8-.5-1-2.7-1.2-2.8-2-1-.7 1.6-.8 1.5-.4-.8.2-1.5 0-3-.4-3.2-.9-.6 0-5.5 1-5.5.4 0 1 1.9 1.4 4.2zm.3 20c-.3.7-.5.2-.5-1.2s.2-1.9.5-1.3c.2.7.2 1.9 0 2.5zm5.8 32.3c.4 2.7.4 4.8.1 4.5-.8-.8-5.6-29.6-5.5-32.8.1-2.4 3.5 15.6 5.4 28.3zM92 212.6c0 .9-.5 1.4-1.2 1.2-1.8-.6-2.1-2.8-.4-2.8.9 0 1.6.7 1.6 1.6zm24.7 14.6c-.3.8-.6.5-.6-.6-.1-1.1.2-1.7.5-1.3.3.3.4 1.2.1 1.9zm1 6c-.3.8-.6.5-.6-.6-.1-1.1.2-1.7.5-1.3.3.3.4 1.2.1 1.9zm1 6c-.3.8-.6.5-.6-.6-.1-1.1.2-1.7.5-1.3.3.3.4 1.2.1 1.9zm-2 6c-.3.8-.6.5-.6-.6-.1-1.1.2-1.7.5-1.3.3.3.4 1.2.1 1.9zm3 0c-.3.8-.6.5-.6-.6-.1-1.1.2-1.7.5-1.3.3.3.4 1.2.1 1.9zm1 6c-.3.8-.6.5-.6-.6-.1-1.1.2-1.7.5-1.3.3.3.4 1.2.1 1.9zm1 6c-.3.8-.6.5-.6-.6-.1-1.1.2-1.7.5-1.3.3.3.4 1.2.1 1.9zm3 6c-.3.8-.6.5-.6-.6-.1-1.1.2-1.7.5-1.3.3.3.4 1.2.1 1.9zm-1 7c-.3.7-.5.2-.5-1.2s.2-1.9.5-1.3c.2.7.2 1.9 0 2.5zm-2 2c-.3.7-.5.2-.5-1.2s.2-1.9.5-1.3c.2.7.2 1.9 0 2.5zm-.4 3.8c.3 1.1.1 1.8-.4 1.4-.5-.3-.9-1.2-.9-2 0-2 .7-1.7 1.3.6zm118.3 69.5c7.2 3.5 14.2 10.3 17.4 17 1.9 4 2.5 7.4 3.2 17.3 1 15.6 2.4 19 10.9 26.3 21.3 18.1 26.9 30.3 26.9 58.6 0 20.2-3.8 31.6-12 36.2-4.1 2.3-4.3 2.3-7.2.7-3.4-2.1-5.8-1.5-5.8 1.3 0 1.6.8 2 4.3 2.3 4.1.3 4.2.4 7.9 7.6 7.8 15.8 10.2 33 5.9 42.8-1.2 2.7-3.4 6.2-4.9 7.7-2.4 2.6-14.9 9.7-17 9.7-.5 0-1.5-1.9-2.3-4.2-2.1-6.6-9.6-13.1-23.3-20.1-13.2-6.9-16.7-10.2-18.8-17.9-1.6-6.3-.1-13.7 4.7-23l3.6-6.9-.6-14.2c-.6-12.7-.5-15.3 1.6-24.7 1.3-5.8 2.4-13.7 2.4-17.6 0-6.1-.4-7.5-2.5-10.2-10.4-13-11-14-12.6-20.8-3.7-16.2-5.2-19.9-9.6-24.3-2.4-2.4-7.1-5.7-10.6-7.4-6.2-2.9-6.6-2.9-16-2.2-16.1 1.2-16.9 1.1-19.7-1.5-2.8-2.6-2.7-2.7-4.5 1.9-.7 1.8-2.5 4.7-3.8 6.3-2.4 2.8-17.5 14.8-18.6 14.8-.3 0-.6-2-.6-4.5 0-10.6-12-14-20.9-5.9-2.3 2-6 7.6-9.1 13.4-5.3 10.1-8.7 14-12.1 14-2.4 0-3.2-1.6-2.5-4.6.7-2.6 2.6-3.3 2.6-.9 0 1.9 3.6 2 4.4 0 .3-.8-.4-2.1-1.6-2.9-1.8-1.3-2-2.2-1.5-6.9 1.4-14.2 15.6-29.7 27.3-29.7 2.1 0 3.4-.4 2.8-.8-3.7-2.5-1.2-10.6 5.1-16.1 5.3-4.7 14.8-8.9 24.2-10.8 10.2-2.1 15.7-1.3 22.5 3.4 6.6 4.5 9 4.5 19.8-.3 12.6-5.5 16.5-6.4 26.1-6.1 7 .2 9.6.8 14.5 3.2zM128.5 398c.8 1.3-.4 5-1.6 5-1.3 0-2.2-2.7-1.5-4.5.6-1.7 2.2-2 3.1-.5zm-29.3 13.5c0 .5-.5 1.1-1.1 1.3-.6.2-1.1-.4-1.1-1.3s.5-1.5 1.1-1.3c.6.2 1.1.8 1.1 1.3zM91 455.6c-.1 7.8-4.8 21-9.9 27.4-1.5 1.9-2.1 2.2-2.4 1-.5-1.6-2.7-41.6-2.7-48.4v-3.8l7.5 10.5c5.2 7.2 7.5 11.4 7.5 13.3zm61-6.2 7.5 2.4-6.3.1c-6.2.1-13.1-2.2-14.8-5-.9-1.5 3.6-.7 13.6 2.5zm-53 .6c1.7 4.1.7 6.2-2.7 5.8-2.2-.2-2.9-.9-3.1-3.1-.5-3.9.4-5.7 2.6-5.7 1.2 0 2.4 1.1 3.2 3zm119.5 10.1c5 1.3 5.7 2.4 2.3 3.5-3.7 1.1-8.6.6-13.2-1.5-7.1-3.1-7-4.5.2-3.8 3.4.4 8.2 1.2 10.7 1.8zM88 496.4c0 .2-.8 1-1.7 1.7-1.6 1.3-1.7 1.2-.4-.4 1.3-1.6 2.1-2.1 2.1-1.3zm78.4 5.2c9.9 2.6 20.5 5.2 23.5 5.8l5.4 1.2-6.4 2.8c-15.2 6.7-30.3 3.3-39-8.7-2.8-3.9-3.5-5.7-2.3-5.7.3 0 8.8 2.1 18.8 4.6zm110.8 2.2c-2.7.4-3.7-.2-2.7-1.7.4-.8 1.3-.7 2.8.1l2.2 1.3-2.3.3zm-157.9 69.3c2.3 1.2 8.9 5.8 14.7 10.3 19.6 15.3 31.8 23 41 25.7 4.5 1.4 4.6 1.6 2.6 6.4-7.5 17.9-21.3 21.2-39.7 9.4-9-5.8-30.7-27.9-34.2-34.8-3.8-7.7-3.7-13.1.4-16.5 3.8-3.3 9.3-3.4 15.2-.5zm148.2 9.6c-.7 2.8-3.2 2.8-4.9.1-.8-1.4-.5-2.3 1.9-4.8l3-3.2.3 2.7c.2 1.5.1 3.8-.3 5.2z"/><path d="M119 211.6c0 3.2 3.9 28.6 4.5 29.2.7.8.7.7-1.6-15.5-1.9-13.6-2.9-18.5-2.9-13.7zM142 35c-42.8 9.7-51.4 12.2-67.5 20-14.6 7.1-21.2 11.7-23.4 16.5-1.2 2.4-3.1 12.6-5 25.9-7.2 50-16.5 83.7-29.7 107.7-4 7.4-6.3 10.7-14.7 21.5-1 1.3-1.7 2.9-1.5 3.5.6 1.7 11.6-12.3 17.1-21.8C30.8 185.2 41 149.4 48.4 98.4c1.9-13.2 4.1-25.3 4.7-26.8.8-1.8 4.5-4.6 10.8-8.3 18.8-11.1 31.4-15.5 65.8-23.2 20.3-4.6 21.8-4.7 23-2.6.6 1 1.3 1.1 2.3.4 1.3-.8 1.2-1.1-.4-2.4-2.1-1.6-6.9-1.8-12.6-.5z"/><path d="M150.8 41.7c.7.3 1.6.2 1.9-.1.4-.3-.2-.6-1.3-.5-1.1 0-1.4.3-.6.6zm-23 3c.7.3 1.6.2 1.9-.1.4-.3-.2-.6-1.3-.5-1.1 0-1.4.3-.6.6zm10 0c.7.3 1.6.2 1.9-.1.4-.3-.2-.6-1.3-.5-1.1 0-1.4.3-.6.6zm-44 73c.7.3 1.6.2 1.9-.1.4-.3-.2-.6-1.3-.5-1.1 0-1.4.3-.6.6zM368.3 168c-2.8 1.7-3.3 2.5-3.2 5.7.1 2.2.3 2.9.6 1.8.9-3.4 3.3-6.3 6-6.9 3.5-.9 9.3 1.1 9.3 3.3 0 2.6-2.9 6.2-6.4 7.7-1.7.7-2.4 1.3-1.6 1.4.9 0 .5.6-1 1.4-2.4 1.2-5.3 1-3.1-.3.7-.5.3-1.3-1-2.4-1.9-1.7-2-1.7-1.7 0 .2 1.2-.4 1.9-1.9 2.1-3.2.5-6.3 4.9-6.3 8.9 0 5.2 2.2 8.5 14.1 21.1 9.2 9.7 10.7 11.8 9.2 12.3-11.9 4.4-50.2 13.3-71.3 16.5-8.9 1.4-10.8 2-8.5 2.5l3 .7-3 .1c-2.3.1-2.7.3-1.5 1.1 2.4 1.6 15.5 1.1 30.5-1 20.1-3 50.8-10.5 50.5-12.5-.2-.8 2-2.5 3.4-2.5.4 0 .6.7.2 1.5-.9 2.6 2.4 1.7 3.5-.9.8-1.7 1.7-2.2 2.8-1.8 1.4.5 1.4.4.2-1.1-1.2-1.6-1.2-1.7.5-1.1 1 .4-2.8-4.2-8.6-10.2-5.8-6-11.8-12.3-13.4-14.1l-2.8-3.1 3.1-2.9c1.8-1.5 3.3-3.8 3.4-5.1.2-2.8 1.2-2.7 6.2.3 5.2 3.2 6.9 3.2 2.5 0-1.9-1.4-2.9-2.5-2.4-2.5.6 0 1.9.7 3 1.5 1 .8 2.3 1.5 2.9 1.5.5 0-1.6-1.9-4.7-4.2l-5.7-4.1 2.4-1.9c4.1-3.2 6.8-7.7 6.1-10.3-.5-1.9-1.6-2.6-5.6-3.4-6.5-1.4-5.9-1.4-9.7.9zm1.4 17.1c2.6 1 2.7 1.2.8 1.9-1.1.5-1.4.9-.7.9 3.4.2-.5 7.1-4.1 7.1-1.6 0-1.7.3-.8 1.4.8 1 .8 1.5.1 1.8-.6.2 2.6 4.4 7.1 9.3l8.1 9-8.5-8.7c-11-11.2-13.8-16.8-10.2-19.8.8-.6 1.4-1.5 1.3-1.8-.3-2.5 2.2-2.9 6.9-1.1zm18.3 40.1c0 2.2-2.6 2.4-3.4.3-.3-.8 0-1.5.6-1.5s.3-1-.8-2.2l-1.9-2.2 2.7 2c1.5 1 2.8 2.7 2.8 3.6zm-8 3.7c0 1.1-.9 2.1-2.2 2.4-1.3.3-8.4 2.1-15.8 4-18.2 4.7-34.5 7.7-46 8.2l-9.5.5 15-2.9c16.2-3.1 40.3-8.9 50-12 7.7-2.5 8.5-2.5 8.5-.2z"/><path d="M362.5 189.1c-.4.6-.5 1.2-.2 1.5.2.3.7-.2 1-1.1.7-1.7.1-2-.8-.4zm26.6-22.2c-.1.8-.7 1.1-1.7.7-.8-.3-1.3-.2-.9.3.3.5 0 1.1-.7 1.3-.8.3-.7.6.3 1 2.3.9 4.2-.6 3.6-2.8-.3-1.1-.5-1.3-.6-.5zm2.4 3.1c.3.5.1 1-.4 1-.6 0-1.1.5-1.1 1.1 0 .6.8.8 1.9.4 1.2-.3 8.4 2.8 20.7 9 10.4 5.3 18.2 9.4 17.4 9.1-3.2-1-28.7-12.8-32.7-15.1-2.3-1.4-4.4-2.1-4.8-1.6-.8 1.3 6.1 5.2 19.7 11.2 15.7 6.9 30.6 14.4 36.7 18.4 4.9 3.2 7.5 3.3 2.9.1-3-2.2-1.4-2 2 .1l2.7 1.7-2-2.3c-3.8-4.4-15.7-11.3-38.8-22.6-12.9-6.3-23.7-11.5-24.1-11.5-.4 0-.4.4-.1 1zm-23.5 5.2c0 .9.7 2.2 1.7 2.9 1.5 1.3 1.5 1.2.3-1.1-1.7-3.4-2-3.6-2-1.8zm103.6 18.9c.4.8 0 .9-1.5.4-3.6-1.1-2.3.2 3.3 3.4 7.9 4.6 13.8 3.8 6.3-.8-4.5-2.7-9-4.4-8.1-3zm2.9 1.9c.3.6-.1.7-.9.4-1.8-.7-2.1-1.4-.7-1.4.6 0 1.3.4 1.6 1zm7.2 3.6c-.3.3-1.2.4-1.9.1-.8-.3-.5-.6.6-.6 1.1-.1 1.7.2 1.3.5zm-88.7-4.3c0 .3 2.3 1.9 5 3.7 6.7 4.3 6.4 5-.5 1.1-3-1.7-5.5-2.9-5.5-2.7 0 .9 19.6 12.9 33 20.1 8 4.3 16.8 9.2 19.5 10.9 7.1 4.6 8.4 5.2 5 2.3-7.3-6-7.6-6.6-1.5-2.6 3.6 2.4 5.9 3.6 5.3 2.8-2.8-3.4-17.7-13.2-31.3-20.4-8-4.3-17.8-9.5-21.7-11.7-4-2.2-7.3-3.7-7.3-3.5zm4 33.7c2.7 2.1 2.1 2.6-1.3.9-3.5-1.6 4.1 4.6 11.1 9.2 3.4 2.3 6.2 4.2 6.2 4.4 0 .1-1.9-.1-4.2-.6-10.1-1.9-18.8-.1-18.8 4 0 2.5 3.9 7.1 8.1 9.5 3.4 1.9 3.4 1.9-.6-1.9-2.2-2-2.9-3-1.5-2.1 5.1 3.2 6.4 3.7 3.3 1.1-3.1-2.5-4.5-6.5-2.3-6.5 2.1 0 8.5 3.1 10.7 5.2 3.2 3 3 5.8-.3 5.8-2.4 0-2.5.2-1.3 1.7 1.3 1.5 1.2 1.5-1.1.3-4.3-2.3 13.1 15.9 19.6 20.6 11.3 8.1 24.4 10.8 40.4 8.5 24.8-3.7 32.2-15.1 13.4-20.6-3.2-1-9.5-2.9-13.9-4.2-4.4-1.4-8.8-2.6-9.9-2.8-1-.1-2.4-.8-3-1.6-1.7-2.4-14.9-10.9-28.7-18.8-14.1-7.9-29.9-15.4-25.9-12.1zm26.8 15.2c2.8 1.6 5.2 3.4 5.2 3.9s2 1.4 4.4 2c2.4.6 5.3 1.9 6.4 2.9 1.1 1.1 2.4 1.6 2.8 1.2.5-.4.2.2-.6 1.2-1.4 1.8-1.4 1.9 1 .6 2.3-1.2 2.4-1.2 1.1.4-.8.9-1 1.6-.5 1.5 2.2-.4 3.5.4 7.6 4.6 4.9 5.2 6.7 8.6 6.8 13.2 0 3.1 2.9 7.3 4.9 7.3.5 0 1.7-.7 2.6-1.6 2.1-2.2 1.3-5.7-2.4-10.4-1.5-1.9-3-4-3.4-4.6-.7-1.3 19.1 3.9 23.3 6.1 7.7 4 3.3 9.3-10.6 12.9-14.4 3.7-29.3 2.7-40.3-2.6-2.5-1.2-9-6.4-14.3-11.6l-9.7-9.5 2.4-1.9c2.9-2.2 3.1-4.4.9-7.6-1.7-2.4-10.3-7.2-13-7.2-1 0-1.5-.3-1.2-.6.5-.5 13.4 1 19.8 2.2l2.5.5-2.5-1.6-2.5-1.5 3 .6c2.3.5 1.6-.2-3.1-3.1-3.4-2-7.4-4.8-9-6.2-2.9-2.4 4.2 1 18.4 8.9zm33 19.6c-.1.4.4 1.8 1.1 3.2 1.3 2.4 1.2 2.4-1.7-.4-1.7-1.6-2.9-3.3-2.6-3.7.5-.9 3.4-.1 3.2.9zm6.9 13c.7 2.9-.2 3.8-2.2 2.2-.8-.7-1.5-2.8-1.5-4.9.1-3.4.1-3.5 1.6-1.6.8 1.1 1.7 3 2.1 4.3z"/><path d="M429.3 251.1c2.7 1.6 8.7 4 8.7 3.5 0-.6-8.9-4.6-9.9-4.6-.3 0 .2.5 1.2 1.1zM282 241.9c0 .6 1.7 1.2 3.8 1.4l3.7.4-4.1.1c-2.8.1-4.4.7-4.8 1.8-.6 1.7-.7 1.7 11.7-.3 3.8-.6 3.9-.7 1.7-1.4l-2.5-.7 2.5-.2c2.3-.1 2.3-.2.5-1-2.7-1.2-12.5-1.2-12.5-.1zm-165.4 180c-2.5 3.9-1.3 21.3 4.5 64.5 2.5 19.2 2.8 23.1 1.7 24.3-1.3 1.2-19.3 6.3-22.5 6.3-.8 0 2-2.5 6.3-5.6 10.5-7.5 12.5-9.4 12.2-11.9-.4-2.7-3-3-9.1-1-5.3 1.7-19.2 9.3-18.4 10.1.2.2 3-1.1 6.2-3.1 6.4-3.8 15.5-7.5 18.5-7.5 2.8 0 2.5 2.7-.7 5.5-1.6 1.4-8.4 6.4-15.3 11.2-6.9 4.8-14.9 11-17.8 13.8-5.1 4.7-11 13-10 14 .3.3 3.7-1.9 7.7-4.7 17.2-12.5 20.8-14.8 25.1-16.2 6-2 10.2-2.4 10.7-1 .2.7-3.8 4.9-8.9 9.5-20.8 18.8-20.7 18.7-26.3 47.8-2.1 11-3.3 13.1-12.6 22.7-7.8 8-9.6 10.9-6.1 9.7 2.9-1 8.3-6.5 12.9-13.3 2.4-3.6 6.6-9.2 9.4-12.5 2.8-3.3 8.7-11.2 13.2-17.5 4.4-6.3 11.2-15.3 15-20 8.7-10.7 12.8-19 13.5-27.6.3-4.3.9-6.4 1.8-6.4 2.3 0 2.5-3.6.9-20.2-1.3-14.2-6.6-58.6-8.1-67.5-.4-2.9-2.8-5.1-3.8-3.4zm5.9 28.7c4.5 35.3 6.8 59.5 5.6 60.7-1.8 1.8-2.8-.3-2.4-5.5.3-2.9-1.3-19.9-3.6-37.8-5.2-41.8-5.6-46.8-4.2-45.4.6.5 2.7 13.1 4.6 28zm-4.8-4.9c-.3 1-.5.2-.5-1.7s.2-2.7.5-1.8c.2 1 .2 2.6 0 3.5zm6 48.3c-.2 2.8-5.8-40.3-5.6-43.5.1-1.1 1.4 7.7 3 19.5s2.7 22.6 2.6 24zm1 8.2c-.2 1.3-.4.5-.4-1.7-.1-2.2.1-3.2.4-2.3.2 1 .2 2.8 0 4zm.3 9.8c0 .5-.3 1-.7 1-.5 0-1.9.3-3.3.6l-2.5.6 2.5-1.5c3.1-1.8 4-2 4-.7zm0 5.4c0 7.2-3.9 16.4-10.5 24.9-3.6 4.5-8.6 11.1-11.2 14.7-12.3 17.1-23.6 32-24 31.7-.2-.2.1-1.7.7-3.3.5-1.6 1.9-8.3 3-14.9 2.8-16.6 5.7-22.3 16.3-31.7 14.4-12.9 17.9-16.6 17.5-18.5-.3-1.4-1.1-1.7-3.8-1.5-8.5.7-13.3 3.3-31.4 16.6-3.7 2.6-6.9 4.7-7.1 4.4-.2-.2 1.4-2.6 3.5-5.4 5.4-7.1 17.9-16.4 22.2-16.5 1.8 0 7.6-.9 12.8-1.9 5.2-.9 10.1-1.8 10.8-1.9.7 0 1.2 1.2 1.2 3.3zm-52.9 81.3c-1.6 3-8.2 10.3-9.3 10.3-.5 0 1.3-2.7 4.2-6 5.3-6.1 6.8-7.4 5.1-4.3z"/></g></svg>
