<svg xmlns="http://www.w3.org/2000/svg" version="1.0" viewBox="0 0 1343 236" fill="#EE5F79"><path d="M1298 9.4c8.7 17.3 10.2 31.8 4.7 43.9-1.4 3.1-3 5.7-3.5 5.7s-1.9-1.2-3.3-2.6c-3.5-3.7-9.2-6.4-13.7-6.4-6 0-13.9 4.6-17.9 10.4-3.9 5.7-4.2 9.5-.9 13.3 2.3 2.6 2.9 2.8 9.8 2.8 8.7-.1 13.5-2.2 21.3-9.6l5.2-4.9 7.9 11.3c4.3 6.1 11 14.4 14.9 18.3 6.6 6.6 16.6 13.4 19.6 13.4.8 0-1.1-1.4-4.3-3.1-3.1-1.7-8.2-5.4-11.4-8.2-7.3-6.6-25.8-31.2-25.1-33.5.3-1 1.8-4.6 3.3-8.2 3.2-7.8 3.6-17.9 1-27.9C1304 17.9 1295.4 0 1294 0c-.4 0 1.4 4.2 4 9.4zm-9.5 43.5c2.2 1 5.3 3.2 6.8 4.9 3.6 3.8 2.9 5.5-4.6 11.1-11.3 8.5-24.6 9.5-27.7 2.2-2.2-5.3 3-13.4 11.2-17.5 6.1-3.1 8.9-3.2 14.3-.7zM804.3 73.2c-17.7 1.8-37.2 11.6-61.2 30.8-12.3 9.7-15.6 12.7-44.6 39.4-29.9 27.6-38.3 35-51.5 45.6-19.7 15.7-42.9 29.6-57.5 34.5-2.7 1-8 2-11.6 2.2-15.8 1.3-23.5-5.6-39.4-34.8-14.2-26.4-21.9-37.5-34.4-49.9-12.3-12.2-23.3-19.9-39.2-27.4-52.8-25-125-25.9-194.8-2.6-52.7 17.6-98.5 44.1-152.8 88.2-13.3 10.9-34.2 19.4-58.8 23.9-13.5 2.5-36.9 3.5-49 2.1-5-.6-9.2-.8-9.4-.6-1.1 1 1.5 1.5 12.8 2.6 28.8 2.5 65.6-4.2 89.4-16.3 8.8-4.5 11-6 29.8-21.2 57.5-46.4 124.9-78.5 187.9-89.6 19.7-3.4 34-4.4 56-3.8 28 .8 47.1 4 69.9 11.6 23.9 8 40.4 18.1 57.2 35 12.8 12.9 18.7 21.2 30.9 43.6 12 22 16.5 28.8 22.1 33.9 14.6 13.1 35.8 8.7 71.4-15 19.7-13.1 33-24.2 76-64 51.7-47.8 72.9-62 99.4-66.4 18.8-3.1 37.8 3.7 53.5 19.4 12.8 12.9 21.5 28 34.6 60.6 13 32.4 18.3 38.3 28.8 31.8 3.5-2.1 11.7-12.6 18.2-23.3 4-6.5 8.8-10.6 14.2-12.4 3.1-1 4.8-.9 9.9.4 11.4 2.9 21.6 10.4 51.9 38.5 29.9 27.7 52.1 46 55.8 46 .9 0-2-2.6-6.4-5.8-10.2-7.5-25-20.2-44.4-38.2-38.2-35.3-49.2-43-62.1-43-9.4 0-14.6 4.2-25.1 20.5-5.9 9.1-13.4 17.5-15.7 17.5-.5 0-1.6.3-2.4.6-2.3.8-8.5-5.3-11.7-11.5-1.5-3.1-5.6-12.6-9-21.1-3.5-8.5-8.4-20.1-11.1-25.7-13.3-28.6-31.9-47.6-52.3-53.8-9.5-2.8-15.4-3.3-25.3-2.3zm468.2 134.2c-12.3 2.5-25.7 11.4-25.7 17 0 2.8 3.9 11.6 5.3 11.6.4 0-.3-2.1-1.6-4.6-3.4-6.5-3.2-8.5 1.5-12.7 12.3-11.2 34.2-14.2 70.4-9.7 16.3 2 21.3 2.4 20.4 1.5-.3-.3-7.9-1.4-16.9-2.5-18.6-2.2-44-2.5-53.4-.6z"/></svg>
