<svg xmlns="http://www.w3.org/2000/svg" version="1.0" viewBox="0 0 1419 360" fill="#EE5F79"><g stroke-width="0"><path d="M953.5 8.4c-12.1 12.2-20.3 16.1-49.7 23.6L891 35.2l-4.7-4.2c-18.8-16.7-47.5-17.1-94.9-1.5-18.3 6-34.1 13.2-51.7 23.6-6.7 4-16.7 9.4-22.2 12-5.5 2.6-12.5 6.4-15.5 8.4-16 10.8-37 17.6-49.5 16l-5-.6-3.3-9.2c-4.7-13-10.3-22-19.1-30.8C613.2 37 602.7 33 583.5 33c-17.4 0-28 3.4-37.7 11.9-5.5 4.9-10.6 11.6-14.8 19.5-1.8 3.4-5.5 8.1-9.2 11.5-6.9 6.2-17.2 17-20.5 21.4l-2.1 2.8-.6-5.3c-.3-2.9-1.4-15.5-2.6-28-1.2-12.4-2.5-23.9-2.9-25.4-1.2-4.5-3-4.9-9.9-2.2-6.7 2.8-34.4 19.1-42 24.8-4.1 3.1-4.7 4.1-5 7.8-.4 5 2.8 11.5 8.7 17.9 4.1 4.6 10.3 6.9 15.3 5.8 3-.7 3-.6 2.3 2.1-.9 3.5-.8 79 .1 85l.6 4.1-15.9.6c-12.1.4-21.4 1.4-39.8 4.6-13.2 2.2-24.6 4.1-25.4 4.1-1.1 0-1.3-2.8-.9-16.4.6-18.3-.2-22.1-4.6-23.2-1.4-.3-19.8-.1-40.8.5-21.1.6-55.2 1.1-75.8 1.1-31.4 0-37.9.2-39.6 1.5-2 1.3-2.2 2.6-2.6 20.6l-.5 19.2-3.5 3.3c-4.5 4.1-9.4 5.5-14.9 4.3-6.1-1.4-8.9-3.1-16.7-10.3-9.4-8.6-11.5-9.6-20.6-9.6-9.2 0-11.8-.7-8.4-2.4 1.5-.8 2.4-2.2 2.6-4.3.3-2.6.9-3.4 3.7-4.3 4.5-1.5 10.2-8 11.1-12.5 1.1-6-.2-14.6-3.2-21.9l-2.9-6.9 3.7-3.6c5-5 6.1-10 5.6-24.1-.7-16.5-2.6-21-13.6-31.6l-8.5-8.2-.7-8.9c-1-13-4.6-18.9-14-23.2-6.7-3.1-14.5-2.8-23.7.9-8.9 3.6-9.5 3.6-13.4.7-3.9-2.8-12.9-2.9-20.7-.3-6.2 2.1-12.9 8-13.8 12.2-.5 2.2-1.8 3.5-5.8 5.4-5.9 3-10.9 10.1-12 17.2-.4 2.3-1.2 4.8-1.8 5.5-.5.7-.7 2.4-.4 3.8.6 2.3.3 2.5-2.4 2.5-1.7 0-4.5.7-6.1 1.6l-3 1.5.5 7.7c.3 4.2.8 12.5 1.1 18.4l.6 10.7-6.5 6.1c-7.4 7-15.6 19.2-19.1 28.4-1.3 3.5-3.3 10.9-4.4 16.3C5 179.2 3.2 186 2 189c-1.1 2.9-2 6-1.8 6.9.6 3.1 5.8-10.8 7.9-21 3.8-19.3 11.1-33.3 23-44.3 6-5.5 13.1-10 15-9.4.5.2-2.5 4.5-6.7 9.6s-7.3 9.6-7 10c.4.3 4.8-3.5 9.9-8.6 5.1-5.1 9.6-9.2 10-9.2 2 0-.1 2.9-8.3 11.4-4.9 5.1-8.7 9.6-8.4 9.9.4.3 3.3-1.4 6.5-3.9 7.9-6.1 20.5-11.8 18.4-8.4-.3.5-5 4.1-10.3 7.9-9.8 7-15 11.8-17.1 15.8-2.2 4.2.8 3.3 9.4-3.1 8.2-6.2 14.9-9.5 16.3-8.2.3.4-2.9 3.9-7.1 7.8-9.2 8.3-10.9 11.4-13.2 23.2-2 10.8-2.4 11.7-8.6 18-5.3 5.3-5.9 6.6-3 6.6 2.4 0 12.4-11.8 22.4-26.5 2.2-3.3 6.3-8.7 9-12 5.6-6.7 8.6-12.6 8.7-16.8 0-1.5.7-3.8 1.4-5 1.7-2.6 1-13-2.9-41.2l-2.3-17 2.4-3.8c3.1-4.7 4.8-4.8 2.8-.1-1.2 2.9-1.3 4.3-.4 7 1.9 5.6 4.7 6.8 14.4 6.1 9.1-.6 12.9.5 13.4 4 .4 2.5-3.1 5.3-6.8 5.3-1.4 0-4.7-.7-7.4-1.5s-6-1.5-7.3-1.5c-2 0-2.2.2-1.1 1.9 1.9 3.1 5.3 4.1 13.3 4.1 9 0 9.4 1 3.9 9-3.2 4.6-3.4 5.4-2.1 6.8.8 1 1.8 2.7 2.1 3.9.8 2.5 4.3 3.8 7.5 2.8 2.4-.7 5.1-5.3 5.1-8.7 0-1.3 1.1-4.7 2.5-7.5 1.8-3.9 3.6-6 7.1-8.3 7.7-4.9 17.1-3.7 16.2 2.1-.3 2.7-.7 2.7-11.5 1.4-7.2-.9-8.1.1-3.1 3.7 2.5 1.7 4.6 2.3 8.5 2.2 5.1 0 5.2.1 4.6 2.5-2.7 11.6-8 19-14.9 21.1-3.7 1.1-5.4.9-18.1-2.4-7.7-2-14.5-3.6-15.2-3.6-2.4 0-.9 3.4 3.2 7.5 6.9 7 14.7 8 25.1 3.4 8.9-3.9 10.2-.3 2.4 6.5-5.9 5.1-16.3 10.6-20.2 10.6-5.1 0-10.6-4.3-17.2-13.5-1.2-1.7-2.5-2.6-3.2-2.1-1.7 1 1.8 7.6 6.9 13.1 6.8 7.4 12.8 8.7 33.9 7.2 2.9-.2 3.6.2 3.8 2 .2 1.2-2.9 9.7-6.9 18.8-6.5 15-7.4 16.5-9.3 15.9-4.2-1.3-11.7-5.8-20.8-12.7-5.1-3.8-10.6-7.8-12.3-8.8-3.9-2.5-10.7-2.5-12.8-.1-2.1 2.3-2.2 7.4-.2 11.2 4.9 9.4 20.9 23.7 29.1 26 8.1 2.3 14.6-.6 18.5-8.1 1.7-3.5 2.2-3.9 4.7-3.2 4.8 1.2 12.7.8 17.5-1.1 5.6-2.1 9-5.9 11.2-12.6 1.8-5.4 5.6-9.2 8.3-8.3.9.4 3.8 2.6 6.4 5l4.7 4.3h8.4c9.7 0 12 1.1 21.7 10.5 7.6 7.3 13 9.9 20.6 10 5.1 0 6.8-.4 10-2.8l3.9-2.7.6 18.2c.3 10.1.6 18.4.7 18.5 3 3.1 3.8 3.3 11.8 3.3 5.1 0 9.8.6 11.9 1.4 3 1.3 3.5 2 3.5 4.9 0 2.1-1.4 5.6-3.6 9.3-6 9.8-4.7 15.5 4.6 20.5l3.5 1.8-2.8.1c-4.1 0-13.4 3.6-17.4 6.5-1.8 1.5-4.4 4.2-5.6 6.1-1.2 1.8-3 3.4-4 3.4-3.2 0-8.7 6.4-13.5 15.4-4 7.7-5.3 9.3-9.1 11.3-7.8 4.1-21.2 3-48.3-3.8-13.1-3.3-12.8-3.2-12.8-2.1s21.5 6.7 33 8.7c11.9 2.1 22.5 1.9 27.5-.4 5.6-2.6 8.7-6.3 13-15.4 2.6-5.5 4.7-8.4 6.9-9.8l3.1-1.9.3 2.5c.2 1.4.7 2.5 1.1 2.5 1.7 0 3.3-2.9 2.7-4.8-.5-1.4.7-3.4 3.9-7 5.9-6.5 12.9-9.4 23.5-9.7 4.1-.1 10-.5 13-.9 7.3-1 10.2.3 13.1 5.6 2.3 4 3 4.5 11.1 7.3 10.4 3.6 14.9 6.5 13.1 8.6-1.6 1.9-.1 4.2 2.3 3.7 1.3-.3 1.8-1.1 1.7-2.6-.3-2.8.4-2.8 6.1.4 6.4 3.6 11.1 2.9 17.2-2.3 2.5-2.1 5.8-4.8 7.4-6.1 6.6-5.4 26-9.6 26-5.6 0 .9.6 1.4 1.3 1.1.6-.2 1.2-1.6 1.2-3.1-.1-2 .3-2.5 1.5-2 .8.4 4 .9 7 1.1 3 .2 8.3 1.1 11.6 2 5.9 1.5 11.6 1.1 17.5-1.2 1-.4 2.9.4 4.8 2.1 2.7 2.3 3.1 3.1 2.5 6-.5 2.7-.3 3.4 1 3.4.9 0 1.6-.8 1.6-2 0-4.6 7.8-1.3 18 7.5 8.5 7.4 13.1 9.7 20.6 10.3 12.2.9 24.3-5.7 28-15.3.9-2.5 2-4.2 2.5-3.9.4.2 7.5 2 15.6 3.9 8.1 1.8 16.4 4 18.3 4.8 6.8 2.9 11.7 7.4 14.5 13.2 2.5 5 2.7 6.3 2.2 12.1-.8 8.2-4.7 15.7-10.1 19.3l-3.9 2.6-41.1.5-41.1.5-5 2.8c-5.5 3.1-4.2 3 5-.4 5.9-2.1 6.8-2.1 40.2-1.5 21.4.3 36.2.2 39.5-.4 6.6-1.3 11.5-5.1 14.8-11.6 2.1-4.1 2.5-6.2 2.5-14 0-8.7-.2-9.5-3-13.6-5.9-8.4-13.9-12.1-36.8-17.3l-11.7-2.7.6-4.7c.8-6.2-.7-9.1-4.6-9.1-3.1 0-6 3-6 6.4 0 1 1.6 3.4 3.6 5.3 4.2 3.9 4.1 5.6-.6 12.2-4.3 5.8-11.4 9.1-19.9 9.1-9.2 0-13.4-1.6-20.9-8.2-9.9-8.5-13.6-10.9-18.1-11.5-2.8-.4-4.2-1.1-4.6-2.5-.4-1-1.7-2.6-3.1-3.4-1.7-1.1-2.4-2.6-2.4-4.7 0-1.7-.7-3.8-1.6-4.8-1.5-1.7-1.4-2 1.4-4.4 2.9-2.5 9.2-11 9.2-12.6 0-.4-.6-1.4-1.3-2.1-.8-.8-1.3-4.7-1.4-11.1-.2-8.1-.6-10.4-2.4-13.3-4.3-7-13.2-11.4-23.1-11.4H381v-12.9c0-11.5.2-13 1.8-13.5 4.1-1.3 43.7-7.6 53.7-8.6 6.1-.6 14.4-1 18.5-.8l7.5.3.3 6.2c.3 6.7 2.2 9.3 6.8 9.3 2.9 0 4.2-1.8 5-6.8.6-3.6.3-4.7-1.6-6.7-1.2-1.3-3.5-2.7-5-3-2.6-.6-2.7-.9-3.4-8.2-.8-9.6-.8-77.6 0-82.4.5-3.1 1.1-3.8 4.3-4.8 8.7-2.6 16.7-13.6 17.8-24.6.7-6.9-.7-9.5-5.2-9.5-6.6 0-13.5 10.9-17.2 27.1-1.4 6.3-1.6 6.7-4.6 7.2-6.8.9-12.8-3-18.6-12.3-4.2-6.6-4.6-9.4-1.9-12.4 2.8-3 27.1-18.4 38.6-24.3 7.3-3.8 13.2-5.4 13.2-3.7 0 .3.7 6 1.5 12.7.8 6.7 2.1 21.1 3 32l1.5 19.8-2.4 8.2c-3.4 11.8-4.6 23.6-4.5 45.7 0 21.3.9 26.3 4.6 26.8 4.5.7 4.8-1.5 4.9-43 .2-38.6.2-38.7 2.5-42.5 2.5-4 21.7-24.3 23-24.3.5 0 .1 1.9-.7 4.2-4 11.5-5.7 24-5.7 41.8 0 20.4 1.3 27.7 7.1 41 7.2 16.2 17.4 29 26.2 32.7 4.9 2.1 13 1.1 20.4-2.6l6-3 3.5 2.8c7.2 5.7 12.1 7.5 19.6 7.6 9.2 0 15-3.2 24.9-13.5 17-17.8 25.6-39.7 25.6-65.1 0-8.6-1.9-24-3.6-28.3-.5-1.4.4-1.6 7.8-1.6 14.9 0 31.3-5.6 45.6-15.6 3.6-2.5 11.6-7 17.8-9.9 6.2-2.9 15.3-7.8 20.2-10.8 38.8-24 92.2-39.4 120-34.7 8.6 1.4 21.2 7.3 25.6 11.9 1.6 1.7 2.8 3.2 2.5 3.3-.2.2-3 1.6-6.2 3.2-7.2 3.6-9.9 7.3-10.5 14.3-1.1 12.6 8.6 24.7 18.2 22.9 10.4-2 13.8-18.6 6.7-32.7-2.3-4.5-2.8-6.5-1.9-7 .6-.4 6.6-2.1 13.3-3.8 28.1-7 40.3-13.6 52.5-28.1 6.5-7.8 2.4-5.6-6.5 3.4zM134 36c4.9 1.3 10.9 6.6 13.1 11.4 1.2 2.6 1.9 6.4 1.9 10.4 0 8.6 1.6 11.8 9.4 18.6 11 9.7 15.5 22.6 13.6 39.3-.9 8.2-2 11.1-5.3 14.1-2 1.9-3.1 2.2-6.1 1.7-3.2-.6-3.6-.5-3.6 1.4 0 1.6.6 2.1 2.5 2.1 2 0 3 1 5 5 6.1 12 6.4 22.4.9 29-3.1 3.7-9.6 6.8-10.3 4.9-1.1-3.4-8.7-9.9-15.6-13.3-12-6-14.1-11.6-8.6-23.2 2.7-5.6 2.8-6.6 2.4-15.5-.4-6.7-.1-11.1 1.1-15.5 2.8-10.8 2.3-13.2-4.5-21.1-2.7-3.2-4-6.7-5.4-14.6-.8-4.8-5.8-10.5-11.4-13-3.7-1.6-5.6-1.8-12.7-1.2l-8.2.7-1.5-2.8-1.4-2.7-.7 2.8c-1.1 4.2-3.8 7.6-9 11.3-4.1 3-4.6 3.1-4.6 1.4 0-3.6-3.2-6.4-7.3-6.4-5.3 0-7.9 2.1-11.8 9.5-2.9 5.7-3.5 6.3-5.2 5.3-1.4-.9-1.7-1.8-1.2-4.6 1.5-8.2 9.6-17 15.7-17 2.5 0 2.7-.3 2.2-2.8-1.1-5.3 5.6-11.1 16.1-13.8 7.1-1.9 9.6-1.7 14.9 1.1 6 3.2 6.9 3.1 15.3-.5 7.2-3.1 13.9-3.8 20.3-2zm466.6 1c4.3 1.1 10.3 3.5 13.2 5.3 8.3 4.9 18.3 16.2 23 25.9 5.7 11.9 8.5 19.8 6.9 19.8-2 0-12.2-6.4-18-11.3-8.9-7.6-13.6-9-21.6-6.7-2.6.7-3.9.6-5-.4-5-4.4-13.7-6-16.1-3.1-1.9 2.3.2 6.2 4.5 8.2 3.3 1.6 3.9 1.6 8 .1l4.4-1.7 2.7 3.2c4 4.6 9.3 16.8 11.1 25 1.1 5.3 1.4 10.7 1 20.2-1 25.7-7.2 39.5-25.5 56.7-10.8 10.1-10.3 10.1-16.2 2.1-12.6-17.1-20-40.2-20-62.7 0-5.5.5-17.8 1.2-27.2.9-13.8.9-18-.1-21.4-2.7-9.2-9.3-11.5-16.9-6-2.3 1.7-4.2 2.6-4.2 2.2 0-1.9 10.1-15.1 14.2-18.7 5.5-4.8 14.8-9.2 21.8-10.4 10-1.6 23.1-1.3 31.6.9zm293.5 7.6c4.3 8.6 5 16.2 2.1 22.7-3.6 8.1-8.8 9.5-15.8 4.1-7.1-5.3-9.7-17.7-5.1-24.5 2.1-3.1 11.4-8.8 14.4-8.9.6 0 2.6 3 4.4 6.6zM113.6 60.2c6.3 3.4 9 8.2 10.8 19 .4 2.1 2.3 5.7 4.7 8.5 5.1 6.2 5.5 8.1 3.5 16.8-1.1 4.7-1.7 10.9-1.6 17.6.2 9.4-.1 10.9-2.4 15.3-3.4 6.4-3.5 13-.3 17.7 1.5 2.3 4.6 4.6 9.7 7.1 7.6 3.8 13.5 8.5 14.5 11.8.3 1-.4 3.3-1.8 5.3l-2.3 3.4-2.3-2.3c-5.4-5.6-10.8-3.9-14.6 4.5-5.8 12.7-8.5 14.6-20.7 14.6-4.2 0-7.9-.3-8.2-.6-.4-.3 2.3-7.2 5.9-15.3 10.6-24 10.2-26.7-4-24.7-4.6.6-9.6.9-11 .5-2.4-.6-2.2-.8 2.9-2.9 5.9-2.4 13.4-7.5 17.9-12.3 2.1-2.2 2.8-3.8 2.6-6-.3-2.3.3-3.5 2.7-5.5 3.8-3.2 9.2-14.7 9.8-20.9.2-2.5.9-5.6 1.6-6.7.8-1.6.7-2.8-.4-5-1.8-3.4-3.3-4.1-9-4.1-9.6 0-18.8 8.8-20.2 19.2-.8 5.5-3.2 8.8-6.4 8.8-1.1 0-2.3-.8-2.6-1.8-.3-.9-1-2.7-1.6-3.9-.9-1.7-.5-2.8 1.8-5.8 1.9-2.6 2.9-5.1 3-7.9.1-2.2.8-5.3 1.5-6.9 2.9-6.4-3.3-10.4-13.9-8.7-4.6.8-6.3.7-9.2-.8-8.1-3.9-5.9-11.1 6.1-20.3 4.3-3.2 8-6.7 8.3-7.6.5-1.6 1.9-1.8 11.3-1.8 8.2 0 11.6.5 13.9 1.7zm370.2 2c3 3-.3 15.3-5.8 22-2.7 3.3-11.5 8.6-12.5 7.6-.8-.7 3.5-14.8 6.1-20.4 2.5-5.2 7.3-10.4 9.8-10.4.6 0 1.7.5 2.4 1.2zm65.7 2.2c3.6 3.6 4 8.4 2.2 31.1-1.2 15.4-1.4 23.5-.7 30.3 2.2 22.2 9.9 43 21.1 57.2 2.1 2.7 3.9 5.2 3.9 5.5 0 .3-2.6 1.8-5.7 3.3-8.2 3.8-15.6 3.7-21.2-.2-11.8-8.2-24.1-30.8-27-49.5-2.8-18-.8-44.2 4.6-61.6 2.7-8.5 6.7-13.5 13.6-16.9 4.4-2.2 6.4-2 9.2.8zm-477.7-.2c2.3 2.3.8 7.8-2.1 7.8-.4 0-.6-.4-.3-.9 1.1-1.6-.6-4.1-2.6-4.1-1.8 0-2 .5-1.5 3.4 1 6.5-5.6 12.6-13.7 12.6-1.8 0-1.7-.3.6-2.8 1.4-1.5 4-5.5 5.7-8.9 1.7-3.4 3.9-6.6 4.8-7.2 2.5-1.4 7.6-1.4 9.1.1zm522.5 5 4.2 2.1-3.3 1.4c-3.9 1.6-7.7.8-9.7-2-2.9-4.2 1.9-5.1 8.8-1.5zm21 3.2c1.8.7 7.2 4.6 12.2 8.5 5.1 4 11 7.8 13.7 8.7 4.4 1.4 4.7 1.8 5.7 6.2 4.2 19.7 4.1 36.7-.3 51.5-6.2 20.8-21.1 41.8-34.6 48.7-8.2 4.2-20.5 2.1-29-4.9l-2.5-2.1 4.5-3.7c16.8-14 26.8-29.5 30.5-47.5 2-9.1 1.9-30.4 0-38.5-1.8-7.5-6.3-17.9-9.9-22.6-3.2-4.2-3.2-4.5.2-5 5.2-.8 6.3-.7 9.5.7zM48.5 79c.3.5.1 1-.4 1-.6 0-1.1-.5-1.1-1 0-.6.2-1 .4-1 .3 0 .8.4 1.1 1zm10.7 13c.4 3 1.7 13.4 2.8 23 1.2 9.6 2.4 18.5 2.7 19.7.5 2.4-1.2 3.7-6.7 4.7l-3.5.7 4.3-3.6c7.6-6.5 4.1-9.9-5.6-5.5l-4.3 2 3-3.9c1.7-2.1 3.1-4.9 3.1-6.1 0-1.9-.4-2.2-3-1.8-1.9.3-3.1 0-3.5-1-.4-1-1.4-1.3-3.6-.8-2.2.4-2.9.2-2.5-.7.3-.6 1.3-3.8 2.3-6.9 1.5-4.8 2.2-5.8 4.3-6 2.1-.3 2.5-.8 2.5-3.7 0-4.1-2.5-6.2-5.4-4.4-1.6 1-2.2.6-4.9-3.1-1.7-2.4-3.2-4.9-3.4-5.7-.4-1.8 4.7-2.7 13.7-2.5l7 .1.7 5.5zm-17.9 6.2c3.4 5 3.6 5.5 2.6 9.6-.5 2.4-1.9 6.3-3.2 8.5l-2.2 4.2-.6-6c-.8-6.7-1.1-21.5-.5-21.5.2 0 2 2.4 3.9 5.2zm8.2 2.9c.8 2.3.1 3.4-1.4 2.4-1.3-.8-1.5-4.5-.2-4.5.5 0 1.3.9 1.6 2.1zm74 6.9c.7 1.2-2.2 1.2-5 0-1.7-.7-1.5-.9 1.2-.9 1.7-.1 3.5.3 3.8.9zm374.3 41c-.3 20.3-.8 30.4-1.7 32.5-1.2 2.9-1.3 2.9-2.4 1-1.6-2.8-2.2-34.8-.8-47.3 3.3-30.8 5.4-24.9 4.9 13.8zM93.3 133.6c5.6 1.4 10.6 2.9 11 3.3 1 1-4.6 3.1-8.2 3.1-3.6-.1-10.1-3.2-13-6.4-3-3.2-2.4-3.2 10.2 0zm-28.6 11.5c-.7 5-4.9 11.5-20.6 31.8l-4.3 5.6.7-5c1.7-12.5 2.2-13.4 12.3-23.2 6.2-6 9.3-9.6 8.9-10.6-.7-1.8.1-2.7 2.1-2.7 1.1 0 1.3.9.9 4.1zM52 143.7c-.8.3-4.4 2.6-8 5.1-3.8 2.7-5.7 3.6-4.5 2.2 3.2-3.7 9.6-8 11.9-7.9 1.5 0 1.6.2.6.6zm293.3 15c-.7.2-1.9.2-2.5 0-.7-.3-.2-.5 1.2-.5s1.9.2 1.3.5zm33.1 1.5c1.1 1.5 1.5 4.2 1.4 8.3l-.1 6-.6-6.1c-.4-4-1.3-6.9-2.5-8.3-1.1-1.2-1.4-2.1-.8-2.1.6 0 1.8 1 2.6 2.2zm-54.6-.5c-3.8.2-9.8.2-13.5 0-3.8-.2-.7-.3 6.7-.3s10.5.1 6.8.3zm-101.4 2.4c-1.7 1.8-2 4.3-2.4 18.8l-.6 16.6-.2-17.2c-.2-14.4 0-17.4 1.4-18.7 2.3-2.4 4-1.9 1.8.5zm20.9-1.4c-1.3.2-3.3.2-4.5 0-1.3-.2-.3-.4 2.2-.4s3.5.2 2.3.4zm132.6.7c.9 1.1 1.2 9.7 1 31.9-.1 16.8.1 31 .5 31.6.4.7-.4 1.5-2.1 2.2-4 1.5-10.1 7.7-11.3 11.5-1 2.9-1.3 3.1-3.3 2.1-1.6-.8-11.2-1.2-31.5-1.2h-29.1l.5-2.2c.4-1.5 0-2.6-1.5-3.5-1.2-.7-2.1-2.3-2.1-3.6 0-1.3-1.2-3.4-2.6-4.9-2.3-2.3-3-2.5-8.2-1.9-3.1.4-6.8.7-8.2.6-1.4 0-4.8-.1-7.6-.2-4.3-.2-6.1.4-10.9 3.3-3.1 1.8-7 5-8.7 6.9-6.8 8-5.8 7.6-14.9 7.4-9.6-.1-12.4-.8-13.5-3.2-.5-.9-1-17.2-1.1-36.2-.3-27-.1-35 .9-37l1.4-2.5 62.4-1.1c94.9-1.6 88.6-1.6 89.9 0zM62.1 177.1c1.1.5 6.8 4.7 12.7 9.1 5.9 4.4 13.5 9.4 17 11.1 3.4 1.7 6.2 3.6 6.2 4.2 0 1.9-3.9 7.4-6.2 8.6-3.4 1.8-10 1.4-14.7-1-5.2-2.7-18.1-14.8-22.1-20.9-3.4-5.1-3.9-9.6-1.2-11.1 2.2-1.4 5.8-1.4 8.3 0zm91.9 3.8c0 .6-.4 1.3-1 1.6-.5.3-1-.1-1-.9 0-.9.5-1.6 1-1.6.6 0 1 .4 1 .9zm316.8 11.3c2.2 1.8 1.3 10.8-1.1 10.8-2.7 0-4.7-3.4-4.7-8.2 0-4.7.1-4.9 2.3-4.2 1.2.3 2.8 1.1 3.5 1.6zm-92.1 29.5c-.3 1-.5.4-.5-1.2 0-1.7.2-2.4.5-1.8.2.7.2 2.1 0 3zm-155.8 19.4c1.3 1 1.8 1.9 1.2 1.9-.6 0-2-.9-3.1-2-1.7-1.7-2-3.2-1.8-9.8l.1-7.7.6 7.8c.5 6.7 1 8.2 3 9.8zm69.6-14.9c2.3 1.8 2.6 2.6 2.2 5.5-.5 2.7-.3 3.4.8 2.9.7-.2 1.9.1 2.5.9 1.3 1.5.2 4.2-2.5 6.5-2.4 2-5.2 8.7-7 16.8-.9 4-1.9 7.2-2.2 7.2-.3 0-1.6-1.2-2.9-2.6-1.8-1.9-3-2.4-4.7-1.8-3.8 1.2-4.8 4.2-2.2 6.4.8.7 1.5 2 1.5 2.9 0 2.2-4.6 6.6-8.3 8-3.5 1.4-11.4 1.4-12.2.1-.3-.5-2.5-.7-4.9-.4-10.6 1.5-17.1-8.6-10.7-16.7 5.1-6.7 6.4-12.7 3.4-16.2-1-1.1-1.3-1.7-.6-1.4.7.4 2.1-1 3.7-3.7 3.2-5.5 8.6-10.2 15-13.2 5.6-2.6 8.7-3 11.7-1.4 1.5.8 1.7 1.5.9 2.9-.5 1-.6 2.1-.3 2.5 1.4 1.4 3.2.4 4.1-2.4.8-2 1.9-3.1 3.9-3.6 1.5-.3 3.3-.7 3.8-.9 1.9-.6 2.2-.5 5 1.7zm106.8 3.8c7.6 3.6 10.1 8.2 10.5 19.4.4 8.7.3 9.2-2.2 11.5-1.4 1.4-2.6 3.5-2.6 4.9 0 2.1.4 2.4 2.6 1.9 2.4-.4 2.3-.1-2 4.1-4 4.1-5.2 4.7-10.3 5.3-3.2.4-8.1 1-11 1.4-7 1-9.7-.7-11.7-7.6-1.7-5.6-3.3-8.2-4.7-7.3-.5.3-.9 1.3-.9 2.4 0 1.5-.4 1.4-3-1-1.6-1.5-3-3.5-3-4.4 0-2.7 1.5-1.8 2.8 1.6.9 2.6 1.4 3 2.4 2s.9-1.9-.5-4.3c-2.2-3.9-2.3-15.5-.2-20.6 2.2-5.2 4.2-7.2 10-10 6.4-3.1 16.5-2.8 23.8.7zm-38.8 12c.4.6-10.4 1-29.4 1-16.4 0-30.8.3-31.8.6-1.6.5-1.6.4.1-1 1.7-1.4 6-1.6 31.3-1.6 17.6.1 29.5.5 29.8 1zm-15.9 3h18.3l-.6 5.7c-.4 3.2-1.2 6.4-2 7.1-2 2-1.6 4 1.3 6.9 1.4 1.4 3.7 5.2 5.1 8.4l2.6 5.9-2.7 2.1c-1.5 1.2-3.1 3.2-3.6 4.4-.7 1.8-1.9 2.3-6.8 2.8-9.3 1-19.6 5.3-25.5 10.7-8.5 7.7-12.4 8.7-18.4 5-4.2-2.5-4.3-3.3-.3-1.3 3.8 1.8 8 1 8-1.6 0-2-1.9-3.1-5.3-3.1-1.9 0-1.8-.2.9-1.9 4.2-2.6 6.8-9.1 5.9-15-1.2-8.1-6.4-15.6-8.4-12.2-.4.6-1.5.9-2.4.5-1.6-.6-4.7 1.6-4.7 3.3 0 .5-.9 2.6-2 4.7-3.1 6.1-3.4 11.4-1.2 17.9 1 3.1 1.7 5.7 1.5 5.7-.2 0-2.1-1.1-4.1-2.5-2-1.4-6.2-3.3-9.2-4.1-12.5-3.5-13.8-5.3-6.4-8.9 2.3-1.1 4.9-2.7 5.9-3.5 2.8-2.3 5.5-9 5.5-13.8 0-2.3.5-4.2 1-4.2 2.4 0 3.2-4.6 1.7-10.3-1.1-4.2-1.2-6-.3-7.1 1.4-1.9 7.4-2.5 19-2 4.9.2 17.1.4 27.2.4zm-50.3 11c-.8 5.8-1.4 12-1.3 13.8.2 5.8-.8 7.1-8.2 10.6-6.7 3.2-7.2 3.3-9.7 1.8l-2.7-1.5 4.3-4.3c4.6-4.7 5.5-7.9 2.3-8.7-2.4-.6-2.7-3.5-.4-4.4 1-.4 2.6.6 4.5 2.7 1.8 2 3.4 2.9 3.9 2.4s1.9-4.7 3.1-9.4c1.9-7.8 4.6-14.7 5.4-13.8.2.1-.3 5-1.2 10.8zm2.9 5.2c-.9 2-1.1 1.8-1.1-2.2s.2-4.2 1.1-2.3c.8 1.7.8 2.9 0 4.5zm110.9 3.5c-.8 1.5-1 1.5-1.1.2 0-1.7 1-3.2 1.8-2.5.2.3-.1 1.3-.7 2.3zm3 .6c-.8.8-1.1.7-1.1-.4 0-2 1.3-3.4 1.8-1.9.3.7-.1 1.7-.7 2.3zm-37.5 12.8c1.1 1.2 1.3 1.9.5 1.9-1.6 0-5.1-7.8-5-11 .1-1.6.5-.8 1.4 2.3.7 2.7 2.1 5.7 3.1 6.8zm-54.6-.3c2.9 10.6-1.7 18.2-11.1 18.2-1.8 0-3.2-.6-3.6-1.6-.9-2.3-.9-9.4 0-12.7 1.2-4.5 2.7-3 2.7 2.8 0 5.6.8 6.7 3 4 1.3-1.6.7-6.4-1.5-12-.7-1.6-.6-1.8.6-.8 2 2 3.2 1.5 2.6-1-.6-2.1-.5-2.1 1.5.3l2.1 2.5-.7-4-.6-4 2 2.3c1.1 1.3 2.4 4 3 6zm83.6 4.7c.8 1.3 1.4 2.8 1.1 3.2-.6 1-25.2.8-32.4-.2-2.9-.4-5.3-1.1-5.3-1.6 0-1.9 3.8-2.6 12.8-2.2 5.4.3 11.5 0 13.7-.5 6.5-1.6 8.3-1.4 10.1 1.3zm-114.1-.6c-1.2 1-7.5 3.2-7.5 2.5 0-.6 6-3.3 7.5-3.4.5 0 .5.3 0 .9zm190.3 2.3c1.4 1.4 1.6 9.4.2 10.3-1.4.9-6-4-6-6.4 0-1.9 2.4-5.1 3.9-5.1.4 0 1.2.5 1.9 1.2zm-108.1 2.4c-.3.3-1.2.4-1.9.1-.8-.3-.5-.6.6-.6 1.1-.1 1.7.2 1.3.5zm27.8 2.4c-1.1.5-4.2.9-7 .9-2.7 0-5.9-.4-7-.9-1.3-.6 1.1-.9 7-.9s8.3.3 7 .9zM318 301c0 1.3-3 1.3-5 0-1.1-.7-.7-1 1.8-1 1.7 0 3.2.4 3.2 1z"/><path d="M241.7 182.1c-2.9 2.8-4.3 4.6-3.1 4 1.1-.5 2.7-1.7 3.4-2.6 2-2.4 6.5-4.5 9.8-4.5 6.3 0 6.8 4.9 1.5 13.8-4.4 7.2-17.8 22.2-19.8 22.2-1.7 0-2.8 1.7-2 3.1.5.7 1.4.5 2.9-.4 4.9-3.2 22.4-4.9 26.8-2.6 2.7 1.5 3.8.1 1.3-1.8-1.5-1.1-4.2-1.4-11.6-1.1l-9.6.4 5.9-6.9c6.9-8 10-12.8 11.7-17.9 2.2-6.8-.6-10.8-7.5-10.8-4.1 0-5.1.5-9.7 5.1zm44.7-2.4c-2 6.3-4.4 8.6-4.4 4.3 0-3.1-2.7-3.6-5-.9-1.9 2.2-2.1 2.3-3 .6-1.3-2-3.6-2.3-4.3-.5-.3.7-.6.2-.7-1.2l-.1-2.5-1 2.3c-1.4 3.6-2.3 20.1-1 18.2.6-.8 1.1-2.5 1.1-3.7 0-3.1 1-5.3 2.4-5.3.7 0 1.8-1.1 2.4-2.5 1.2-2.5 3.6-3.3 4.7-1.5.3.6 1.6.8 2.8.5 1.2-.3 3.9-.7 6-.9 3.6-.2 3.7-.1 3.7 3.2 0 2.6.4 3.3 1.7 3 1.8-.3 7.1-8.8 5.6-8.8-.5 0-1.7 1.6-2.6 3.5-2.2 4.7-3.7 4.4-3.7-.6 0-3.6-.2-4-1.5-2.9-2.1 1.7-2.9.7-1.6-1.8.6-1.2 1.1-2.5 1.1-3.1 0-1.8-2-1.2-2.6.6zm-14.4 5.8c0 .8-.4 1.5-1 1.5-.5 0-.7-.7-.4-1.5.4-.8.8-1.5 1-1.5.2 0 .4.7.4 1.5z"/><path d="M308.4 193.5c-.9 1.4-2.3 2.5-3 2.5-.8 0-1.4.7-1.4 1.5 0 2.5-4.6 6.5-7.5 6.5-2.8 0-3.5-2.7-1-3.6.8-.4 1.5-1.2 1.5-2 0-1.9-2.9-1.8-3.6.1-.6 1.4-8.2 6.5-9.8 6.5-.3 0-1.1-1.2-1.6-2.6-1.3-3.4.4-6.7 3.1-5.9 1.3.4 1.9.2 1.9-.9 0-2.7-4.7-1.9-6.6 1-1.5 2.2-1.6 3.1-.5 6.1 1.3 3.4 1.2 3.5-2.8 7-4.2 3.5-5 6-2.9 8.1 2 2 5.8 1.3 8.4-1.5 2-2.2 2.5-3.5 2.1-6-.5-2.8-.2-3.5 2.9-5.4 3.2-2 3.6-2 5.3-.5 2.2 2 5 2 7.9 0 1.2-.8 2.2-1 2.2-.5 0 .6.6 1.1 1.4 1.1.7 0 2.3-2.4 3.4-5.3 1.9-4.8 2.1-5 2.1-2 .1 4.5 1.9 5 3.6 1.1l1.4-3.3.1 3.3c0 3.7 1.8 4.9 5 3.2 1.5-.8 2.5-.8 3.4-.1 1 .8 1.6.8 2.5-.2 1.1-1.4 6.9-1.6 8.9-.3.7.4 2-1.1 3.4-3.6l2.2-4.3.6 3c.5 2.6.9 3 4 3 1.9 0 4 .3 4.6.7.7.4 1.7.1 2.4-.7.8-.9 2.2-1.2 4.3-.8 3.2.5 3.2.5 1-1.1-1.3-1-2.3-2.6-2.3-3.7 0-2.8-2.3-2.3-5.4 1.2-3.4 3.8-7 3.7-7.4-.4-.3-2.7-1.6-3.5-2.7-1.7-.3.5-1.2.7-1.9.4-.9-.3-2 .6-2.8 2.3-1.6 3.5-5.2 3.8-5.6.5-.5-3.1-1.8-2.8-6.4 1.4-4.2 3.7-6.1 4-6.6.8-.7-4.4-1.3-5-2.7-3-1.3 1.7-1.5 1.7-2.1.3-.3-.9-.3-2 0-2.6 1.4-2.3-1.5-1.9-3 .4zM283 210.9c0 2-.9 3.6-2.7 5.1-5.3 4.2-7.5-.8-2.2-5.2 4.2-3.5 4.9-3.5 4.9.1zM1074.7 5.2c2.1 7.7 1.2 20.4-2.1 30.3-1.5 4.4-6.7 15.2-11.5 24-15.4 28.1-21.1 44.3-21.1 59.7 0 8.5 2.7 17.5 6.2 21 1.8 1.8 3 2 10.3 1.6 11.7-.6 19.3-4.5 30.1-15.2 13.1-13.1 18.5-26.8 24.3-61.5 1.6-9.4 3.4-17.7 4.1-18.6 1.2-1.4 9.7-6.5 10.9-6.5.3 0 .7 3.3.8 7.3.2 7 2.3 20.5 3.8 23.9.5 1.3-.4 2.3-3.5 4.3s-4 3.1-3.8 4.8c.4 3.1 3.9 3.3 6.6.4 1.3-1.3 3.8-6.6 5.6-11.8 3.9-11 5.7-15.1 6.5-14.7.3.2 2.3 1 4.4 1.8 4.6 1.8 4.7 2.7.2 14.5-1.9 5.1-4.6 14.6-6 21.2-3.2 15-5.9 22.1-8.8 22.5-1.4.2-2.3 1.1-2.5 2.7-.3 2.2-.1 2.3 2.6 1.8 2.9-.6 3.1-.4 5.8 6.1 1.5 3.7 3.9 10.5 5.4 15.2l2.7 8.5 3.4-.2c1.8-.1 3.5-.6 3.7-1.1.1-.5 1.3-.7 2.6-.5 2.5.5 21-2.9 53.5-9.8 13.2-2.8 20.7-3.9 27-3.9 12 0 37.9-5 41.7-8.1.6-.5 2.5.2 4.8 1.9 3.1 2.2 3.5 2.8 2 3-5.6.8-6.5 1.3-6.2 3.2.2 1 4.5 5.7 9.6 10.4 7.6 7 10.4 8.9 14.8 10.2 6.4 1.8 13.5 1.2 20.2-1.6 7.4-3.3 5.2-7.2-5.8-10.4-3-.8-8.7-3.5-12.5-6-3.9-2.4-11.5-6.8-16.9-9.8-7.5-4-11.1-6.7-14.9-11l-4.9-5.7 2-2.1 2-2.1 7.8 4.8c4.4 2.7 11.1 6.7 14.9 8.8 3.9 2.1 8.9 5.1 11.3 6.8 2.4 1.6 4.6 2.6 5 2.2 1.4-1.4-8-8.2-20.6-15-7-3.7-13.9-7.7-15.4-8.8l-2.7-2 2.1-2.8c2.1-2.8 2.1-2.8 4.7-1 2.7 1.9 31.7 16.1 32.8 16.1.4 0-.6-1.4-2.3-3.1-1.6-1.7-9-6.2-16.4-9.9-7.9-4-12.6-6.9-11.2-6.9 1.2-.1 2.2-.6 2.2-1.2 0-3 11.6 2 27 11.6 5.7 3.6 11 6.5 11.7 6.5 3 0 .8-2.1-5.9-5.7-10.9-5.9-15.9-9.3-15.3-10.3.9-1.5 6.9.8 19.7 7.5 15.6 8 24.8 10.9 34.8 10.8 9.8-.1 16.5-2.7 25.4-9.8 5.9-4.7 7.6-5.5 11.1-5.5 6.5 0 15.5 7.5 20.7 17.3 2 3.6 2.3 5.7 2.3 14.2 0 10.7-1.4 15.4-7.2 23.8-2.9 4.2-2.2 6.6.8 2.7 6.5-8.3 10.3-22.4 8.8-32.1-2.7-17.2-20.5-32.5-31.1-26.8-1.2.6-4.4 3-7.2 5.3-7.9 6.4-14.7 9-23.6 9-10 0-16.6-2.1-34.2-11-11-5.5-15.8-7.4-18.8-7.4-3.5 0-4-.3-4.6-2.8-3.2-14.1-13.9-54.9-18.5-70.5-1.9-6.5-2.1-6.8-5.2-6.7-1.8 0-5.1-.3-7.4-.6-11.1-1.6-54.1 8.7-60.6 14.5-2.8 2.6-3.3 2.7-5.3 1.5-3.8-2.6-11.3-2.7-24.1-.5-9.2 1.6-12.8 1.8-14.5 1-1.9-.8-5.4-.3-16.8 2.5-15.5 3.8-29.4 9.7-32.8 14-1.2 1.6-2.3 5.7-3.1 12.2-5.8 44.8-17.7 68.2-40 78.7-4.6 2.2-8.4 3.1-13.6 3.5-6.5.4-7.4.2-9.3-1.8-6.3-6.8-6.9-24.1-1.3-41 2.9-9.1 5.7-14.8 21.8-46.1 7.8-15.1 10.3-23.7 10.2-34.6-.1-7.6-1.8-15.5-3.5-16-.8-.3-.7 1.3.3 4.9zm196.7 11.1c.9 1.2 2.2 5.4 3 9.3.8 3.8 3.3 13.7 5.6 22 5.1 18.5 10 38.3 10 40.6 0 1.4-.4 1.5-2.9.7-4.6-1.6-9.4-.8-10.6 1.8-.7 1.8-1.8 2.3-4.5 2.3-4.3 0-6 1.5-6 5 0 1.5-.9 3.1-2.1 3.8-3.2 2-1.8 6.5 4.2 13.4 2.8 3.3 5 6.1 4.8 6.3-.2.2-4.7 1.5-9.9 2.9-13.7 3.6-27.8 5.9-32.7 5.1-4.8-.7-4.7-.4-7.8-16.5-.9-4.7-4.8-23.3-8.7-41.3-3.8-18.1-6.7-33.1-6.4-33.4.2-.3 0-1.7-.5-3.1-1.6-4.2-.3-6.8 4.3-9 10.5-4.8 41.5-12 53-12.1 4.9-.1 6 .2 7.2 2.2zm-70.4 16c2.2 1.1 2.8 2.7 5.3 14.2 8.2 37.7 17.6 83.9 17.2 84.5-.3.4-1.7 1-3.2 1.3-37.3 7.9-61.2 12.7-62.9 12.7-1.2 0-2.7-.6-3.3-1.4-.7-.8-2.8-11.1-4.7-22.8-2.5-15.5-4-22-5.5-24-1.9-2.7-1.9-3-.3-10 .9-4 3.1-11.2 5-16 3.9-10 5.3-19 3.4-21.3-.7-.8-2.7-1.5-4.4-1.5-3.9 0-7.7 3.6-10.4 9.9l-1.8 4.5-1.2-8.5c-.7-4.6-1.5-9.4-1.8-10.5-.5-1.8 0-2.2 2.3-2.6 1.5-.3 11.1-2.4 21.3-4.7 26.9-6.1 38.1-7.1 45-3.8zm-45-.3c-3.4 1.1-6 1.1-3.5 0 1.1-.5 2.9-.8 4-.8 1.6 0 1.5.2-.5.8zm-7.3 1.6c-.3.3-1.2.4-1.9.1-.8-.3-.5-.6.6-.6 1.1-.1 1.7.2 1.3.5zM1143 35c-1.4.4-3.4.8-4.5.8-1.6 0-1.5-.2.5-.8 1.4-.4 3.4-.8 4.5-.8 1.6 0 1.5.2-.5.8zm6.7 17.5c.3.9.3 1.8.1 2.1-.9.9-5.9-1.6-5.3-2.6 1-1.6 4.5-1.2 5.2.5zm-20.3 25.9c-.6 1.6-2.4 2.3-2.4.8 0-1 2.2-3.3 2.7-2.8.2.2.1 1.1-.3 2zM1273 96.5c0 1.6-2.7 3.2-3.7 2.2-.3-.4-.3-1.3 0-2.2.8-2 3.7-2 3.7 0zm-132.5 22c.8 5.4 1.5 10.1 1.5 10.4-.1.3-1.2-2.1-2.6-5.4-1.4-3.3-2.9-6.4-3.4-6.8-.7-.8 1.9-9.1 2.7-8.3.2.2 1 4.7 1.8 10.1zM1271 125c-.8.5-2.2.9-3 .9-1 0-.8-.3.5-.9 2.7-1.2 4.3-1.2 2.5 0zm28.8 11.5c6.8 3.1 11.2 7.1 11.2 10 0 2.4 1.7 4.5 3.7 4.5 1.6 0 1.7-3.4.3-6.1-1.3-2.3-1.6-2.3 4.8-.4 2.9.9 5.2 2.2 5.2 2.9 0 2.2-7.9 4.8-14.5 4.9-7.4 0-12-1.9-17.9-7.3-3.9-3.6-4.3-4.4-3.3-6 .9-1.5.7-2.3-.8-4.1l-2-2.2 3.8.6c2.1.3 6.3 1.8 9.5 3.2zm-13.8-1c2 2.4.5 2.8-2.1.6-1.9-1.6-2-2-.8-2.1.9 0 2.2.7 2.9 1.5z"/></g></svg>
